<?xml version="1.0" encoding="UTF-8"?> <svg xmlns="http://www.w3.org/2000/svg" xmlns:xlink="http://www.w3.org/1999/xlink" viewBox="0 0 582.19 184.6"><defs><linearGradient id="New_Gradient_Swatch_3" data-name="New Gradient Swatch 3" x1="29.6" y1="73.7" x2="0" y2="73.7" gradientUnits="userSpaceOnUse"><stop offset="0" stop-color="#0f0c29"></stop><stop offset="0.5" stop-color="#302b63"></stop><stop offset="1" stop-color="#24243e"></stop></linearGradient><linearGradient id="New_Gradient_Swatch_3-2" x1="139.79" y1="92.9" x2="39.6" y2="92.9" xlink:href="#New_Gradient_Swatch_3"></linearGradient><linearGradient id="New_Gradient_Swatch_3-3" x1="230.99" y1="92.32" x2="145.79" y2="92.32" xlink:href="#New_Gradient_Swatch_3"></linearGradient><linearGradient id="New_Gradient_Swatch_3-4" x1="287.19" y1="73.6" x2="236.99" y2="73.6" xlink:href="#New_Gradient_Swatch_3"></linearGradient><linearGradient id="New_Gradient_Swatch_3-5" x1="322.79" y1="73.7" x2="293.19" y2="73.7" xlink:href="#New_Gradient_Swatch_3"></linearGradient><linearGradient id="New_Gradient_Swatch_3-6" x1="437.19" y1="111.6" x2="328.79" y2="111.6" xlink:href="#New_Gradient_Swatch_3"></linearGradient><linearGradient id="New_Gradient_Swatch_3-7" x1="551.59" y1="92.8" x2="443.19" y2="92.8" xlink:href="#New_Gradient_Swatch_3"></linearGradient><linearGradient id="New_Gradient_Swatch_3-8" x1="582.19" y1="132.7" x2="552.59" y2="132.7" xlink:href="#New_Gradient_Swatch_3"></linearGradient></defs><title>Asset 3</title><g id="Layer_2" data-name="Layer 2"><g id="Layer_1-2" data-name="Layer 1"><g><path d="M0,14.6A14,14,0,0,1,4.3,4.3,14.28,14.28,0,0,1,14.8,0,14.28,14.28,0,0,1,25.3,4.3a14,14,0,0,1,4.3,10.3,14.28,14.28,0,0,1-4.3,10.5,14.28,14.28,0,0,1-10.5,4.3A14.28,14.28,0,0,1,4.3,25.1,14.28,14.28,0,0,1,0,14.6ZM2.2,147.4V38.8H28.4V147.4Z" fill="url(#New_Gradient_Swatch_3)"></path><path d="M109,68.1a29.21,29.21,0,0,0-19.4-6.7Q78,61.4,70,68.1T62,86.4V147H39.6V86.4a45.57,45.57,0,0,1,6.9-24.9A46.71,46.71,0,0,1,65.2,44.6a53.79,53.79,0,0,1,24.4-5.8,52.71,52.71,0,0,1,24.59,5.9,49.77,49.77,0,0,1,18.6,16.5,46.55,46.55,0,0,1,7,25.2l-.4,60.6H117V86.4Q117,74.81,109,68.1Z" fill="url(#New_Gradient_Swatch_3-2)"></path><path d="M199.19,122.5a9.85,9.85,0,0,0,6-6.7,12.28,12.28,0,0,0,.4-3c0-2.67-1.66-4.8-5-6.4q-1.59-1-14-4l-6.6-1.6q-15.39-4.39-22.3-8.2a22.44,22.44,0,0,1-9.9-10.2,18.66,18.66,0,0,1-2-8.8,28.38,28.38,0,0,1,1.4-9q3-9.4,7.4-14.8a25.86,25.86,0,0,1,12-8q7.2-2.59,20.2-2.6A245.69,245.69,0,0,1,223,42.4l-8.4,19.4-28.4-2.6q-12.8-.2-15.2,7l-.4,2.2c0,2.4,1.94,4.4,5.8,6q1.8,1.2,17.2,5.2Q211,84,219,88q7.6,4.4,10.6,11a20.22,20.22,0,0,1,1.4,8.4,36.46,36.46,0,0,1-1.6,10.4,34.63,34.63,0,0,1-17.1,21.1q-12.9,7.09-33.5,6.5l-31-3.2,10.4-20.6,26.6,2.8Q194.39,124.6,199.19,122.5Z" fill="url(#New_Gradient_Swatch_3-3)"></path><path d="M263.19.6V33.2h24L281,56.4h-17.8v90.2H237V.6Z" fill="url(#New_Gradient_Swatch_3-4)"></path><path d="M293.19,14.6a14,14,0,0,1,4.3-10.3,15,15,0,0,1,21,0,14,14,0,0,1,4.3,10.3,14.28,14.28,0,0,1-4.3,10.5,15,15,0,0,1-21,0A14.28,14.28,0,0,1,293.19,14.6Zm2.2,132.8V38.8h26.2V147.4Z" fill="url(#New_Gradient_Swatch_3-5)"></path><path d="M336.19,120.2a51.47,51.47,0,0,1-7.4-27.2A53.37,53.37,0,0,1,336,65.9,54.44,54.44,0,0,1,355.59,46a51.45,51.45,0,0,1,27.2-7.4,53.37,53.37,0,0,1,27.1,7.2,54.44,54.44,0,0,1,19.9,19.6,51.45,51.45,0,0,1,7.4,27.2,53.4,53.4,0,0,1-7.2,27.1,54.52,54.52,0,0,1-19.6,19.9,51.45,51.45,0,0,1-27.2,7.4,53.37,53.37,0,0,1-27.1-7.2A54.52,54.52,0,0,1,336.19,120.2Zm74.2-11.8a32.27,32.27,0,0,0,4.2-15.8,30.39,30.39,0,0,0-4.3-15.7,32,32,0,0,0-27.5-15.7,30.39,30.39,0,0,0-15.7,4.3A32,32,0,0,0,351.39,93a30.39,30.39,0,0,0,4.3,15.7,31.34,31.34,0,0,0,11.7,11.5,32.24,32.24,0,0,0,15.8,4.2,30.48,30.48,0,0,0,15.7-4.3A31.27,31.27,0,0,0,410.39,108.4Zm23.4,29.6a47.56,47.56,0,0,1-6.2,23.9,42.91,42.91,0,0,1-17.4,16.9,48.41,48.41,0,0,1-22.4,5.8,47.55,47.55,0,0,1-19.6-4.2,46.26,46.26,0,0,1-16.2-12l17.8-9.8a28.28,28.28,0,0,0,18,6.6,25.82,25.82,0,0,0,12.7-3.4,22.73,22.73,0,0,0,9.1-8.8,22.12,22.12,0,0,0,3-11.6,31.67,31.67,0,0,0-3-13.2l17.6-15.2,1.2,2.2A51.12,51.12,0,0,1,433.79,138Z" fill="url(#New_Gradient_Swatch_3-6)"></path><path d="M450.59,119.8a51.07,51.07,0,0,1-7.4-27,52.77,52.77,0,0,1,7.3-27.1,54.72,54.72,0,0,1,19.9-19.9,53.9,53.9,0,0,1,54,.1,55.07,55.07,0,0,1,20,19.7,53.92,53.92,0,0,1,7.2,27.2,52.9,52.9,0,0,1-7.3,27.1,53.79,53.79,0,0,1-19.7,19.7,52.16,52.16,0,0,1-27.2,7.4,53.78,53.78,0,0,1-46.8-27.2Zm72.8-12a29.83,29.83,0,0,0,4-15,30.15,30.15,0,0,0-3.9-15.1,28.6,28.6,0,0,0-10.9-10.9,31,31,0,0,0-30.3-.1,28.53,28.53,0,0,0-10.9,10.9,30.08,30.08,0,0,0-4,15.2,30,30,0,0,0,56,15Z" fill="url(#New_Gradient_Swatch_3-7)"></path><path d="M552.59,132.6a14,14,0,0,1,4.3-10.3,15,15,0,0,1,21,0,14.07,14.07,0,0,1,4.3,10.3,14.8,14.8,0,1,1-29.6,0Z" fill="url(#New_Gradient_Swatch_3-8)"></path></g></g></g></svg> 