<?xml version="1.0" standalone="no"?>
<!DOCTYPE svg PUBLIC "-//W3C//DTD SVG 1.1//EN" "http://www.w3.org/Graphics/SVG/1.1/DTD/svg11.dtd" >
<svg xmlns="http://www.w3.org/2000/svg" xmlns:xlink="http://www.w3.org/1999/xlink" version="1.1">
<metadata>
Created by FontForge 20170731 at Tue Dec 29 17:42:55 2015
 By Aleksey,,,
Copyright (c) 2014 by Type Dynamic. All rights reserved.
</metadata>
<defs>
<font id="Sailec-MediumItalic" horiz-adv-x="274" >
  <font-face 
    font-family="Sailec-MediumItalic"
    font-weight="400"
    font-style="italic"
    font-stretch="normal"
    units-per-em="1000"
    panose-1="0 0 6 0 0 0 0 0 0 0"
    ascent="748"
    descent="-252"
    x-height="513"
    cap-height="748"
    bbox="-259 -339 1252 1070"
    underline-thickness="50"
    underline-position="-150"
    slope="-10"
    unicode-range="U+000D-FB02"
  />
<missing-glyph horiz-adv-x="717" 
d="M30 0l132 748h567l-132 -748h-567zM391 446l177 222h-272zM329 373l-104 234l-86 -468zM536 145l83 456l-185 -228zM466 81l-94 219l-175 -219h269z" />
    <glyph glyph-name=".notdef" horiz-adv-x="717" 
d="M30 0l132 748h567l-132 -748h-567zM391 446l177 222h-272zM329 373l-104 234l-86 -468zM536 145l83 456l-185 -228zM466 81l-94 219l-175 -219h269z" />
    <glyph glyph-name=".null" horiz-adv-x="0" 
 />
    <glyph glyph-name="nonmarkingreturn" unicode="&#xd;" horiz-adv-x="600" 
 />
    <glyph glyph-name="NULL" horiz-adv-x="0" 
 />
    <glyph glyph-name="NULL" horiz-adv-x="0" 
 />
    <glyph glyph-name="space" unicode=" " horiz-adv-x="233" 
 />
    <glyph glyph-name="exclam" unicode="!" horiz-adv-x="299" 
d="M83 214l88 534h131l-100 -534h-119zM119 134q34 0 53 -23.5t14 -56.5q-5 -27 -27 -45.5t-48 -18.5q-34 0 -53 23t-13 56q5 27 26.5 46t47.5 19z" />
    <glyph glyph-name="quotedbl" unicode="&#x22;" horiz-adv-x="370" 
d="M95 495l33 253h112l-57 -253h-88zM267 495l33 253h112l-57 -253h-88z" />
    <glyph glyph-name="numbersign" unicode="#" horiz-adv-x="650" 
d="M695 551l-36 -90h-116l-74 -177h120l-37 -90h-120l-80 -194h-94l81 194h-135l-81 -194h-93l81 194h-115l37 90h114l74 177h-119l37 90h119l82 197h94l-83 -197h135l82 197h94l-82 -197h115zM241 284h135l73 177h-134z" />
    <glyph glyph-name="dollar" unicode="$" horiz-adv-x="659" 
d="M516 538q5 57 -28 87t-93 30q-72 0 -113.5 -32.5t-48.5 -82.5q-4 -28 4 -46t26 -30t46.5 -21t66.5 -18q59 -14 105.5 -31t77 -42.5t44 -61t6.5 -86.5q-8 -54 -33 -93.5t-62 -65.5t-83 -39.5t-97 -15.5l-18 -108h-94l20 114q-48 8 -85.5 26t-63 46t-37 65t-6.5 83l121 4
q-5 -60 35.5 -93.5t109.5 -33.5q68 0 115 27.5t56 87.5q4 27 -4.5 45t-28.5 31.5t-50.5 23t-69.5 19.5q-50 12 -94 27.5t-74.5 39.5t-45.5 60.5t-7 91.5q6 42 25.5 79.5t52.5 66t79.5 46.5t106.5 20l19 107h93l-20 -114q85 -17 130.5 -71t37.5 -137z" />
    <glyph glyph-name="percent" unicode="%" horiz-adv-x="863" 
d="M284 758q39 0 69 -13.5t49.5 -38t26.5 -59.5t-1 -78q-7 -41 -24.5 -73.5t-43 -55t-57 -35t-66.5 -12.5q-38 0 -68 13.5t-49.5 38.5t-27 60t0.5 78q7 40 25 72.5t43.5 55.5t56.5 35t66 12zM74 0l645 748h111l-645 -748h-111zM281 679q-40 0 -69 -28t-37 -80
q-8 -46 11.5 -72.5t55.5 -26.5q39 0 68 28.5t37 80.5q8 47 -11 72.5t-55 25.5zM667 355q38 0 68 -13.5t49.5 -38t26.5 -59.5t-1 -78q-7 -41 -24.5 -73.5t-43 -55t-57 -35t-65.5 -12.5q-38 0 -68.5 13.5t-50 38.5t-27 60t0.5 78q7 40 25 72.5t43.5 55.5t57 35t66.5 12z
M662 276q-40 0 -69 -28t-37 -80q-8 -46 12.5 -72.5t55.5 -26.5q40 0 68.5 28t36.5 81q8 47 -11.5 72.5t-55.5 25.5z" />
    <glyph glyph-name="ampersand" unicode="&#x26;" horiz-adv-x="707" 
d="M506 96q-57 -55 -117.5 -80t-125.5 -25t-111 17t-74 47t-38.5 70t-3.5 86q11 73 53.5 122t105.5 88q-22 30 -34.5 65.5t-5.5 81.5q7 48 28 83.5t52 59t71 35.5t86 12q89 0 142 -48t53 -133l-114 -1q1 42 -20.5 63.5t-60.5 21.5q-48 0 -80 -26t-40 -77q-4 -23 0.5 -41.5
t14.5 -36t25 -34.5t32 -36l157 -156q41 64 77 152l102 -35q-49 -115 -104 -192l107 -106l-73 -83zM264 92q92 0 170 78l-168 173l-7 7q-41 -26 -68 -59.5t-35 -83.5q-9 -54 20 -84.5t88 -30.5z" />
    <glyph glyph-name="quotesingle" unicode="'" horiz-adv-x="199" 
d="M97 495l33 253h112l-57 -253h-88z" />
    <glyph glyph-name="parenleft" unicode="(" 
d="M335 693q-28 -36 -54.5 -77.5t-49.5 -89t-41.5 -101t-28.5 -112.5q-20 -113 -7 -206.5t44 -165.5l-97 -29q-37 75 -54.5 179.5t5.5 235.5q22 126 74 229t115 178z" />
    <glyph glyph-name="parenright" unicode=")" 
d="M198 728q18 -37 32 -82t21.5 -97.5t7 -111.5t-12.5 -124q-22 -126 -74 -229t-115 -178l-94 41q28 36 54.5 78t49.5 89.5t41 100.5t29 112q19 113 6 207t-44 166z" />
    <glyph glyph-name="asterisk" unicode="*" horiz-adv-x="349" 
d="M393 677l10 -60l-124 -37l57 -97l-55 -38l-52 100l-89 -101l-48 39l90 97l-110 37l30 60l109 -40l21 123h63l-24 -123z" />
    <glyph glyph-name="plus" unicode="+" horiz-adv-x="547" 
d="M543 421l-18 -102h-187l-33 -192h-110l34 192h-187l18 102h187l33 188h109l-33 -188h187z" />
    <glyph glyph-name="comma" unicode="," horiz-adv-x="221" 
d="M81 133q36 0 52 -24.5t9 -62.5q-11 -63 -49 -114t-113 -88l2 52q58 36 82 96q-29 4 -44 26t-10 51q5 27 25 45.5t46 18.5z" />
    <glyph glyph-name="hyphen" unicode="-" horiz-adv-x="404" 
d="M37 209l19 105h314l-19 -105h-314z" />
    <glyph glyph-name="period" unicode="." horiz-adv-x="227" 
d="M83 134q34 0 53 -23.5t14 -56.5q-5 -27 -27 -45.5t-48 -18.5q-34 0 -53 23t-13 56q5 27 26.5 46t47.5 19z" />
    <glyph glyph-name="slash" unicode="/" horiz-adv-x="390" 
d="M-49 -67l399 815h120l-399 -815h-120z" />
    <glyph glyph-name="zero" unicode="0" horiz-adv-x="647" 
d="M393 758q63 0 111.5 -26t78.5 -75.5t40 -122.5t-4 -167q-14 -92 -43.5 -162t-71.5 -118t-95 -72.5t-113 -24.5q-64 0 -112.5 26t-78.5 75.5t-39.5 122.5t4.5 167q13 91 43 161.5t72 118.5t95 72.5t113 24.5zM390 652q-81 0 -130.5 -71.5t-71.5 -211.5q-20 -134 8 -203.5
t102 -69.5q81 0 131 71.5t71 211.5q20 134 -8.5 203.5t-101.5 69.5z" />
    <glyph glyph-name="one" unicode="1" horiz-adv-x="381" 
d="M133 0l105 588l-114 -76l-55 91l227 145h88l-132 -748h-119z" />
    <glyph glyph-name="two" unicode="2" horiz-adv-x="539" 
d="M361 758q52 0 91.5 -16t63.5 -45.5t32.5 -70t0.5 -89.5q-8 -47 -24.5 -84t-40.5 -69t-54 -61.5t-65 -59.5l-179 -157h292l-18 -106h-452l16 90l255 232q68 61 104.5 111.5t45.5 109.5q8 49 -11.5 79t-67.5 30q-56 0 -88 -34t-44 -96l-118 7q21 112 87.5 170.5t173.5 58.5
z" />
    <glyph glyph-name="three" unicode="3" horiz-adv-x="562" 
d="M355 758q109 0 160 -59.5t34 -158.5q-11 -62 -44.5 -99.5t-81.5 -57.5q22 -6 40.5 -20.5t30.5 -36.5t16.5 -51.5t-1.5 -65.5q-9 -52 -32.5 -92.5t-58 -68.5t-79 -43t-95.5 -15q-117 0 -170.5 62t-40.5 165l118 -1q-5 -59 19.5 -89.5t79.5 -30.5q57 0 94 31.5t48 92.5
q9 57 -19.5 86.5t-84.5 29.5h-79l18 100h70q24 0 46 7.5t40 21.5t30.5 34.5t17.5 47.5q8 49 -14.5 77t-68.5 28q-53 0 -86.5 -32t-46.5 -88l-116 14q21 101 86.5 156.5t169.5 55.5z" />
    <glyph glyph-name="four" unicode="4" horiz-adv-x="599" 
d="M577 263l-19 -106h-119l-28 -157h-116l28 157h-313l17 98l418 493h98l-85 -485h119zM340 263l49 266l-228 -266h179z" />
    <glyph glyph-name="five" unicode="5" horiz-adv-x="564" 
d="M220 445q42 21 95 21q51 0 92 -16t68.5 -47t38.5 -75.5t1 -102.5q-8 -53 -30 -96.5t-56.5 -74t-80.5 -47.5t-101 -17q-57 0 -99 15.5t-69 44t-38.5 68.5t-6.5 89l118 3q-4 -54 22 -84t80 -30q63 0 98.5 38t44.5 99q11 58 -15.5 92.5t-79.5 34.5q-35 0 -59.5 -10.5
t-50.5 -27.5l-113 2l75 424h424l-19 -105h-305z" />
    <glyph glyph-name="six" unicode="6" horiz-adv-x="599" 
d="M342 481q52 -3 95.5 -22t72.5 -52t41.5 -78t4.5 -100t-32.5 -99t-61.5 -75t-84 -48t-99 -17q-57 0 -103.5 18t-78.5 51t-46.5 80t-5.5 104q7 45 24 83t47 71l324 351h146zM436 241q10 71 -23 107.5t-88 36.5q-68 0 -115 -49q-18 -20 -29 -43t-16 -55q-9 -70 23.5 -106
t89.5 -36q31 0 58.5 11t48 30.5t34 46t17.5 57.5z" />
    <glyph glyph-name="seven" unicode="7" horiz-adv-x="540" 
d="M145 0h-138l438 643h-355l19 105h492l-17 -96z" />
    <glyph glyph-name="eight" unicode="8" horiz-adv-x="606" 
d="M375 758q51 0 93 -14.5t70.5 -42t40.5 -67t4 -88.5q-8 -54 -38 -92.5t-78 -61.5q43 -22 67 -69.5t14 -115.5q-8 -51 -33 -91.5t-61.5 -68t-83 -42.5t-98.5 -15q-55 0 -100 16t-75.5 46t-43.5 73t-5 97q10 63 46 108t92 71q-35 20 -55 60.5t-11 98.5q7 47 30 84t57 62.5
t77 38.5t91 13zM369 652q-51 0 -88.5 -29.5t-43.5 -79.5q-6 -48 21 -73.5t75 -25.5q51 0 88 28t44 79q6 48 -21 74.5t-75 26.5zM321 342q-30 0 -56.5 -9.5t-47 -26.5t-34 -40.5t-17.5 -52.5q-4 -27 2.5 -48.5t21.5 -37t37 -23.5t49 -8q62 0 104.5 34.5t50.5 92.5
q7 55 -24 87t-86 32z" />
    <glyph glyph-name="nine" unicode="9" horiz-adv-x="599" 
d="M362 758q57 0 103.5 -18t78.5 -51t46.5 -80t5.5 -104q-7 -45 -24 -83t-47 -71l-324 -351h-146l244 267q-53 3 -96 22t-72 52t-41.5 78t-4.5 100t32.5 99t61.5 75t83.5 48t99.5 17zM316 363q68 0 115 49q18 20 29 43t16 55q9 70 -23.5 106t-89.5 36q-32 0 -59 -11
t-47.5 -30.5t-34 -46t-17.5 -57.5q-5 -36 1.5 -63t21.5 -45t38 -27t50 -9z" />
    <glyph glyph-name="colon" unicode=":" horiz-adv-x="227" 
d="M151 523q34 0 53 -23.5t14 -56.5q-5 -27 -27 -45.5t-48 -18.5q-34 0 -53 23t-13 56q5 27 26.5 46t47.5 19zM82 134q34 0 53 -23.5t14 -56.5q-5 -27 -27 -45.5t-48 -18.5q-34 0 -53 23t-13 56q5 27 26.5 46t47.5 19z" />
    <glyph glyph-name="semicolon" unicode=";" horiz-adv-x="227" 
d="M151 523q34 0 53 -23.5t14 -56.5q-5 -27 -27 -45.5t-48 -18.5q-34 0 -53 23t-13 56q5 27 26.5 46t47.5 19zM87 133q36 0 52 -24.5t9 -62.5q-11 -63 -49 -114t-113 -88l2 52q58 36 82 96q-29 4 -44 26t-10 51q5 27 25 45.5t46 18.5z" />
    <glyph glyph-name="less" unicode="&#x3c;" horiz-adv-x="527" 
d="M269 369l224 -120l-22 -127l-423 247l509 247l-20 -127z" />
    <glyph glyph-name="equal" unicode="=" horiz-adv-x="547" 
d="M64 437l19 106h483l-19 -106h-483zM21 195l19 106h483l-19 -106h-483z" />
    <glyph glyph-name="greater" unicode="&#x3e;" horiz-adv-x="527" 
d="M10 122l20 127l268 120l-224 120l22 127l423 -247z" />
    <glyph glyph-name="question" unicode="?" horiz-adv-x="516" 
d="M337 759q58 0 101 -16.5t70 -46.5t36.5 -72t0.5 -93q-5 -31 -16.5 -55t-28 -44t-37 -37t-44.5 -33q-46 -32 -72.5 -57.5t-34.5 -66.5l-4 -24h-118l5 32q9 54 39.5 92.5t79.5 73.5q21 14 40 27.5t33.5 28.5t24.5 32.5t14 40.5q9 50 -16.5 81.5t-79.5 31.5q-59 0 -95.5 -32
t-50.5 -86l-116 11q11 49 35.5 88.5t59 67t79 42t95.5 14.5zM225 134q34 0 53 -23.5t14 -56.5q-5 -27 -27 -45.5t-48 -18.5q-34 0 -53 23t-13 56q5 27 26.5 46t47.5 19z" />
    <glyph glyph-name="at" unicode="@" horiz-adv-x="792" 
d="M435 609q81 0 145.5 -28t108 -77.5t62 -117t7.5 -147.5q-14 -95 -60 -146.5t-117 -51.5q-72 0 -94 47q-49 -50 -129 -50q-44 0 -79 15.5t-58.5 43.5t-33 68t-2.5 90q6 47 25 84.5t46.5 63.5t63.5 40t77 14q51 0 82.5 -17.5t44.5 -43.5l11 48h82l-50 -284q-8 -47 34 -47
q30 0 55 32t37 109q9 64 -6.5 117.5t-50 92t-86 59.5t-116.5 21q-66 0 -123.5 -22.5t-102 -63t-74 -96.5t-38.5 -123q-10 -68 7.5 -121.5t54 -90.5t90 -57t115.5 -20q54 0 98 13t83 36l17 -66q-89 -49 -202 -49q-82 0 -148 27.5t-110 77t-63 117t-7 148.5q11 78 47 143
t90 112.5t122.5 73.5t144.5 26zM367 114q51 0 84.5 31t43.5 91l4 20q9 61 -17.5 92.5t-76.5 31.5q-51 0 -87 -33t-45 -97q-5 -32 -0.5 -57.5t17.5 -43t32.5 -26.5t44.5 -9z" />
    <glyph glyph-name="A" unicode="A" horiz-adv-x="758" 
d="M572 0l-42 174h-329l-103 -174h-130l448 748h101l184 -748h-129zM505 267l-71 297l-176 -297h247z" />
    <glyph glyph-name="B" unicode="B" horiz-adv-x="695" 
d="M460 748q49 0 89 -14t66.5 -41.5t37 -67.5t1.5 -91q-11 -58 -38 -92.5t-63 -53.5q18 -8 34 -23t27.5 -38t15.5 -53.5t-2 -68.5q-9 -52 -33.5 -90.5t-59.5 -64t-79.5 -38t-95.5 -12.5h-322l132 748h290zM234 434h177q45 0 78.5 23.5t44.5 80.5q9 52 -19 78.5t-82 26.5
h-162zM176 106h183q27 0 52 6t45 19.5t34.5 35t19.5 52.5q5 30 -1.5 51.5t-20.5 35t-35 20t-45 6.5h-192z" />
    <glyph glyph-name="C" unicode="C" horiz-adv-x="816" 
d="M490 758q69 0 126.5 -19.5t99.5 -56t66 -88.5t24 -117l-123 -9q-1 45 -16.5 79t-41.5 57.5t-62 35.5t-78 12q-57 0 -106.5 -20t-87.5 -56.5t-63 -89.5t-34 -119q-9 -67 3.5 -117.5t41 -84.5t70.5 -51.5t93 -17.5q92 0 159.5 46t95.5 133l122 -14q-19 -64 -55.5 -114
t-86 -85t-109 -53.5t-124.5 -18.5q-82 0 -148 26.5t-110.5 76.5t-63.5 123t-7 165q12 90 49 160t92 118t125.5 73.5t148.5 25.5z" />
    <glyph glyph-name="D" unicode="D" horiz-adv-x="801" 
d="M449 748q78 0 143 -26t108.5 -74.5t61.5 -119.5t4 -161q-14 -89 -50.5 -157.5t-90.5 -115t-123 -70.5t-147 -24h-317l132 748h279zM175 102h188q54 0 102.5 17.5t87 52.5t64 87t34.5 120q9 66 -2 116t-38.5 83.5t-70 50.5t-96.5 17h-173z" />
    <glyph glyph-name="E" unicode="E" horiz-adv-x="597" 
d="M270 643l-36 -206h307l-18 -103h-308l-40 -228h352l-19 -106h-470l132 748h470l-19 -105h-351z" />
    <glyph glyph-name="F" unicode="F" horiz-adv-x="585" 
d="M270 643l-37 -209h290l-19 -105h-289l-58 -329h-119l132 748h470l-19 -105h-351z" />
    <glyph glyph-name="G" unicode="G" horiz-adv-x="827" 
d="M798 392l-6 -43q-11 -83 -44 -149.5t-83.5 -113t-117 -71.5t-145.5 -25q-81 0 -147 26.5t-110 76.5t-63 123t-7 165q12 90 49 160t92 118t125 73.5t148 25.5q66 0 122 -18t97.5 -52t66 -83.5t29.5 -111.5l-122 -13q-4 83 -57.5 127.5t-138.5 44.5q-57 0 -106.5 -18
t-87.5 -54t-63.5 -89.5t-34.5 -123.5q-9 -68 2.5 -118.5t39.5 -84.5t70.5 -51t95.5 -17q90 0 156.5 46.5t94.5 144.5h-219l15 105h349z" />
    <glyph glyph-name="H" unicode="H" horiz-adv-x="757" 
d="M509 0l59 333h-352l-59 -333h-119l132 748h119l-55 -309h353l54 309h119l-132 -748h-119z" />
    <glyph glyph-name="I" unicode="I" horiz-adv-x="286" 
d="M38 0l132 748h119l-132 -748h-119z" />
    <glyph glyph-name="J" unicode="J" horiz-adv-x="594" 
d="M515 247q-22 -125 -96.5 -191t-186.5 -66q-57 0 -100 18t-70.5 50.5t-39 78.5t-4.5 103l120 5q-8 -73 17.5 -111t84.5 -38q60 0 101.5 39.5t55.5 112.5l88 500h118z" />
    <glyph glyph-name="K" unicode="K" horiz-adv-x="695" 
d="M634 0h-133l-185 344l-117 -109l-42 -235h-119l132 748h119l-61 -335l350 335h160l-334 -319z" />
    <glyph glyph-name="L" unicode="L" horiz-adv-x="591" 
d="M529 106l-18 -106h-473l132 748h119l-114 -642h354z" />
    <glyph glyph-name="M" unicode="M" horiz-adv-x="977" 
d="M730 0l84 478l-329 -472h-79l-164 479l-85 -485h-119l132 748h100l201 -568l399 568h110l-132 -748h-118z" />
    <glyph glyph-name="N" unicode="N" horiz-adv-x="755" 
d="M526 0l-276 528l-93 -528h-119l132 748h100l277 -529l93 529h119l-132 -748h-101z" />
    <glyph glyph-name="O" unicode="O" horiz-adv-x="870" 
d="M490 758q83 0 151.5 -27t115 -78t68 -123.5t11.5 -162.5q-10 -88 -46 -158t-91 -118.5t-126 -74.5t-150 -26q-84 0 -152.5 27.5t-115 78t-68.5 123t-11 162.5q10 88 46 157.5t91 118.5t126 75t151 26zM489 652q-58 0 -109 -19.5t-90 -56.5t-64 -89.5t-31 -119.5
q-6 -64 8.5 -114.5t45 -85t75.5 -53t100 -18.5q58 0 108.5 19.5t89.5 56t64 89.5t31 120q6 64 -8.5 114.5t-45 85.5t-75.5 53t-99 18z" />
    <glyph glyph-name="P" unicode="P" horiz-adv-x="657" 
d="M455 748q51 0 93.5 -16t71.5 -46.5t42.5 -75.5t5.5 -103q-7 -56 -29 -98t-56.5 -70t-78.5 -42.5t-95 -14.5h-202l-50 -282h-119l132 748h285zM226 388h178q27 0 51.5 7.5t44.5 23t33 40t17 57.5q4 31 -3 55t-22.5 40t-37.5 24t-49 8h-168z" />
    <glyph glyph-name="Q" unicode="Q" horiz-adv-x="873" 
d="M490 758q83 0 151.5 -27t115 -78t68 -123.5t11.5 -162.5q-9 -78 -38.5 -142t-74.5 -112l90 -107l-86 -78l-96 114q-93 -52 -208 -52q-84 0 -152.5 27.5t-115 78t-68.5 123t-11 162.5q10 88 46 157.5t91 118.5t126 75t151 26zM649 201q28 35 45.5 80.5t22.5 99.5
q6 64 -8.5 114.5t-45 85.5t-75.5 53t-99 18q-58 0 -109 -19.5t-90 -56.5t-64 -89.5t-31 -119.5q-6 -64 8.5 -114.5t45 -85t75.5 -53t100 -18.5q73 0 135 31l-118 140l88 77z" />
    <glyph glyph-name="R" unicode="R" horiz-adv-x="695" 
d="M665 508q-15 -85 -58.5 -136.5t-108.5 -72.5l114 -299h-126l-109 286h-170l-50 -286h-119l132 748h281q51 0 93.5 -15.5t71.5 -46t42.5 -75.5t6.5 -103zM545 518q4 30 -3 53.5t-22 39.5t-37 24t-49 8h-164l-44 -251h175q54 0 93.5 30t50.5 96z" />
    <glyph glyph-name="S" unicode="S" horiz-adv-x="659" 
d="M393 758q60 0 107.5 -15t79.5 -42.5t47 -67.5t10 -90l-121 -5q5 57 -28 87t-93 30q-72 0 -113.5 -32.5t-48.5 -82.5q-4 -28 4 -46t26 -30t46.5 -21t66.5 -18q59 -14 105.5 -31t77 -42.5t44 -61t6.5 -86.5q-8 -56 -34.5 -96.5t-66 -66.5t-88.5 -38.5t-103 -12.5
q-63 0 -115 15t-88 44t-53 71t-11 96l121 4q-5 -60 35.5 -93.5t109.5 -33.5q68 0 115 27.5t56 87.5q4 27 -4.5 45t-28.5 31.5t-50.5 23t-69.5 19.5q-50 12 -94 27.5t-74.5 39.5t-45.5 60.5t-7 91.5q6 43 27 81.5t56 67.5t84.5 46t112.5 17z" />
    <glyph glyph-name="T" unicode="T" horiz-adv-x="687" 
d="M471 643l-113 -643h-119l113 643h-266l19 105h651l-19 -105h-266z" />
    <glyph glyph-name="U" unicode="U" horiz-adv-x="770" 
d="M697 287q-26 -146 -118 -221.5t-233 -75.5q-71 0 -125.5 20.5t-89 59.5t-47 95.5t0.5 128.5l80 454h119l-81 -457q-18 -99 23 -147t128 -48q93 0 151 51t75 147l80 454h119z" />
    <glyph glyph-name="V" unicode="V" horiz-adv-x="761" 
d="M285 0l-182 748h124l134 -564l334 564h137l-447 -748h-100z" />
    <glyph glyph-name="W" unicode="W" horiz-adv-x="1119" 
d="M697 0l-87 539l-277 -539h-101l-129 748h124l85 -551l280 551h97l85 -551l281 551h136l-394 -748h-100z" />
    <glyph glyph-name="X" unicode="X" horiz-adv-x="707" 
d="M639 0h-132l-144 294l-244 -294h-143l316 389l-170 359h132l133 -282l231 282h144l-305 -374z" />
    <glyph glyph-name="Y" unicode="Y" horiz-adv-x="715" 
d="M372 0h-119l55 301l-205 447h131l145 -323l259 323h150l-362 -447z" />
    <glyph glyph-name="Z" unicode="Z" horiz-adv-x="621" 
d="M168 106h393l-18 -106h-551l16 89l482 554h-374l18 105h532l-16 -90z" />
    <glyph glyph-name="bracketleft" unicode="[" horiz-adv-x="283" 
d="M233 624l-107 -607h93l-16 -94h-206l140 795h206l-17 -94h-93z" />
    <glyph glyph-name="backslash" unicode="\" horiz-adv-x="390" 
d="M208 -67l-111 815h115l111 -815h-115z" />
    <glyph glyph-name="bracketright" unicode="]" horiz-adv-x="283" 
d="M-36 -77l16 94h94l107 607h-94l17 94h206l-140 -795h-206z" />
    <glyph glyph-name="asciicircum" unicode="^" horiz-adv-x="573" 
d="M439 373l-91 215l-170 -215h-130l325 391l190 -391h-124z" />
    <glyph glyph-name="underscore" unicode="_" horiz-adv-x="686" 
d="M-18 -106l19 106h596l-19 -106h-596z" />
    <glyph glyph-name="grave" unicode="`" horiz-adv-x="250" 
d="M210 596l-100 191h125l61 -191h-86z" />
    <glyph glyph-name="a" unicode="a" horiz-adv-x="547" 
d="M315 522q94 0 139 -55.5t27 -155.5l-55 -311h-104l9 49q-25 -26 -58 -42.5t-86 -16.5q-38 0 -69.5 11t-53 31.5t-31 50t-3.5 66.5q7 38 27.5 65t50.5 45t67.5 27t77.5 11l115 6l3 18q8 51 -8.5 78t-60.5 27q-26 0 -45.5 -8t-33.5 -20.5t-22.5 -29t-11.5 -33.5l-110 8
q6 34 25.5 66t50 57t71 40.5t89.5 15.5zM260 210q-50 -3 -82 -17.5t-37 -51.5q-4 -29 15.5 -43t51.5 -14q23 0 46 7t42 21t32.5 34.5t19.5 48.5l4 20z" />
    <glyph glyph-name="b" unicode="b" horiz-adv-x="652" 
d="M225 458q26 32 64.5 48t95.5 16q55 0 99.5 -19.5t73 -55t40.5 -86t3 -113.5q-8 -60 -31.5 -107.5t-59.5 -81t-82.5 -51.5t-100.5 -18q-66 0 -108.5 25.5t-61.5 63.5l-15 -79h-106l136 777h112zM361 425q-65 0 -109.5 -38t-55.5 -110l-5 -30q-6 -40 1 -70t24.5 -50.5
t43 -30.5t57.5 -10q66 0 113.5 42.5t58.5 123.5q6 42 -1.5 74t-25 54t-44 33.5t-57.5 11.5z" />
    <glyph glyph-name="c" unicode="c" horiz-adv-x="584" 
d="M332 522q48 0 88 -14t69 -39.5t45 -62t17 -81.5l-109 -7q0 51 -29.5 79.5t-80.5 28.5q-66 0 -112.5 -46t-57.5 -131q-5 -39 1.5 -69.5t22 -51t39.5 -31t54 -10.5q56 0 93.5 28t51.5 73l109 -11q-13 -44 -37.5 -79t-57.5 -59t-73 -36.5t-85 -12.5q-57 0 -103 18.5t-77 54
t-44.5 86t-5.5 115.5q8 62 33 110t62.5 81t85 50t101.5 17z" />
    <glyph glyph-name="d" unicode="d" horiz-adv-x="652" 
d="M422 0l11 62q-51 -72 -166 -72q-56 0 -100 19.5t-72.5 55t-40.5 86t-3 113.5q8 60 31.5 107.5t59.5 81t82.5 51.5t100.5 18q64 0 105 -22.5t59 -56.5l62 334h112l-136 -777h-105zM335 426q-66 0 -113.5 -42.5t-58.5 -123.5q-6 -42 1.5 -74t25 -54t43.5 -33.5t58 -11.5
q65 0 109.5 38t55.5 110l5 30q6 40 -1 70t-24.5 50.5t-43.5 30.5t-57 10z" />
    <glyph glyph-name="e" unicode="e" horiz-adv-x="594" 
d="M333 522q57 0 101 -18.5t72.5 -52t39.5 -81t1 -105.5l-9 -51h-375q-5 -63 27.5 -95t91.5 -32q49 0 82 19.5t49 52.5l113 -8q-26 -75 -92.5 -118t-153.5 -43q-58 0 -104.5 19t-77 54t-43.5 86t-4 115q9 61 33.5 109t62 81t85 50.5t101.5 17.5zM332 426q-59 0 -100.5 -32
t-55.5 -92h263q7 59 -20 91.5t-87 32.5z" />
    <glyph glyph-name="f" unicode="f" horiz-adv-x="359" 
d="M390 782q18 0 28.5 -1t19.5 -3l-17 -96q-6 2 -13 2h-13q-47 0 -79 -27.5t-40 -73.5l-13 -70h126l-17 -97h-126l-73 -416h-112l73 416h-97l17 97h97l14 75q16 93 77.5 143.5t147.5 50.5z" />
    <glyph glyph-name="g" unicode="g" horiz-adv-x="646" 
d="M326 522q66 0 108.5 -25.5t61.5 -63.5l15 80h106l-95 -541q-9 -56 -34.5 -99.5t-63 -74t-86 -46.5t-104.5 -16q-58 0 -100.5 14t-70.5 39t-42 59t-14 73l110 3q0 -45 32.5 -69t85.5 -24q68 0 115 37t59 103l15 81q-45 -62 -156 -62q-56 0 -100 19.5t-72.5 55t-40.5 86
t-3 113.5q8 60 31.5 107.5t59.5 81t82.5 51.5t100.5 18zM336 426q-66 0 -113.5 -42.5t-58.5 -123.5q-6 -42 1.5 -74t25 -54t43.5 -33.5t58 -11.5q65 0 109.5 38t55.5 110l5 30q6 40 -1 70t-24.5 50.5t-43.5 30.5t-57 10z" />
    <glyph glyph-name="h" unicode="h" horiz-adv-x="609" 
d="M226 461q20 25 58 43t92 18q42 0 77 -14.5t58 -42.5t32.5 -69t0.5 -93l-53 -303h-113l52 295q11 58 -12.5 90.5t-76.5 32.5q-29 0 -52.5 -10t-42 -27t-30.5 -40t-16 -49l-53 -292h-112l137 777h112z" />
    <glyph glyph-name="i" unicode="i" 
d="M217 761q33 0 51.5 -22.5t13.5 -54.5q-5 -27 -26 -45t-47 -18q-32 0 -51 22.5t-14 54.5q5 27 26.5 45t46.5 18zM35 0l91 513h112l-91 -513h-112z" />
    <glyph glyph-name="j" unicode="j" 
d="M217 761q33 0 51.5 -22.5t13.5 -54.5q-5 -27 -26 -45t-47 -18q-32 0 -51 22.5t-14 54.5q5 27 26 45t47 18zM138 -68q-17 -93 -77 -143t-145 -50q-18 0 -28.5 1t-19.5 3l17 96q7 -1 13.5 -1.5t13.5 -0.5q45 0 75.5 27t38.5 73l101 576h113z" />
    <glyph glyph-name="k" unicode="k" horiz-adv-x="557" 
d="M432 513h152l-257 -228l172 -285h-130l-125 209l-69 -59l-28 -150h-112l137 777h112l-82 -466z" />
    <glyph glyph-name="l" unicode="l" 
d="M35 0l137 777h112l-137 -777h-112z" />
    <glyph glyph-name="m" unicode="m" horiz-adv-x="933" 
d="M703 522q45 0 79.5 -14.5t56 -41.5t29 -65t-0.5 -85l-56 -316h-112l52 295q10 58 -12.5 90.5t-70.5 32.5q-53 0 -88 -32t-47 -80l-54 -306h-112l52 295q10 58 -12.5 90.5t-70.5 32.5q-29 0 -52 -9.5t-40.5 -26.5t-29 -40t-15.5 -50l-52 -292h-112l91 513h103l-12 -71
q20 32 58.5 56t95.5 24q60 0 100 -24.5t57 -69.5q29 42 72 68t103 26z" />
    <glyph glyph-name="n" unicode="n" horiz-adv-x="613" 
d="M376 522q42 0 77 -14.5t58 -42.5t32.5 -69t0.5 -93l-53 -303h-113l52 295q11 58 -12.5 90.5t-76.5 32.5q-29 0 -52.5 -10t-42 -27t-30.5 -40t-16 -49l-53 -292h-112l91 513h103l-10 -61q20 29 60 49.5t97 20.5z" />
    <glyph glyph-name="o" unicode="o" horiz-adv-x="634" 
d="M340 522q59 0 107 -19.5t81 -55t48 -86t7 -112.5q-7 -60 -32.5 -107.5t-64.5 -81.5t-88.5 -52t-104.5 -18q-59 0 -107.5 19.5t-81 55t-47.5 86t-7 113.5q7 60 32.5 107.5t64 81t88 51.5t105.5 18zM342 426q-35 0 -65.5 -12t-54.5 -35t-39.5 -56t-19.5 -74
q-8 -77 29 -119.5t100 -42.5q35 0 65.5 12t54.5 35t39.5 56t20.5 74q7 76 -30 119t-100 43z" />
    <glyph glyph-name="p" unicode="p" horiz-adv-x="652" 
d="M386 522q55 0 99.5 -19.5t73 -55t40.5 -86t3 -113.5q-8 -60 -31.5 -107.5t-59.5 -81t-82.5 -51.5t-100.5 -18q-64 0 -105 22.5t-59 56.5l-61 -324h-112l135 768h105l-11 -63q51 72 166 72zM362 425q-65 0 -109.5 -38t-55.5 -110l-5 -30q-6 -40 1 -70t24.5 -50.5t43 -30.5
t57.5 -10q66 0 113.5 42.5t58.5 123.5q6 42 -1.5 74t-25 54t-44 33.5t-57.5 11.5z" />
    <glyph glyph-name="q" unicode="q" horiz-adv-x="652" 
d="M326 522q66 0 108.5 -25.5t61.5 -63.5l15 80h106l-136 -768h-112l59 309q-26 -32 -64.5 -48t-95.5 -16q-56 0 -100 19.5t-72.5 55t-40.5 86t-3 113.5q8 60 31.5 107.5t59.5 81t82.5 51.5t100.5 18zM336 426q-66 0 -113.5 -42.5t-58.5 -123.5q-6 -42 1.5 -74t25 -54
t43.5 -33.5t58 -11.5q65 0 109.5 38t55.5 110l5 30q6 40 -1 70t-24.5 50.5t-43.5 30.5t-57 10z" />
    <glyph glyph-name="r" unicode="r" horiz-adv-x="357" 
d="M362 410q-33 0 -61 -10.5t-50 -28.5t-36 -42.5t-19 -52.5l-49 -276h-112l91 513h105l-12 -69q20 30 60 52.5t101 22.5z" />
    <glyph glyph-name="s" unicode="s" horiz-adv-x="502" 
d="M277 522q47 0 81.5 -13.5t57 -36.5t33.5 -53t10 -62l-112 -3q3 32 -17.5 52t-62.5 20q-38 0 -60 -16t-27 -42q-3 -17 3 -27t19 -16.5t32 -11t43 -10.5q39 -10 71 -22t53.5 -30t31 -43t4.5 -61q-11 -75 -68.5 -116t-148.5 -41q-97 0 -146.5 45.5t-47.5 119.5l111 4
q-2 -36 22.5 -54t66.5 -18t67.5 14t30.5 44q4 31 -18 45t-77 28q-39 10 -71.5 21t-54 27.5t-31.5 42t-4 65.5q10 69 64 108.5t145 39.5z" />
    <glyph glyph-name="t" unicode="t" horiz-adv-x="378" 
d="M205 183q-8 -50 13 -70t52 -20q20 0 32 2t21 4l-17 -102q-14 -2 -31 -3.5t-40 -1.5q-40 0 -70.5 10t-50 31t-26.5 53t1 76l46 254h-95l17 97h96l32 174h112l-32 -174h130l-17 -97h-130z" />
    <glyph glyph-name="u" unicode="u" horiz-adv-x="596" 
d="M367 0l12 71q-20 -32 -59 -56.5t-95 -24.5q-91 0 -134 54t-27 147l57 322h113l-53 -300q-10 -57 11 -87.5t69 -30.5q57 0 91 34.5t43 85.5l53 298h112l-90 -513h-103z" />
    <glyph glyph-name="v" unicode="v" horiz-adv-x="549" 
d="M185 0l-132 513h119l81 -345l203 345h130l-312 -513h-89z" />
    <glyph glyph-name="w" unicode="w" horiz-adv-x="832" 
d="M487 0l-61 315l-173 -315h-95l-105 513h119l62 -338l181 338h79l67 -338l177 338h131l-286 -513h-96z" />
    <glyph glyph-name="x" unicode="x" horiz-adv-x="532" 
d="M471 0h-122l-93 181l-155 -181h-131l224 265l-124 248h120l87 -173l149 173h131l-216 -255z" />
    <glyph glyph-name="y" unicode="y" horiz-adv-x="560" 
d="M-6 -255l179 296l-116 472h123l76 -345l201 345h126l-461 -768h-128z" />
    <glyph glyph-name="z" unicode="z" horiz-adv-x="450" 
d="M152 91h237l-15 -91h-386l13 74l292 347h-225l16 92h370l-13 -75z" />
    <glyph glyph-name="braceleft" unicode="{" 
d="M314 624q-48 0 -71 -36t-25 -119q0 -28 -1.5 -53t-9.5 -45t-24.5 -33.5t-44.5 -17.5q24 -4 35.5 -18.5t13 -36.5t-5 -50t-16.5 -58q-27 -77 -20 -108.5t55 -31.5h10l-16 -94h-3q-48 0 -84 15t-55.5 45t-20.5 74.5t22 103.5q12 28 20 49.5t8 35.5t-11 21t-36 7h-12l16 93
h5q25 0 40 8t22.5 24t9 40t0.5 55q-3 56 11 98t42 70t68 42t88 14h10l-17 -94h-3z" />
    <glyph glyph-name="bar" unicode="|" horiz-adv-x="269" 
d="M21 -67l144 815h112l-144 -815h-112z" />
    <glyph glyph-name="braceright" unicode="}" 
d="M107 718q48 0 84 -15t55.5 -45t20 -75t-21.5 -104q-12 -28 -20.5 -49t-8.5 -35t10.5 -21t36.5 -7h12l-16 -93h-4q-26 0 -40.5 -8.5t-22 -24.5t-9.5 -39.5t-1 -54.5q3 -57 -11 -99t-42 -69.5t-67.5 -41.5t-87.5 -14h-10l16 94h3q49 0 71.5 36t24.5 118q0 28 1.5 53t10 45
t24.5 33.5t45 18.5q-24 4 -35.5 18.5t-13 36.5t4.5 50t16 58q27 77 20 108.5t-55 31.5h-10l17 94h3z" />
    <glyph glyph-name="asciitilde" unicode="~" horiz-adv-x="539" 
d="M546 372q-39 -41 -77.5 -62.5t-86.5 -21.5q-35 0 -57.5 9.5t-41.5 20.5t-37 20.5t-42 9.5q-41 0 -69.5 -14.5t-57.5 -44.5l-43 81q38 41 76.5 62t83.5 21q31 0 52.5 -9.5t40 -20.5t38 -20.5t47.5 -9.5q43 0 72.5 15t58.5 45z" />
    <glyph glyph-name="exclamdown" unicode="&#xa1;" horiz-adv-x="299" 
d="M178 366q-34 0 -53 23.5t-14 56.5q5 27 27 45.5t48 18.5q34 0 53 -23t13 -56q-5 -27 -26.5 -46t-47.5 -19zM214 286l-88 -534h-131l100 534h119z" />
    <glyph glyph-name="cent" unicode="&#xa2;" horiz-adv-x="584" 
d="M279 87q56 0 93.5 28t51.5 73l109 -11q-24 -83 -85.5 -131.5t-143.5 -54.5l-20 -109h-94l21 116q-42 10 -75 32.5t-54.5 56.5t-30 78.5t-1.5 98.5q8 57 30 103t55.5 78.5t76 51.5t91.5 24l18 106h94l-19 -112q70 -16 112 -65.5t43 -124.5l-109 -7q0 51 -29.5 79.5
t-80.5 28.5q-66 0 -112.5 -46t-57.5 -131q-5 -39 1.5 -69.5t22 -51t39.5 -31t54 -10.5z" />
    <glyph glyph-name="sterling" unicode="&#xa3;" horiz-adv-x="555" 
d="M457 560q7 42 -10 67.5t-61 25.5q-54 0 -82 -35t-33 -96l-10 -110h161l-16 -94h-154l-3 -38q-6 -67 -32 -107.5t-63 -69.5l350 3l-18 -106h-498l14 98q63 19 95.5 65t39.5 126l3 29h-101l17 94h92l9 91q11 123 67.5 189t171.5 66q49 0 85.5 -13.5t59.5 -39t32 -61.5
t2 -80z" />
    <glyph glyph-name="currency" unicode="&#xa4;" horiz-adv-x="594" 
d="M478 245q-5 -29 -15.5 -54.5t-24.5 -47.5l93 -111l-80 -70l-95 112q-38 -19 -86 -19q-26 0 -49 6.5t-42 17.5l-134 -117l-62 70l138 120q-17 45 -6 108q11 57 41 100l-96 113l81 71l96 -114q42 20 86 20q53 0 89 -24l136 118l61 -71l-138 -120q18 -45 7 -108zM205 248
q-10 -55 10 -84t58 -29q42 0 73.5 32.5t42.5 89.5q9 54 -11 83.5t-58 29.5q-43 0 -74 -32t-41 -90z" />
    <glyph glyph-name="yen" unicode="&#xa5;" horiz-adv-x="715" 
d="M571 351l-12 -70h-137l-14 -80h138l-13 -71h-138l-23 -130h-119l24 130h-138l13 71h138l14 80h-139l12 70h108l-182 397h131l145 -323l259 323h150l-322 -397h105z" />
    <glyph glyph-name="brokenbar" unicode="&#xa6;" horiz-adv-x="269" 
d="M109 429l56 319h112l-56 -319h-112zM21 -67l57 319h112l-57 -319h-112z" />
    <glyph glyph-name="section" unicode="&#xa7;" horiz-adv-x="522" 
d="M403 601q5 36 -16.5 57t-63.5 21t-69.5 -19t-32.5 -57q-5 -35 19.5 -52t83.5 -30q41 -9 75.5 -20t57.5 -28t34 -42t5 -62q-7 -43 -29.5 -69.5t-57.5 -46.5q31 -18 45 -46.5t7 -75.5q-6 -36 -24.5 -65.5t-48 -50.5t-69 -32t-86.5 -11q-53 0 -93.5 11.5t-67 33t-38 52
t-5.5 68.5l111 1q-5 -40 18.5 -63.5t71.5 -23.5q49 0 81 20.5t38 62.5q6 37 -20.5 54t-90.5 31q-41 9 -75 20t-58 27.5t-35 41.5t-6 63q7 44 30 71t60 47q-27 17 -39 44.5t-5 72.5q11 71 68 111.5t144 40.5q100 0 151 -41.5t41 -113.5zM392 369q3 19 -3.5 31t-22 21
t-38.5 15t-53 13l-35 8q-28 -17 -47.5 -35.5t-24.5 -50.5q-3 -18 4 -30.5t22 -21t38.5 -15t53.5 -13.5l34 -7q29 16 48 34.5t24 50.5z" />
    <glyph glyph-name="dieresis" unicode="&#xa8;" horiz-adv-x="328" 
d="M157 743q30 0 47.5 -20.5t12.5 -49.5q-5 -25 -24 -40.5t-42 -15.5q-30 0 -47 20.5t-12 49.5q4 24 23 40t42 16zM325 743q31 0 48 -20.5t12 -49.5q-5 -25 -23.5 -40.5t-42.5 -15.5q-30 0 -47 20.5t-12 49.5q4 24 23 40t42 16z" />
    <glyph glyph-name="copyright" unicode="&#xa9;" horiz-adv-x="588" 
d="M366 760q58 0 105.5 -20.5t79 -55.5t45.5 -83t6 -103q-8 -53 -33.5 -98t-64.5 -78t-88.5 -51.5t-104.5 -18.5q-59 0 -106.5 20.5t-79 55.5t-45.5 83t-6 104q7 53 33 98t65 77.5t88.5 51t105.5 18.5zM368 720q-47 0 -89.5 -16t-76 -44.5t-55.5 -67t-29 -84.5
q-6 -46 5 -85.5t36.5 -68.5t63.5 -45.5t86 -16.5q46 0 88 16t75.5 44.5t56 67.5t28.5 85t-5 85.5t-36 68t-63 45t-85 16.5zM355 663q58 0 94.5 -30.5t36.5 -84.5l-63 -2q0 30 -19 46t-47 16q-40 0 -69 -28t-37 -80q-4 -23 0 -40.5t14 -29.5t24 -18t31 -6q32 0 55.5 16
t33.5 45l64 -7q-16 -51 -57 -80.5t-92 -29.5q-34 0 -61.5 11.5t-46 33t-26 51.5t-1.5 68q6 36 21 63.5t37 46.5t50 29t58 10z" />
    <glyph glyph-name="ordfeminine" unicode="&#xaa;" horiz-adv-x="449" 
d="M302 756q85 0 123.5 -42t24.5 -122l-45 -255h-95l6 37q-21 -21 -52.5 -33t-73.5 -12q-62 0 -96 29t-26 87q5 33 21.5 55.5t40 37t52.5 22t59 9.5l105 8l4 23q7 37 -6.5 57.5t-47.5 20.5q-38 0 -60 -22t-27 -51l-98 3q5 27 20 53.5t39.5 47.5t57.5 34t74 13zM260 503
q-37 -4 -60 -13.5t-27 -38.5q-3 -23 13.5 -34t41.5 -11q41 0 68 21.5t36 63.5l4 19z" />
    <glyph glyph-name="guillemotleft" unicode="&#xab;" horiz-adv-x="553" 
d="M139 247l102 -165l-90 -53l-137 229l208 225l85 -62zM398 247l102 -165l-90 -53l-137 229l208 225l85 -62z" />
    <glyph glyph-name="logicalnot" unicode="&#xac;" horiz-adv-x="576" 
d="M428 157l33 185h-410l16 88h498l-49 -273h-88z" />
    <glyph glyph-name="registered" unicode="&#xae;" horiz-adv-x="588" 
d="M366 760q58 0 105.5 -20.5t79 -55.5t45.5 -83t6 -103q-8 -53 -33.5 -98t-64.5 -78t-88.5 -51.5t-104.5 -18.5q-59 0 -106.5 20.5t-79 55.5t-45.5 83t-6 104q7 53 33 98t65 77.5t88.5 51t105.5 18.5zM557 505q6 46 -5 85.5t-36 68t-63 45t-85 16.5t-89.5 -16t-76 -44.5
t-55.5 -67t-29 -84.5q-6 -46 5 -85.5t36.5 -68.5t63.5 -45.5t86 -16.5q46 0 88 16t75.5 44.5t56 67.5t28.5 85zM381 659q42 0 66.5 -26.5t15.5 -76.5q-5 -32 -21.5 -52t-40.5 -30l40 -121h-67l-36 113h-55l-21 -113h-62l54 306h127zM402 563q4 23 -8 34t-33 11h-54l-16 -91
h50q21 0 38.5 10t22.5 36z" />
    <glyph glyph-name="macron" unicode="&#xaf;" horiz-adv-x="304" 
d="M78 628l15 87h280l-16 -87h-279z" />
    <glyph glyph-name="degree" unicode="&#xb0;" horiz-adv-x="360" 
d="M259 757q35 0 63 -10t46 -29.5t24.5 -47t0.5 -61.5l-3 -22q-12 -69 -58.5 -104.5t-109.5 -35.5q-35 0 -62.5 10t-45.5 29.5t-24.5 46.5t-0.5 62l4 22q11 69 56.5 104.5t109.5 35.5zM258 688q-35 0 -58 -19.5t-30 -57.5l-4 -17q-7 -38 9.5 -58t48.5 -20q35 0 59.5 20.5
t30.5 58.5l2 16q7 39 -9.5 58t-48.5 19z" />
    <glyph glyph-name="plusminus" unicode="&#xb1;" horiz-adv-x="547" 
d="M562 526l-18 -102h-187l-33 -192h-110l34 192h-187l18 102h187l33 188h109l-33 -188h187zM-1 69l19 105h483l-19 -105h-483z" />
    <glyph glyph-name="acute" unicode="&#xb4;" horiz-adv-x="250" 
d="M72 596l129 191h130l-168 -191h-91z" />
    <glyph glyph-name="paragraph" unicode="&#xb6;" horiz-adv-x="686" 
d="M669 664l-129 -731h-87l129 731h-116l-129 -731h-87l78 441h-53q-46 0 -83 12.5t-61 37t-34 61t-2 84.5q15 90 78.5 134.5t155.5 44.5h424l-15 -84h-69z" />
    <glyph glyph-name="periodcentered" unicode="&#xb7;" horiz-adv-x="240" 
d="M131 380q34 0 53 -23.5t14 -56.5q-5 -27 -27 -45.5t-48 -18.5q-34 0 -53 23t-13 56q5 27 26.5 46t47.5 19z" />
    <glyph glyph-name="cedilla" unicode="&#xb8;" 
d="M94 -42q45 -5 69.5 -31.5t16.5 -77.5q-4 -24 -17.5 -42.5t-32 -30.5t-41.5 -18t-45 -6q-38 0 -62 6t-42 15l24 66q11 -8 28 -12.5t37 -4.5q23 0 43.5 5.5t25.5 30.5q4 22 -10 34t-40 12q-28 0 -41 -3l47 109h58z" />
    <glyph glyph-name="ordmasculine" unicode="&#xba;" horiz-adv-x="509" 
d="M327 756q48 0 87 -15.5t65 -44.5t37 -70t4 -91q-6 -48 -27 -86t-52.5 -64.5t-71.5 -41t-85 -14.5q-48 0 -87 15.5t-65.5 44.5t-37.5 70t-4 91q6 47 27.5 85t53 65t71.5 41.5t85 14.5zM326 670q-52 0 -90 -35t-46 -98q-7 -59 20.5 -90.5t74.5 -31.5q52 0 90.5 35t46.5 97
q7 59 -20.5 91t-75.5 32z" />
    <glyph glyph-name="guillemotright" unicode="&#xbb;" horiz-adv-x="553" 
d="M74 29l-86 62l169 174l-103 165l91 53l136 -229zM332 29l-86 62l169 174l-103 165l91 53l136 -229z" />
    <glyph glyph-name="onequarter" unicode="&#xbc;" horiz-adv-x="717" 
d="M-18 0l650 748h117l-650 -748h-117zM109 322l51 285l-61 -37l-33 73l147 90h55l-72 -411h-87zM681 156l-13 -78h-55l-13 -78h-87l13 78h-172l12 68l224 265h82l-45 -255h54zM540 156l20 112l-96 -112h76z" />
    <glyph glyph-name="onehalf" unicode="&#xbd;" horiz-adv-x="751" 
d="M-18 0l650 748h117l-650 -748h-117zM109 322l51 285l-61 -37l-33 73l147 90h55l-72 -411h-87zM621 417q33 0 56 -10.5t36 -28.5t17 -42.5t0 -52.5q-7 -44 -31 -75.5t-59 -64.5l-74 -66h130l-14 -77h-265l11 60l153 137q26 23 42 44t21 50q4 22 -5 35.5t-29 13.5
q-23 0 -38.5 -14.5t-20.5 -41.5l-84 5q11 60 52.5 94t101.5 34z" />
    <glyph glyph-name="threequarters" unicode="&#xbe;" horiz-adv-x="802" 
d="M67 0l650 748h117l-650 -748h-117zM238 738q65 0 95 -34t19 -92q-5 -30 -22 -50t-43 -33q21 -7 34.5 -31.5t6.5 -62.5q-10 -57 -50.5 -88.5t-97.5 -31.5q-69 0 -99.5 35.5t-22.5 91.5l87 3q-2 -24 7 -38t32 -14q24 0 40.5 16.5t19.5 42.5q4 23 -8.5 34t-34.5 11h-45
l12 68h37q21 0 41.5 16.5t23.5 42.5q3 19 -6.5 29t-28.5 10q-21 0 -37 -14.5t-21 -38.5l-82 7q11 60 47 90.5t96 30.5zM766 156l-13 -78h-55l-13 -78h-87l13 78h-172l12 68l224 265h82l-45 -255h54zM625 156l20 112l-96 -112h76z" />
    <glyph glyph-name="questiondown" unicode="&#xbf;" horiz-adv-x="516" 
d="M291 379q-34 0 -53 23.5t-14 56.5q5 27 27 45.5t48 18.5q34 0 53 -23t13 -56q-5 -27 -26.5 -46t-47.5 -19zM179 -246q-58 0 -101 16.5t-70 46.5t-36.5 72t-0.5 93q10 61 44 99t82 70q46 32 72.5 57.5t34.5 66.5l4 24h118l-5 -32q-9 -54 -39.5 -92.5t-79.5 -73.5
q-21 -14 -40 -27.5t-33.5 -28.5t-24.5 -32.5t-14 -40.5q-9 -50 16.5 -81.5t79.5 -31.5q59 0 95.5 32t50.5 86l116 -11q-11 -49 -35.5 -88.5t-59 -67t-79 -42t-95.5 -14.5z" />
    <glyph glyph-name="Agrave" unicode="&#xc0;" horiz-adv-x="758" 
d="M424 795l-164 147h152l114 -147h-102zM572 0l-42 174h-329l-103 -174h-130l448 748h101l184 -748h-129zM505 267l-71 297l-176 -297h247z" />
    <glyph glyph-name="Aacute" unicode="&#xc1;" horiz-adv-x="758" 
d="M426 795l165 147h157l-215 -147h-107zM572 0l-42 174h-329l-103 -174h-130l448 748h101l184 -748h-129zM505 267l-71 297l-176 -297h247z" />
    <glyph glyph-name="Acircumflex" unicode="&#xc2;" horiz-adv-x="758" 
d="M557 795l-60 84l-93 -84h-98l144 150h108l92 -150h-93zM572 0l-42 174h-329l-103 -174h-130l448 748h101l184 -748h-129zM505 267l-71 297l-176 -297h247z" />
    <glyph glyph-name="Atilde" unicode="&#xc3;" horiz-adv-x="758" 
d="M429 946q25 0 40.5 -9t27.5 -20t23.5 -20t29.5 -9q27 0 42 14t19 36h62q0 -29 -10 -53.5t-26.5 -42.5t-37.5 -28t-43 -10q-26 0 -41.5 9t-27.5 19.5t-23.5 19.5t-29.5 9q-26 0 -41 -14.5t-20 -36.5h-62q0 29 10 54t26.5 43t37.5 28.5t44 10.5zM572 0l-42 174h-329
l-103 -174h-130l448 748h101l184 -748h-129zM505 267l-71 297l-176 -297h247z" />
    <glyph glyph-name="Adieresis" unicode="&#xc4;" horiz-adv-x="758" 
d="M412 936q31 0 48 -21t12 -50q-5 -24 -23.5 -40t-41.5 -16q-30 0 -47.5 20.5t-12.5 50.5q5 24 23.5 40t41.5 16zM580 936q31 0 48 -21t12 -50q-5 -24 -23.5 -40t-41.5 -16q-30 0 -47.5 20.5t-12.5 50.5q5 24 23.5 40t41.5 16zM572 0l-42 174h-329l-103 -174h-130l448 748
h101l184 -748h-129zM505 267l-71 297l-176 -297h247z" />
    <glyph glyph-name="Aring" unicode="&#xc5;" horiz-adv-x="758" 
d="M505 997q24 0 44 -8t33 -22.5t18.5 -34.5t1.5 -44q-7 -42 -39 -68.5t-74 -26.5q-50 0 -79 30.5t-21 78.5q8 43 41 69t75 26zM502 940q-20 0 -35 -12t-18 -31q-3 -20 8.5 -33.5t32.5 -13.5t35 12t17 31q3 20 -8 33.5t-32 13.5zM572 0l-42 174h-329l-103 -174h-130l448 748
h101l184 -748h-129zM505 267l-71 297l-176 -297h247z" />
    <glyph glyph-name="AE" unicode="&#xc6;" horiz-adv-x="1021" 
d="M659 437h307l-18 -103h-308l-40 -228h352l-19 -106h-470l25 140h-261l-118 -140h-148l633 748h471l-19 -105h-351zM557 535l-242 -289h191z" />
    <glyph glyph-name="Ccedilla" unicode="&#xc7;" horiz-adv-x="816" 
d="M402 96q92 0 159.5 46t95.5 133l122 -14q-19 -63 -54.5 -113t-84 -84.5t-107 -53.5t-122.5 -20l-13 -37q45 -5 69.5 -31.5t16.5 -77.5q-4 -24 -17.5 -42.5t-32 -30.5t-41.5 -18t-45 -6q-38 0 -62 6t-42 15l24 66q11 -8 28 -12.5t37 -4.5q23 0 43.5 5.5t25.5 30.5
q4 22 -10 34t-40 12q-28 0 -41 -3l42 97q-71 8 -127.5 38t-93.5 79.5t-52.5 117.5t-4.5 153q12 90 49 160t92 118t125.5 73.5t148.5 25.5q69 0 126.5 -19.5t99.5 -56t66 -88.5t24 -117l-123 -9q-1 45 -16.5 79t-41.5 57.5t-62 35.5t-78 12q-57 0 -106.5 -20t-87.5 -56.5
t-63 -89.5t-34 -119q-9 -67 3.5 -117.5t41 -84.5t70.5 -51.5t93 -17.5z" />
    <glyph glyph-name="Egrave" unicode="&#xc8;" horiz-adv-x="597" 
d="M363 795l-164 147h152l114 -147h-102zM270 643l-36 -206h307l-18 -103h-308l-40 -228h352l-19 -106h-470l132 748h470l-19 -105h-351z" />
    <glyph glyph-name="Eacute" unicode="&#xc9;" horiz-adv-x="597" 
d="M365 795l165 147h157l-215 -147h-107zM270 643l-36 -206h307l-18 -103h-308l-40 -228h352l-19 -106h-470l132 748h470l-19 -105h-351z" />
    <glyph glyph-name="Ecircumflex" unicode="&#xca;" horiz-adv-x="597" 
d="M496 795l-60 84l-93 -84h-98l144 150h108l92 -150h-93zM270 643l-36 -206h307l-18 -103h-308l-40 -228h352l-19 -106h-470l132 748h470l-19 -105h-351z" />
    <glyph glyph-name="Edieresis" unicode="&#xcb;" horiz-adv-x="597" 
d="M351 936q31 0 48 -21t12 -50q-5 -24 -23.5 -40t-41.5 -16q-30 0 -47.5 20.5t-12.5 50.5q5 24 23.5 40t41.5 16zM519 936q31 0 48 -21t12 -50q-5 -24 -23.5 -40t-41.5 -16q-30 0 -47.5 20.5t-12.5 50.5q5 24 23.5 40t41.5 16zM270 643l-36 -206h307l-18 -103h-308
l-40 -228h352l-19 -106h-470l132 748h470l-19 -105h-351z" />
    <glyph glyph-name="Igrave" unicode="&#xcc;" horiz-adv-x="286" 
d="M186 795l-164 147h152l114 -147h-102zM38 0l132 748h119l-132 -748h-119z" />
    <glyph glyph-name="Iacute" unicode="&#xcd;" horiz-adv-x="286" 
d="M188 795l165 147h157l-215 -147h-107zM38 0l132 748h119l-132 -748h-119z" />
    <glyph glyph-name="Icircumflex" unicode="&#xce;" horiz-adv-x="286" 
d="M319 795l-60 84l-93 -84h-98l144 150h108l92 -150h-93zM38 0l132 748h119l-132 -748h-119z" />
    <glyph glyph-name="Idieresis" unicode="&#xcf;" horiz-adv-x="286" 
d="M174 936q31 0 48 -21t12 -50q-5 -24 -23.5 -40t-41.5 -16q-30 0 -47.5 20.5t-12.5 50.5q5 24 23.5 40t41.5 16zM342 936q31 0 48 -21t12 -50q-5 -24 -23.5 -40t-41.5 -16q-30 0 -47.5 20.5t-12.5 50.5q5 24 23.5 40t41.5 16zM38 0l132 748h119l-132 -748h-119z" />
    <glyph glyph-name="Eth" unicode="&#xd0;" horiz-adv-x="799" 
d="M449 748q78 0 143 -26t108.5 -74.5t61.5 -119.5t4 -161q-14 -89 -50.5 -157.5t-90.5 -115t-123 -70.5t-147 -24h-317l58 328h-78l16 91h78l58 329h279zM651 379q9 66 -2 116t-38.5 83.5t-70 50.5t-96.5 17h-173l-40 -227h151l-16 -91h-151l-40 -226h188q54 0 102.5 17.5
t87 52.5t64 87t34.5 120z" />
    <glyph glyph-name="Ntilde" unicode="&#xd1;" horiz-adv-x="755" 
d="M415 946q25 0 40.5 -9t27.5 -20t23.5 -20t29.5 -9q27 0 42 14t19 36h62q0 -29 -10 -53.5t-26.5 -42.5t-37.5 -28t-43 -10q-26 0 -41.5 9t-27.5 19.5t-23.5 19.5t-29.5 9q-26 0 -41 -14.5t-20 -36.5h-62q0 29 10 54t26.5 43t37.5 28.5t44 10.5zM526 0l-276 528l-93 -528
h-119l132 748h100l277 -529l93 529h119l-132 -748h-101z" />
    <glyph glyph-name="Ograve" unicode="&#xd2;" horiz-adv-x="870" 
d="M466 795l-164 147h152l114 -147h-102zM490 758q83 0 151.5 -27t115 -78t68 -123.5t11.5 -162.5q-10 -88 -46 -158t-91 -118.5t-126 -74.5t-150 -26q-84 0 -152.5 27.5t-115 78t-68.5 123t-11 162.5q10 88 46 157.5t91 118.5t126 75t151 26zM489 652q-58 0 -109 -19.5
t-90 -56.5t-64 -89.5t-31 -119.5q-6 -64 8.5 -114.5t45 -85t75.5 -53t100 -18.5q58 0 108.5 19.5t89.5 56t64 89.5t31 120q6 64 -8.5 114.5t-45 85.5t-75.5 53t-99 18z" />
    <glyph glyph-name="Oacute" unicode="&#xd3;" horiz-adv-x="870" 
d="M468 795l165 147h157l-215 -147h-107zM490 758q83 0 151.5 -27t115 -78t68 -123.5t11.5 -162.5q-10 -88 -46 -158t-91 -118.5t-126 -74.5t-150 -26q-84 0 -152.5 27.5t-115 78t-68.5 123t-11 162.5q10 88 46 157.5t91 118.5t126 75t151 26zM489 652q-58 0 -109 -19.5
t-90 -56.5t-64 -89.5t-31 -119.5q-6 -64 8.5 -114.5t45 -85t75.5 -53t100 -18.5q58 0 108.5 19.5t89.5 56t64 89.5t31 120q6 64 -8.5 114.5t-45 85.5t-75.5 53t-99 18z" />
    <glyph glyph-name="Ocircumflex" unicode="&#xd4;" horiz-adv-x="870" 
d="M599 795l-60 84l-93 -84h-98l144 150h108l92 -150h-93zM490 758q83 0 151.5 -27t115 -78t68 -123.5t11.5 -162.5q-10 -88 -46 -158t-91 -118.5t-126 -74.5t-150 -26q-84 0 -152.5 27.5t-115 78t-68.5 123t-11 162.5q10 88 46 157.5t91 118.5t126 75t151 26zM489 652
q-58 0 -109 -19.5t-90 -56.5t-64 -89.5t-31 -119.5q-6 -64 8.5 -114.5t45 -85t75.5 -53t100 -18.5q58 0 108.5 19.5t89.5 56t64 89.5t31 120q6 64 -8.5 114.5t-45 85.5t-75.5 53t-99 18z" />
    <glyph glyph-name="Otilde" unicode="&#xd5;" horiz-adv-x="870" 
d="M471 946q25 0 40.5 -9t27.5 -20t23.5 -20t29.5 -9q27 0 42 14t19 36h62q0 -29 -10 -53.5t-26.5 -42.5t-37.5 -28t-43 -10q-26 0 -41.5 9t-27.5 19.5t-23.5 19.5t-29.5 9q-26 0 -41 -14.5t-20 -36.5h-62q0 29 10 54t26.5 43t37.5 28.5t44 10.5zM490 758q83 0 151.5 -27
t115 -78t68 -123.5t11.5 -162.5q-10 -88 -46 -158t-91 -118.5t-126 -74.5t-150 -26q-84 0 -152.5 27.5t-115 78t-68.5 123t-11 162.5q10 88 46 157.5t91 118.5t126 75t151 26zM489 652q-58 0 -109 -19.5t-90 -56.5t-64 -89.5t-31 -119.5q-6 -64 8.5 -114.5t45 -85t75.5 -53
t100 -18.5q58 0 108.5 19.5t89.5 56t64 89.5t31 120q6 64 -8.5 114.5t-45 85.5t-75.5 53t-99 18z" />
    <glyph glyph-name="Odieresis" unicode="&#xd6;" horiz-adv-x="870" 
d="M454 936q31 0 48 -21t12 -50q-5 -24 -23.5 -40t-41.5 -16q-30 0 -47.5 20.5t-12.5 50.5q5 24 23.5 40t41.5 16zM622 936q31 0 48 -21t12 -50q-5 -24 -23.5 -40t-41.5 -16q-30 0 -47.5 20.5t-12.5 50.5q5 24 23.5 40t41.5 16zM490 758q83 0 151.5 -27t115 -78t68 -123.5
t11.5 -162.5q-10 -88 -46 -158t-91 -118.5t-126 -74.5t-150 -26q-84 0 -152.5 27.5t-115 78t-68.5 123t-11 162.5q10 88 46 157.5t91 118.5t126 75t151 26zM489 652q-58 0 -109 -19.5t-90 -56.5t-64 -89.5t-31 -119.5q-6 -64 8.5 -114.5t45 -85t75.5 -53t100 -18.5
q58 0 108.5 19.5t89.5 56t64 89.5t31 120q6 64 -8.5 114.5t-45 85.5t-75.5 53t-99 18z" />
    <glyph glyph-name="multiply" unicode="&#xd7;" horiz-adv-x="535" 
d="M363 367l120 -145l-83 -71l-120 145l-173 -148l-67 78l173 147l-119 146l81 71l120 -146l170 145l68 -77z" />
    <glyph glyph-name="Oslash" unicode="&#xd8;" horiz-adv-x="870" 
d="M762 647q45 -51 65 -121.5t9 -158.5q-10 -88 -46 -158t-91 -118.5t-126 -74.5t-150 -26q-64 0 -119 16t-100 47l-88 -94l-66 55l92 98q-40 50 -58 117.5t-8 151.5q10 88 46 157.5t91 118.5t126 75t151 26q120 0 207 -55l83 88l66 -55zM195 367q-10 -99 30 -167l393 419
q-54 33 -129 33q-58 0 -109 -19.5t-90 -56.5t-64 -89.5t-31 -119.5zM717 381q5 56 -4.5 100.5t-32.5 78.5l-397 -423q58 -41 141 -41q58 0 108.5 19.5t89.5 56t64 89.5t31 120z" />
    <glyph glyph-name="Ugrave" unicode="&#xd9;" horiz-adv-x="770" 
d="M424 795l-164 147h152l114 -147h-102zM697 287q-26 -146 -118 -221.5t-233 -75.5q-71 0 -125.5 20.5t-89 59.5t-47 95.5t0.5 128.5l80 454h119l-81 -457q-18 -99 23 -147t128 -48q93 0 151 51t75 147l80 454h119z" />
    <glyph glyph-name="Uacute" unicode="&#xda;" horiz-adv-x="770" 
d="M426 795l165 147h157l-215 -147h-107zM697 287q-26 -146 -118 -221.5t-233 -75.5q-71 0 -125.5 20.5t-89 59.5t-47 95.5t0.5 128.5l80 454h119l-81 -457q-18 -99 23 -147t128 -48q93 0 151 51t75 147l80 454h119z" />
    <glyph glyph-name="Ucircumflex" unicode="&#xdb;" horiz-adv-x="770" 
d="M557 795l-60 84l-93 -84h-98l144 150h108l92 -150h-93zM697 287q-26 -146 -118 -221.5t-233 -75.5q-71 0 -125.5 20.5t-89 59.5t-47 95.5t0.5 128.5l80 454h119l-81 -457q-18 -99 23 -147t128 -48q93 0 151 51t75 147l80 454h119z" />
    <glyph glyph-name="Udieresis" unicode="&#xdc;" horiz-adv-x="770" 
d="M412 936q31 0 48 -21t12 -50q-5 -24 -23.5 -40t-41.5 -16q-30 0 -47.5 20.5t-12.5 50.5q5 24 23.5 40t41.5 16zM580 936q31 0 48 -21t12 -50q-5 -24 -23.5 -40t-41.5 -16q-30 0 -47.5 20.5t-12.5 50.5q5 24 23.5 40t41.5 16zM697 287q-26 -146 -118 -221.5t-233 -75.5
q-71 0 -125.5 20.5t-89 59.5t-47 95.5t0.5 128.5l80 454h119l-81 -457q-18 -99 23 -147t128 -48q93 0 151 51t75 147l80 454h119z" />
    <glyph glyph-name="Yacute" unicode="&#xdd;" horiz-adv-x="715" 
d="M399 795l165 147h157l-215 -147h-107zM372 0h-119l55 301l-205 447h131l145 -323l259 323h150l-362 -447z" />
    <glyph glyph-name="Thorn" unicode="&#xde;" horiz-adv-x="644" 
d="M440 648q51 0 92 -16t67.5 -46t37 -74.5t0.5 -101.5q-9 -55 -33.5 -97t-60 -70.5t-80.5 -43t-96 -14.5h-178l-32 -185h-119l132 748h119l-18 -100h169zM209 291h155q27 0 52 8.5t46 25.5t36 42t21 57q11 60 -19 89t-84 29h-163z" />
    <glyph glyph-name="germandbls" unicode="&#xdf;" horiz-adv-x="645" 
d="M385 785q105 0 157.5 -48t40.5 -126q-6 -39 -23.5 -61t-37 -38.5t-37 -33.5t-22.5 -46q-4 -21 5.5 -36.5t25.5 -31t34.5 -32t33 -38t22 -50.5t0.5 -69q-8 -45 -30 -79t-55 -57t-74 -35t-86 -12q-38 0 -63 5t-45 12l31 91q15 -6 33 -10t38 -4q52 0 92 26t50 80
q5 29 -3.5 50.5t-23.5 40.5t-33.5 36t-34 35.5t-24 40t-4.5 49.5q5 36 22.5 55t37 33.5t36 30t21.5 42.5q7 38 -15 62t-70 24q-55 0 -91.5 -32t-45.5 -83l-102 -576h-112l104 586q8 46 29.5 82.5t54 62.5t74.5 40t90 14z" />
    <glyph glyph-name="agrave" unicode="&#xe0;" horiz-adv-x="547" 
d="M291 596l-100 191h125l61 -191h-86zM315 522q94 0 139 -55.5t27 -155.5l-55 -311h-104l9 49q-25 -26 -58 -42.5t-86 -16.5q-38 0 -69.5 11t-53 31.5t-31 50t-3.5 66.5q7 38 27.5 65t50.5 45t67.5 27t77.5 11l115 6l3 18q8 51 -8.5 78t-60.5 27q-26 0 -45.5 -8
t-33.5 -20.5t-22.5 -29t-11.5 -33.5l-110 8q6 34 25.5 66t50 57t71 40.5t89.5 15.5zM260 210q-50 -3 -82 -17.5t-37 -51.5q-4 -29 15.5 -43t51.5 -14q23 0 46 7t42 21t32.5 34.5t19.5 48.5l4 20z" />
    <glyph glyph-name="aacute" unicode="&#xe1;" horiz-adv-x="547" 
d="M288 596l129 191h130l-168 -191h-91zM315 522q94 0 139 -55.5t27 -155.5l-55 -311h-104l9 49q-25 -26 -58 -42.5t-86 -16.5q-38 0 -69.5 11t-53 31.5t-31 50t-3.5 66.5q7 38 27.5 65t50.5 45t67.5 27t77.5 11l115 6l3 18q8 51 -8.5 78t-60.5 27q-26 0 -45.5 -8
t-33.5 -20.5t-22.5 -29t-11.5 -33.5l-110 8q6 34 25.5 66t50 57t71 40.5t89.5 15.5zM260 210q-50 -3 -82 -17.5t-37 -51.5q-4 -29 15.5 -43t51.5 -14q23 0 46 7t42 21t32.5 34.5t19.5 48.5l4 20z" />
    <glyph glyph-name="acircumflex" unicode="&#xe2;" horiz-adv-x="547" 
d="M415 597l-58 98l-96 -98h-98l149 173h108l88 -173h-93zM315 522q94 0 139 -55.5t27 -155.5l-55 -311h-104l9 49q-25 -26 -58 -42.5t-86 -16.5q-38 0 -69.5 11t-53 31.5t-31 50t-3.5 66.5q7 38 27.5 65t50.5 45t67.5 27t77.5 11l115 6l3 18q8 51 -8.5 78t-60.5 27
q-26 0 -45.5 -8t-33.5 -20.5t-22.5 -29t-11.5 -33.5l-110 8q6 34 25.5 66t50 57t71 40.5t89.5 15.5zM260 210q-50 -3 -82 -17.5t-37 -51.5q-4 -29 15.5 -43t51.5 -14q23 0 46 7t42 21t32.5 34.5t19.5 48.5l4 20z" />
    <glyph glyph-name="atilde" unicode="&#xe3;" horiz-adv-x="547" 
d="M285 747q25 0 40.5 -9t27.5 -20t23.5 -20t29.5 -9q27 0 42 14t19 36h63q0 -29 -10 -53.5t-26.5 -42.5t-38 -28.5t-43.5 -10.5q-26 0 -41.5 9t-27.5 20t-23.5 20t-29.5 9q-26 0 -41 -14.5t-20 -36.5h-62q0 29 10 54t26.5 43t37.5 28.5t44 10.5zM315 522q94 0 139 -55.5
t27 -155.5l-55 -311h-104l9 49q-25 -26 -58 -42.5t-86 -16.5q-38 0 -69.5 11t-53 31.5t-31 50t-3.5 66.5q7 38 27.5 65t50.5 45t67.5 27t77.5 11l115 6l3 18q8 51 -8.5 78t-60.5 27q-26 0 -45.5 -8t-33.5 -20.5t-22.5 -29t-11.5 -33.5l-110 8q6 34 25.5 66t50 57t71 40.5
t89.5 15.5zM260 210q-50 -3 -82 -17.5t-37 -51.5q-4 -29 15.5 -43t51.5 -14q23 0 46 7t42 21t32.5 34.5t19.5 48.5l4 20z" />
    <glyph glyph-name="adieresis" unicode="&#xe4;" horiz-adv-x="547" 
d="M267 743q30 0 47.5 -20.5t12.5 -49.5q-5 -25 -24 -40.5t-42 -15.5q-30 0 -47 20.5t-12 49.5q4 24 23 40t42 16zM435 743q31 0 48 -20.5t12 -49.5q-5 -25 -23.5 -40.5t-42.5 -15.5q-30 0 -47 20.5t-12 49.5q4 24 23 40t42 16zM315 522q94 0 139 -55.5t27 -155.5l-55 -311
h-104l9 49q-25 -26 -58 -42.5t-86 -16.5q-38 0 -69.5 11t-53 31.5t-31 50t-3.5 66.5q7 38 27.5 65t50.5 45t67.5 27t77.5 11l115 6l3 18q8 51 -8.5 78t-60.5 27q-26 0 -45.5 -8t-33.5 -20.5t-22.5 -29t-11.5 -33.5l-110 8q6 34 25.5 66t50 57t71 40.5t89.5 15.5zM260 210
q-50 -3 -82 -17.5t-37 -51.5q-4 -29 15.5 -43t51.5 -14q23 0 46 7t42 21t32.5 34.5t19.5 48.5l4 20z" />
    <glyph glyph-name="aring" unicode="&#xe5;" horiz-adv-x="547" 
d="M364 809q27 0 49 -9t37 -25t21 -38t2 -48q-9 -48 -46.5 -77.5t-84.5 -29.5q-27 0 -49.5 9t-37.5 25t-21 38.5t-1 48.5q4 24 16 43.5t30 33.5t39.5 21.5t45.5 7.5zM355 744q-21 0 -36.5 -12.5t-18.5 -33.5t9.5 -35.5t35.5 -14.5q21 0 36 11t18 33q3 21 -9 36.5t-35 15.5z
M315 522q94 0 139 -55.5t27 -155.5l-55 -311h-104l9 49q-25 -26 -58 -42.5t-86 -16.5q-38 0 -69.5 11t-53 31.5t-31 50t-3.5 66.5q7 38 27.5 65t50.5 45t67.5 27t77.5 11l115 6l3 18q8 51 -8.5 78t-60.5 27q-26 0 -45.5 -8t-33.5 -20.5t-22.5 -29t-11.5 -33.5l-110 8
q6 34 25.5 66t50 57t71 40.5t89.5 15.5zM260 210q-50 -3 -82 -17.5t-37 -51.5q-4 -29 15.5 -43t51.5 -14q23 0 46 7t42 21t32.5 34.5t19.5 48.5l4 20z" />
    <glyph glyph-name="ae" unicode="&#xe6;" horiz-adv-x="900" 
d="M643 522q57 0 101 -18.5t72.5 -52t39.5 -81t1 -105.5l-9 -51h-375q-5 -63 27.5 -95t91.5 -32q49 0 82 19.5t49 52.5l113 -8q-26 -75 -92.5 -118t-153.5 -43q-66 0 -116.5 24t-80.5 69q-37 -42 -88.5 -67.5t-114.5 -25.5q-42 0 -74.5 11.5t-53.5 32.5t-29.5 50t-2.5 64
q7 39 27.5 66t50.5 44.5t66.5 26.5t75.5 11l118 7l3 18q8 49 -8.5 77t-60.5 28q-26 0 -45.5 -8t-33.5 -21t-22.5 -29.5t-11.5 -32.5l-110 8q6 34 25 66t48.5 57t68.5 40.5t86 15.5q107 0 149 -68q77 68 187 68zM642 426q-59 0 -100.5 -32t-55.5 -92h263q7 59 -20 91.5
t-87 32.5zM250 209q-44 -3 -73 -17t-35 -47q-5 -29 13 -43.5t53 -14.5q22 0 44.5 6t42 19.5t34.5 36t21 55.5l2 11z" />
    <glyph glyph-name="ccedilla" unicode="&#xe7;" horiz-adv-x="584" 
d="M279 87q56 0 93.5 28t51.5 73l109 -11q-26 -87 -91.5 -136t-153.5 -51l-13 -36q45 -5 69.5 -31.5t16.5 -77.5q-4 -24 -17.5 -42.5t-32 -30.5t-41.5 -18t-45 -6q-38 0 -62 6t-42 15l24 66q11 -8 28 -12.5t37 -4.5q23 0 43.5 5.5t25.5 30.5q4 22 -10 34t-40 12
q-28 0 -41 -3l42 97q-46 7 -82.5 29t-60.5 56.5t-34 81t-3 103.5q8 62 33 110t62.5 81t85 50t101.5 17q48 0 88 -14t69 -39.5t45 -62t17 -81.5l-109 -7q0 51 -29.5 79.5t-80.5 28.5q-66 0 -112.5 -46t-57.5 -131q-5 -39 1.5 -69.5t22 -51t39.5 -31t54 -10.5z" />
    <glyph glyph-name="egrave" unicode="&#xe8;" horiz-adv-x="594" 
d="M214 787h125l61 -191h-86zM333 522q57 0 101 -18.5t72.5 -52t39.5 -81t1 -105.5l-9 -51h-375q-5 -63 27.5 -95t91.5 -32q49 0 82 19.5t49 52.5l113 -8q-26 -75 -92.5 -118t-153.5 -43q-58 0 -104.5 19t-77 54t-43.5 86t-4 115q9 61 33.5 109t62 81t85 50.5t101.5 17.5z
M332 426q-59 0 -100.5 -32t-55.5 -92h263q7 59 -20 91.5t-87 32.5z" />
    <glyph glyph-name="eacute" unicode="&#xe9;" horiz-adv-x="594" 
d="M311 596l129 191h130l-168 -191h-91zM333 522q57 0 101 -18.5t72.5 -52t39.5 -81t1 -105.5l-9 -51h-375q-5 -63 27.5 -95t91.5 -32q49 0 82 19.5t49 52.5l113 -8q-26 -75 -92.5 -118t-153.5 -43q-58 0 -104.5 19t-77 54t-43.5 86t-4 115q9 61 33.5 109t62 81t85 50.5
t101.5 17.5zM332 426q-59 0 -100.5 -32t-55.5 -92h263q7 59 -20 91.5t-87 32.5z" />
    <glyph glyph-name="ecircumflex" unicode="&#xea;" horiz-adv-x="594" 
d="M186 597l149 173h108l88 -173h-93l-58 98l-96 -98h-98zM333 522q57 0 101 -18.5t72.5 -52t39.5 -81t1 -105.5l-9 -51h-375q-5 -63 27.5 -95t91.5 -32q49 0 82 19.5t49 52.5l113 -8q-26 -75 -92.5 -118t-153.5 -43q-58 0 -104.5 19t-77 54t-43.5 86t-4 115q9 61 33.5 109
t62 81t85 50.5t101.5 17.5zM332 426q-59 0 -100.5 -32t-55.5 -92h263q7 59 -20 91.5t-87 32.5z" />
    <glyph glyph-name="edieresis" unicode="&#xeb;" horiz-adv-x="594" 
d="M284 617q-30 0 -47 20.5t-12 49.5q4 24 23 40t42 16q30 0 47.5 -20.5t12.5 -49.5q-5 -25 -24 -40.5t-42 -15.5zM452 617q-30 0 -47 20.5t-12 49.5q4 24 23 40t42 16q31 0 48 -20.5t12 -49.5q-5 -25 -23.5 -40.5t-42.5 -15.5zM333 522q57 0 101 -18.5t72.5 -52t39.5 -81
t1 -105.5l-9 -51h-375q-5 -63 27.5 -95t91.5 -32q49 0 82 19.5t49 52.5l113 -8q-26 -75 -92.5 -118t-153.5 -43q-58 0 -104.5 19t-77 54t-43.5 86t-4 115q9 61 33.5 109t62 81t85 50.5t101.5 17.5zM332 426q-59 0 -100.5 -32t-55.5 -92h263q7 59 -20 91.5t-87 32.5z" />
    <glyph glyph-name="igrave" unicode="&#xec;" 
d="M154 596l-100 191h125l61 -191h-86zM35 0l91 513h112l-91 -513h-112z" />
    <glyph glyph-name="iacute" unicode="&#xed;" 
d="M151 596l129 191h130l-168 -191h-91zM35 0l91 513h112l-91 -513h-112z" />
    <glyph glyph-name="icircumflex" unicode="&#xee;" 
d="M278 597l-58 98l-96 -98h-98l149 173h108l88 -173h-93zM35 0l91 513h112l-91 -513h-112z" />
    <glyph glyph-name="idieresis" unicode="&#xef;" 
d="M130 743q30 0 47.5 -20.5t12.5 -49.5q-5 -25 -24 -40.5t-42 -15.5q-30 0 -47 20.5t-12 49.5q4 24 23 40t42 16zM298 743q31 0 48 -20.5t12 -49.5q-5 -25 -23.5 -40.5t-42.5 -15.5q-30 0 -47 20.5t-12 49.5q4 24 23 40t42 16zM35 0l91 513h112l-91 -513h-112z" />
    <glyph glyph-name="eth" unicode="&#xf0;" horiz-adv-x="606" 
d="M478 675q59 -68 77 -171.5t-3 -234.5l-1 -12l-1 -3q-23 -131 -97.5 -197.5t-182.5 -66.5q-52 0 -97.5 17.5t-77 50.5t-46 80.5t-3.5 107.5q10 56 35 99.5t60.5 73.5t80 45.5t93.5 15.5q41 0 76 -10.5t64 -27.5q-8 112 -57 173l-96 -72l-45 51l89 66q-53 31 -135 34l7 83
q65 0 116.5 -14.5t91.5 -42.5l103 77l46 -49zM275 81q63 0 106.5 41.5t57.5 116.5l1 5q4 34 -2.5 61.5t-23 46.5t-40.5 29.5t-54 10.5q-64 0 -109.5 -43.5t-55.5 -117.5q-5 -35 1.5 -63t23 -47.5t41 -29.5t54.5 -10z" />
    <glyph glyph-name="ntilde" unicode="&#xf1;" horiz-adv-x="613" 
d="M326 747q25 0 40.5 -9t27.5 -20t23.5 -20t29.5 -9q27 0 42 14t19 36h63q0 -29 -10 -53.5t-26.5 -42.5t-38 -28.5t-43.5 -10.5q-26 0 -41.5 9t-27.5 20t-23.5 20t-29.5 9q-26 0 -41 -14.5t-20 -36.5h-62q0 29 10 54t26.5 43t37.5 28.5t44 10.5zM376 522q42 0 77 -14.5
t58 -42.5t32.5 -69t0.5 -93l-53 -303h-113l52 295q11 58 -12.5 90.5t-76.5 32.5q-29 0 -52.5 -10t-42 -27t-30.5 -40t-16 -49l-53 -292h-112l91 513h103l-10 -61q20 29 60 49.5t97 20.5z" />
    <glyph glyph-name="ograve" unicode="&#xf2;" horiz-adv-x="634" 
d="M323 596l-100 191h125l61 -191h-86zM340 522q59 0 107 -19.5t81 -55t48 -86t7 -112.5q-7 -60 -32.5 -107.5t-64.5 -81.5t-88.5 -52t-104.5 -18q-59 0 -107.5 19.5t-81 55t-47.5 86t-7 113.5q7 60 32.5 107.5t64 81t88 51.5t105.5 18zM342 426q-35 0 -65.5 -12t-54.5 -35
t-39.5 -56t-19.5 -74q-8 -77 29 -119.5t100 -42.5q35 0 65.5 12t54.5 35t39.5 56t20.5 74q7 76 -30 119t-100 43z" />
    <glyph glyph-name="oacute" unicode="&#xf3;" horiz-adv-x="634" 
d="M320 596l129 191h130l-168 -191h-91zM340 522q59 0 107 -19.5t81 -55t48 -86t7 -112.5q-7 -60 -32.5 -107.5t-64.5 -81.5t-88.5 -52t-104.5 -18q-59 0 -107.5 19.5t-81 55t-47.5 86t-7 113.5q7 60 32.5 107.5t64 81t88 51.5t105.5 18zM342 426q-35 0 -65.5 -12t-54.5 -35
t-39.5 -56t-19.5 -74q-8 -77 29 -119.5t100 -42.5q35 0 65.5 12t54.5 35t39.5 56t20.5 74q7 76 -30 119t-100 43z" />
    <glyph glyph-name="ocircumflex" unicode="&#xf4;" horiz-adv-x="634" 
d="M447 597l-58 98l-96 -98h-98l149 173h108l88 -173h-93zM340 522q59 0 107 -19.5t81 -55t48 -86t7 -112.5q-7 -60 -32.5 -107.5t-64.5 -81.5t-88.5 -52t-104.5 -18q-59 0 -107.5 19.5t-81 55t-47.5 86t-7 113.5q7 60 32.5 107.5t64 81t88 51.5t105.5 18zM342 426
q-35 0 -65.5 -12t-54.5 -35t-39.5 -56t-19.5 -74q-8 -77 29 -119.5t100 -42.5q35 0 65.5 12t54.5 35t39.5 56t20.5 74q7 76 -30 119t-100 43z" />
    <glyph glyph-name="otilde" unicode="&#xf5;" horiz-adv-x="634" 
d="M317 747q25 0 40.5 -9t27.5 -20t23.5 -20t29.5 -9q27 0 42 14t19 36h63q0 -29 -10 -53.5t-26.5 -42.5t-38 -28.5t-43.5 -10.5q-26 0 -41.5 9t-27.5 20t-23.5 20t-29.5 9q-26 0 -41 -14.5t-20 -36.5h-62q0 29 10 54t26.5 43t37.5 28.5t44 10.5zM340 522q59 0 107 -19.5
t81 -55t48 -86t7 -112.5q-7 -60 -32.5 -107.5t-64.5 -81.5t-88.5 -52t-104.5 -18q-59 0 -107.5 19.5t-81 55t-47.5 86t-7 113.5q7 60 32.5 107.5t64 81t88 51.5t105.5 18zM342 426q-35 0 -65.5 -12t-54.5 -35t-39.5 -56t-19.5 -74q-8 -77 29 -119.5t100 -42.5q35 0 65.5 12
t54.5 35t39.5 56t20.5 74q7 76 -30 119t-100 43z" />
    <glyph glyph-name="odieresis" unicode="&#xf6;" horiz-adv-x="634" 
d="M299 743q30 0 47.5 -20.5t12.5 -49.5q-5 -25 -24 -40.5t-42 -15.5q-30 0 -47 20.5t-12 49.5q4 24 23 40t42 16zM467 743q31 0 48 -20.5t12 -49.5q-5 -25 -23.5 -40.5t-42.5 -15.5q-30 0 -47 20.5t-12 49.5q4 24 23 40t42 16zM340 522q59 0 107 -19.5t81 -55t48 -86
t7 -112.5q-7 -60 -32.5 -107.5t-64.5 -81.5t-88.5 -52t-104.5 -18q-59 0 -107.5 19.5t-81 55t-47.5 86t-7 113.5q7 60 32.5 107.5t64 81t88 51.5t105.5 18zM342 426q-35 0 -65.5 -12t-54.5 -35t-39.5 -56t-19.5 -74q-8 -77 29 -119.5t100 -42.5q35 0 65.5 12t54.5 35
t39.5 56t20.5 74q7 76 -30 119t-100 43z" />
    <glyph glyph-name="divide" unicode="&#xf7;" horiz-adv-x="547" 
d="M338 668q33 0 52.5 -23t13.5 -56q-5 -27 -26.5 -45.5t-48.5 -18.5q-33 0 -52 23t-13 55q5 28 26.5 46.5t47.5 18.5zM42 318l19 106h483l-19 -106h-483zM258 217q34 0 53 -23t14 -56q-5 -27 -27 -46t-49 -19q-33 0 -52 23.5t-13 56.5q5 27 26.5 45.5t47.5 18.5z" />
    <glyph glyph-name="oslash" unicode="&#xf8;" horiz-adv-x="634" 
d="M537 438q29 -35 41.5 -83t4.5 -106q-7 -60 -32.5 -107.5t-64.5 -81.5t-88.5 -52t-104.5 -18q-80 0 -139 35l-59 -64l-57 46l60 65q-29 35 -42.5 83.5t-5.5 108.5q7 60 32.5 107.5t64 81t88 51.5t105.5 18q41 0 77 -9.5t65 -26.5l53 57l57 -46zM163 249q-3 -28 0.5 -51.5
t11.5 -42.5l236 254q-31 17 -69 17q-35 0 -65.5 -12t-54.5 -35t-39.5 -56t-19.5 -74zM472 264q3 27 -0.5 49.5t-11.5 41.5l-234 -253q28 -15 66 -15q35 0 65.5 12t54.5 35t39.5 56t20.5 74z" />
    <glyph glyph-name="ugrave" unicode="&#xf9;" horiz-adv-x="596" 
d="M314 596l-100 191h125l61 -191h-86zM367 0l12 71q-20 -32 -59 -56.5t-95 -24.5q-91 0 -134 54t-27 147l57 322h113l-53 -300q-10 -57 11 -87.5t69 -30.5q57 0 91 34.5t43 85.5l53 298h112l-90 -513h-103z" />
    <glyph glyph-name="uacute" unicode="&#xfa;" horiz-adv-x="596" 
d="M311 596l129 191h130l-168 -191h-91zM367 0l12 71q-20 -32 -59 -56.5t-95 -24.5q-91 0 -134 54t-27 147l57 322h113l-53 -300q-10 -57 11 -87.5t69 -30.5q57 0 91 34.5t43 85.5l53 298h112l-90 -513h-103z" />
    <glyph glyph-name="ucircumflex" unicode="&#xfb;" horiz-adv-x="596" 
d="M438 597l-58 98l-96 -98h-98l149 173h108l88 -173h-93zM367 0l12 71q-20 -32 -59 -56.5t-95 -24.5q-91 0 -134 54t-27 147l57 322h113l-53 -300q-10 -57 11 -87.5t69 -30.5q57 0 91 34.5t43 85.5l53 298h112l-90 -513h-103z" />
    <glyph glyph-name="udieresis" unicode="&#xfc;" horiz-adv-x="596" 
d="M290 743q30 0 47.5 -20.5t12.5 -49.5q-5 -25 -24 -40.5t-42 -15.5q-30 0 -47 20.5t-12 49.5q4 24 23 40t42 16zM458 743q31 0 48 -20.5t12 -49.5q-5 -25 -23.5 -40.5t-42.5 -15.5q-30 0 -47 20.5t-12 49.5q4 24 23 40t42 16zM367 0l12 71q-20 -32 -59 -56.5t-95 -24.5
q-91 0 -134 54t-27 147l57 322h113l-53 -300q-10 -57 11 -87.5t69 -30.5q57 0 91 34.5t43 85.5l53 298h112l-90 -513h-103z" />
    <glyph glyph-name="yacute" unicode="&#xfd;" horiz-adv-x="560" 
d="M294 596l129 191h130l-168 -191h-91zM-6 -255l179 296l-116 472h123l76 -345l201 345h126l-461 -768h-128z" />
    <glyph glyph-name="thorn" unicode="&#xfe;" horiz-adv-x="652" 
d="M226 457q23 29 62 47t98 18q55 0 99.5 -19.5t73 -55t40.5 -86t3 -113.5q-8 -60 -31.5 -107.5t-59.5 -81t-82.5 -51.5t-100.5 -18q-64 0 -105 22.5t-59 56.5l-61 -324h-112l182 1032h112zM362 425q-65 0 -109.5 -38t-55.5 -110l-5 -30q-6 -40 1 -70t24.5 -50.5t43 -30.5
t57.5 -10q66 0 113.5 42.5t58.5 123.5q6 42 -1.5 74t-25 54t-44 33.5t-57.5 11.5z" />
    <glyph glyph-name="ydieresis" unicode="&#xff;" horiz-adv-x="560" 
d="M273 743q30 0 47.5 -20.5t12.5 -49.5q-5 -25 -24 -40.5t-42 -15.5q-30 0 -47 20.5t-12 49.5q4 24 23 40t42 16zM441 743q31 0 48 -20.5t12 -49.5q-5 -25 -23.5 -40.5t-42.5 -15.5q-30 0 -47 20.5t-12 49.5q4 24 23 40t42 16zM-6 -255l179 296l-116 472h123l76 -345
l201 345h126l-461 -768h-128z" />
    <glyph glyph-name="Amacron" unicode="&#x100;" horiz-adv-x="758" 
d="M345 826l15 86h280l-16 -86h-279zM572 0l-42 174h-329l-103 -174h-130l448 748h101l184 -748h-129zM505 267l-71 297l-176 -297h247z" />
    <glyph glyph-name="amacron" unicode="&#x101;" horiz-adv-x="547" 
d="M202 628l15 87h280l-16 -87h-279zM315 522q94 0 139 -55.5t27 -155.5l-55 -311h-104l9 49q-25 -26 -58 -42.5t-86 -16.5q-38 0 -69.5 11t-53 31.5t-31 50t-3.5 66.5q7 38 27.5 65t50.5 45t67.5 27t77.5 11l115 6l3 18q8 51 -8.5 78t-60.5 27q-26 0 -45.5 -8t-33.5 -20.5
t-22.5 -29t-11.5 -33.5l-110 8q6 34 25.5 66t50 57t71 40.5t89.5 15.5zM260 210q-50 -3 -82 -17.5t-37 -51.5q-4 -29 15.5 -43t51.5 -14q23 0 46 7t42 21t32.5 34.5t19.5 48.5l4 20z" />
    <glyph glyph-name="Abreve" unicode="&#x102;" horiz-adv-x="758" 
d="M675 948q-14 -76 -64.5 -111.5t-121.5 -35.5q-39 0 -70 9.5t-51.5 28.5t-28.5 46.5t-1 62.5h90q-6 -35 13 -52t53 -17q37 0 61 20t29 49h91zM572 0l-42 174h-329l-103 -174h-130l448 748h101l184 -748h-129zM505 267l-71 297l-176 -297h247z" />
    <glyph glyph-name="abreve" unicode="&#x103;" horiz-adv-x="547" 
d="M530 743q-14 -77 -64.5 -112t-121.5 -35q-39 0 -70 10t-51.5 28.5t-28.5 46t-1 62.5h90q-6 -35 13 -52t52 -17q38 0 62 20t29 49h91zM315 522q94 0 139 -55.5t27 -155.5l-55 -311h-104l9 49q-25 -26 -58 -42.5t-86 -16.5q-38 0 -69.5 11t-53 31.5t-31 50t-3.5 66.5
q7 38 27.5 65t50.5 45t67.5 27t77.5 11l115 6l3 18q8 51 -8.5 78t-60.5 27q-26 0 -45.5 -8t-33.5 -20.5t-22.5 -29t-11.5 -33.5l-110 8q6 34 25.5 66t50 57t71 40.5t89.5 15.5zM260 210q-50 -3 -82 -17.5t-37 -51.5q-4 -29 15.5 -43t51.5 -14q23 0 46 7t42 21t32.5 34.5
t19.5 48.5l4 20z" />
    <glyph glyph-name="Aogonek" unicode="&#x104;" horiz-adv-x="758" 
d="M589 -129q18 0 31 4t26 10l8 -59q-18 -8 -37.5 -12t-43.5 -4q-52 0 -83 24t-23 72q6 35 33 59t70 42l-40 167h-329l-103 -174h-130l448 748h101l184 -748h-47q-42 -21 -70 -42t-33 -51q-3 -18 7.5 -27t30.5 -9zM434 564l-176 -297h247z" />
    <glyph glyph-name="aogonek" unicode="&#x105;" horiz-adv-x="547" 
d="M315 522q94 0 139 -55.5t27 -155.5l-55 -311h-8q-42 -20 -69 -41.5t-32 -50.5q-3 -18 7.5 -27t30.5 -9q18 0 31 4t26 10l8 -59q-18 -8 -37.5 -12t-43.5 -4q-52 0 -83 24t-23 72q6 32 29 55t60 40l9 47q-25 -26 -58 -42.5t-86 -16.5q-38 0 -69.5 11t-53 31.5t-31 50
t-3.5 66.5q7 38 27.5 65t50.5 45t67.5 27t77.5 11l115 6l3 18q8 51 -8.5 78t-60.5 27q-26 0 -45.5 -8t-33.5 -20.5t-22.5 -29t-11.5 -33.5l-110 8q6 34 25.5 66t50 57t71 40.5t89.5 15.5zM208 84q23 0 46 7t42 21t32.5 34.5t19.5 48.5l4 20l-92 -5q-50 -3 -82 -17.5
t-37 -51.5q-4 -29 15.5 -43t51.5 -14z" />
    <glyph glyph-name="Cacute" unicode="&#x106;" horiz-adv-x="816" 
d="M451 795l165 147h157l-215 -147h-107zM490 758q69 0 126.5 -19.5t99.5 -56t66 -88.5t24 -117l-123 -9q-1 45 -16.5 79t-41.5 57.5t-62 35.5t-78 12q-57 0 -106.5 -20t-87.5 -56.5t-63 -89.5t-34 -119q-9 -67 3.5 -117.5t41 -84.5t70.5 -51.5t93 -17.5q92 0 159.5 46
t95.5 133l122 -14q-19 -64 -55.5 -114t-86 -85t-109 -53.5t-124.5 -18.5q-82 0 -148 26.5t-110.5 76.5t-63.5 123t-7 165q12 90 49 160t92 118t125.5 73.5t148.5 25.5z" />
    <glyph glyph-name="cacute" unicode="&#x107;" horiz-adv-x="584" 
d="M305 596l129 191h130l-168 -191h-91zM332 522q48 0 88 -14t69 -39.5t45 -62t17 -81.5l-109 -7q0 51 -29.5 79.5t-80.5 28.5q-66 0 -112.5 -46t-57.5 -131q-5 -39 1.5 -69.5t22 -51t39.5 -31t54 -10.5q56 0 93.5 28t51.5 73l109 -11q-13 -44 -37.5 -79t-57.5 -59
t-73 -36.5t-85 -12.5q-57 0 -103 18.5t-77 54t-44.5 86t-5.5 115.5q8 62 33 110t62.5 81t85 50t101.5 17z" />
    <glyph glyph-name="Ccircumflex" unicode="&#x108;" horiz-adv-x="816" 
d="M582 795l-60 84l-93 -84h-98l144 150h108l92 -150h-93zM490 758q69 0 126.5 -19.5t99.5 -56t66 -88.5t24 -117l-123 -9q-1 45 -16.5 79t-41.5 57.5t-62 35.5t-78 12q-57 0 -106.5 -20t-87.5 -56.5t-63 -89.5t-34 -119q-9 -67 3.5 -117.5t41 -84.5t70.5 -51.5t93 -17.5
q92 0 159.5 46t95.5 133l122 -14q-19 -64 -55.5 -114t-86 -85t-109 -53.5t-124.5 -18.5q-82 0 -148 26.5t-110.5 76.5t-63.5 123t-7 165q12 90 49 160t92 118t125.5 73.5t148.5 25.5z" />
    <glyph glyph-name="ccircumflex" unicode="&#x109;" horiz-adv-x="584" 
d="M432 597l-58 98l-96 -98h-98l149 173h108l88 -173h-93zM332 522q48 0 88 -14t69 -39.5t45 -62t17 -81.5l-109 -7q0 51 -29.5 79.5t-80.5 28.5q-66 0 -112.5 -46t-57.5 -131q-5 -39 1.5 -69.5t22 -51t39.5 -31t54 -10.5q56 0 93.5 28t51.5 73l109 -11q-13 -44 -37.5 -79
t-57.5 -59t-73 -36.5t-85 -12.5q-57 0 -103 18.5t-77 54t-44.5 86t-5.5 115.5q8 62 33 110t62.5 81t85 50t101.5 17z" />
    <glyph glyph-name="Cdotaccent" unicode="&#x10a;" horiz-adv-x="816" 
d="M522 946q33 0 52.5 -23.5t14.5 -55.5q-5 -27 -27 -45t-48 -18q-33 0 -52 23t-13 55q5 27 26.5 45.5t46.5 18.5zM490 758q69 0 126.5 -19.5t99.5 -56t66 -88.5t24 -117l-123 -9q-1 45 -16.5 79t-41.5 57.5t-62 35.5t-78 12q-57 0 -106.5 -20t-87.5 -56.5t-63 -89.5
t-34 -119q-9 -67 3.5 -117.5t41 -84.5t70.5 -51.5t93 -17.5q92 0 159.5 46t95.5 133l122 -14q-19 -64 -55.5 -114t-86 -85t-109 -53.5t-124.5 -18.5q-82 0 -148 26.5t-110.5 76.5t-63.5 123t-7 165q12 90 49 160t92 118t125.5 73.5t148.5 25.5z" />
    <glyph glyph-name="cdotaccent" unicode="&#x10b;" horiz-adv-x="584" 
d="M372 752q33 0 52 -23t13 -55q-5 -27 -26.5 -45.5t-47.5 -18.5q-33 0 -52 23t-13 55q5 27 26.5 45.5t47.5 18.5zM332 522q48 0 88 -14t69 -39.5t45 -62t17 -81.5l-109 -7q0 51 -29.5 79.5t-80.5 28.5q-66 0 -112.5 -46t-57.5 -131q-5 -39 1.5 -69.5t22 -51t39.5 -31
t54 -10.5q56 0 93.5 28t51.5 73l109 -11q-13 -44 -37.5 -79t-57.5 -59t-73 -36.5t-85 -12.5q-57 0 -103 18.5t-77 54t-44.5 86t-5.5 115.5q8 62 33 110t62.5 81t85 50t101.5 17z" />
    <glyph glyph-name="Ccaron" unicode="&#x10c;" horiz-adv-x="816" 
d="M452 795l-92 150h93l60 -83l93 83h98l-145 -150h-107zM490 758q69 0 126.5 -19.5t99.5 -56t66 -88.5t24 -117l-123 -9q-1 45 -16.5 79t-41.5 57.5t-62 35.5t-78 12q-57 0 -106.5 -20t-87.5 -56.5t-63 -89.5t-34 -119q-9 -67 3.5 -117.5t41 -84.5t70.5 -51.5t93 -17.5
q92 0 159.5 46t95.5 133l122 -14q-19 -64 -55.5 -114t-86 -85t-109 -53.5t-124.5 -18.5q-82 0 -148 26.5t-110.5 76.5t-63.5 123t-7 165q12 90 49 160t92 118t125.5 73.5t148.5 25.5z" />
    <glyph glyph-name="ccaron" unicode="&#x10d;" horiz-adv-x="584" 
d="M301 595l-88 172h93l58 -98l96 98h98l-149 -172h-108zM332 522q48 0 88 -14t69 -39.5t45 -62t17 -81.5l-109 -7q0 51 -29.5 79.5t-80.5 28.5q-66 0 -112.5 -46t-57.5 -131q-5 -39 1.5 -69.5t22 -51t39.5 -31t54 -10.5q56 0 93.5 28t51.5 73l109 -11q-13 -44 -37.5 -79
t-57.5 -59t-73 -36.5t-85 -12.5q-57 0 -103 18.5t-77 54t-44.5 86t-5.5 115.5q8 62 33 110t62.5 81t85 50t101.5 17z" />
    <glyph glyph-name="Dcaron" unicode="&#x10e;" horiz-adv-x="801" 
d="M392 795l-92 150h93l60 -83l93 83h98l-145 -150h-107zM449 748q78 0 143 -26t108.5 -74.5t61.5 -119.5t4 -161q-14 -89 -50.5 -157.5t-90.5 -115t-123 -70.5t-147 -24h-317l132 748h279zM175 102h188q54 0 102.5 17.5t87 52.5t64 87t34.5 120q9 66 -2 116t-38.5 83.5
t-70 50.5t-96.5 17h-173z" />
    <glyph glyph-name="dcaron" unicode="&#x10f;" horiz-adv-x="782" 
d="M663 777l-136 -777h-105l11 62q-51 -72 -166 -72q-56 0 -100 19.5t-72.5 55t-40.5 86t-3 113.5q8 60 31.5 107.5t59.5 81t82.5 51.5t100.5 18q64 0 105 -22.5t59 -56.5l62 334h112zM783 761q36 0 52 -24.5t9 -62.5q-11 -63 -49 -114t-113 -88l2 52q58 36 82 96
q-29 4 -44 26t-10 51q5 27 25 45.5t46 18.5zM461 265q6 40 -1 70t-24.5 50.5t-43.5 30.5t-57 10q-66 0 -113.5 -42.5t-58.5 -123.5q-6 -42 1.5 -74t25 -54t43.5 -33.5t58 -11.5q65 0 109.5 38t55.5 110z" />
    <glyph glyph-name="Dcroat" unicode="&#x110;" horiz-adv-x="799" 
d="M449 748q78 0 143 -26t108.5 -74.5t61.5 -119.5t4 -161q-14 -89 -50.5 -157.5t-90.5 -115t-123 -70.5t-147 -24h-317l58 328h-78l16 91h78l58 329h279zM651 379q9 66 -2 116t-38.5 83.5t-70 50.5t-96.5 17h-173l-40 -227h151l-16 -91h-151l-40 -226h188q54 0 102.5 17.5
t87 52.5t64 87t34.5 120z" />
    <glyph glyph-name="dcroat" unicode="&#x111;" horiz-adv-x="648" 
d="M633 605l-106 -605h-105l11 62q-51 -72 -166 -72q-56 0 -100 19.5t-72.5 55t-40.5 86t-3 113.5q8 60 31.5 107.5t59.5 81t82.5 51.5t100.5 18q64 0 105 -22.5t59 -56.5l30 162h-89l15 87h90l16 85h112l-15 -85h77l-16 -87h-76zM461 265q6 40 -1 70t-24.5 50.5t-43.5 30.5
t-57 10q-66 0 -113.5 -42.5t-58.5 -123.5q-6 -42 1.5 -74t25 -54t43.5 -33.5t58 -11.5q65 0 109.5 38t55.5 110z" />
    <glyph glyph-name="Emacron" unicode="&#x112;" horiz-adv-x="597" 
d="M284 826l15 86h280l-16 -86h-279zM270 643l-36 -206h307l-18 -103h-308l-40 -228h352l-19 -106h-470l132 748h470l-19 -105h-351z" />
    <glyph glyph-name="emacron" unicode="&#x113;" horiz-adv-x="594" 
d="M225 628l15 87h280l-16 -87h-279zM333 522q57 0 101 -18.5t72.5 -52t39.5 -81t1 -105.5l-9 -51h-375q-5 -63 27.5 -95t91.5 -32q49 0 82 19.5t49 52.5l113 -8q-26 -75 -92.5 -118t-153.5 -43q-58 0 -104.5 19t-77 54t-43.5 86t-4 115q9 61 33.5 109t62 81t85 50.5
t101.5 17.5zM332 426q-59 0 -100.5 -32t-55.5 -92h263q7 59 -20 91.5t-87 32.5z" />
    <glyph glyph-name="Ebreve" unicode="&#x114;" horiz-adv-x="597" 
d="M614 948q-14 -76 -64.5 -111.5t-121.5 -35.5q-39 0 -70 9.5t-51.5 28.5t-28.5 46.5t-1 62.5h90q-6 -35 13 -52t53 -17q37 0 61 20t29 49h91zM270 643l-36 -206h307l-18 -103h-308l-40 -228h352l-19 -106h-470l132 748h470l-19 -105h-351z" />
    <glyph glyph-name="ebreve" unicode="&#x115;" horiz-adv-x="594" 
d="M367 596q-39 0 -70 10t-51.5 28.5t-28.5 46t-1 62.5h90q-6 -35 13 -52t52 -17q38 0 62 20t29 49h91q-14 -77 -64.5 -112t-121.5 -35zM333 522q57 0 101 -18.5t72.5 -52t39.5 -81t1 -105.5l-9 -51h-375q-5 -63 27.5 -95t91.5 -32q49 0 82 19.5t49 52.5l113 -8
q-26 -75 -92.5 -118t-153.5 -43q-58 0 -104.5 19t-77 54t-43.5 86t-4 115q9 61 33.5 109t62 81t85 50.5t101.5 17.5zM332 426q-59 0 -100.5 -32t-55.5 -92h263q7 59 -20 91.5t-87 32.5z" />
    <glyph glyph-name="Edotaccent" unicode="&#x116;" horiz-adv-x="597" 
d="M436 946q33 0 52.5 -23.5t14.5 -55.5q-5 -27 -27 -45t-48 -18q-33 0 -52 23t-13 55q5 27 26.5 45.5t46.5 18.5zM270 643l-36 -206h307l-18 -103h-308l-40 -228h352l-19 -106h-470l132 748h470l-19 -105h-351z" />
    <glyph glyph-name="edotaccent" unicode="&#x117;" horiz-adv-x="594" 
d="M369 610q-33 0 -52 23t-13 55q5 27 26.5 45.5t47.5 18.5q33 0 52 -23t13 -55q-5 -27 -26.5 -45.5t-47.5 -18.5zM333 522q57 0 101 -18.5t72.5 -52t39.5 -81t1 -105.5l-9 -51h-375q-5 -63 27.5 -95t91.5 -32q49 0 82 19.5t49 52.5l113 -8q-26 -75 -92.5 -118t-153.5 -43
q-58 0 -104.5 19t-77 54t-43.5 86t-4 115q9 61 33.5 109t62 81t85 50.5t101.5 17.5zM332 426q-59 0 -100.5 -32t-55.5 -92h263q7 59 -20 91.5t-87 32.5z" />
    <glyph glyph-name="Eogonek" unicode="&#x118;" horiz-adv-x="597" 
d="M234 437h307l-18 -103h-308l-40 -228h352l-19 -106h-5q-42 -21 -70 -42t-33 -51q-3 -18 7.5 -27t30.5 -9q18 0 31 4t26 10l8 -59q-18 -8 -37.5 -12t-43.5 -4q-52 0 -83 24t-23 72q5 32 28 54.5t59 39.5h-365l132 748h470l-19 -105h-351z" />
    <glyph glyph-name="eogonek" unicode="&#x119;" horiz-adv-x="594" 
d="M333 522q57 0 101 -18.5t72.5 -52t39.5 -81t1 -105.5l-9 -51h-374q-5 -63 27.5 -95t90.5 -32q49 0 82 19.5t49 52.5l113 -8q-22 -65 -75.5 -106t-124.5 -52q-38 -19 -62.5 -39t-29.5 -48q-3 -18 7.5 -27t30.5 -9q18 0 31 4t26 10l8 -59q-18 -8 -37.5 -12t-43.5 -4
q-52 0 -83 24t-23 72q5 29 25.5 50.5t52.5 38.5q-47 8 -83 30t-59.5 56.5t-33 80.5t-1.5 103q9 61 33.5 109t62 81t85 50.5t101.5 17.5zM332 426q-59 0 -100.5 -32t-55.5 -92h263q7 59 -20 91.5t-87 32.5z" />
    <glyph glyph-name="Ecaron" unicode="&#x11a;" horiz-adv-x="597" 
d="M366 795l-92 150h93l60 -83l93 83h98l-145 -150h-107zM270 643l-36 -206h307l-18 -103h-308l-40 -228h352l-19 -106h-470l132 748h470l-19 -105h-351z" />
    <glyph glyph-name="ecaron" unicode="&#x11b;" horiz-adv-x="594" 
d="M219 767h93l58 -98l96 98h98l-149 -172h-108zM333 522q57 0 101 -18.5t72.5 -52t39.5 -81t1 -105.5l-9 -51h-375q-5 -63 27.5 -95t91.5 -32q49 0 82 19.5t49 52.5l113 -8q-26 -75 -92.5 -118t-153.5 -43q-58 0 -104.5 19t-77 54t-43.5 86t-4 115q9 61 33.5 109t62 81
t85 50.5t101.5 17.5zM332 426q-59 0 -100.5 -32t-55.5 -92h263q7 59 -20 91.5t-87 32.5z" />
    <glyph glyph-name="Gcircumflex" unicode="&#x11c;" horiz-adv-x="827" 
d="M333 795l144 150h108l92 -150h-93l-60 84l-93 -84h-98zM798 392l-6 -43q-11 -83 -44 -149.5t-83.5 -113t-117 -71.5t-145.5 -25q-81 0 -147 26.5t-110 76.5t-63 123t-7 165q12 90 49 160t92 118t125 73.5t148 25.5q66 0 122 -18t97.5 -52t66 -83.5t29.5 -111.5l-122 -13
q-4 83 -57.5 127.5t-138.5 44.5q-57 0 -106.5 -18t-87.5 -54t-63.5 -89.5t-34.5 -123.5q-9 -68 2.5 -118.5t39.5 -84.5t70.5 -51t95.5 -17q90 0 156.5 46.5t94.5 144.5h-219l15 105h349z" />
    <glyph glyph-name="gcircumflex" unicode="&#x11d;" horiz-adv-x="646" 
d="M456 597l-58 98l-96 -98h-98l149 173h108l88 -173h-93zM326 522q66 0 108.5 -25.5t61.5 -63.5l15 80h106l-95 -541q-9 -56 -34.5 -99.5t-63 -74t-86 -46.5t-104.5 -16q-58 0 -100.5 14t-70.5 39t-42 59t-14 73l110 3q0 -45 32.5 -69t85.5 -24q68 0 115 37t59 103l15 81
q-45 -62 -156 -62q-56 0 -100 19.5t-72.5 55t-40.5 86t-3 113.5q8 60 31.5 107.5t59.5 81t82.5 51.5t100.5 18zM336 426q-66 0 -113.5 -42.5t-58.5 -123.5q-6 -42 1.5 -74t25 -54t43.5 -33.5t58 -11.5q65 0 109.5 38t55.5 110l5 30q6 40 -1 70t-24.5 50.5t-43.5 30.5t-57 10
z" />
    <glyph glyph-name="Gbreve" unicode="&#x11e;" horiz-adv-x="827" 
d="M516 801q-39 0 -70 9.5t-51.5 28.5t-28.5 46.5t-1 62.5h90q-6 -35 13 -52t53 -17q37 0 61 20t29 49h91q-14 -76 -64.5 -111.5t-121.5 -35.5zM798 392l-6 -43q-11 -83 -44 -149.5t-83.5 -113t-117 -71.5t-145.5 -25q-81 0 -147 26.5t-110 76.5t-63 123t-7 165
q12 90 49 160t92 118t125 73.5t148 25.5q66 0 122 -18t97.5 -52t66 -83.5t29.5 -111.5l-122 -13q-4 83 -57.5 127.5t-138.5 44.5q-57 0 -106.5 -18t-87.5 -54t-63.5 -89.5t-34.5 -123.5q-9 -68 2.5 -118.5t39.5 -84.5t70.5 -51t95.5 -17q90 0 156.5 46.5t94.5 144.5h-219
l15 105h349z" />
    <glyph glyph-name="gbreve" unicode="&#x11f;" horiz-adv-x="646" 
d="M571 743q-14 -77 -64.5 -112t-121.5 -35q-39 0 -70 10t-51.5 28.5t-28.5 46t-1 62.5h90q-6 -35 13 -52t52 -17q38 0 62 20t29 49h91zM326 522q66 0 108.5 -25.5t61.5 -63.5l15 80h106l-95 -541q-9 -56 -34.5 -99.5t-63 -74t-86 -46.5t-104.5 -16q-58 0 -100.5 14
t-70.5 39t-42 59t-14 73l110 3q0 -45 32.5 -69t85.5 -24q68 0 115 37t59 103l15 81q-45 -62 -156 -62q-56 0 -100 19.5t-72.5 55t-40.5 86t-3 113.5q8 60 31.5 107.5t59.5 81t82.5 51.5t100.5 18zM336 426q-66 0 -113.5 -42.5t-58.5 -123.5q-6 -42 1.5 -74t25 -54
t43.5 -33.5t58 -11.5q65 0 109.5 38t55.5 110l5 30q6 40 -1 70t-24.5 50.5t-43.5 30.5t-57 10z" />
    <glyph glyph-name="Gdotaccent" unicode="&#x120;" horiz-adv-x="827" 
d="M516 804q-33 0 -52 23t-13 55q5 27 26.5 45.5t46.5 18.5q33 0 52.5 -23.5t14.5 -55.5q-5 -27 -27 -45t-48 -18zM798 392l-6 -43q-11 -83 -44 -149.5t-83.5 -113t-117 -71.5t-145.5 -25q-81 0 -147 26.5t-110 76.5t-63 123t-7 165q12 90 49 160t92 118t125 73.5t148 25.5
q66 0 122 -18t97.5 -52t66 -83.5t29.5 -111.5l-122 -13q-4 83 -57.5 127.5t-138.5 44.5q-57 0 -106.5 -18t-87.5 -54t-63.5 -89.5t-34.5 -123.5q-9 -68 2.5 -118.5t39.5 -84.5t70.5 -51t95.5 -17q90 0 156.5 46.5t94.5 144.5h-219l15 105h349z" />
    <glyph glyph-name="gdotaccent" unicode="&#x121;" horiz-adv-x="646" 
d="M396 752q33 0 52 -23t13 -55q-5 -27 -26.5 -45.5t-47.5 -18.5q-33 0 -52 23t-13 55q5 27 26.5 45.5t47.5 18.5zM326 522q66 0 108.5 -25.5t61.5 -63.5l15 80h106l-95 -541q-9 -56 -34.5 -99.5t-63 -74t-86 -46.5t-104.5 -16q-58 0 -100.5 14t-70.5 39t-42 59t-14 73
l110 3q0 -45 32.5 -69t85.5 -24q68 0 115 37t59 103l15 81q-45 -62 -156 -62q-56 0 -100 19.5t-72.5 55t-40.5 86t-3 113.5q8 60 31.5 107.5t59.5 81t82.5 51.5t100.5 18zM336 426q-66 0 -113.5 -42.5t-58.5 -123.5q-6 -42 1.5 -74t25 -54t43.5 -33.5t58 -11.5
q65 0 109.5 38t55.5 110l5 30q6 40 -1 70t-24.5 50.5t-43.5 30.5t-57 10z" />
    <glyph glyph-name="Gcommaaccent" unicode="&#x122;" horiz-adv-x="827" 
d="M798 392l-6 -43q-11 -83 -44 -149.5t-83.5 -113t-117 -71.5t-145.5 -25q-81 0 -147 26.5t-110 76.5t-63 123t-7 165q12 90 49 160t92 118t125 73.5t148 25.5q66 0 122 -18t97.5 -52t66 -83.5t29.5 -111.5l-122 -13q-4 83 -57.5 127.5t-138.5 44.5q-57 0 -106.5 -18
t-87.5 -54t-63.5 -89.5t-34.5 -123.5q-9 -68 2.5 -118.5t39.5 -84.5t70.5 -51t95.5 -17q90 0 156.5 46.5t94.5 144.5h-219l15 105h349zM362 -47q36 0 52 -24.5t9 -62.5q-11 -63 -49 -114t-113 -88l2 52q58 36 82 96q-29 4 -44 26t-10 51q5 27 25 45.5t46 18.5z" />
    <glyph glyph-name="gcommaaccent" unicode="&#x123;" horiz-adv-x="646" 
d="M497 778q-11 -63 -49 -114t-113 -88l2 52q58 36 82 96q-29 4 -44 26t-10 51q5 27 25 45.5t46 18.5q36 0 52 -24.5t9 -62.5zM522 -28q-9 -56 -34.5 -99.5t-63 -74t-86 -46.5t-104.5 -16q-58 0 -100.5 14t-70.5 39t-42 59t-14 73l110 3q0 -45 32.5 -69t85.5 -24
q68 0 115 37t59 103l15 81q-45 -62 -156 -62q-56 0 -100 19.5t-72.5 55t-40.5 86t-3 113.5q8 60 31.5 107.5t59.5 81t82.5 51.5t100.5 18q66 0 108.5 -25.5t61.5 -63.5l15 80h106zM462 265q6 40 -1 70t-24.5 50.5t-43.5 30.5t-57 10q-66 0 -113.5 -42.5t-58.5 -123.5
q-6 -42 1.5 -74t25 -54t43.5 -33.5t58 -11.5q65 0 109.5 38t55.5 110z" />
    <glyph glyph-name="Hcircumflex" unicode="&#x124;" horiz-adv-x="757" 
d="M552 795l-60 84l-93 -84h-98l144 150h108l92 -150h-93zM509 0l59 333h-352l-59 -333h-119l132 748h119l-55 -309h353l54 309h119l-132 -748h-119z" />
    <glyph glyph-name="hcircumflex" unicode="&#x125;" horiz-adv-x="609" 
d="M312 799l-60 84l-93 -84h-98l144 150h108l92 -150h-93zM226 461q20 25 58 43t92 18q42 0 77 -14.5t58 -42.5t32.5 -69t0.5 -93l-53 -303h-113l52 295q11 58 -12.5 90.5t-76.5 32.5q-29 0 -52.5 -10t-42 -27t-30.5 -40t-16 -49l-53 -292h-112l137 777h112z" />
    <glyph glyph-name="Hbar" unicode="&#x126;" horiz-adv-x="770" 
d="M730 545l-96 -545h-119l59 333h-352l-59 -333h-119l96 545h-81l16 91h81l20 112h119l-20 -112h352l20 112h119l-20 -112h83l-16 -91h-83zM259 545l-19 -106h353l19 106h-353z" />
    <glyph glyph-name="hbar" unicode="&#x127;" horiz-adv-x="609" 
d="M376 522q42 0 77 -14.5t58 -42.5t32.5 -69t0.5 -93l-53 -303h-113l52 295q11 58 -12.5 90.5t-76.5 32.5q-29 0 -52.5 -10t-42 -27t-30.5 -40t-16 -49l-53 -292h-112l107 605h-76l15 87h76l15 85h112l-16 -85h93l-16 -87h-93l-26 -144q20 25 58 43t92 18z" />
    <glyph glyph-name="Itilde" unicode="&#x128;" horiz-adv-x="286" 
d="M191 946q25 0 40.5 -9t27.5 -20t23.5 -20t29.5 -9q27 0 42 14t19 36h62q0 -29 -10 -53.5t-26.5 -42.5t-37.5 -28t-43 -10q-26 0 -41.5 9t-27.5 19.5t-23.5 19.5t-29.5 9q-26 0 -41 -14.5t-20 -36.5h-62q0 29 10 54t26.5 43t37.5 28.5t44 10.5zM38 0l132 748h119
l-132 -748h-119z" />
    <glyph glyph-name="itilde" unicode="&#x129;" 
d="M148 747q25 0 40.5 -9t27.5 -20t23.5 -20t29.5 -9q27 0 42 14t19 36h63q0 -29 -10 -53.5t-26.5 -42.5t-38 -28.5t-43.5 -10.5q-26 0 -41.5 9t-27.5 20t-23.5 20t-29.5 9q-26 0 -41 -14.5t-20 -36.5h-62q0 29 10 54t26.5 43t37.5 28.5t44 10.5zM35 0l91 513h112l-91 -513
h-112z" />
    <glyph glyph-name="Imacron" unicode="&#x12a;" horiz-adv-x="286" 
d="M107 826l15 86h280l-16 -86h-279zM38 0l132 748h119l-132 -748h-119z" />
    <glyph glyph-name="imacron" unicode="&#x12b;" 
d="M65 628l15 87h280l-16 -87h-279zM35 0l91 513h112l-91 -513h-112z" />
    <glyph glyph-name="Ibreve" unicode="&#x12c;" horiz-adv-x="286" 
d="M437 948q-14 -76 -64.5 -111.5t-121.5 -35.5q-39 0 -70 9.5t-51.5 28.5t-28.5 46.5t-1 62.5h90q-6 -35 13 -52t53 -17q37 0 61 20t29 49h91zM38 0l132 748h119l-132 -748h-119z" />
    <glyph glyph-name="ibreve" unicode="&#x12d;" 
d="M393 743q-14 -77 -64.5 -112t-121.5 -35q-39 0 -70 10t-51.5 28.5t-28.5 46t-1 62.5h90q-6 -35 13 -52t52 -17q38 0 62 20t29 49h91zM35 0l91 513h112l-91 -513h-112z" />
    <glyph glyph-name="Iogonek" unicode="&#x12e;" horiz-adv-x="286" 
d="M112 0q-42 -20 -69 -41.5t-32 -50.5q-3 -18 7.5 -27t30.5 -9q18 0 31 4t26 10l8 -59q-18 -8 -37.5 -12t-43.5 -4q-52 0 -83 24t-23 72q7 37 36.5 61.5t76.5 44.5l130 735h119l-132 -748h-45z" />
    <glyph glyph-name="iogonek" unicode="&#x12f;" 
d="M218 752q33 0 52 -23t13 -55q-5 -27 -26.5 -45.5t-47.5 -18.5q-33 0 -52 23t-13 55q5 27 26.5 45.5t47.5 18.5zM238 513l-91 -513h-26q-42 -20 -69 -41.5t-32 -50.5q-3 -18 7.5 -27t30.5 -9q18 0 31 4t26 10l8 -59q-18 -8 -37.5 -12t-43.5 -4q-52 0 -83 24t-23 72
q6 34 32 58t68 42l90 506h112z" />
    <glyph glyph-name="Idotaccent" unicode="&#x130;" horiz-adv-x="286" 
d="M259 946q33 0 52.5 -23.5t14.5 -55.5q-5 -27 -27 -45t-48 -18q-33 0 -52 23t-13 55q5 27 26.5 45.5t46.5 18.5zM38 0l132 748h119l-132 -748h-119z" />
    <glyph glyph-name="dotlessi" unicode="&#x131;" 
d="M35 0l91 513h112l-91 -513h-112z" />
    <glyph glyph-name="Jcircumflex" unicode="&#x134;" horiz-adv-x="594" 
d="M636 795l-60 84l-93 -84h-98l144 150h108l92 -150h-93zM515 247q-22 -125 -96.5 -191t-186.5 -66q-57 0 -100 18t-70.5 50.5t-39 78.5t-4.5 103l120 5q-8 -73 17.5 -111t84.5 -38q60 0 101.5 39.5t55.5 112.5l88 500h118z" />
    <glyph glyph-name="jcircumflex" unicode="&#x135;" 
d="M275 597l-58 98l-96 -98h-98l149 173h108l88 -173h-93zM136 -68q-9 -52 -28 -89t-45.5 -60.5t-60 -34.5t-70.5 -11q-38 0 -62.5 8.5t-41.5 19.5l54 88q8 -7 17 -11.5t22 -4.5q41 0 68 24t36 72l102 580h112z" />
    <glyph glyph-name="Kcommaaccent" unicode="&#x136;" horiz-adv-x="695" 
d="M634 0h-133l-185 344l-117 -109l-42 -235h-119l132 748h119l-61 -335l350 335h160l-334 -319zM293 -42q36 0 52 -24.5t9 -62.5q-11 -63 -49 -114t-113 -88l2 52q58 36 82 96q-29 4 -44 26t-10 51q5 27 25 45.5t46 18.5z" />
    <glyph glyph-name="kcommaaccent" unicode="&#x137;" horiz-adv-x="557" 
d="M499 0h-130l-125 209l-69 -59l-28 -150h-112l137 777h112l-82 -466l230 202h152l-257 -228zM228 -42q36 0 52 -24.5t9 -62.5q-11 -63 -49 -114t-113 -88l2 52q58 36 82 96q-29 4 -44 26t-10 51q5 27 25 45.5t46 18.5z" />
    <glyph glyph-name="Lacute" unicode="&#x139;" horiz-adv-x="591" 
d="M190 795l165 147h157l-215 -147h-107zM529 106l-18 -106h-473l132 748h119l-114 -642h354z" />
    <glyph glyph-name="lacute" unicode="&#x13a;" 
d="M185 810l165 147h157l-215 -147h-107zM35 0l137 777h112l-137 -777h-112z" />
    <glyph glyph-name="Lcommaaccent" unicode="&#x13b;" horiz-adv-x="591" 
d="M511 0h-473l132 748h119l-114 -642h354zM263 -42q36 0 52 -24.5t9 -62.5q-11 -63 -49 -114t-113 -88l2 52q58 36 82 96q-29 4 -44 26t-10 51q5 27 25 45.5t46 18.5z" />
    <glyph glyph-name="lcommaaccent" unicode="&#x13c;" 
d="M147 0h-112l137 777h112zM73 -42q36 0 52 -24.5t9 -62.5q-11 -63 -49 -114t-113 -88l2 52q58 36 82 96q-29 4 -44 26t-10 51q5 27 25 45.5t46 18.5z" />
    <glyph glyph-name="Lcaron" unicode="&#x13d;" horiz-adv-x="591" 
d="M589 761q36 0 52 -24.5t9 -62.5q-11 -63 -49 -114t-113 -88l2 52q58 36 82 96q-29 4 -44 26t-10 51q5 27 25 45.5t46 18.5zM529 106l-18 -106h-473l132 748h119l-114 -642h354z" />
    <glyph glyph-name="lcaron" unicode="&#x13e;" horiz-adv-x="407" 
d="M284 777l-137 -777h-112l137 777h112zM405 761q36 0 52 -24.5t9 -62.5q-11 -63 -49 -114t-113 -88l2 52q58 36 82 96q-29 4 -44 26t-10 51q5 27 25 45.5t46 18.5z" />
    <glyph glyph-name="Ldot" unicode="&#x13f;" horiz-adv-x="591" 
d="M529 106l-18 -106h-473l132 748h119l-114 -642h354zM510 470q34 0 53 -23.5t14 -56.5q-5 -27 -27 -45.5t-48 -18.5q-34 0 -53 23t-13 56q5 27 26.5 46t47.5 19z" />
    <glyph glyph-name="ldot" unicode="&#x140;" horiz-adv-x="425" 
d="M35 0l137 777h112l-137 -777h-112zM344 380q34 0 53 -23.5t14 -56.5q-5 -27 -27 -45.5t-48 -18.5q-34 0 -53 23t-13 56q5 27 26.5 46t47.5 19z" />
    <glyph glyph-name="Lslash" unicode="&#x141;" horiz-adv-x="601" 
d="M511 0h-473l47 266l-77 -19l2 91l92 23l68 387h119l-63 -357l117 29l-2 -90l-132 -33l-34 -191h354z" />
    <glyph glyph-name="lslash" unicode="&#x142;" horiz-adv-x="297" 
d="M158 0h-112l41 234l-90 -27l-6 89l113 34l79 447h112l-73 -411l94 28l6 -89l-116 -35z" />
    <glyph glyph-name="Nacute" unicode="&#x143;" horiz-adv-x="755" 
d="M412 795l165 147h157l-215 -147h-107zM526 0l-276 528l-93 -528h-119l132 748h100l277 -529l93 529h119l-132 -748h-101z" />
    <glyph glyph-name="nacute" unicode="&#x144;" horiz-adv-x="613" 
d="M329 596l129 191h130l-168 -191h-91zM376 522q42 0 77 -14.5t58 -42.5t32.5 -69t0.5 -93l-53 -303h-113l52 295q11 58 -12.5 90.5t-76.5 32.5q-29 0 -52.5 -10t-42 -27t-30.5 -40t-16 -49l-53 -292h-112l91 513h103l-10 -61q20 29 60 49.5t97 20.5z" />
    <glyph glyph-name="Ncommaaccent" unicode="&#x145;" horiz-adv-x="755" 
d="M627 0h-101l-276 528l-93 -528h-119l132 748h100l277 -529l93 529h119zM323 -42q36 0 52 -24.5t9 -62.5q-11 -63 -49 -114t-113 -88l2 52q58 36 82 96q-29 4 -44 26t-10 51q5 27 25 45.5t46 18.5z" />
    <glyph glyph-name="ncommaaccent" unicode="&#x146;" horiz-adv-x="613" 
d="M376 522q42 0 77 -14.5t58 -42.5t32.5 -69t0.5 -93l-53 -303h-113l52 295q11 58 -12.5 90.5t-76.5 32.5q-29 0 -52.5 -10t-42 -27t-30.5 -40t-16 -49l-53 -292h-112l91 513h103l-10 -61q20 29 60 49.5t97 20.5zM246 -42q36 0 52 -24.5t9 -62.5q-11 -63 -49 -114t-113 -88
l2 52q58 36 82 96q-29 4 -44 26t-10 51q5 27 25 45.5t46 18.5z" />
    <glyph glyph-name="Ncaron" unicode="&#x147;" horiz-adv-x="755" 
d="M413 795l-92 150h93l60 -83l93 83h98l-145 -150h-107zM526 0l-276 528l-93 -528h-119l132 748h100l277 -529l93 529h119l-132 -748h-101z" />
    <glyph glyph-name="ncaron" unicode="&#x148;" horiz-adv-x="613" 
d="M325 595l-88 172h93l58 -98l96 98h98l-149 -172h-108zM376 522q42 0 77 -14.5t58 -42.5t32.5 -69t0.5 -93l-53 -303h-113l52 295q11 58 -12.5 90.5t-76.5 32.5q-29 0 -52.5 -10t-42 -27t-30.5 -40t-16 -49l-53 -292h-112l91 513h103l-10 -61q20 29 60 49.5t97 20.5z" />
    <glyph glyph-name="Eng" unicode="&#x14a;" horiz-adv-x="755" 
d="M624 -32q-9 -50 -33 -91t-60.5 -70.5t-85 -45.5t-105.5 -16l10 105q61 0 104.5 40t57.5 115l3 16l-265 507l-93 -528h-119l132 748h100l277 -529l93 529h119l-64 -365z" />
    <glyph glyph-name="eng" unicode="&#x14b;" horiz-adv-x="613" 
d="M376 522q42 0 77 -14.5t58 -42.5t32.5 -69t0.5 -93l-53 -303l-12 -68q-17 -93 -78 -143t-153 -50l16 98q37 0 66 27t37 73l11 63l52 295q11 58 -12.5 90.5t-76.5 32.5q-29 0 -52.5 -10t-42 -27t-30.5 -40t-16 -49l-53 -292h-112l91 513h103l-10 -61q20 29 60 49.5
t97 20.5z" />
    <glyph glyph-name="Omacron" unicode="&#x14c;" horiz-adv-x="870" 
d="M387 826l15 86h280l-16 -86h-279zM490 758q83 0 151.5 -27t115 -78t68 -123.5t11.5 -162.5q-10 -88 -46 -158t-91 -118.5t-126 -74.5t-150 -26q-84 0 -152.5 27.5t-115 78t-68.5 123t-11 162.5q10 88 46 157.5t91 118.5t126 75t151 26zM489 652q-58 0 -109 -19.5
t-90 -56.5t-64 -89.5t-31 -119.5q-6 -64 8.5 -114.5t45 -85t75.5 -53t100 -18.5q58 0 108.5 19.5t89.5 56t64 89.5t31 120q6 64 -8.5 114.5t-45 85.5t-75.5 53t-99 18z" />
    <glyph glyph-name="omacron" unicode="&#x14d;" horiz-adv-x="634" 
d="M234 628l15 87h280l-16 -87h-279zM340 522q59 0 107 -19.5t81 -55t48 -86t7 -112.5q-7 -60 -32.5 -107.5t-64.5 -81.5t-88.5 -52t-104.5 -18q-59 0 -107.5 19.5t-81 55t-47.5 86t-7 113.5q7 60 32.5 107.5t64 81t88 51.5t105.5 18zM342 426q-35 0 -65.5 -12t-54.5 -35
t-39.5 -56t-19.5 -74q-8 -77 29 -119.5t100 -42.5q35 0 65.5 12t54.5 35t39.5 56t20.5 74q7 76 -30 119t-100 43z" />
    <glyph glyph-name="Obreve" unicode="&#x14e;" horiz-adv-x="870" 
d="M717 948q-14 -76 -64.5 -111.5t-121.5 -35.5q-39 0 -70 9.5t-51.5 28.5t-28.5 46.5t-1 62.5h90q-6 -35 13 -52t53 -17q37 0 61 20t29 49h91zM490 758q83 0 151.5 -27t115 -78t68 -123.5t11.5 -162.5q-10 -88 -46 -158t-91 -118.5t-126 -74.5t-150 -26q-84 0 -152.5 27.5
t-115 78t-68.5 123t-11 162.5q10 88 46 157.5t91 118.5t126 75t151 26zM489 652q-58 0 -109 -19.5t-90 -56.5t-64 -89.5t-31 -119.5q-6 -64 8.5 -114.5t45 -85t75.5 -53t100 -18.5q58 0 108.5 19.5t89.5 56t64 89.5t31 120q6 64 -8.5 114.5t-45 85.5t-75.5 53t-99 18z" />
    <glyph glyph-name="obreve" unicode="&#x14f;" horiz-adv-x="634" 
d="M562 743q-14 -77 -64.5 -112t-121.5 -35q-39 0 -70 10t-51.5 28.5t-28.5 46t-1 62.5h90q-6 -35 13 -52t52 -17q38 0 62 20t29 49h91zM340 522q59 0 107 -19.5t81 -55t48 -86t7 -112.5q-7 -60 -32.5 -107.5t-64.5 -81.5t-88.5 -52t-104.5 -18q-59 0 -107.5 19.5t-81 55
t-47.5 86t-7 113.5q7 60 32.5 107.5t64 81t88 51.5t105.5 18zM342 426q-35 0 -65.5 -12t-54.5 -35t-39.5 -56t-19.5 -74q-8 -77 29 -119.5t100 -42.5q35 0 65.5 12t54.5 35t39.5 56t20.5 74q7 76 -30 119t-100 43z" />
    <glyph glyph-name="Ohungarumlaut" unicode="&#x150;" horiz-adv-x="870" 
d="M379 798l88 157h110l-107 -157h-91zM563 798l88 157h110l-107 -157h-91zM490 758q83 0 151.5 -27t115 -78t68 -123.5t11.5 -162.5q-10 -88 -46 -158t-91 -118.5t-126 -74.5t-150 -26q-84 0 -152.5 27.5t-115 78t-68.5 123t-11 162.5q10 88 46 157.5t91 118.5t126 75
t151 26zM489 652q-58 0 -109 -19.5t-90 -56.5t-64 -89.5t-31 -119.5q-6 -64 8.5 -114.5t45 -85t75.5 -53t100 -18.5q58 0 108.5 19.5t89.5 56t64 89.5t31 120q6 64 -8.5 114.5t-45 85.5t-75.5 53t-99 18z" />
    <glyph glyph-name="ohungarumlaut" unicode="&#x151;" horiz-adv-x="634" 
d="M228 604l92 167h109l-110 -167h-91zM412 604l92 167h109l-110 -167h-91zM340 522q59 0 107 -19.5t81 -55t48 -86t7 -112.5q-7 -60 -32.5 -107.5t-64.5 -81.5t-88.5 -52t-104.5 -18q-59 0 -107.5 19.5t-81 55t-47.5 86t-7 113.5q7 60 32.5 107.5t64 81t88 51.5t105.5 18z
M342 426q-35 0 -65.5 -12t-54.5 -35t-39.5 -56t-19.5 -74q-8 -77 29 -119.5t100 -42.5q35 0 65.5 12t54.5 35t39.5 56t20.5 74q7 76 -30 119t-100 43z" />
    <glyph glyph-name="OE" unicode="&#x152;" horiz-adv-x="1208" 
d="M846 437h307l-18 -103h-304q-4 -31 -15 -61l-29 -167h352l-19 -106h-470l11 61q-51 -35 -111.5 -53t-126.5 -18q-84 0 -152.5 27.5t-115 78t-68.5 123t-11 162.5q10 88 46 157.5t91 118.5t126 75t151 26q87 0 156.5 -29.5t117.5 -83.5l18 103h470l-19 -105h-351zM424 96
q51 0 96.5 15t82 44t63.5 70.5t41 94.5l10 58v3q6 64 -8.5 114.5t-45 85.5t-75.5 53t-99 18q-58 0 -109 -19.5t-90 -56.5t-64 -89.5t-31 -119.5q-6 -64 8.5 -114.5t45 -85t75.5 -53t100 -18.5z" />
    <glyph glyph-name="oe" unicode="&#x153;" horiz-adv-x="1016" 
d="M754 522q57 0 101 -18.5t72.5 -52t39.5 -81t1 -105.5l-9 -51h-375q-5 -63 27.5 -95t91.5 -32q49 0 82 19.5t49 52.5l113 -8q-26 -75 -92.5 -118t-153.5 -43q-65 0 -115 23t-80 67q-40 -44 -95 -67t-118 -23q-59 0 -107.5 19.5t-81 55t-47.5 86t-7 113.5q7 60 32.5 107.5
t64 81t88 51.5t105.5 18q66 0 118.5 -24t84.5 -69q39 45 93.5 69t117.5 24zM292 87q34 0 64 11.5t53.5 33t39.5 52.5t22 70l1 10q7 76 -30 119t-100 43q-35 0 -65.5 -12t-54.5 -35t-39.5 -56t-19.5 -74q-8 -77 29 -119.5t100 -42.5zM753 426q-59 0 -100.5 -32t-55.5 -92h263
q7 59 -20 91.5t-87 32.5z" />
    <glyph glyph-name="Racute" unicode="&#x154;" horiz-adv-x="695" 
d="M358 795l165 147h157l-215 -147h-107zM451 748q51 0 93.5 -15.5t71.5 -46t42.5 -75.5t6.5 -103q-15 -85 -58.5 -136.5t-108.5 -72.5l114 -299h-126l-109 286h-170l-50 -286h-119l132 748h281zM545 518q4 30 -3 53.5t-22 39.5t-37 24t-49 8h-164l-44 -251h175
q54 0 93.5 30t50.5 96z" />
    <glyph glyph-name="racute" unicode="&#x155;" horiz-adv-x="357" 
d="M220 596l129 191h130l-168 -191h-91zM362 410q-33 0 -61 -10.5t-50 -28.5t-36 -42.5t-19 -52.5l-49 -276h-112l91 513h105l-12 -69q20 30 60 52.5t101 22.5z" />
    <glyph glyph-name="Rcommaaccent" unicode="&#x156;" horiz-adv-x="695" 
d="M665 508q-15 -85 -58.5 -136.5t-108.5 -72.5l114 -299h-126l-109 286h-170l-50 -286h-119l132 748h281q51 0 93.5 -15.5t71.5 -46t42.5 -75.5t6.5 -103zM545 518q4 30 -3 53.5t-22 39.5t-37 24t-49 8h-164l-44 -251h175q54 0 93.5 30t50.5 96zM291 -42q36 0 52 -24.5
t9 -62.5q-11 -63 -49 -114t-113 -88l2 52q58 36 82 96q-29 4 -44 26t-10 51q5 27 25 45.5t46 18.5z" />
    <glyph glyph-name="rcommaaccent" unicode="&#x157;" horiz-adv-x="357" 
d="M219 444q20 30 60 52.5t101 22.5l-18 -109q-33 0 -61 -10.5t-50 -28.5t-36 -42.5t-19 -52.5l-49 -276h-112l91 513h105zM73 -42q36 0 52 -24.5t9 -62.5q-11 -63 -49 -114t-113 -88l2 52q58 36 82 96q-29 4 -44 26t-10 51q5 27 25 45.5t46 18.5z" />
    <glyph glyph-name="Rcaron" unicode="&#x158;" horiz-adv-x="695" 
d="M267 945h93l60 -83l93 83h98l-145 -150h-107zM665 508q-15 -85 -58.5 -136.5t-108.5 -72.5l114 -299h-126l-109 286h-170l-50 -286h-119l132 748h281q51 0 93.5 -15.5t71.5 -46t42.5 -75.5t6.5 -103zM545 518q4 30 -3 53.5t-22 39.5t-37 24t-49 8h-164l-44 -251h175
q54 0 93.5 30t50.5 96z" />
    <glyph glyph-name="rcaron" unicode="&#x159;" horiz-adv-x="357" 
d="M216 595l-88 172h93l58 -98l96 98h98l-149 -172h-108zM362 410q-33 0 -61 -10.5t-50 -28.5t-36 -42.5t-19 -52.5l-49 -276h-112l91 513h105l-12 -69q20 30 60 52.5t101 22.5z" />
    <glyph glyph-name="Sacute" unicode="&#x15a;" horiz-adv-x="659" 
d="M357 795l165 147h157l-215 -147h-107zM393 758q60 0 107.5 -15t79.5 -42.5t47 -67.5t10 -90l-121 -5q5 57 -28 87t-93 30q-72 0 -113.5 -32.5t-48.5 -82.5q-4 -28 4 -46t26 -30t46.5 -21t66.5 -18q59 -14 105.5 -31t77 -42.5t44 -61t6.5 -86.5q-8 -56 -34.5 -96.5
t-66 -66.5t-88.5 -38.5t-103 -12.5q-63 0 -115 15t-88 44t-53 71t-11 96l121 4q-5 -60 35.5 -93.5t109.5 -33.5q68 0 115 27.5t56 87.5q4 27 -4.5 45t-28.5 31.5t-50.5 23t-69.5 19.5q-50 12 -94 27.5t-74.5 39.5t-45.5 60.5t-7 91.5q6 43 27 81.5t56 67.5t84.5 46t112.5 17
z" />
    <glyph glyph-name="sacute" unicode="&#x15b;" horiz-adv-x="502" 
d="M249 596l129 191h130l-168 -191h-91zM277 522q47 0 81.5 -13.5t57 -36.5t33.5 -53t10 -62l-112 -3q3 32 -17.5 52t-62.5 20q-38 0 -60 -16t-27 -42q-3 -17 3 -27t19 -16.5t32 -11t43 -10.5q39 -10 71 -22t53.5 -30t31 -43t4.5 -61q-11 -75 -68.5 -116t-148.5 -41
q-97 0 -146.5 45.5t-47.5 119.5l111 4q-2 -36 22.5 -54t66.5 -18t67.5 14t30.5 44q4 31 -18 45t-77 28q-39 10 -71.5 21t-54 27.5t-31.5 42t-4 65.5q10 69 64 108.5t145 39.5z" />
    <glyph glyph-name="Scircumflex" unicode="&#x15c;" horiz-adv-x="659" 
d="M488 795l-60 84l-93 -84h-98l144 150h108l92 -150h-93zM393 758q60 0 107.5 -15t79.5 -42.5t47 -67.5t10 -90l-121 -5q5 57 -28 87t-93 30q-72 0 -113.5 -32.5t-48.5 -82.5q-4 -28 4 -46t26 -30t46.5 -21t66.5 -18q59 -14 105.5 -31t77 -42.5t44 -61t6.5 -86.5
q-8 -56 -34.5 -96.5t-66 -66.5t-88.5 -38.5t-103 -12.5q-63 0 -115 15t-88 44t-53 71t-11 96l121 4q-5 -60 35.5 -93.5t109.5 -33.5q68 0 115 27.5t56 87.5q4 27 -4.5 45t-28.5 31.5t-50.5 23t-69.5 19.5q-50 12 -94 27.5t-74.5 39.5t-45.5 60.5t-7 91.5q6 43 27 81.5
t56 67.5t84.5 46t112.5 17z" />
    <glyph glyph-name="scircumflex" unicode="&#x15d;" horiz-adv-x="502" 
d="M376 597l-58 98l-96 -98h-98l149 173h108l88 -173h-93zM277 522q47 0 81.5 -13.5t57 -36.5t33.5 -53t10 -62l-112 -3q3 32 -17.5 52t-62.5 20q-38 0 -60 -16t-27 -42q-3 -17 3 -27t19 -16.5t32 -11t43 -10.5q39 -10 71 -22t53.5 -30t31 -43t4.5 -61q-11 -75 -68.5 -116
t-148.5 -41q-97 0 -146.5 45.5t-47.5 119.5l111 4q-2 -36 22.5 -54t66.5 -18t67.5 14t30.5 44q4 31 -18 45t-77 28q-39 10 -71.5 21t-54 27.5t-31.5 42t-4 65.5q10 69 64 108.5t145 39.5z" />
    <glyph glyph-name="Scedilla" unicode="&#x15e;" horiz-adv-x="659" 
d="M516 538q5 57 -28 87t-93 30q-72 0 -113.5 -32.5t-48.5 -82.5q-4 -28 4 -46t26 -30t46.5 -21t66.5 -18q59 -14 105.5 -31t77 -42.5t44 -61t6.5 -86.5q-8 -54 -33 -93.5t-61.5 -65.5t-83 -39.5t-97.5 -15.5l-13 -37q45 -5 69.5 -31.5t16.5 -77.5q-4 -24 -17.5 -42.5
t-32 -30.5t-41.5 -18t-45 -6q-38 0 -62 6t-42 15l24 66q11 -8 28 -12.5t37 -4.5q23 0 43.5 5.5t25.5 30.5q4 22 -10 34t-40 12q-28 0 -41 -3l41 96q-55 4 -99 21t-74 45.5t-44 68t-8 89.5l121 4q-5 -60 35.5 -93.5t109.5 -33.5q68 0 115 27.5t56 87.5q4 27 -4.5 45
t-28.5 31.5t-50.5 23t-69.5 19.5q-50 12 -94 27.5t-74.5 39.5t-45.5 60.5t-7 91.5q6 43 27 81.5t56 67.5t84.5 46t112.5 17q60 0 107.5 -15t79.5 -42.5t47 -67.5t10 -90z" />
    <glyph glyph-name="scedilla" unicode="&#x15f;" horiz-adv-x="502" 
d="M347 354q3 32 -17.5 52t-62.5 20q-38 0 -60 -16t-27 -42q-3 -17 3 -27t19 -16.5t32 -11t43 -10.5q39 -10 71 -22t53.5 -30t31 -43t4.5 -61q-11 -71 -63.5 -111.5t-135.5 -45.5l-13 -37q45 -5 69.5 -31.5t16.5 -77.5q-4 -24 -17.5 -42.5t-32 -30.5t-41.5 -18t-45 -6
q-38 0 -62 6t-42 15l24 66q11 -8 28 -12.5t37 -4.5q23 0 43.5 5.5t25.5 30.5q4 22 -10 34t-40 12q-28 0 -41 -3l41 96q-77 10 -116 53.5t-37 109.5l111 4q-2 -36 22.5 -54t66.5 -18t67.5 14t30.5 44q4 31 -18 45t-77 28q-39 10 -71.5 21t-54 27.5t-31.5 42t-4 65.5
q10 69 64 108.5t145 39.5q47 0 81.5 -13.5t57 -36.5t33.5 -53t10 -62z" />
    <glyph glyph-name="Scaron" unicode="&#x160;" horiz-adv-x="659" 
d="M358 795l-92 150h93l60 -83l93 83h98l-145 -150h-107zM393 758q60 0 107.5 -15t79.5 -42.5t47 -67.5t10 -90l-121 -5q5 57 -28 87t-93 30q-72 0 -113.5 -32.5t-48.5 -82.5q-4 -28 4 -46t26 -30t46.5 -21t66.5 -18q59 -14 105.5 -31t77 -42.5t44 -61t6.5 -86.5
q-8 -56 -34.5 -96.5t-66 -66.5t-88.5 -38.5t-103 -12.5q-63 0 -115 15t-88 44t-53 71t-11 96l121 4q-5 -60 35.5 -93.5t109.5 -33.5q68 0 115 27.5t56 87.5q4 27 -4.5 45t-28.5 31.5t-50.5 23t-69.5 19.5q-50 12 -94 27.5t-74.5 39.5t-45.5 60.5t-7 91.5q6 43 27 81.5
t56 67.5t84.5 46t112.5 17z" />
    <glyph glyph-name="scaron" unicode="&#x161;" horiz-adv-x="502" 
d="M245 595l-88 172h93l58 -98l96 98h98l-149 -172h-108zM277 522q47 0 81.5 -13.5t57 -36.5t33.5 -53t10 -62l-112 -3q3 32 -17.5 52t-62.5 20q-38 0 -60 -16t-27 -42q-3 -17 3 -27t19 -16.5t32 -11t43 -10.5q39 -10 71 -22t53.5 -30t31 -43t4.5 -61q-11 -75 -68.5 -116
t-148.5 -41q-97 0 -146.5 45.5t-47.5 119.5l111 4q-2 -36 22.5 -54t66.5 -18t67.5 14t30.5 44q4 31 -18 45t-77 28q-39 10 -71.5 21t-54 27.5t-31.5 42t-4 65.5q10 69 64 108.5t145 39.5z" />
    <glyph glyph-name="Tcaron" unicode="&#x164;" horiz-adv-x="687" 
d="M389 795l-92 150h93l60 -83l93 83h98l-145 -150h-107zM471 643l-113 -643h-119l113 643h-266l19 105h651l-19 -105h-266z" />
    <glyph glyph-name="tcaron" unicode="&#x165;" horiz-adv-x="544" 
d="M541 761q36 0 52 -24.5t9 -62.5q-11 -63 -49 -114t-113 -88l2 52q58 36 82 96q-29 4 -44 26t-10 51q5 27 25 45.5t46 18.5zM395 513l-17 -97h-130l-43 -233q-8 -50 13 -70t52 -20q20 0 32 2t21 4l-17 -102q-14 -2 -31 -3.5t-40 -1.5q-40 0 -70.5 10t-50 31t-26.5 53t1 76
l46 254h-95l17 97h96l32 174h112l-32 -174h130z" />
    <glyph glyph-name="Tbar" unicode="&#x166;" horiz-adv-x="687" 
d="M430 408h133l-17 -91h-132l-56 -317h-119l56 317h-134l16 91h134l41 235h-266l19 105h651l-19 -105h-266z" />
    <glyph glyph-name="tbar" unicode="&#x167;" horiz-adv-x="378" 
d="M230 307h128l-14 -81h-129l-8 -43q-8 -50 13 -70t52 -20q20 0 32 2t21 4l-17 -102q-14 -2 -31 -3.5t-40 -1.5q-40 0 -70.5 10t-50 31t-26.5 53t1 76l12 64h-97l14 81h98l19 109h-95l17 97h96l32 174h112l-32 -174h130l-17 -97h-130z" />
    <glyph glyph-name="Utilde" unicode="&#x168;" horiz-adv-x="770" 
d="M429 946q25 0 40.5 -9t27.5 -20t23.5 -20t29.5 -9q27 0 42 14t19 36h62q0 -29 -10 -53.5t-26.5 -42.5t-37.5 -28t-43 -10q-26 0 -41.5 9t-27.5 19.5t-23.5 19.5t-29.5 9q-26 0 -41 -14.5t-20 -36.5h-62q0 29 10 54t26.5 43t37.5 28.5t44 10.5zM697 287
q-26 -146 -118 -221.5t-233 -75.5q-71 0 -125.5 20.5t-89 59.5t-47 95.5t0.5 128.5l80 454h119l-81 -457q-18 -99 23 -147t128 -48q93 0 151 51t75 147l80 454h119z" />
    <glyph glyph-name="utilde" unicode="&#x169;" horiz-adv-x="596" 
d="M308 747q25 0 40.5 -9t27.5 -20t23.5 -20t29.5 -9q27 0 42 14t19 36h63q0 -29 -10 -53.5t-26.5 -42.5t-38 -28.5t-43.5 -10.5q-26 0 -41.5 9t-27.5 20t-23.5 20t-29.5 9q-26 0 -41 -14.5t-20 -36.5h-62q0 29 10 54t26.5 43t37.5 28.5t44 10.5zM367 0l12 71
q-20 -32 -59 -56.5t-95 -24.5q-91 0 -134 54t-27 147l57 322h113l-53 -300q-10 -57 11 -87.5t69 -30.5q57 0 91 34.5t43 85.5l53 298h112l-90 -513h-103z" />
    <glyph glyph-name="Umacron" unicode="&#x16a;" horiz-adv-x="770" 
d="M345 826l15 86h280l-16 -86h-279zM697 287q-26 -146 -118 -221.5t-233 -75.5q-71 0 -125.5 20.5t-89 59.5t-47 95.5t0.5 128.5l80 454h119l-81 -457q-18 -99 23 -147t128 -48q93 0 151 51t75 147l80 454h119z" />
    <glyph glyph-name="umacron" unicode="&#x16b;" horiz-adv-x="596" 
d="M225 628l15 87h280l-16 -87h-279zM367 0l12 71q-20 -32 -59 -56.5t-95 -24.5q-91 0 -134 54t-27 147l57 322h113l-53 -300q-10 -57 11 -87.5t69 -30.5q57 0 91 34.5t43 85.5l53 298h112l-90 -513h-103z" />
    <glyph glyph-name="Ubreve" unicode="&#x16c;" horiz-adv-x="770" 
d="M675 948q-14 -76 -64.5 -111.5t-121.5 -35.5q-39 0 -70 9.5t-51.5 28.5t-28.5 46.5t-1 62.5h90q-6 -35 13 -52t53 -17q37 0 61 20t29 49h91zM697 287q-26 -146 -118 -221.5t-233 -75.5q-71 0 -125.5 20.5t-89 59.5t-47 95.5t0.5 128.5l80 454h119l-81 -457
q-18 -99 23 -147t128 -48q93 0 151 51t75 147l80 454h119z" />
    <glyph glyph-name="ubreve" unicode="&#x16d;" horiz-adv-x="596" 
d="M553 743q-14 -77 -64.5 -112t-121.5 -35q-39 0 -70 10t-51.5 28.5t-28.5 46t-1 62.5h90q-6 -35 13 -52t52 -17q38 0 62 20t29 49h91zM367 0l12 71q-20 -32 -59 -56.5t-95 -24.5q-91 0 -134 54t-27 147l57 322h113l-53 -300q-10 -57 11 -87.5t69 -30.5q57 0 91 34.5
t43 85.5l53 298h112l-90 -513h-103z" />
    <glyph glyph-name="Uring" unicode="&#x16e;" horiz-adv-x="770" 
d="M505 997q24 0 44 -8t33 -22.5t18.5 -34.5t1.5 -44q-7 -42 -39 -68.5t-74 -26.5q-50 0 -79 30.5t-21 78.5q8 43 41 69t75 26zM502 940q-20 0 -35 -12t-18 -31q-3 -20 8.5 -33.5t32.5 -13.5t35 12t17 31q3 20 -8 33.5t-32 13.5zM697 287q-26 -146 -118 -221.5t-233 -75.5
q-71 0 -125.5 20.5t-89 59.5t-47 95.5t0.5 128.5l80 454h119l-81 -457q-18 -99 23 -147t128 -48q93 0 151 51t75 147l80 454h119z" />
    <glyph glyph-name="uring" unicode="&#x16f;" horiz-adv-x="596" 
d="M387 809q27 0 49 -9t37 -25t21 -38t2 -48q-9 -48 -46.5 -77.5t-84.5 -29.5q-27 0 -49.5 9t-37.5 25t-21 38.5t-1 48.5q4 24 16 43.5t30 33.5t39.5 21.5t45.5 7.5zM378 744q-21 0 -36.5 -12.5t-18.5 -33.5t9.5 -35.5t35.5 -14.5q21 0 36 11t18 33q3 21 -9 36.5t-35 15.5z
M367 0l12 71q-20 -32 -59 -56.5t-95 -24.5q-91 0 -134 54t-27 147l57 322h113l-53 -300q-10 -57 11 -87.5t69 -30.5q57 0 91 34.5t43 85.5l53 298h112l-90 -513h-103z" />
    <glyph glyph-name="Uhungarumlaut" unicode="&#x170;" horiz-adv-x="770" 
d="M337 798l88 157h110l-107 -157h-91zM521 798l88 157h110l-107 -157h-91zM697 287q-26 -146 -118 -221.5t-233 -75.5q-71 0 -125.5 20.5t-89 59.5t-47 95.5t0.5 128.5l80 454h119l-81 -457q-18 -99 23 -147t128 -48q93 0 151 51t75 147l80 454h119z" />
    <glyph glyph-name="uhungarumlaut" unicode="&#x171;" horiz-adv-x="596" 
d="M219 604l92 167h109l-110 -167h-91zM403 604l92 167h109l-110 -167h-91zM367 0l12 71q-20 -32 -59 -56.5t-95 -24.5q-91 0 -134 54t-27 147l57 322h113l-53 -300q-10 -57 11 -87.5t69 -30.5q57 0 91 34.5t43 85.5l53 298h112l-90 -513h-103z" />
    <glyph glyph-name="Uogonek" unicode="&#x172;" horiz-adv-x="770" 
d="M697 287q-21 -123 -91 -196.5t-177 -93.5q-39 -20 -65 -40t-31 -49q-3 -18 7.5 -27t30.5 -9q18 0 31 4t26 10l8 -59q-18 -8 -37.5 -12t-43.5 -4q-52 0 -83 24t-23 72q5 27 22.5 47t45.5 37q-64 4 -113 26t-79.5 61t-41 93t1.5 123l80 454h119l-81 -457q-18 -99 23 -147
t128 -48q93 0 151 51t75 147l80 454h119z" />
    <glyph glyph-name="uogonek" unicode="&#x173;" horiz-adv-x="596" 
d="M450 0q-42 -21 -70 -42t-33 -51q-3 -18 7.5 -27t30.5 -9q18 0 31 4t26 10l8 -59q-18 -8 -37.5 -12t-43.5 -4q-52 0 -83 24t-23 72q6 35 33.5 59.5t71.5 42.5l11 63q-20 -32 -59 -56.5t-95 -24.5q-91 0 -134 54t-27 147l57 322h113l-53 -300q-10 -57 11 -87.5t69 -30.5
q57 0 91 34.5t43 85.5l53 298h112l-90 -513h-20z" />
    <glyph glyph-name="Wcircumflex" unicode="&#x174;" horiz-adv-x="1119" 
d="M730 795l-60 84l-93 -84h-98l144 150h108l92 -150h-93zM697 0l-87 539l-277 -539h-101l-129 748h124l85 -551l280 551h97l85 -551l281 551h136l-394 -748h-100z" />
    <glyph glyph-name="wcircumflex" unicode="&#x175;" horiz-adv-x="832" 
d="M554 597l-58 98l-96 -98h-98l149 173h108l88 -173h-93zM487 0l-61 315l-173 -315h-95l-105 513h119l62 -338l181 338h79l67 -338l177 338h131l-286 -513h-96z" />
    <glyph glyph-name="Ycircumflex" unicode="&#x176;" horiz-adv-x="715" 
d="M530 795l-60 84l-93 -84h-98l144 150h108l92 -150h-93zM372 0h-119l55 301l-205 447h131l145 -323l259 323h150l-362 -447z" />
    <glyph glyph-name="ycircumflex" unicode="&#x177;" horiz-adv-x="560" 
d="M421 597l-58 98l-96 -98h-98l149 173h108l88 -173h-93zM-6 -255l179 296l-116 472h123l76 -345l201 345h126l-461 -768h-128z" />
    <glyph glyph-name="Ydieresis" unicode="&#x178;" horiz-adv-x="715" 
d="M385 936q31 0 48 -21t12 -50q-5 -24 -23.5 -40t-41.5 -16q-30 0 -47.5 20.5t-12.5 50.5q5 24 23.5 40t41.5 16zM553 936q31 0 48 -21t12 -50q-5 -24 -23.5 -40t-41.5 -16q-30 0 -47.5 20.5t-12.5 50.5q5 24 23.5 40t41.5 16zM372 0h-119l55 301l-205 447h131l145 -323
l259 323h150l-362 -447z" />
    <glyph glyph-name="Zacute" unicode="&#x179;" horiz-adv-x="621" 
d="M351 795l165 147h157l-215 -147h-107zM168 106h393l-18 -106h-551l16 89l482 554h-374l18 105h532l-16 -90z" />
    <glyph glyph-name="zacute" unicode="&#x17a;" horiz-adv-x="450" 
d="M240 596l129 191h130l-168 -191h-91zM152 91h237l-15 -91h-386l13 74l292 347h-225l16 92h370l-13 -75z" />
    <glyph glyph-name="Zdotaccent" unicode="&#x17b;" horiz-adv-x="621" 
d="M422 946q33 0 52.5 -23.5t14.5 -55.5q-5 -27 -27 -45t-48 -18q-33 0 -52 23t-13 55q5 27 26.5 45.5t46.5 18.5zM168 106h393l-18 -106h-551l16 89l482 554h-374l18 105h532l-16 -90z" />
    <glyph glyph-name="zdotaccent" unicode="&#x17c;" horiz-adv-x="450" 
d="M307 752q33 0 52 -23t13 -55q-5 -27 -26.5 -45.5t-47.5 -18.5q-33 0 -52 23t-13 55q5 27 26.5 45.5t47.5 18.5zM152 91h237l-15 -91h-386l13 74l292 347h-225l16 92h370l-13 -75z" />
    <glyph glyph-name="Zcaron" unicode="&#x17d;" horiz-adv-x="621" 
d="M352 795l-92 150h93l60 -83l93 83h98l-145 -150h-107zM168 106h393l-18 -106h-551l16 89l482 554h-374l18 105h532l-16 -90z" />
    <glyph glyph-name="zcaron" unicode="&#x17e;" horiz-adv-x="450" 
d="M236 595l-88 172h93l58 -98l96 98h98l-149 -172h-108zM152 91h237l-15 -91h-386l13 74l292 347h-225l16 92h370l-13 -75z" />
    <glyph glyph-name="florin" unicode="&#x192;" horiz-adv-x="437" 
d="M435 786q52 0 84 -13.5t54 -31.5l-57 -87q-11 14 -28 23t-41 9q-77 0 -106 -83l-32 -90h138l-16 -94h-155l-199 -561h-116l198 561h-102l17 94h118l41 116q29 84 82 120.5t120 36.5z" />
    <glyph glyph-name="Aringacute" unicode="&#x1fa;" horiz-adv-x="758" 
d="M484 772q-50 0 -79 30.5t-21 78.5q5 28 21.5 49t40.5 33l139 107h145l-179 -105q26 -14 39 -39.5t7 -58.5q-7 -42 -39 -68.5t-74 -26.5zM537 872q3 20 -8 33.5t-32 13.5q-20 0 -35 -12t-18 -31q-3 -20 8.5 -33.5t32.5 -13.5t35 12t17 31zM701 0h-129l-42 174h-329
l-103 -174h-130l448 748h101zM434 564l-176 -297h247z" />
    <glyph glyph-name="aringacute" unicode="&#x1fb;" horiz-adv-x="547" 
d="M344 579q-50 0 -79 30.5t-21 78.5q5 28 21.5 49t39.5 33l141 107h145l-180 -105q26 -14 39 -39.5t7 -58.5q-7 -42 -39 -68.5t-74 -26.5zM397 679q3 20 -8 33.5t-32 13.5q-20 0 -35 -12t-18 -31q-3 -20 8.5 -33.5t32.5 -13.5t35 12t17 31zM315 522q94 0 139 -55.5
t27 -155.5l-55 -311h-104l9 49q-25 -26 -58 -42.5t-86 -16.5q-38 0 -69.5 11t-53 31.5t-31 50t-3.5 66.5q7 38 27.5 65t50.5 45t67.5 27t77.5 11l115 6l3 18q8 51 -8.5 78t-60.5 27q-26 0 -45.5 -8t-33.5 -20.5t-22.5 -29t-11.5 -33.5l-110 8q6 34 25.5 66t50 57t71 40.5
t89.5 15.5zM260 210q-50 -3 -82 -17.5t-37 -51.5q-4 -29 15.5 -43t51.5 -14q23 0 46 7t42 21t32.5 34.5t19.5 48.5l4 20z" />
    <glyph glyph-name="AEacute" unicode="&#x1fc;" horiz-adv-x="1021" 
d="M699 795l165 147h157l-215 -147h-107zM659 437h307l-18 -103h-308l-40 -228h352l-19 -106h-470l25 140h-261l-118 -140h-148l633 748h471l-19 -105h-351zM557 535l-242 -289h191z" />
    <glyph glyph-name="aeacute" unicode="&#x1fd;" horiz-adv-x="900" 
d="M448 596l129 191h130l-168 -191h-91zM643 522q57 0 101 -18.5t72.5 -52t39.5 -81t1 -105.5l-9 -51h-375q-5 -63 27.5 -95t91.5 -32q49 0 82 19.5t49 52.5l113 -8q-26 -75 -92.5 -118t-153.5 -43q-66 0 -116.5 24t-80.5 69q-37 -42 -88.5 -67.5t-114.5 -25.5
q-42 0 -74.5 11.5t-53.5 32.5t-29.5 50t-2.5 64q7 39 27.5 66t50.5 44.5t66.5 26.5t75.5 11l118 7l3 18q8 49 -8.5 77t-60.5 28q-26 0 -45.5 -8t-33.5 -21t-22.5 -29.5t-11.5 -32.5l-110 8q6 34 25 66t48.5 57t68.5 40.5t86 15.5q107 0 149 -68q77 68 187 68zM642 426
q-59 0 -100.5 -32t-55.5 -92h263q7 59 -20 91.5t-87 32.5zM250 209q-44 -3 -73 -17t-35 -47q-5 -29 13 -43.5t53 -14.5q22 0 44.5 6t42 19.5t34.5 36t21 55.5l2 11z" />
    <glyph glyph-name="Oslashacute" unicode="&#x1fe;" horiz-adv-x="870" 
d="M468 795l165 147h157l-215 -147h-107zM762 647q45 -51 65 -121.5t9 -158.5q-10 -88 -46 -158t-91 -118.5t-126 -74.5t-150 -26q-64 0 -119 16t-100 47l-88 -94l-66 55l92 98q-40 50 -58 117.5t-8 151.5q10 88 46 157.5t91 118.5t126 75t151 26q120 0 207 -55l83 88
l66 -55zM195 367q-10 -99 30 -167l393 419q-54 33 -129 33q-58 0 -109 -19.5t-90 -56.5t-64 -89.5t-31 -119.5zM717 381q5 56 -4.5 100.5t-32.5 78.5l-397 -423q58 -41 141 -41q58 0 108.5 19.5t89.5 56t64 89.5t31 120z" />
    <glyph glyph-name="oslashacute" unicode="&#x1ff;" horiz-adv-x="634" 
d="M320 596l129 191h130l-168 -191h-91zM537 438q29 -35 41.5 -83t4.5 -106q-7 -60 -32.5 -107.5t-64.5 -81.5t-88.5 -52t-104.5 -18q-80 0 -139 35l-59 -64l-57 46l60 65q-29 35 -42.5 83.5t-5.5 108.5q7 60 32.5 107.5t64 81t88 51.5t105.5 18q41 0 77 -9.5t65 -26.5
l53 57l57 -46zM163 249q-3 -28 0.5 -51.5t11.5 -42.5l236 254q-31 17 -69 17q-35 0 -65.5 -12t-54.5 -35t-39.5 -56t-19.5 -74zM472 264q3 27 -0.5 49.5t-11.5 41.5l-234 -253q28 -15 66 -15q35 0 65.5 12t54.5 35t39.5 56t20.5 74z" />
    <glyph glyph-name="Scommaaccent" unicode="&#x218;" horiz-adv-x="659" 
d="M516 538q5 57 -28 87t-93 30q-72 0 -113.5 -32.5t-48.5 -82.5q-4 -28 4 -46t26 -30t46.5 -21t66.5 -18q59 -14 105.5 -31t77 -42.5t44 -61t6.5 -86.5q-8 -56 -34.5 -96.5t-66 -66.5t-88.5 -38.5t-103 -12.5q-63 0 -115 15t-88 44t-53 71t-11 96l121 4q-5 -60 35.5 -93.5
t109.5 -33.5q68 0 115 27.5t56 87.5q4 27 -4.5 45t-28.5 31.5t-50.5 23t-69.5 19.5q-50 12 -94 27.5t-74.5 39.5t-45.5 60.5t-7 91.5q6 43 27 81.5t56 67.5t84.5 46t112.5 17q60 0 107.5 -15t79.5 -42.5t47 -67.5t10 -90zM286 -47q36 0 52 -24.5t9 -62.5q-11 -63 -49 -114
t-113 -88l2 52q58 36 82 96q-29 4 -44 26t-10 51q5 27 25 45.5t46 18.5z" />
    <glyph glyph-name="scommaaccent" unicode="&#x219;" horiz-adv-x="502" 
d="M347 354q3 32 -17.5 52t-62.5 20q-38 0 -60 -16t-27 -42q-3 -17 3 -27t19 -16.5t32 -11t43 -10.5q39 -10 71 -22t53.5 -30t31 -43t4.5 -61q-11 -75 -68.5 -116t-148.5 -41q-97 0 -146.5 45.5t-47.5 119.5l111 4q-2 -36 22.5 -54t66.5 -18t67.5 14t30.5 44q4 31 -18 45
t-77 28q-39 10 -71.5 21t-54 27.5t-31.5 42t-4 65.5q10 69 64 108.5t145 39.5q47 0 81.5 -13.5t57 -36.5t33.5 -53t10 -62zM190 -47q36 0 52 -24.5t9 -62.5q-11 -63 -49 -114t-113 -88l2 52q58 36 82 96q-29 4 -44 26t-10 51q5 27 25 45.5t46 18.5z" />
    <glyph glyph-name="uni021A" unicode="&#x21a;" horiz-adv-x="687" 
d="M737 643h-266l-113 -643h-119l113 643h-266l19 105h651zM280 -42q36 0 52 -24.5t9 -62.5q-11 -63 -49 -114t-113 -88l2 52q58 36 82 96q-29 4 -44 26t-10 51q5 27 25 45.5t46 18.5z" />
    <glyph glyph-name="uni021B" unicode="&#x21b;" horiz-adv-x="378" 
d="M205 183q-8 -50 13 -70t52 -20q20 0 32 2t21 4l-17 -102q-14 -2 -31 -3.5t-40 -1.5q-40 0 -70.5 10t-50 31t-26.5 53t1 76l46 254h-95l17 97h96l32 174h112l-32 -174h130l-17 -97h-130zM156 -50q36 0 52 -24.5t9 -62.5q-11 -63 -49 -114t-113 -88l2 52q58 36 82 96
q-29 4 -44 26t-10 51q5 27 25 45.5t46 18.5z" />
    <glyph glyph-name="dotlessj" unicode="&#x237;" 
d="M136 -68q-9 -52 -28 -89t-45.5 -60.5t-60 -34.5t-70.5 -11q-38 0 -62.5 8.5t-41.5 19.5l54 88q8 -7 17 -11.5t22 -4.5q41 0 68 24t36 72l102 580h112z" />
    <glyph glyph-name="circumflex" unicode="&#x2c6;" horiz-adv-x="370" 
d="M324 597l-58 98l-96 -98h-98l149 173h108l88 -173h-93z" />
    <glyph glyph-name="caron" unicode="&#x2c7;" horiz-adv-x="370" 
d="M193 595l-88 172h93l58 -98l96 98h98l-149 -172h-108z" />
    <glyph glyph-name="breve" unicode="&#x2d8;" horiz-adv-x="370" 
d="M439 743q-14 -77 -64.5 -112t-121.5 -35q-39 0 -70 10t-51.5 28.5t-28.5 46t-1 62.5h90q-6 -35 13 -52t52 -17q38 0 62 20t29 49h91z" />
    <glyph glyph-name="dotaccent" unicode="&#x2d9;" horiz-adv-x="173" 
d="M165 752q33 0 52 -23t13 -55q-5 -27 -26.5 -45.5t-47.5 -18.5q-33 0 -52 23t-13 55q5 27 26.5 45.5t47.5 18.5z" />
    <glyph glyph-name="ring" unicode="&#x2da;" horiz-adv-x="272" 
d="M225 809q27 0 49 -9t37 -25t21 -38t2 -48q-9 -48 -46.5 -77.5t-84.5 -29.5q-27 0 -49.5 9t-37.5 25t-21 38.5t-1 48.5q4 24 16 43.5t30 33.5t39.5 21.5t45.5 7.5zM216 744q-21 0 -36.5 -12.5t-18.5 -33.5t9.5 -35.5t35.5 -14.5q21 0 36 11t18 33q3 21 -9 36.5t-35 15.5z
" />
    <glyph glyph-name="ogonek" unicode="&#x2db;" horiz-adv-x="233" 
d="M149 4q-43 -21 -71.5 -42.5t-33.5 -51.5q-3 -18 7.5 -27t30.5 -9q18 0 31 4t26 10l8 -59q-18 -8 -37.5 -12t-43.5 -4q-52 0 -83 24t-23 72q8 46 53.5 74.5t114.5 50.5z" />
    <glyph glyph-name="tilde" unicode="&#x2dc;" horiz-adv-x="371" 
d="M196 747q25 0 40.5 -9t27.5 -20t23.5 -20t29.5 -9q27 0 42 14t19 36h63q0 -29 -10 -53.5t-26.5 -42.5t-38 -28.5t-43.5 -10.5q-26 0 -41.5 9t-27.5 20t-23.5 20t-29.5 9q-26 0 -41 -14.5t-20 -36.5h-62q0 29 10 54t26.5 43t37.5 28.5t44 10.5z" />
    <glyph glyph-name="hungarumlaut" unicode="&#x2dd;" horiz-adv-x="380" 
d="M74 604l92 167h109l-110 -167h-91zM258 604l92 167h109l-110 -167h-91z" />
    <glyph glyph-name="uni0326" unicode="&#x326;" horiz-adv-x="0" 
d="M47 -42q36 0 52 -24.5t9 -62.5q-11 -63 -49 -114t-113 -88l2 52q58 36 82 96q-29 4 -44 26t-10 51q5 27 25 45.5t46 18.5z" />
    <glyph glyph-name="Omega" unicode="&#x3a9;" horiz-adv-x="790" 
d="M469 722q79 0 137 -27.5t92.5 -75t45.5 -112t-2 -138.5q-8 -48 -27 -91t-43.5 -79.5t-51 -66t-50.5 -48.5l168 3l-15 -87h-292l11 82q31 19 64 49.5t62 69.5t51 85t30 94q10 55 3.5 102t-29 81t-60.5 53t-92 19q-57 0 -105.5 -20.5t-86 -56.5t-62.5 -85.5t-35 -107.5
q-8 -45 -3 -88.5t19.5 -81.5t36 -68t45.5 -49l-11 -78h-292l15 87l175 2q-17 19 -34.5 49t-29.5 67.5t-16.5 82.5t4.5 95q13 72 45 133.5t81 107.5t112.5 72t139.5 26z" />
    <glyph glyph-name="mu" unicode="&#x3bc;" horiz-adv-x="601" 
d="M475 0h-103l12 71q-20 -32 -59 -56.5t-95 -24.5q-47 0 -81 15l-46 -260h-112l75 423q1 5 1.5 11t1.5 12l57 322h113l-53 -300q-10 -57 11 -87.5t69 -30.5q57 0 91 34.5t43 85.5l53 298h112z" />
    <glyph glyph-name="pi" unicode="&#x3c0;" horiz-adv-x="687" 
d="M700 473q-12 -23 -27.5 -43.5t-35.5 -36t-46 -24.5t-59 -9h-18l-68 -230q-8 -23 -5.5 -33.5t19.5 -10.5q18 0 31.5 7t24.5 16l45 -72q-27 -23 -54.5 -34t-60.5 -11q-66 0 -87.5 39t-3.5 101l69 228h-110l-64 -211q-17 -56 -34 -90.5t-36 -61.5l-108 6q14 22 26.5 41.5
t23.5 39.5t20.5 42t17.5 49l58 185h-24q-32 0 -58 -15.5t-43 -33.5l-44 82q18 15 36 27.5t38.5 21t45.5 13.5t57 5h261q53 0 82.5 19t49.5 51z" />
    <glyph glyph-name="Wgrave" unicode="&#x1e80;" horiz-adv-x="1119" 
d="M597 795l-164 147h152l114 -147h-102zM697 0l-87 539l-277 -539h-101l-129 748h124l85 -551l280 551h97l85 -551l281 551h136l-394 -748h-100z" />
    <glyph glyph-name="wgrave" unicode="&#x1e81;" horiz-adv-x="832" 
d="M430 596l-100 191h125l61 -191h-86zM487 0l-61 315l-173 -315h-95l-105 513h119l62 -338l181 338h79l67 -338l177 338h131l-286 -513h-96z" />
    <glyph glyph-name="Wacute" unicode="&#x1e82;" horiz-adv-x="1119" 
d="M599 795l165 147h157l-215 -147h-107zM697 0l-87 539l-277 -539h-101l-129 748h124l85 -551l280 551h97l85 -551l281 551h136l-394 -748h-100z" />
    <glyph glyph-name="wacute" unicode="&#x1e83;" horiz-adv-x="832" 
d="M427 596l129 191h130l-168 -191h-91zM487 0l-61 315l-173 -315h-95l-105 513h119l62 -338l181 338h79l67 -338l177 338h131l-286 -513h-96z" />
    <glyph glyph-name="Wdieresis" unicode="&#x1e84;" horiz-adv-x="1119" 
d="M585 936q31 0 48 -21t12 -50q-5 -24 -23.5 -40t-41.5 -16q-30 0 -47.5 20.5t-12.5 50.5q5 24 23.5 40t41.5 16zM753 936q31 0 48 -21t12 -50q-5 -24 -23.5 -40t-41.5 -16q-30 0 -47.5 20.5t-12.5 50.5q5 24 23.5 40t41.5 16zM697 0l-87 539l-277 -539h-101l-129 748h124
l85 -551l280 551h97l85 -551l281 551h136l-394 -748h-100z" />
    <glyph glyph-name="wdieresis" unicode="&#x1e85;" horiz-adv-x="832" 
d="M406 743q30 0 47.5 -20.5t12.5 -49.5q-5 -25 -24 -40.5t-42 -15.5q-30 0 -47 20.5t-12 49.5q4 24 23 40t42 16zM574 743q31 0 48 -20.5t12 -49.5q-5 -25 -23.5 -40.5t-42.5 -15.5q-30 0 -47 20.5t-12 49.5q4 24 23 40t42 16zM487 0l-61 315l-173 -315h-95l-105 513h119
l62 -338l181 338h79l67 -338l177 338h131l-286 -513h-96z" />
    <glyph glyph-name="Ygrave" unicode="&#x1ef2;" horiz-adv-x="715" 
d="M397 795l-164 147h152l114 -147h-102zM372 0h-119l55 301l-205 447h131l145 -323l259 323h150l-362 -447z" />
    <glyph glyph-name="ygrave" unicode="&#x1ef3;" horiz-adv-x="560" 
d="M297 596l-100 191h125l61 -191h-86zM-6 -255l179 296l-116 472h123l76 -345l201 345h126l-461 -768h-128z" />
    <glyph glyph-name="endash" unicode="&#x2013;" horiz-adv-x="564" 
d="M37 209l19 105h474l-19 -105h-474z" />
    <glyph glyph-name="emdash" unicode="&#x2014;" horiz-adv-x="796" 
d="M37 209l19 105h706l-19 -105h-706z" />
    <glyph glyph-name="quoteleft" unicode="&#x2018;" horiz-adv-x="201" 
d="M245 711q-58 -36 -82 -96q29 -4 44 -26t10 -51q-5 -27 -25 -45.5t-46 -18.5q-36 0 -52 24.5t-9 62.5q11 63 49 114t113 88z" />
    <glyph glyph-name="quoteright" unicode="&#x2019;" horiz-adv-x="201" 
d="M182 761q36 0 52 -24.5t9 -62.5q-11 -63 -49 -114t-113 -88l2 52q58 36 82 96q-29 4 -44 26t-10 51q5 27 25 45.5t46 18.5z" />
    <glyph glyph-name="quotesinglbase" unicode="&#x201a;" horiz-adv-x="201" 
d="M71 133q36 0 52 -24.5t9 -62.5q-11 -63 -49 -114t-113 -88l2 52q58 36 82 96q-29 4 -44 26t-10 51q5 27 25 45.5t46 18.5z" />
    <glyph glyph-name="quotedblleft" unicode="&#x201c;" horiz-adv-x="386" 
d="M83 561q11 63 49 114t113 88l-2 -52q-58 -36 -82 -96q29 -4 44 -26t10 -51q-5 -27 -25 -45.5t-46 -18.5q-36 0 -52 24.5t-9 62.5zM429 711q-58 -36 -82 -96q29 -4 44 -26t10 -51q-5 -27 -25 -45.5t-46 -18.5q-36 0 -52 24.5t-9 62.5q11 63 49 114t113 88z" />
    <glyph glyph-name="quotedblright" unicode="&#x201d;" horiz-adv-x="386" 
d="M179 761q36 0 52 -24.5t9 -62.5q-11 -63 -49 -114t-113 -88l2 52q58 36 82 96q-29 4 -44 26t-10 51q5 27 25 45.5t46 18.5zM365 761q36 0 52 -24.5t9 -62.5q-11 -63 -49 -114t-113 -88l2 52q58 36 82 96q-29 4 -44 26t-10 51q5 27 25 45.5t46 18.5z" />
    <glyph glyph-name="quotedblbase" unicode="&#x201e;" horiz-adv-x="386" 
d="M70 133q36 0 52 -24.5t9 -62.5q-11 -63 -49 -114t-113 -88l2 52q58 36 82 96q-29 4 -44 26t-10 51q5 27 25 45.5t46 18.5zM256 133q36 0 52 -24.5t9 -62.5q-11 -63 -49 -114t-113 -88l2 52q58 36 82 96q-29 4 -44 26t-10 51q5 27 25 45.5t46 18.5z" />
    <glyph glyph-name="dagger" unicode="&#x2020;" horiz-adv-x="511" 
d="M544 548l-17 -101h-181l-91 -514h-112l91 514h-181l17 101h181l36 200h112l-36 -200h181z" />
    <glyph glyph-name="daggerdbl" unicode="&#x2021;" horiz-adv-x="511" 
d="M544 548l-17 -101h-180l-38 -212h181l-18 -102h-181l-36 -200h-112l36 200h-181l18 102h181l37 212h-180l17 101h180l36 200h112l-35 -200h180z" />
    <glyph glyph-name="bullet" unicode="&#x2022;" horiz-adv-x="349" 
d="M188 378q27 0 49 -10.5t37 -28t21 -41t1 -50.5q-5 -24 -17.5 -45.5t-31 -37.5t-40.5 -25t-46 -9q-27 0 -49.5 10.5t-37.5 28t-21 41.5t-1 51q4 24 17 45t31.5 37t41 25t46.5 9z" />
    <glyph glyph-name="ellipsis" unicode="&#x2026;" horiz-adv-x="692" 
d="M83 134q34 0 53 -23.5t14 -56.5q-5 -27 -27 -45.5t-48 -18.5q-34 0 -53 23t-13 56q5 27 26.5 46t47.5 19zM309 134q34 0 53 -23.5t14 -56.5q-5 -27 -27 -45.5t-48 -18.5q-34 0 -53 23t-13 56q5 27 26.5 46t47.5 19zM536 134q34 0 53 -23.5t14 -56.5q-5 -27 -27 -45.5
t-48 -18.5q-34 0 -53 23t-13 56q5 27 26.5 46t47.5 19z" />
    <glyph glyph-name="perthousand" unicode="&#x2030;" horiz-adv-x="1254" 
d="M284 758q39 0 69 -13.5t49.5 -38t26.5 -59.5t-1 -78q-7 -41 -24.5 -73.5t-43 -55t-57 -35t-66.5 -12.5q-38 0 -68 13.5t-49.5 38.5t-27 60t0.5 78q7 40 25 72.5t43.5 55.5t56.5 35t66 12zM74 0l645 748h111l-645 -748h-111zM281 679q-40 0 -69 -28t-37 -80
q-8 -46 11.5 -72.5t55.5 -26.5q39 0 68 28.5t37 80.5q8 47 -11 72.5t-55 25.5zM667 355q38 0 68 -13.5t49.5 -38t26.5 -59.5t-1 -78q-7 -41 -24.5 -73.5t-43 -55t-57 -35t-65.5 -12.5q-38 0 -68.5 13.5t-50 38.5t-27 60t0.5 78q7 40 25 72.5t43.5 55.5t57 35t66.5 12z
M1059 355q38 0 68 -13.5t49.5 -38t26.5 -59.5t-1 -78q-7 -41 -24.5 -73.5t-43 -55t-57 -35t-65.5 -12.5q-38 0 -68.5 13.5t-50 38.5t-27 60t0.5 78q7 40 25 72.5t43.5 55.5t57 35t66.5 12zM662 276q-40 0 -69 -28t-37 -80q-8 -46 12.5 -72.5t55.5 -26.5q40 0 68.5 28
t36.5 81q8 47 -11.5 72.5t-55.5 25.5zM1054 276q-40 0 -69 -28t-37 -80q-8 -46 12.5 -72.5t55.5 -26.5q40 0 68.5 28t36.5 81q8 47 -11.5 72.5t-55.5 25.5z" />
    <glyph glyph-name="guilsinglleft" unicode="&#x2039;" horiz-adv-x="320" 
d="M150 249l124 -153l-87 -65l-173 227l240 222l74 -78z" />
    <glyph glyph-name="guilsinglright" unicode="&#x203a;" horiz-adv-x="320" 
d="M67 30l-74 78l178 153l-124 153l87 66l173 -228z" />
    <glyph glyph-name="fraction" unicode="&#x2044;" horiz-adv-x="208" 
d="M-259 0l650 748h117l-650 -748h-117z" />
    <glyph glyph-name="Euro" unicode="&#x20ac;" horiz-adv-x="706" 
d="M526 652q-75 0 -137.5 -41t-100.5 -119h324l-36 -70h-314q-8 -28 -12 -56q-2 -11 -3 -21.5t-2 -21.5h275l-36 -70h-237q11 -78 57.5 -117.5t116.5 -39.5q54 0 98 17t78 43l43 -103q-51 -32 -103.5 -47.5t-120.5 -15.5q-58 0 -107.5 17.5t-88 51t-62.5 82.5t-31 112h-117
l36 70h79q1 28 6 58q2 11 4 21l4 20h-103l36 70h88q25 64 63 114t85.5 83.5t101.5 51t110 17.5q71 0 118 -17t86 -48l-48 -95q-27 26 -63.5 40t-86.5 14z" />
    <glyph glyph-name="trademark" unicode="&#x2122;" horiz-adv-x="887" 
d="M306 668l-49 -279h-83l49 279h-124l15 80h332l-15 -80h-125zM764 389l33 181l-136 -178h-38l-72 178l-33 -181h-83l64 359h67l92 -237l180 237h73l-64 -359h-83z" />
    <glyph glyph-name="estimated" unicode="&#x212e;" horiz-adv-x="610" 
d="M318 539q52 0 97.5 -16.5t79.5 -49.5t53.5 -81t19.5 -111h-400v-176q0 -18 5.5 -32.5t24.5 -23.5q23 -18 53.5 -26.5t66.5 -8.5q74 0 131 35t93 92l21 -14q-42 -64 -104.5 -101.5t-140.5 -37.5q-58 0 -108.5 19.5t-87.5 55.5t-58.5 86.5t-21.5 112.5t21.5 113t58.5 87.5
t87.5 56.5t108.5 20zM318 513q-37 0 -68 -9.5t-53 -25.5q-17 -8 -23 -23t-6 -31v-118h284v119q0 26 -5.5 38.5t-25.5 22.5q-21 14 -47 20.5t-56 6.5z" />
    <glyph glyph-name="partialdiff" unicode="&#x2202;" horiz-adv-x="614" 
d="M356 758q84 0 133.5 -38t72.5 -102t23 -148.5t-14 -178.5q-11 -73 -37.5 -129.5t-65.5 -94.5t-89 -58t-107 -20q-58 0 -104.5 18.5t-77 52.5t-43 82t-3.5 107q8 54 33 97.5t62 73.5t84 46.5t100 16.5q48 0 85.5 -15t63.5 -41q6 51 3.5 93t-15 71t-36.5 45t-63 16
q-54 0 -94.5 -19t-75.5 -50l-56 102q50 35 102 54t119 19zM273 95q32 0 61 11t52.5 30.5t39 47t20.5 60.5l1 9q8 63 -23 100t-87 37q-32 0 -61 -11t-52.5 -31.5t-39 -49t-21.5 -62.5q-10 -65 20.5 -103t89.5 -38z" />
    <glyph glyph-name="product" unicode="&#x220f;" horiz-adv-x="651" 
d="M597 643l-142 -807h-101l142 807h-204l-142 -807h-102l142 807h-99l19 105h606l-19 -105h-100z" />
    <glyph glyph-name="summation" unicode="&#x2211;" horiz-adv-x="600" 
d="M252 643l156 -269l-248 -268h369l-18 -106h-508l14 87l267 287l-163 287l14 87h508l-19 -105h-372z" />
    <glyph glyph-name="minus" unicode="&#x2212;" horiz-adv-x="547" 
d="M42 318l19 105h483l-19 -105h-483z" />
    <glyph glyph-name="radical" unicode="&#x221a;" horiz-adv-x="652" 
d="M282 -77l-90 332l-122 -70l-42 89l227 129l60 -248l293 539l89 -39z" />
    <glyph glyph-name="infinity" unicode="&#x221e;" horiz-adv-x="783" 
d="M598 500q43 0 76 -16t54 -43.5t29 -64t2 -78.5q-6 -39 -24 -73.5t-44.5 -60t-61 -40.5t-73.5 -15q-33 0 -58.5 9t-46 22.5t-35.5 30.5t-27 34l-15 23l-23 -24q-36 -36 -76.5 -58t-87.5 -22q-40 0 -70 14.5t-49 40t-26 59.5t-1 73q6 36 21.5 67.5t39.5 55.5t55 37.5
t67 13.5q56 0 89.5 -24t59.5 -59l15 -23l20 20q22 22 44 40.5t44.5 32t47.5 21t54 7.5zM596 405q-41 0 -71.5 -22.5t-63.5 -56.5l-24 -25l15 -24q19 -29 44.5 -51t60.5 -22q45 0 74 29t36 72q3 20 -0.5 38t-13 32t-24 22t-33.5 8zM225 393q-41 0 -66.5 -27.5t-31.5 -65.5
q-6 -35 11 -60t52 -25q32 0 59.5 16.5t54.5 45.5l24 26l-13 23q-40 67 -90 67z" />
    <glyph glyph-name="integral" unicode="&#x222b;" horiz-adv-x="338" 
d="M329 758q35 0 57 -5t41 -11l-27 -83q-26 8 -47 8q-62 0 -74 -75l-107 -606q-14 -81 -50 -119t-99 -38q-36 0 -58.5 5.5t-39.5 10.5l26 83q12 -4 22.5 -6t21.5 -2q68 0 81 77l107 606q14 80 49 117.5t97 37.5z" />
    <glyph glyph-name="approxequal" unicode="&#x2248;" horiz-adv-x="539" 
d="M567 492q-38 -41 -76.5 -62.5t-86.5 -21.5q-35 0 -58 9.5t-41.5 20.5t-36.5 20.5t-43 9.5q-41 0 -69.5 -14.5t-57.5 -44.5l-43 81q39 41 77 62t83 21q31 0 52.5 -9.5t40 -20.5t38 -20.5t47.5 -9.5q43 0 72.5 15t58.5 45zM526 253q-39 -41 -78 -62.5t-87 -21.5
q-35 0 -57.5 9.5t-41 20.5t-36.5 20.5t-43 9.5q-41 0 -69.5 -14.5t-57.5 -44.5l-43 80q39 41 77 62.5t83 21.5q31 0 52.5 -9.5t40 -21t38 -21t47.5 -9.5q43 0 72.5 15.5t58.5 45.5z" />
    <glyph glyph-name="notequal" unicode="&#x2260;" horiz-adv-x="547" 
d="M309 301h214l-19 -106h-246l-61 -125l-94 23l49 102h-131l19 106h163l66 136h-205l19 106h237l60 124l95 -23l-49 -101h140l-19 -106h-172z" />
    <glyph glyph-name="lessequal" unicode="&#x2264;" horiz-adv-x="527" 
d="M290 460l222 -107l-21 -115l-427 222l504 222l-18 -115zM-2 80l18 106h467l-18 -106h-467z" />
    <glyph glyph-name="greaterequal" unicode="&#x2265;" horiz-adv-x="527" 
d="M30 238l18 115l261 107l-222 107l20 115l428 -222zM1 80l18 106h467l-18 -106h-467z" />
    <glyph glyph-name="lozenge" unicode="&#x25ca;" horiz-adv-x="546" 
d="M255 -55h-72l-135 401l275 402h71l135 -402zM243 106l169 240l-78 240l-169 -240z" />
    <glyph glyph-name="fi" unicode="&#xfb01;" horiz-adv-x="633" 
d="M390 782q18 0 28.5 -1t19.5 -3l-17 -96q-6 2 -13 2h-13q-47 0 -79 -27.5t-40 -73.5l-13 -70h126l-17 -97h-126l-73 -416h-112l73 416h-97l17 97h97l14 75q16 93 77.5 143.5t147.5 50.5zM576 761q33 0 51.5 -22.5t13.5 -54.5q-5 -27 -26 -45t-47 -18q-32 0 -51 22.5
t-14 54.5q5 27 26.5 45t46.5 18zM394 0l91 513h112l-91 -513h-112z" />
    <glyph glyph-name="fl" unicode="&#xfb02;" horiz-adv-x="633" 
d="M390 782q18 0 28.5 -1t19.5 -3l-17 -96q-6 2 -13 2h-13q-47 0 -79 -27.5t-40 -73.5l-13 -70h126l-17 -97h-126l-73 -416h-112l73 416h-97l17 97h97l14 75q16 93 77.5 143.5t147.5 50.5zM394 0l137 777h112l-137 -777h-112z" />
    <glyph glyph-name="n.001" horiz-adv-x="613" 
d="M339 522q44 0 80.5 -14t62.5 -40t40.5 -63.5t14.5 -85.5v-319h-113v294q0 58 -30.5 91t-81.5 33q-54 0 -86.5 -35.5t-32.5 -89.5v-293h-112v513h106v-74q14 32 53.5 57.5t98.5 25.5z" />
    <glyph glyph-name="germandbls.cap" horiz-adv-x="695" 
d="M412 756q48 0 86.5 -9.5t69 -26.5t54.5 -40t42 -49l-134 -176q31 -14 57 -34t42.5 -48t22 -65t-3.5 -85q-9 -54 -36 -97t-67 -72.5t-91.5 -45.5t-109.5 -16q-33 0 -55.5 2.5t-42.5 7.5l34 103q14 -5 29 -6t31 -1q35 0 66.5 9t56.5 27t42 44t23 60q7 37 -2 65t-31.5 47.5
t-57 32.5t-77.5 22l151 208q-15 14 -39 26t-66 12q-30 0 -57 -9.5t-49 -26.5t-37.5 -40.5t-20.5 -52.5l-92 -522h-119l93 528q9 53 35.5 95t65 71.5t86.5 45.5t101 16z" />
    <glyph glyph-name="a.sups" horiz-adv-x="449" 
d="M302 756q85 0 123.5 -42t24.5 -122l-45 -255h-95l6 37q-21 -21 -52.5 -33t-73.5 -12q-62 0 -96 29t-26 87q5 33 21.5 55.5t40 37t52.5 22t59 9.5l105 8l4 23q7 37 -6.5 57.5t-47.5 20.5q-38 0 -60 -22t-27 -51l-98 3q5 27 20 53.5t39.5 47.5t57.5 34t74 13zM260 503
q-37 -4 -60 -13.5t-27 -38.5q-3 -23 13.5 -34t41.5 -11q41 0 68 21.5t36 63.5l4 19z" />
    <glyph glyph-name="b.sups" horiz-adv-x="524" 
d="M244 719q17 15 47.5 26t71.5 11q44 0 79 -15.5t57.5 -44t32 -68.5t2.5 -90q-6 -48 -26 -86.5t-50 -65.5t-67.5 -42t-78.5 -15q-51 0 -82 17.5t-48 41.5l-11 -51h-95l110 622h101zM339 670q-48 0 -81.5 -29t-43.5 -87l-3 -17q-9 -60 17.5 -91t74.5 -31q49 0 85 32t45 93
q9 63 -18.5 96.5t-75.5 33.5z" />
    <glyph glyph-name="c.sups" horiz-adv-x="470" 
d="M314 756q79 0 128.5 -42.5t51.5 -116.5l-96 -5q0 37 -22.5 57.5t-58.5 20.5q-51 0 -85 -35.5t-42 -99.5q-4 -29 1.5 -51.5t17.5 -37.5t30 -23t39 -8q42 0 69 21t38 56l97 -11q-20 -72 -75 -112t-127 -40q-47 0 -84.5 15t-63 43.5t-37 69.5t-5.5 93q6 49 25.5 87.5
t49 64.5t68 40t81.5 14z" />
    <glyph glyph-name="d.sups" horiz-adv-x="524" 
d="M385 337l5 36q-18 -18 -51.5 -31t-77.5 -13t-79 15.5t-57.5 44t-32 68.5t-2.5 90q6 48 26 86.5t50 65.5t67.5 42t78.5 15q50 0 80 -16.5t47 -39.5l46 259h101l-109 -622h-92zM321 670q-49 0 -85 -32t-45 -93q-9 -63 18.5 -96.5t75.5 -33.5t81.5 29t43.5 87l3 17
q9 60 -17.5 91t-74.5 31z" />
    <glyph glyph-name="e.sups" horiz-adv-x="477" 
d="M318 756q92 0 139 -55.5t33 -152.5l-6 -41h-294q-5 -48 16 -70t63 -22q40 0 66.5 15t37.5 41l101 -6q-10 -30 -29.5 -55t-45.5 -43t-57.5 -28t-65.5 -10q-48 0 -85.5 15.5t-62.5 44t-35.5 69.5t-2.5 92q7 49 27 87t50 64.5t68.5 40.5t82.5 14zM316 681q-45 0 -74 -26.5
t-40 -71.5h192q7 44 -14 71t-64 27z" />
    <glyph glyph-name="f.sups" horiz-adv-x="290" 
d="M366 963q17 0 25.5 -1t15.5 -3l-15 -86q-5 1 -11.5 1.5t-11.5 0.5q-37 0 -60.5 -20.5t-29.5 -56.5l-9 -50h99l-16 -87h-98l-58 -324h-100l57 324h-76l16 87h76l10 56q13 75 64.5 117t121.5 42z" />
    <glyph glyph-name="g.sups" horiz-adv-x="521" 
d="M313 756q51 0 82 -17.5t48 -41.5l11 51h95l-77 -433q-17 -89 -78 -139t-155 -50q-95 0 -140 42t-45 110l99 3q-1 -33 22.5 -52t63.5 -19q51 0 86.5 27.5t44.5 78.5l9 50q-17 -15 -46.5 -26t-70.5 -11q-44 0 -79 15.5t-57.5 44t-32 68.5t-2.5 90q6 48 26 86.5t50 65.5
t67.5 42t78.5 15zM322 670q-49 0 -85 -32t-45 -93q-9 -63 18.5 -96.5t75.5 -33.5t81.5 29t43.5 87l3 17q9 60 -17.5 91t-74.5 31z" />
    <glyph glyph-name="h.sups" horiz-adv-x="489" 
d="M240 709q15 17 44 32t71 15q36 0 64 -12.5t46.5 -35t26 -54t0.5 -69.5l-44 -248h-101l42 234q8 44 -10 68t-53 24q-42 0 -71.5 -27t-37.5 -68l-40 -231h-101l110 622h101z" />
    <glyph glyph-name="i.sups" horiz-adv-x="225" 
d="M227 950q29 0 46 -20.5t12 -49.5q-5 -23 -23 -38t-40 -15q-29 0 -46 19.5t-12 48.5q4 23 22.5 39t40.5 16zM76 337l73 411h100l-72 -411h-101z" />
    <glyph glyph-name="j.sups" horiz-adv-x="225" 
d="M226 950q29 0 46.5 -20.5t12.5 -49.5q-5 -23 -23 -38t-41 -15q-29 0 -45.5 19.5t-11.5 48.5q4 23 21.5 39t40.5 16zM168 286q-14 -75 -64.5 -116.5t-119.5 -41.5q-17 0 -25.5 0.5t-16.5 2.5l15 86q5 -2 10.5 -2h10.5q36 0 60.5 21t30.5 56l80 456h101z" />
    <glyph glyph-name="k.sups" horiz-adv-x="453" 
d="M397 748h125l-196 -178l131 -233h-110l-98 161l-50 -42l-22 -119h-101l110 622h101l-67 -369z" />
    <glyph glyph-name="l.sups" horiz-adv-x="224" 
d="M76 337l110 622h101l-110 -622h-101z" />
    <glyph glyph-name="m.sups" horiz-adv-x="746" 
d="M612 756q36 0 63.5 -12.5t45.5 -35t24.5 -54t-0.5 -69.5l-44 -248h-101l41 234q8 44 -7.5 68t-50.5 24q-37 0 -62.5 -20.5t-36.5 -53.5l-1 -4l-44 -248h-101l42 234q8 44 -7.5 68t-51.5 24q-42 0 -69 -26.5t-35 -67.5l-40 -232h-101l73 411h92l-6 -42q14 17 43 33.5
t72 16.5q44 0 75.5 -18.5t47.5 -50.5q22 29 56.5 49t82.5 20z" />
    <glyph glyph-name="n.sups" horiz-adv-x="492" 
d="M355 756q36 0 64 -12.5t46.5 -35t26 -54t0.5 -69.5l-44 -248h-101l42 234q8 44 -10 68t-54 24q-42 0 -71 -27t-37 -68l-40 -231h-101l73 411h92l-7 -42q16 19 47 34.5t74 15.5z" />
    <glyph glyph-name="o.sups" horiz-adv-x="509" 
d="M327 756q48 0 87 -15.5t65 -44.5t37 -70t4 -91q-6 -48 -27 -86t-52.5 -64.5t-71.5 -41t-85 -14.5q-48 0 -87 15.5t-65.5 44.5t-37.5 70t-4 91q6 47 27.5 85t53 65t71.5 41.5t85 14.5zM326 670q-52 0 -90 -35t-46 -98q-7 -59 20.5 -90.5t74.5 -31.5q52 0 90.5 35t46.5 97
q7 59 -20.5 91t-75.5 32z" />
    <glyph glyph-name="p.sups" horiz-adv-x="524" 
d="M364 756q44 0 79 -15.5t57.5 -44t32 -68.5t2.5 -90q-6 -48 -26 -86.5t-50 -65.5t-67.5 -42t-78.5 -15q-50 0 -80 16.5t-47 39.5l-45 -252h-101l108 615h92l-5 -36q18 18 51.5 31t77.5 13zM340 670q-48 0 -81.5 -29t-43.5 -87l-3 -17q-9 -60 17.5 -91t74.5 -31q49 0 85 32
t45 93q9 63 -18.5 96.5t-75.5 33.5z" />
    <glyph glyph-name="q.sups" horiz-adv-x="524" 
d="M313 756q51 0 82 -17.5t48 -41.5l11 51h95l-109 -615h-101l42 233q-17 -15 -47.5 -26t-71.5 -11q-44 0 -79 15.5t-57.5 44t-32 68.5t-2.5 90q6 48 26 86.5t50 65.5t67.5 42t78.5 15zM322 670q-49 0 -85 -32t-45 -93q-9 -63 18.5 -96.5t75.5 -33.5t81.5 29t43.5 87l3 17
q9 60 -17.5 91t-74.5 31z" />
    <glyph glyph-name="r.sups" horiz-adv-x="288" 
d="M346 656q-53 0 -88 -30.5t-43 -74.5l-38 -214h-101l73 411h95l-8 -47q17 23 48 37.5t79 14.5z" />
    <glyph glyph-name="s.sups" horiz-adv-x="403" 
d="M277 756q40 0 68.5 -11t46.5 -30t26 -44.5t6 -54.5l-100 -1q3 26 -11 40.5t-42 14.5q-31 0 -47.5 -11.5t-19.5 -30.5q-2 -11 2 -17.5t13.5 -11t23 -8t31.5 -8.5q32 -9 58 -19t43 -25t24 -36t2 -50q-10 -60 -57 -92t-121 -32q-80 0 -121 38t-37 101l101 1q-3 -54 59 -54
q30 0 51 10t25 32q2 12 -1 19t-11 12.5t-22 9.5t-34 9q-33 9 -59 18t-43.5 23t-24.5 35t-2 53q10 56 55 88t118 32z" />
    <glyph glyph-name="t.sups" horiz-adv-x="303" 
d="M223 487q-3 -19 -0.5 -31.5t9.5 -20.5t17.5 -11.5t21.5 -3.5q17 0 27 1.5t17 2.5l-16 -90q-12 -2 -25.5 -3t-32.5 -1q-33 0 -59 8.5t-42 25.5t-21.5 43.5t1.5 61.5l35 192h-77l16 87h77l25 139h101l-26 -139h101l-16 -87h-101z" />
    <glyph glyph-name="u.sups" horiz-adv-x="479" 
d="M340 337l5 41q-18 -19 -45 -34t-70 -15q-36 0 -63 12t-44.5 33.5t-23.5 52t1 68.5l45 253h100l-42 -237q-8 -41 7 -64.5t51 -23.5q41 0 67 25t33 63l42 237h101l-73 -411h-91z" />
    <glyph glyph-name="v.sups" horiz-adv-x="447" 
d="M199 337l-106 411h106l62 -255l153 255h114l-251 -411h-78z" />
    <glyph glyph-name="w.sups" horiz-adv-x="672" 
d="M446 337l-49 245l-140 -245h-79l-85 411h106l48 -246l138 246h69l50 -246l136 246h113l-230 -411h-77z" />
    <glyph glyph-name="x.sups" horiz-adv-x="432" 
d="M433 337h-109l-68 138l-115 -138h-117l176 217l-97 194h108l65 -133l112 133h116l-171 -211z" />
    <glyph glyph-name="y.sups" horiz-adv-x="446" 
d="M40 133l148 242l-92 373h105l60 -255l150 255h113l-370 -615h-114z" />
    <glyph glyph-name="z.sups" horiz-adv-x="365" 
d="M182 418h185l-15 -81h-312l12 69l223 260h-172l14 82h300l-12 -70z" />
    <glyph glyph-name="f_j" horiz-adv-x="633" 
d="M390 782q18 0 28.5 -1t19.5 -3l-17 -96q-6 2 -13 2h-13q-47 0 -79 -27.5t-40 -73.5l-13 -70h126l-17 -97h-126l-73 -416h-112l73 416h-97l17 97h97l14 75q16 93 77.5 143.5t147.5 50.5zM576 761q33 0 51.5 -22.5t13.5 -54.5q-5 -27 -26 -45t-47 -18q-32 0 -51 22.5
t-14 54.5q5 27 26 45t47 18zM497 -68q-17 -93 -77 -143t-145 -50q-18 0 -28.5 1t-19.5 3l17 96q7 -1 13.5 -1.5t13.5 -0.5q45 0 75.5 27t38.5 73l101 576h113z" />
    <glyph glyph-name="zero.onum" horiz-adv-x="649" 
d="M365 601q64 0 113.5 -22t81 -62.5t44 -98t2.5 -129.5q-10 -69 -36.5 -124.5t-67 -94.5t-93 -59.5t-112.5 -20.5q-64 0 -113.5 22t-81 62.5t-44 98.5t-2.5 130q10 69 37 124.5t67.5 94t92.5 59t112 20.5zM365 496q-75 0 -124.5 -55t-63.5 -152q-13 -92 19 -142.5
t101 -50.5q75 0 125 55t63 152q14 92 -18.5 142.5t-101.5 50.5z" />
    <glyph glyph-name="one.onum" horiz-adv-x="381" 
d="M133 0l77 430l-114 -76l-55 91l227 145h88l-104 -590h-119z" />
    <glyph glyph-name="two.onum" horiz-adv-x="539" 
d="M329 600q53 0 92.5 -15.5t63.5 -43.5t32.5 -66.5t0.5 -84.5q-6 -36 -21.5 -65.5t-37.5 -55t-49 -47t-57 -40.5l-119 -76h239l-18 -106h-451l17 96l240 149q26 16 49 32t41.5 33.5t30.5 38t17 46.5q8 48 -12.5 73.5t-69.5 25.5q-52 0 -86 -32t-45 -91l-118 6
q20 106 86 164.5t175 58.5z" />
    <glyph glyph-name="three.onum" horiz-adv-x="562" 
d="M324 600q109 0 160 -59.5t34 -158.5q-11 -62 -44.5 -99.5t-81.5 -57.5q22 -6 40.5 -20.5t30.5 -36.5t16.5 -51.5t-1.5 -65.5q-9 -52 -32.5 -92.5t-58 -68.5t-79 -43t-95.5 -15q-117 0 -170.5 62t-40.5 165l118 -1q-5 -59 19.5 -89.5t79.5 -30.5q57 0 94 31.5t48 92.5
q9 57 -19.5 86.5t-84.5 29.5h-79l18 100h70q24 0 46 7.5t40 21.5t30.5 34.5t17.5 47.5q8 49 -14.5 77t-68.5 28q-53 0 -86.5 -32t-46.5 -88l-116 14q21 101 86.5 156.5t169.5 55.5z" />
    <glyph glyph-name="four.onum" horiz-adv-x="599" 
d="M546 105l-19 -106h-119l-28 -157h-116l28 157h-313l17 98l418 493h98l-85 -485h119zM309 105l49 266l-228 -266h179z" />
    <glyph glyph-name="five.onum" horiz-adv-x="564" 
d="M196 287q42 21 95 21q51 0 92 -16t68.5 -47t38.5 -75.5t1 -102.5q-8 -53 -30 -96.5t-56.5 -74t-80.5 -47.5t-101 -17q-57 0 -99 15.5t-69 44t-38.5 68.5t-6.5 89l118 3q-4 -54 22 -84t80 -30q63 0 98.5 38t44.5 99q11 58 -15.5 92.5t-79.5 34.5q-35 0 -59.5 -10.5
t-50.5 -27.5l-113 2l75 424h424l-19 -105h-305z" />
    <glyph glyph-name="six.onum" horiz-adv-x="599" 
d="M341 481q52 -3 95.5 -22t72.5 -52t41.5 -78t4.5 -100t-32.5 -99t-61.5 -75t-84 -48t-99 -17q-57 0 -103.5 18t-78.5 51t-46.5 80t-5.5 104q7 45 24 83t47 71l324 351h146zM435 241q10 71 -23 107.5t-88 36.5q-68 0 -115 -49q-18 -20 -29 -43t-16 -55q-9 -70 23.5 -106
t89.5 -36q31 0 58.5 11t48 30.5t34 46t17.5 57.5z" />
    <glyph glyph-name="seven.onum" horiz-adv-x="540" 
d="M117 -158h-138l438 643h-355l19 105h492l-17 -96z" />
    <glyph glyph-name="eight.onum" horiz-adv-x="606" 
d="M373 758q51 0 93 -14.5t70.5 -42t40.5 -67t4 -88.5q-8 -54 -38 -92.5t-78 -61.5q43 -22 67 -69.5t14 -115.5q-8 -51 -33 -91.5t-61.5 -68t-83 -42.5t-98.5 -15q-55 0 -100 16t-75.5 46t-43.5 73t-5 97q10 63 46 108t92 71q-35 20 -55 60.5t-11 98.5q7 47 30 84t57 62.5
t77 38.5t91 13zM367 652q-51 0 -88.5 -29.5t-43.5 -79.5q-6 -48 21 -73.5t75 -25.5q51 0 88 28t44 79q6 48 -21 74.5t-75 26.5zM319 342q-30 0 -56.5 -9.5t-47 -26.5t-34 -40.5t-17.5 -52.5q-4 -27 2.5 -48.5t21.5 -37t37 -23.5t49 -8q62 0 104.5 34.5t50.5 92.5
q7 55 -24 87t-86 32z" />
    <glyph glyph-name="nine.onum" horiz-adv-x="599" 
d="M331 600q57 0 103.5 -18t78.5 -51t46.5 -80t5.5 -104q-7 -45 -24 -83t-47 -71l-324 -351h-146l244 267q-53 3 -96 22t-72 52t-41.5 78t-4.5 100t32.5 99t61.5 75t83.5 48t99.5 17zM285 205q68 0 115 49q18 20 29 43t16 55q9 70 -23.5 106t-89.5 36q-32 0 -59 -11
t-47.5 -30.5t-34 -46t-17.5 -57.5q-5 -36 1.5 -63t21.5 -45t38 -27t50 -9z" />
    <glyph glyph-name="zero.slash" horiz-adv-x="648" 
d="M393 758q63 0 111.5 -26t78.5 -75.5t40 -122.5t-4 -167q-14 -92 -43.5 -162t-71.5 -118t-95 -72.5t-113 -24.5q-64 0 -112.5 26t-78.5 75.5t-39.5 122.5t4.5 167q13 91 43 161.5t72 118.5t95 72.5t113 24.5zM188 369q-15 -101 -3 -165l285 415q-30 33 -80 33
q-81 0 -130.5 -71.5t-71.5 -211.5zM500 379q15 94 4 159l-283 -412q28 -30 77 -30q81 0 131 71.5t71 211.5z" />
    <glyph glyph-name="zero.subs" horiz-adv-x="371" 
d="M190 337q36 0 64 -14.5t45 -42t22 -68.5t-4 -93q-18 -101 -68 -153t-116 -52q-36 0 -64 14.5t-45 42.5t-22 68.5t4 93.5q18 100 68 152t116 52zM185 260q-69 0 -93 -135q-11 -64 -1 -98.5t45 -34.5t57.5 33t34.5 102q11 63 1 98t-44 35z" />
    <glyph glyph-name="one.subs" horiz-adv-x="228" 
d="M37 -80l51 285l-61 -37l-33 73l147 90h55l-72 -411h-87z" />
    <glyph glyph-name="two.subs" horiz-adv-x="316" 
d="M166 337q33 0 56 -10.5t36 -28.5t17 -42.5t0 -52.5q-7 -44 -31 -75.5t-59 -64.5l-74 -66h130l-14 -77h-265l11 60l153 137q26 23 42 44t21 50q4 22 -5 35.5t-29 13.5q-23 0 -38.5 -14.5t-20.5 -41.5l-84 5q11 60 52.5 94t101.5 34z" />
    <glyph glyph-name="three.subs" horiz-adv-x="326" 
d="M167 337q65 0 95 -34t19 -92q-5 -30 -22 -50t-43 -33q21 -7 34.5 -31.5t6.5 -62.5q-10 -57 -50.5 -88.5t-97.5 -31.5q-69 0 -99.5 35.5t-22.5 91.5l87 3q-2 -24 7 -38t32 -14q24 0 40.5 16.5t19.5 42.5q4 23 -8.5 34t-34.5 11h-45l12 68h37q21 0 41.5 16.5t23.5 42.5
q3 19 -6.5 29t-28.5 10q-21 0 -37 -14.5t-21 -38.5l-82 7q11 60 47 90.5t96 30.5z" />
    <glyph glyph-name="four.subs" horiz-adv-x="348" 
d="M297 76l-13 -78h-55l-13 -78h-87l13 78h-172l12 68l224 265h82l-45 -255h54zM156 76l20 112l-96 -112h76z" />
    <glyph glyph-name="five.subs" horiz-adv-x="322" 
d="M112 177q18 5 36 5q58 0 90.5 -35t21.5 -103q-11 -60 -52 -95t-102 -35q-66 0 -97.5 33.5t-23.5 87.5l86 3q-2 -21 8 -33.5t32 -12.5q24 0 40 15.5t21 42.5q5 24 -5.5 39t-32.5 15q-14 0 -24.5 -5t-21.5 -13l-79 2l42 243h242l-13 -77h-155z" />
    <glyph glyph-name="six.subs" horiz-adv-x="347" 
d="M180 188q54 -8 82 -46.5t18 -96.5q-11 -60 -56 -95.5t-104 -35.5q-33 0 -60 10.5t-44 29.5t-24.5 45.5t-1.5 59.5q5 24 15 44.5t27 40.5l169 187h107zM194 56q5 27 -7.5 45t-38.5 18q-15 0 -27.5 -6t-21.5 -16q-17 -17 -21 -43q-5 -28 8 -45t38 -17q24 0 44.5 16t25.5 48
z" />
    <glyph glyph-name="seven.subs" horiz-adv-x="315" 
d="M72 -80h-101l217 334h-171l13 77h276l-12 -68z" />
    <glyph glyph-name="eight.subs" horiz-adv-x="349" 
d="M178 337q30 0 54.5 -8.5t41 -24.5t23.5 -39t2 -52q-4 -23 -18 -43t-34 -36q17 -14 27 -39t4 -61q-11 -57 -54.5 -88.5t-102.5 -31.5q-66 0 -103 36t-26 99q5 31 22.5 54t42.5 41q-11 13 -20 33t-4 50q10 53 50.5 81.5t94.5 28.5zM173 260q-24 0 -41.5 -13t-20.5 -36
q-3 -22 10 -33.5t35 -11.5q23 0 40 13t20 36q3 22 -9.5 33.5t-33.5 11.5zM145 95q-26 0 -44 -14t-22 -40q-3 -23 10.5 -36t37.5 -13q26 0 44 13.5t22 39.5q4 25 -10.5 37.5t-37.5 12.5z" />
    <glyph glyph-name="nine.subs" horiz-adv-x="347" 
d="M178 337q33 0 59.5 -10.5t44 -29.5t24.5 -45.5t1 -59.5q-4 -24 -14.5 -44.5t-27.5 -41.5l-168 -186h-108l129 143q-54 9 -82 47.5t-18 95.5q11 60 55.5 95.5t104.5 35.5zM149 132q16 0 28 6t22 16q8 8 13.5 18.5t7.5 24.5q5 28 -8 45.5t-38 17.5q-24 0 -44.5 -16.5
t-26.5 -48.5q-5 -27 7.5 -45t38.5 -18z" />
    <glyph glyph-name="zero.sups" horiz-adv-x="371" 
d="M277 819q36 0 64 -14.5t45 -42t22 -68.5t-4 -93q-18 -101 -68 -153t-116 -52q-36 0 -64 14.5t-45 42.5t-22 68.5t4 93.5q18 100 68 152t116 52zM272 742q-69 0 -93 -135q-11 -64 -1 -98.5t45 -34.5t57.5 33t34.5 102q11 63 1 98t-44 35z" />
    <glyph glyph-name="one.sups" horiz-adv-x="228" 
d="M121 402l51 285l-61 -37l-33 73l147 90h55l-72 -411h-87z" />
    <glyph glyph-name="two.sups" horiz-adv-x="316" 
d="M253 819q33 0 56 -10.5t36 -28.5t17 -42.5t0 -52.5q-7 -44 -31 -75.5t-59 -64.5l-74 -66h130l-14 -77h-265l11 60l153 137q26 23 42 44t21 50q4 22 -5 35.5t-29 13.5q-23 0 -38.5 -14.5t-20.5 -41.5l-84 5q11 60 52.5 94t101.5 34z" />
    <glyph glyph-name="three.sups" horiz-adv-x="326" 
d="M250 819q65 0 95 -34t19 -92q-5 -30 -22 -50t-43 -33q21 -7 34.5 -31.5t6.5 -62.5q-10 -57 -50.5 -88.5t-97.5 -31.5q-69 0 -99.5 35.5t-22.5 91.5l87 3q-2 -24 7 -38t32 -14q24 0 40.5 16.5t19.5 42.5q4 23 -8.5 34t-34.5 11h-45l12 68h37q21 0 41.5 16.5t23.5 42.5
q3 19 -6.5 29t-28.5 10q-21 0 -37 -14.5t-21 -38.5l-82 7q11 60 47 90.5t96 30.5z" />
    <glyph glyph-name="four.sups" horiz-adv-x="348" 
d="M380 558l-13 -78h-55l-13 -78h-87l13 78h-172l12 68l224 265h82l-45 -255h54zM239 558l20 112l-96 -112h76z" />
    <glyph glyph-name="five.sups" horiz-adv-x="322" 
d="M196 659q18 5 36 5q58 0 90.5 -35t21.5 -103q-11 -60 -52 -95t-102 -35q-66 0 -97.5 33.5t-23.5 87.5l86 3q-2 -21 8 -33.5t32 -12.5q24 0 40 15.5t21 42.5q5 24 -5.5 39t-32.5 15q-14 0 -24.5 -5t-21.5 -13l-79 2l42 243h242l-13 -77h-155z" />
    <glyph glyph-name="six.sups" horiz-adv-x="347" 
d="M266 670q54 -8 82 -46.5t18 -96.5q-11 -60 -56 -95.5t-104 -35.5q-33 0 -60 10.5t-44 29.5t-24.5 45.5t-1.5 59.5q5 24 15 44.5t27 40.5l169 187h107zM280 538q5 27 -7.5 45t-38.5 18q-15 0 -27.5 -6t-21.5 -16q-17 -17 -21 -43q-5 -28 8 -45t38 -17q24 0 44.5 16
t25.5 48z" />
    <glyph glyph-name="seven.sups" horiz-adv-x="315" 
d="M158 402h-101l217 334h-171l13 77h276l-12 -68z" />
    <glyph glyph-name="eight.sups" horiz-adv-x="349" 
d="M263 819q30 0 54.5 -8.5t41 -24.5t23.5 -39t2 -52q-4 -23 -18 -43t-34 -36q17 -14 27 -39t4 -61q-11 -57 -54.5 -88.5t-102.5 -31.5q-66 0 -103 36t-26 99q5 31 22.5 54t42.5 41q-11 13 -20 33t-4 50q10 53 50.5 81.5t94.5 28.5zM258 742q-24 0 -41.5 -13t-20.5 -36
q-3 -22 10 -33.5t35 -11.5q23 0 40 13t20 36q3 22 -9.5 33.5t-33.5 11.5zM230 577q-26 0 -44 -14t-22 -40q-3 -23 10.5 -36t37.5 -13q26 0 44 13.5t22 39.5q4 25 -10.5 37.5t-37.5 12.5z" />
    <glyph glyph-name="nine.sups" horiz-adv-x="347" 
d="M262 819q33 0 59.5 -10.5t44 -29.5t24.5 -45.5t1 -59.5q-4 -24 -14.5 -44.5t-27.5 -41.5l-168 -186h-108l129 143q-54 9 -82 47.5t-18 95.5q11 60 55.5 95.5t104.5 35.5zM233 614q16 0 28 6t22 16q8 8 13.5 18.5t7.5 24.5q5 28 -8 45.5t-38 17.5q-24 0 -44.5 -16.5
t-26.5 -48.5q-5 -27 7.5 -45t38.5 -18z" />
    <glyph glyph-name="zero.tnum" horiz-adv-x="650" 
d="M392 758q63 0 111.5 -26t78.5 -75.5t40 -122.5t-4 -167q-14 -92 -43.5 -162t-71.5 -118t-95 -72.5t-113 -24.5q-64 0 -112.5 26t-78.5 75.5t-39.5 122.5t4.5 167q13 91 43 161.5t72 118.5t95 72.5t113 24.5zM389 652q-81 0 -130.5 -71.5t-71.5 -211.5q-20 -134 8 -203.5
t102 -69.5q81 0 131 71.5t71 211.5q20 134 -8.5 203.5t-101.5 69.5z" />
    <glyph glyph-name="one.tnum" horiz-adv-x="650" 
d="M536 106l-19 -106h-422l19 106h159l85 479l-121 -81l-55 92l235 152h88l-113 -642h144z" />
    <glyph glyph-name="two.tnum" horiz-adv-x="650" 
d="M410 758q52 0 91.5 -16t63.5 -45.5t32.5 -70t0.5 -89.5q-8 -47 -24.5 -84t-40.5 -69t-54 -61.5t-65 -59.5l-179 -157h292l-18 -106h-452l16 90l255 232q68 61 104.5 111.5t45.5 109.5q8 49 -11.5 79t-67.5 30q-56 0 -88 -34t-44 -96l-118 7q21 112 87.5 170.5t173.5 58.5
z" />
    <glyph glyph-name="three.tnum" horiz-adv-x="650" 
d="M400 758q109 0 160 -59.5t34 -158.5q-11 -62 -44.5 -99.5t-81.5 -57.5q22 -6 40.5 -20.5t30.5 -36.5t16.5 -51.5t-1.5 -65.5q-9 -52 -32.5 -92.5t-58 -68.5t-79 -43t-95.5 -15q-117 0 -170.5 62t-40.5 165l118 -1q-5 -59 19.5 -89.5t79.5 -30.5q57 0 94 31.5t48 92.5
q9 57 -19.5 86.5t-84.5 29.5h-79l18 100h70q24 0 46 7.5t40 21.5t30.5 34.5t17.5 47.5q8 49 -14.5 77t-68.5 28q-53 0 -86.5 -32t-46.5 -88l-116 14q21 101 86.5 156.5t169.5 55.5z" />
    <glyph glyph-name="four.tnum" horiz-adv-x="650" 
d="M599 263l-19 -106h-119l-28 -157h-116l28 157h-313l17 98l418 493h98l-85 -485h119zM362 263l49 266l-228 -266h179z" />
    <glyph glyph-name="five.tnum" horiz-adv-x="650" 
d="M261 445q42 21 95 21q51 0 92 -16t68.5 -47t38.5 -75.5t1 -102.5q-8 -53 -30 -96.5t-56.5 -74t-80.5 -47.5t-101 -17q-57 0 -99 15.5t-69 44t-38.5 68.5t-6.5 89l118 3q-4 -54 22 -84t80 -30q63 0 98.5 38t44.5 99q11 58 -15.5 92.5t-79.5 34.5q-35 0 -59.5 -10.5
t-50.5 -27.5l-113 2l75 424h424l-19 -105h-305z" />
    <glyph glyph-name="six.tnum" horiz-adv-x="650" 
d="M362 481q52 -3 95.5 -22t72.5 -52t41.5 -78t4.5 -100t-32.5 -99t-61.5 -75t-84 -48t-99 -17q-57 0 -103.5 18t-78.5 51t-46.5 80t-5.5 104q7 45 24 83t47 71l324 351h146zM456 241q10 71 -23 107.5t-88 36.5q-68 0 -115 -49q-18 -20 -29 -43t-16 -55q-9 -70 23.5 -106
t89.5 -36q31 0 58.5 11t48 30.5t34 46t17.5 57.5z" />
    <glyph glyph-name="seven.tnum" horiz-adv-x="650" 
d="M194 0h-138l438 643h-355l19 105h492l-17 -96z" />
    <glyph glyph-name="eight.tnum" horiz-adv-x="650" 
d="M392 758q51 0 93 -14.5t70.5 -42t40.5 -67t4 -88.5q-8 -54 -38 -92.5t-78 -61.5q43 -22 67 -69.5t14 -115.5q-8 -51 -33 -91.5t-61.5 -68t-83 -42.5t-98.5 -15q-55 0 -100 16t-75.5 46t-43.5 73t-5 97q10 63 46 108t92 71q-35 20 -55 60.5t-11 98.5q7 47 30 84t57 62.5
t77 38.5t91 13zM386 652q-51 0 -88.5 -29.5t-43.5 -79.5q-6 -48 21 -73.5t75 -25.5q51 0 88 28t44 79q6 48 -21 74.5t-75 26.5zM338 342q-30 0 -56.5 -9.5t-47 -26.5t-34 -40.5t-17.5 -52.5q-4 -27 2.5 -48.5t21.5 -37t37 -23.5t49 -8q62 0 104.5 34.5t50.5 92.5
q7 55 -24 87t-86 32z" />
    <glyph glyph-name="nine.tnum" horiz-adv-x="650" 
d="M392 758q57 0 103.5 -18t78.5 -51t46.5 -80t5.5 -104q-7 -45 -24 -83t-47 -71l-324 -351h-146l244 267q-53 3 -96 22t-72 52t-41.5 78t-4.5 100t32.5 99t61.5 75t83.5 48t99.5 17zM346 363q68 0 115 49q18 20 29 43t16 55q9 70 -23.5 106t-89.5 36q-32 0 -59 -11
t-47.5 -30.5t-34 -46t-17.5 -57.5q-5 -36 1.5 -63t21.5 -45t38 -27t50 -9z" />
    <glyph glyph-name="zero.dnom" horiz-adv-x="371" 
d="M206 417q36 0 64 -14.5t45 -42t22 -68.5t-4 -93q-18 -101 -68 -153t-116 -52q-36 0 -64 14.5t-45 42.5t-22 68.5t4 93.5q18 100 68 152t116 52zM201 340q-69 0 -93 -135q-11 -64 -1 -98.5t45 -34.5t57.5 33t34.5 102q11 63 1 98t-44 35z" />
    <glyph glyph-name="one.dnom" horiz-adv-x="228" 
d="M55 0l51 285l-61 -37l-33 73l147 90h55l-72 -411h-87z" />
    <glyph glyph-name="two.dnom" horiz-adv-x="316" 
d="M186 417q33 0 56 -10.5t36 -28.5t17 -42.5t0 -52.5q-7 -44 -31 -75.5t-59 -64.5l-74 -66h130l-14 -77h-265l11 60l153 137q26 23 42 44t21 50q4 22 -5 35.5t-29 13.5q-23 0 -38.5 -14.5t-20.5 -41.5l-84 5q11 60 52.5 94t101.5 34z" />
    <glyph glyph-name="three.dnom" horiz-adv-x="326" 
d="M181 417q65 0 95 -34t19 -92q-5 -30 -22 -50t-43 -33q21 -7 34.5 -31.5t6.5 -62.5q-10 -57 -50.5 -88.5t-97.5 -31.5q-69 0 -99.5 35.5t-22.5 91.5l87 3q-2 -24 7 -38t32 -14q24 0 40.5 16.5t19.5 42.5q4 23 -8.5 34t-34.5 11h-45l12 68h37q21 0 41.5 16.5t23.5 42.5
q3 19 -6.5 29t-28.5 10q-21 0 -37 -14.5t-21 -38.5l-82 7q11 60 47 90.5t96 30.5z" />
    <glyph glyph-name="four.dnom" horiz-adv-x="348" 
d="M312 156l-13 -78h-55l-13 -78h-87l13 78h-172l12 68l224 265h82l-45 -255h54zM171 156l20 112l-96 -112h76z" />
    <glyph glyph-name="five.dnom" horiz-adv-x="322" 
d="M128 257q18 5 36 5q58 0 90.5 -35t21.5 -103q-11 -60 -52 -95t-102 -35q-66 0 -97.5 33.5t-23.5 87.5l86 3q-2 -21 8 -33.5t32 -12.5q24 0 40 15.5t21 42.5q5 24 -5.5 39t-32.5 15q-14 0 -24.5 -5t-21.5 -13l-79 2l42 243h242l-13 -77h-155z" />
    <glyph glyph-name="six.dnom" horiz-adv-x="347" 
d="M197 268q54 -8 82 -46.5t18 -96.5q-11 -60 -56 -95.5t-104 -35.5q-33 0 -60 10.5t-44 29.5t-24.5 45.5t-1.5 59.5q5 24 15 44.5t27 40.5l169 187h107zM211 136q5 27 -7.5 45t-38.5 18q-15 0 -27.5 -6t-21.5 -16q-17 -17 -21 -43q-5 -28 8 -45t38 -17q24 0 44.5 16
t25.5 48z" />
    <glyph glyph-name="seven.dnom" horiz-adv-x="315" 
d="M86 0h-101l217 334h-171l13 77h276l-12 -68z" />
    <glyph glyph-name="eight.dnom" horiz-adv-x="349" 
d="M194 417q30 0 54.5 -8.5t41 -24.5t23.5 -39t2 -52q-4 -23 -18 -43t-34 -36q17 -14 27 -39t4 -61q-11 -57 -54.5 -88.5t-102.5 -31.5q-66 0 -103 36t-26 99q5 31 22.5 54t42.5 41q-11 13 -20 33t-4 50q10 53 50.5 81.5t94.5 28.5zM189 340q-24 0 -41.5 -13t-20.5 -36
q-3 -22 10 -33.5t35 -11.5q23 0 40 13t20 36q3 22 -9.5 33.5t-33.5 11.5zM161 175q-26 0 -44 -14t-22 -40q-3 -23 10.5 -36t37.5 -13q26 0 44 13.5t22 39.5q4 25 -10.5 37.5t-37.5 12.5z" />
    <glyph glyph-name="nine.dnom" horiz-adv-x="347" 
d="M193 417q33 0 59.5 -10.5t44 -29.5t24.5 -45.5t1 -59.5q-4 -24 -14.5 -44.5t-27.5 -41.5l-168 -186h-108l129 143q-54 9 -82 47.5t-18 95.5q11 60 55.5 95.5t104.5 35.5zM164 212q16 0 28 6t22 16q8 8 13.5 18.5t7.5 24.5q5 28 -8 45.5t-38 17.5q-24 0 -44.5 -16.5
t-26.5 -48.5q-5 -27 7.5 -45t38.5 -18z" />
    <glyph glyph-name="zero.numr" horiz-adv-x="371" 
d="M260 738q36 0 64 -14.5t45 -42t22 -68.5t-4 -93q-18 -101 -68 -153t-116 -52q-36 0 -64 14.5t-45 42.5t-22 68.5t4 93.5q18 100 68 152t116 52zM255 661q-69 0 -93 -135q-11 -64 -1 -98.5t45 -34.5t57.5 33t34.5 102q11 63 1 98t-44 35z" />
    <glyph glyph-name="one.numr" horiz-adv-x="228" 
d="M109 322l51 285l-61 -37l-33 73l147 90h55l-72 -411h-87z" />
    <glyph glyph-name="two.numr" horiz-adv-x="316" 
d="M241 738q33 0 56 -10.5t36 -28.5t17 -42.5t0 -52.5q-7 -44 -31 -75.5t-59 -64.5l-74 -66h130l-14 -77h-265l11 60l153 137q26 23 42 44t21 50q4 22 -5 35.5t-29 13.5q-23 0 -38.5 -14.5t-20.5 -41.5l-84 5q11 60 52.5 94t101.5 34z" />
    <glyph glyph-name="three.numr" horiz-adv-x="326" 
d="M238 738q65 0 95 -34t19 -92q-5 -30 -22 -50t-43 -33q21 -7 34.5 -31.5t6.5 -62.5q-10 -57 -50.5 -88.5t-97.5 -31.5q-69 0 -99.5 35.5t-22.5 91.5l87 3q-2 -24 7 -38t32 -14q24 0 40.5 16.5t19.5 42.5q4 23 -8.5 34t-34.5 11h-45l12 68h37q21 0 41.5 16.5t23.5 42.5
q3 19 -6.5 29t-28.5 10q-21 0 -37 -14.5t-21 -38.5l-82 7q11 60 47 90.5t96 30.5z" />
    <glyph glyph-name="four.numr" horiz-adv-x="348" 
d="M366 477l-13 -78h-55l-13 -78h-87l13 78h-172l12 68l224 265h82l-45 -255h54zM225 477l20 112l-96 -112h76z" />
    <glyph glyph-name="five.numr" horiz-adv-x="322" 
d="M181 579q18 5 36 5q58 0 90.5 -35t21.5 -103q-11 -60 -52 -95t-102 -35q-66 0 -97.5 33.5t-23.5 87.5l86 3q-2 -21 8 -33.5t32 -12.5q24 0 40 15.5t21 42.5q5 24 -5.5 39t-32.5 15q-14 0 -24.5 -5t-21.5 -13l-79 2l42 243h242l-13 -77h-155z" />
    <glyph glyph-name="six.numr" horiz-adv-x="347" 
d="M251 589q54 -8 82 -46.5t18 -96.5q-11 -60 -56 -95.5t-104 -35.5q-33 0 -60 10.5t-44 29.5t-24.5 45.5t-1.5 59.5q5 24 15 44.5t27 40.5l169 187h107zM265 457q5 27 -7.5 45t-38.5 18q-15 0 -27.5 -6t-21.5 -16q-17 -17 -21 -43q-5 -28 8 -45t38 -17q24 0 44.5 16
t25.5 48z" />
    <glyph glyph-name="seven.numr" horiz-adv-x="315" 
d="M144 322h-101l217 334h-171l13 77h276l-12 -68z" />
    <glyph glyph-name="eight.numr" horiz-adv-x="349" 
d="M250 738q30 0 54.5 -8.5t41 -24.5t23.5 -39t2 -52q-4 -23 -18 -43t-34 -36q17 -14 27 -39t4 -61q-11 -57 -54.5 -88.5t-102.5 -31.5q-66 0 -103 36t-26 99q5 31 22.5 54t42.5 41q-11 13 -20 33t-4 50q10 53 50.5 81.5t94.5 28.5zM245 661q-24 0 -41.5 -13t-20.5 -36
q-3 -22 10 -33.5t35 -11.5q23 0 40 13t20 36q3 22 -9.5 33.5t-33.5 11.5zM217 496q-26 0 -44 -14t-22 -40q-3 -23 10.5 -36t37.5 -13q26 0 44 13.5t22 39.5q4 25 -10.5 37.5t-37.5 12.5z" />
    <glyph glyph-name="nine.numr" horiz-adv-x="347" 
d="M247 738q33 0 59.5 -10.5t44 -29.5t24.5 -45.5t1 -59.5q-4 -24 -14.5 -44.5t-27.5 -41.5l-168 -186h-108l129 143q-54 9 -82 47.5t-18 95.5q11 60 55.5 95.5t104.5 35.5zM218 533q16 0 28 6t22 16q8 8 13.5 18.5t7.5 24.5q5 28 -8 45.5t-38 17.5q-24 0 -44.5 -16.5
t-26.5 -48.5q-5 -27 7.5 -45t38.5 -18z" />
    <glyph glyph-name="periodcentered.cap" horiz-adv-x="240" 
d="M151 497q34 0 53 -23.5t14 -56.5q-5 -27 -27 -45.5t-48 -18.5q-34 0 -53 23t-13 56q5 27 26.5 46t47.5 19z" />
    <glyph glyph-name="exclamdown.cap" horiz-adv-x="299" 
d="M223 614q-34 0 -53 23.5t-14 56.5q5 27 27 45.5t48 18.5q34 0 53 -23t13 -56q-5 -27 -26.5 -46t-47.5 -19zM259 534l-88 -534h-131l100 534h119z" />
    <glyph glyph-name="questiondown.cap" horiz-adv-x="516" 
d="M333 614q-34 0 -53 23.5t-14 56.5q5 27 27 45.5t48 18.5q34 0 53 -23t13 -56q-5 -27 -26.5 -46t-47.5 -19zM221 -11q-58 0 -101 16.5t-70 46.5t-36.5 72t-0.5 93q10 61 44 99t82 70q46 32 72.5 57.5t34.5 66.5l4 24h118l-5 -32q-9 -54 -39.5 -92.5t-79.5 -73.5
q-21 -14 -40 -27.5t-33.5 -28.5t-24.5 -32.5t-14 -40.5q-9 -50 16.5 -81.5t79.5 -31.5q59 0 95.5 32t50.5 86l116 -11q-11 -49 -35.5 -88.5t-59 -67t-79 -42t-95.5 -14.5z" />
    <glyph glyph-name="braceleft.cap" 
d="M321 676q-48 0 -71 -36t-25 -119q0 -28 -1.5 -53t-9.5 -45t-24.5 -33.5t-44.5 -17.5q24 -4 35.5 -18.5t13 -36.5t-5 -50t-16.5 -58q-27 -77 -20 -108.5t55 -31.5h10l-16 -94h-3q-48 0 -84 15t-55.5 45t-20.5 74.5t22 103.5q12 28 20 49.5t8 35.5t-11 21t-36 7h-12l16 93
h5q25 0 40 8t22.5 24t9 40t0.5 55q-3 56 11 98t42 70t68 42t88 14h10l-17 -94h-3z" />
    <glyph glyph-name="braceright.cap" 
d="M114 770q48 0 84 -15t55.5 -45t20 -75t-21.5 -104q-12 -28 -20.5 -49t-8.5 -35t10.5 -21t36.5 -7h12l-16 -93h-4q-26 0 -40.5 -8.5t-22 -24.5t-9.5 -39.5t-1 -54.5q3 -57 -11 -99t-42 -69.5t-67.5 -41.5t-87.5 -14h-10l16 94h3q49 0 71.5 36t24.5 118q0 28 1.5 53t10 45
t24.5 33.5t45 18.5q-24 4 -35.5 18.5t-13 36.5t4.5 50t16 58q27 77 20 108.5t-55 31.5h-10l17 94h3z" />
    <glyph glyph-name="bracketleft.cap" horiz-adv-x="283" 
d="M240 676l-107 -607h93l-16 -94h-206l140 795h206l-17 -94h-93z" />
    <glyph glyph-name="bracketright.cap" horiz-adv-x="292" 
d="M-29 -25l16 94h94l107 607h-94l17 94h206l-140 -795h-206z" />
    <glyph glyph-name="parenleft.cap" 
d="M336 735q-28 -36 -54.5 -77.5t-49.5 -89t-41.5 -101t-28.5 -112.5q-20 -113 -7 -206.5t44 -165.5l-97 -29q-37 75 -54.5 179.5t5.5 235.5q22 126 74 229t115 178z" />
    <glyph glyph-name="parenright.cap" horiz-adv-x="271" 
d="M204 770q18 -37 32 -82t21.5 -97.5t7 -111.5t-12.5 -124q-22 -126 -74 -229t-115 -178l-94 41q28 36 54.5 78t49.5 89.5t41 100.5t29 112q19 113 6 207t-44 166z" />
    <glyph glyph-name="emdash.cap" horiz-adv-x="796" 
d="M58 324l19 105h706l-19 -105h-706z" />
    <glyph glyph-name="endash.cap" horiz-adv-x="564" 
d="M55 324l19 105h474l-19 -105h-474z" />
    <glyph glyph-name="hyphen.cap" horiz-adv-x="404" 
d="M57 324l19 105h314l-19 -105h-314z" />
    <glyph glyph-name="guillemotleft.cap" horiz-adv-x="553" 
d="M159 376l102 -165l-90 -53l-137 229l208 225l85 -62zM418 376l102 -165l-90 -53l-137 229l208 225l85 -62z" />
    <glyph glyph-name="guillemotright.cap" horiz-adv-x="553" 
d="M94 158l-86 62l169 174l-103 165l91 53l136 -229zM352 158l-86 62l169 174l-103 165l91 53l136 -229z" />
    <glyph glyph-name="guilsinglleft.cap" horiz-adv-x="320" 
d="M171 378l124 -153l-87 -65l-173 227l240 222l74 -78z" />
    <glyph glyph-name="guilsinglright.cap" horiz-adv-x="320" 
d="M88 159l-74 78l178 153l-124 153l87 66l173 -228z" />
    <glyph glyph-name="emdash_guilsinglright" horiz-adv-x="867" 
d="M557 11l-66 75l145 127h-599l16 93h612l-111 132l84 68l193 -247z" />
    <glyph glyph-name="endash_guilsinglright" horiz-adv-x="602" 
d="M292 11l-66 75l145 127h-334l16 93h347l-111 132l84 68l193 -247z" />
    <glyph glyph-name="guilsinglleft_emdash" horiz-adv-x="867" 
d="M231 304h598l-16 -93h-611l106 -132l-80 -68l-193 248l274 247l72 -75z" />
    <glyph glyph-name="guilsinglleft_endash" horiz-adv-x="602" 
d="M231 304h333l-16 -93h-346l106 -132l-80 -68l-193 248l274 247l72 -75z" />
    <glyph glyph-name="at.cap" horiz-adv-x="792" 
d="M455 736q81 0 145.5 -28t108 -77.5t62 -117t7.5 -147.5q-14 -95 -60 -146.5t-117 -51.5q-72 0 -94 47q-49 -50 -129 -50q-44 0 -79 15.5t-58.5 43.5t-33 68t-2.5 90q6 47 25 84.5t46.5 63.5t63.5 40t77 14q51 0 82.5 -17.5t44.5 -43.5l11 48h82l-50 -284q-8 -47 34 -47
q30 0 55 32t37 109q9 64 -6.5 117.5t-50 92t-86 59.5t-116.5 21q-66 0 -123.5 -22.5t-102 -63t-74 -96.5t-38.5 -123q-10 -68 7.5 -121.5t54 -90.5t90 -57t115.5 -20q54 0 98 13t83 36l17 -66q-89 -49 -202 -49q-82 0 -148 27.5t-110 77t-63 117t-7 148.5q11 78 47 143
t90 112.5t122.5 73.5t144.5 26zM387 241q51 0 84.5 31t43.5 91l4 20q9 61 -17.5 92.5t-76.5 31.5q-51 0 -87 -33t-45 -97q-5 -32 -0.5 -57.5t17.5 -43t32.5 -26.5t44.5 -9z" />
    <glyph glyph-name="acute.case" horiz-adv-x="324" 
d="M108 797l165 147h157l-215 -147h-107z" />
    <glyph glyph-name="breve.case" horiz-adv-x="370" 
d="M476 950q-14 -76 -64.5 -111.5t-121.5 -35.5q-39 0 -70 9.5t-51.5 28.5t-28.5 46.5t-1 62.5h90q-6 -35 13 -52t53 -17q37 0 61 20t29 49h91z" />
    <glyph glyph-name="caron.case" horiz-adv-x="372" 
d="M229 797l-92 150h93l60 -83l93 83h98l-145 -150h-107z" />
    <glyph glyph-name="circumflex.case" horiz-adv-x="372" 
d="M359 797l-60 84l-93 -84h-98l144 150h108l92 -150h-93z" />
    <glyph glyph-name="dieresis.case" horiz-adv-x="328" 
d="M191 938q31 0 48 -21t12 -50q-5 -24 -23.5 -40t-41.5 -16q-30 0 -47.5 20.5t-12.5 50.5q5 24 23.5 40t41.5 16zM359 938q31 0 48 -21t12 -50q-5 -24 -23.5 -40t-41.5 -16q-30 0 -47.5 20.5t-12.5 50.5q5 24 23.5 40t41.5 16z" />
    <glyph glyph-name="dotaccent.case" horiz-adv-x="173" 
d="M199 948q33 0 52.5 -23.5t14.5 -55.5q-5 -27 -27 -45t-48 -18q-33 0 -52 23t-13 55q5 27 26.5 45.5t46.5 18.5z" />
    <glyph glyph-name="grave.case" horiz-adv-x="324" 
d="M301 797l-164 147h152l114 -147h-102z" />
    <glyph glyph-name="hungarumlaut.case" horiz-adv-x="378" 
d="M108 800l88 157h110l-107 -157h-91zM292 800l88 157h110l-107 -157h-91z" />
    <glyph glyph-name="macron.case" horiz-adv-x="304" 
d="M113 828l15 86h280l-16 -86h-279z" />
    <glyph glyph-name="ring.case" horiz-adv-x="248" 
d="M246 999q24 0 44 -8t33 -22.5t18.5 -34.5t1.5 -44q-7 -42 -39 -68.5t-74 -26.5q-50 0 -79 30.5t-21 78.5q8 43 41 69t75 26zM243 942q-20 0 -35 -12t-18 -31q-3 -20 8.5 -33.5t32.5 -13.5t35 12t17 31q3 20 -8 33.5t-32 13.5z" />
    <glyph glyph-name="tilde.case" horiz-adv-x="371" 
d="M231 948q25 0 40.5 -9t27.5 -20t23.5 -20t29.5 -9q27 0 42 14t19 36h62q0 -29 -10 -53.5t-26.5 -42.5t-37.5 -28t-43 -10q-26 0 -41.5 9t-27.5 19.5t-23.5 19.5t-29.5 9q-26 0 -41 -14.5t-20 -36.5h-62q0 29 10 54t26.5 43t37.5 28.5t44 10.5z" />
    <glyph glyph-name="anneau" horiz-adv-x="588" 
d="M366 760q58 0 105.5 -20.5t79 -55.5t45.5 -83t6 -103q-8 -53 -33.5 -98t-64.5 -78t-88.5 -51.5t-104.5 -18.5q-59 0 -106.5 20.5t-79 55.5t-45.5 83t-6 104q7 53 33 98t65 77.5t88.5 51t105.5 18.5zM368 720q-47 0 -89.5 -16t-76 -44.5t-55.5 -67t-29 -84.5
q-6 -46 5 -85.5t36.5 -68.5t63.5 -45.5t86 -16.5q46 0 88 16t75.5 44.5t56 67.5t28.5 85t-5 85.5t-36 68t-63 45t-85 16.5z" />
    <glyph glyph-name="_496" horiz-adv-x="600" 
 />
    </font>
</defs>
</svg>
