<svg xmlns="http://www.w3.org/2000/svg" viewBox="0 0 779.75 276.23">
  <title>secondary</title>
  <g id="Layer_2" data-name="Layer 2">
    <g id="Objects">
      <g>
        <g>
          <path d="M127.16,34.44,4.45,105.28c-5.93,3.44-5.93,9,0,12.47L127.16,188.6c5.93,3.42,10.79.62,10.79-6.24,0,0,0-4,0-4.11,0-36.7-6.78-62.87-48.69-62.87v-7.6c41.91,0,48.69-26.17,48.69-62.87,0-.16,0-4.24,0-4.24C138,33.82,133.09,31,127.16,34.44ZM107,155.24l1.54.84-1.54.85-.84,1.54-.85-1.54-1.54-.85,1.54-.84.85-1.54Zm-12.49-4.5-.94,3.2.93,3.2-3.2-.93-3.2.93.94-3.2-.94-3.2,3.2.93ZM77.82,143l-.49,1.69.49,1.69-1.68-.5-1.69.5.49-1.7L74.45,143l1.69.49Zm-19.06-4.28-1.91,1-1,1.9-1-1.9-1.91-1,1.91-1,1-1.9,1,1.9Zm35.74-7.74,1.54.85-1.54.84-.84,1.54-.85-1.54-1.54-.84,1.54-.85.85-1.54Zm0-40.51,1.54.85-1.54.84-.84,1.54-.85-1.54-1.54-.84,1.54-.85.85-1.54ZM80.07,100.55c1.76,1,5.14,3.28,5.26,3.39a3,3,0,0,1,.86,2.08v11.25a3,3,0,0,1-1.24,2.4c-1.48,1-3.12,2.06-4.87,3.06.85,3.32,1.71,13,1.71,13s-14.74-1-20.23-5.83a40.09,40.09,0,0,1-16.21.26c-10-2.12-17.5-9-25-16.44a2.93,2.93,0,0,1,0-4.14c7.15-7.16,15-14.32,25-16.42a39.57,39.57,0,0,1,16.21.25c5.49-4.86,20.22-5.84,20.22-5.84S80.93,97.23,80.07,100.55ZM56.85,83.33l1.91,1-1.91,1-1,1.91-1-1.91-1.91-1,1.91-1,1-1.91Zm21-6.62-.49,1.69.49,1.69-1.68-.49-1.69.49.49-1.69-.49-1.69,1.69.49ZM88.07,72.3,89,69.1l-.94-3.2,3.2.94,3.2-.94-.93,3.2.94,3.2-3.21-.94ZM107,66.11l1.54.84L107,67.8l-.84,1.54-.85-1.54L103.74,67l1.54-.84.85-1.54Z" fill="#0b1033"/>
          <path d="M48.83,106.42a5.1,5.1,0,1,0,5.09,5.1A5.1,5.1,0,0,0,48.83,106.42Z" fill="#0b1033"/>
        </g>
        <text transform="translate(152.32 191.59)" font-size="230" fill="#171f47" font-family="ProximaNova-Bold, Proxima Nova" font-weight="700" letter-spacing="-0.05em">instigo</text>
      </g>
    </g>
  </g>
</svg>
