<svg xmlns="http://www.w3.org/2000/svg" viewBox="0 0 137.61 137.61">
  <g id="dots" data-name="dots">
    <g id="dots-inner" data-name="dots-inner">
      <g>
        <path d="M4,8A4,4,0,1,0,0,4,4,4,0,0,0,4,8Z" fill="#edf1fa"/>
        <path d="M36.41,8a4,4,0,1,0-4-4A4,4,0,0,0,36.41,8Z" fill="#edf1fa"/>
        <path d="M68.81,8a4,4,0,1,0-4-4A4,4,0,0,0,68.81,8Z" fill="#edf1fa"/>
        <path d="M101.21,8a4,4,0,1,0-4-4A4,4,0,0,0,101.21,8Z" fill="#edf1fa"/>
        <path d="M133.61,8a4,4,0,1,0-4-4A4,4,0,0,0,133.61,8Z" fill="#edf1fa"/>
        <path d="M4,40.41a4,4,0,1,0-4-4A4,4,0,0,0,4,40.41Z" fill="#edf1fa"/>
        <path d="M36.41,40.41a4,4,0,1,0-4-4A4,4,0,0,0,36.41,40.41Z" fill="#edf1fa"/>
        <path d="M68.81,40.41a4,4,0,1,0-4-4A4,4,0,0,0,68.81,40.41Z" fill="#edf1fa"/>
        <path d="M101.21,40.41a4,4,0,1,0-4-4A4,4,0,0,0,101.21,40.41Z" fill="#edf1fa"/>
        <path d="M133.61,40.41a4,4,0,1,0-4-4A4,4,0,0,0,133.61,40.41Z" fill="#edf1fa"/>
        <path d="M4,72.81a4,4,0,1,0-4-4A4,4,0,0,0,4,72.81Z" fill="#edf1fa"/>
        <path d="M36.41,72.81a4,4,0,1,0-4-4A4,4,0,0,0,36.41,72.81Z" fill="#edf1fa"/>
        <path d="M68.81,72.81a4,4,0,1,0-4-4A4,4,0,0,0,68.81,72.81Z" fill="#edf1fa"/>
        <path d="M101.21,72.81a4,4,0,1,0-4-4A4,4,0,0,0,101.21,72.81Z" fill="#edf1fa"/>
        <path d="M133.61,72.81a4,4,0,1,0-4-4A4,4,0,0,0,133.61,72.81Z" fill="#edf1fa"/>
        <path d="M4,105.21a4,4,0,1,0-4-4A4,4,0,0,0,4,105.21Z" fill="#edf1fa"/>
        <path d="M36.41,105.21a4,4,0,1,0-4-4A4,4,0,0,0,36.41,105.21Z" fill="#edf1fa"/>
        <path d="M68.81,105.21a4,4,0,1,0-4-4A4,4,0,0,0,68.81,105.21Z" fill="#edf1fa"/>
        <path d="M101.21,105.21a4,4,0,1,0-4-4A4,4,0,0,0,101.21,105.21Z" fill="#edf1fa"/>
        <path d="M133.61,105.21a4,4,0,1,0-4-4A4,4,0,0,0,133.61,105.21Z" fill="#edf1fa"/>
        <path d="M4,137.61a4,4,0,1,0-4-4A4,4,0,0,0,4,137.61Z" fill="#edf1fa"/>
        <path d="M36.41,137.61a4,4,0,1,0-4-4A4,4,0,0,0,36.41,137.61Z" fill="#edf1fa"/>
        <path d="M68.81,137.61a4,4,0,1,0-4-4A4,4,0,0,0,68.81,137.61Z" fill="#edf1fa"/>
        <path d="M101.21,137.61a4,4,0,1,0-4-4A4,4,0,0,0,101.21,137.61Z" fill="#edf1fa"/>
        <path d="M133.61,137.61a4,4,0,1,0-4-4A4,4,0,0,0,133.61,137.61Z" fill="#edf1fa"/>
      </g>
    </g>
  </g>
</svg>
