<svg xmlns="http://www.w3.org/2000/svg" xmlns:xlink="http://www.w3.org/1999/xlink" viewBox="0 0 1732.09 1695.26">
  <defs>
    <linearGradient id="linear-gradient" x1="961.66" y1="1082.66" x2="850.7" y2="1165.88" gradientTransform="matrix(-1, 0, 0, 1, 1100.88, 0)" gradientUnits="userSpaceOnUse">
      <stop offset="0" stop-color="#9090c1"/>
      <stop offset="1" stop-color="#5e5ea5"/>
    </linearGradient>
    <linearGradient id="linear-gradient-2" x1="798.96" y1="1152.47" x2="781.4" y2="1317.55" gradientTransform="matrix(-1, 0, 0, 1, 1100.88, 0)" gradientUnits="userSpaceOnUse">
      <stop offset="0" stop-color="#f3f7ff"/>
      <stop offset="1" stop-color="#f1f5ff"/>
    </linearGradient>
    <linearGradient id="linear-gradient-3" x1="572.19" y1="1061.12" x2="450.77" y2="1152.18" gradientTransform="matrix(-1, 0, 0, 1, 2064.39, 0)" xlink:href="#linear-gradient"/>
    <linearGradient id="linear-gradient-4" x1="394.15" y1="1137.51" x2="374.94" y2="1318.16" gradientTransform="matrix(-1, 0, 0, 1, 2064.39, 0)" xlink:href="#linear-gradient-2"/>
    <linearGradient id="linear-gradient-5" x1="845.41" y1="826.07" x2="940.61" y2="1568.52" gradientUnits="userSpaceOnUse">
      <stop offset="0" stop-color="#343484"/>
      <stop offset="0.16" stop-color="#2f2f78"/>
      <stop offset="0.44" stop-color="#222357"/>
      <stop offset="0.82" stop-color="#0e0e23"/>
      <stop offset="1" stop-color="#030408"/>
    </linearGradient>
    <linearGradient id="linear-gradient-6" x1="404.38" y1="682.3" x2="532.81" y2="1134.45" gradientTransform="matrix(1, 0, 0, 1, 0, 0)" xlink:href="#linear-gradient"/>
    <linearGradient id="linear-gradient-7" x1="1228.76" y1="862.37" x2="1267.92" y2="1167.73" gradientTransform="matrix(1, 0, 0, 1, 0, 0)" xlink:href="#linear-gradient-2"/>
    <linearGradient id="linear-gradient-8" x1="1567.91" y1="1251.42" x2="1574.16" y2="1300.15" gradientTransform="matrix(1, 0, 0, 1, 0, 0)" xlink:href="#linear-gradient"/>
    <linearGradient id="linear-gradient-9" x1="1586.15" y1="1322.45" x2="1550.64" y2="1252.87" gradientTransform="matrix(1, 0, 0, 1, 0, 0)" xlink:href="#linear-gradient"/>
    <linearGradient id="linear-gradient-10" x1="1226.47" y1="1292.47" x2="1228.63" y2="1316.56" gradientTransform="matrix(1, 0, 0, 1, 0, 0)" xlink:href="#linear-gradient"/>
    <linearGradient id="linear-gradient-11" x1="1234.45" y1="1267.83" x2="1226.56" y2="1325.09" gradientTransform="matrix(1, 0, 0, 1, 0, 0)" xlink:href="#linear-gradient"/>
    <linearGradient id="linear-gradient-12" x1="1352.54" y1="835.95" x2="1496.82" y2="977.42" gradientUnits="userSpaceOnUse">
      <stop offset="0" stop-color="#9090c1"/>
      <stop offset="0.8" stop-color="#5e5ea5"/>
    </linearGradient>
    <linearGradient id="linear-gradient-13" x1="1481.68" y1="867.82" x2="1505.75" y2="868.69" gradientUnits="userSpaceOnUse">
      <stop offset="0" stop-color="#9090c1"/>
      <stop offset="0.99" stop-color="#5e5ea5"/>
    </linearGradient>
  </defs>
  <title>onboarding-g4</title>
  <g id="Layer_2" data-name="Layer 2">
    <g id="onboarding-graphic">
      <g>
        <path id="SVGID" d="M1603.84,561.74c0-126.27-38.28-315.1-191.76-430.28C1217-14.93,879.5-107.89,548.86,237.27c-52,54.25-128.77,70-197.91,82-80,13.91-145.8,37.78-222.53,104.71C-18,551.76-39.6,735.55,65.59,922.41c48.92,86.88,1.24,263.46,13.39,311.81,40.48,161,165.83,254.44,473.51,255.26,173.86.47,231.66,122.25,380.62,174.4,410.29,143.64,435.45-242.4,646.12-418.93C1904.9,972,1603.88,830.72,1603.84,561.74Z" fill="#282a3e"/>
        <g>
          <path d="M190,1082.59c-9.41,2.45-45,1-38.22-16.56,7.56-19.54,27.75-2.46,36.42,8.38-3.29-17.29-3.74-34.89-3.69-44.31-6.4-7.69-19.93-56.58,6.72-54.15,34.91,3.17,4,49.44-4.06,54.69,0,11.28.75,33.62,5.86,53,1.08-12.32,13.36-47.35,29.69-35,23.69,17.93-21.63,39.56-28.5,39.18,2.16,7.08,5,13.6,8.6,18.81,2.62,3.75,5.53,8.09,8.54,12.82a1.29,1.29,0,0,0,.16.17c1.52-13,13.62-46.27,29.6-34.18,22.11,16.74-15.91,36.7-26.66,39a308.78,308.78,0,0,1,18.83,35.15c.74-11.71,23.72-35.65,32.85-22,5.09,7.63-21.84,32.51-30.72,26.94,5.06,12.37,8.11,23.93,7.06,32.37-.39,3.11-1,6.78-1.62,10.75,6.29-7,29-30.29,35.8-12.23,5.61,15-13.15,23.66-21,23.66-6.17,0-12.72-5.84-15.28-8.39-.36,2.15-.74,4.37-1.13,6.63-3.18,18.42-7,40.6-5.86,53.94,5.36-10.42,29.35-53.79,43.3-25.9,7.15,14.3-13.15,26.29-21,28.92-6.47,2.15-18,.22-22-.55a26.07,26.07,0,0,0,.9,4.08c5.14,15.41,15.52,31.07,15.62,31.23a1.31,1.31,0,1,1-2.19,1.45,169.21,169.21,0,0,1-13.32-25c-6.2-.78-30-4-36.84-8.58-7.89-5.26-22-22.54-10.52-28.92,17.79-9.88,36.43,16.38,44.59,30-3-10.18-.34-30.57,2.82-49.72-6.37,1.91-27.06-1.79-34.26-6.59-7.89-5.26-21.48-18.88-13.15-26.29,20.9-18.58,43,20.77,47.85,30.21.5-3,1-5.91,1.5-8.76,1.31-7.63,2.55-14.84,3.24-20.3,1-7.84-1.94-19.11-7.15-31.74-4.15,1.31-18.18,5.19-33.61,3-18.4-2.63-27.73-17-21-23.66,11.41-11.41,45.12,12.23,53.83,18.67a292.45,292.45,0,0,0-20.9-39.08c-10.72,2.49-53.44,1.58-47.66-15.39s27.65-5.55,40.5,4.39c-1.06-1.56-2.12-3.12-3.19-4.64C195.81,1101.19,192.4,1092.16,190,1082.59Z" fill="url(#linear-gradient)"/>
          <path d="M266.15,1245.38c22.07-8.82,27.46,24.95,28.63,36,4.86-16.15,6.92-35.8,4.72-51.8-3.35-.09-16.37-.7-25.46-5.25-10.52-5.25-17-26.31-7.89-28.91,15.31-4.38,28.79,22.17,32.89,31.22-.36-2-.78-4-1.3-5.9-3.35-12.31-5.78-28.16-6.83-43.74-4.16-.08-15.73-.48-22.13-2.61-7.88-2.63-21.24-23.22-10.51-26.29,14.78-4.22,27.85,17,32.43,25.49-.89-16.24-.22-31.88,2.55-42.54-1.19-4.68-3.44-14.62-3.44-22.38,0-10.51,12.2-31.21,23.66-21,20.93,18.61-10.44,40.35-18,45.12-2.54,10.5-3.1,25.65-2.19,41.37,4.7-11.83,23.69-54.39,46.43-33.91,8.74,7.86-10.51,26.28-23.65,31.54a74.65,74.65,0,0,1-22.59,5.25c1.05,15.31,3.46,30.91,6.77,43a67.41,67.41,0,0,1,1.47,6.94c5-10,28.18-52.81,53.78-34.19,10.63,7.73-10.52,26.29-21,31.54-9,4.52-27.4,4.75-32.43,4.73,2.19,15.94.21,35.45-4.52,51.82,7.72-11.69,30.3-41.68,47.46-22.37,10.19,11.45-16.17,21.16-23.66,23.65-6.58,2.2-20.68,2.85-25.14,3-3.74,11.29-8.82,20.66-14.76,25.6a1.27,1.27,0,0,1-.84.31,1.31,1.31,0,0,1-.84-2.32c5.66-4.72,10.51-13.66,14.09-24.46-3.42-1.43-13.37-5.72-19.82-10C266.15,1269,254,1250.26,266.15,1245.38Z" fill="url(#linear-gradient-2)"/>
          <path d="M209.64,1311.1h119.6a1.32,1.32,0,0,0,0-2.63H209.64a1.32,1.32,0,1,0,0,2.63Z" fill="#40408b"/>
          <path d="M167.58,1311.1h27.6a1.32,1.32,0,0,0,0-2.63h-27.6a1.32,1.32,0,1,0,0,2.63Z" fill="#40408b"/>
        </g>
        <g>
          <path d="M1547.77,1061.05c-10.29,2.67-49.26,1.1-41.82-18.13,8.28-21.38,30.37-2.69,39.85,9.16-3.59-18.91-4.08-38.17-4-48.48-7-8.42-21.81-61.91,7.35-59.26,38.21,3.47,4.36,54.11-4.44,59.86,0,12.33.82,36.78,6.41,58,1.19-13.48,14.63-51.82,32.49-38.3,25.92,19.61-23.67,43.29-31.19,42.88,2.36,7.74,5.42,14.87,9.41,20.57,2.88,4.11,6.06,8.86,9.35,14l.17.19c1.67-14.19,14.91-50.64,32.4-37.41,24.2,18.31-17.42,40.16-29.17,42.65a338,338,0,0,1,20.6,38.47c.81-12.82,26-39,35.95-24,5.57,8.35-23.91,35.57-33.62,29.47,5.54,13.54,8.87,26.2,7.72,35.43-.42,3.4-1,7.42-1.77,11.77,6.89-7.62,31.77-33.15,39.18-13.39,6.14,16.38-14.39,25.89-23,25.89-6.75,0-13.91-6.39-16.71-9.18-.4,2.36-.82,4.78-1.24,7.26-3.48,20.16-7.64,44.43-6.42,59,5.88-11.4,32.12-58.86,47.39-28.33,7.82,15.65-14.39,28.76-23,31.64-7.08,2.36-19.74.24-24.06-.6a26.87,26.87,0,0,0,1,4.46c5.62,16.87,17,34,17.09,34.17a1.45,1.45,0,0,1-.4,2,1.47,1.47,0,0,1-.8.24,1.43,1.43,0,0,1-1.19-.64,186.35,186.35,0,0,1-14.59-27.36c-6.77-.85-32.82-4.41-40.31-9.4-8.63-5.75-24.08-24.65-11.51-31.64,19.46-10.81,39.86,17.93,48.8,32.87-3.33-11.15-.38-33.46,3.08-54.41-7,2.08-29.61-2-37.49-7.22-8.63-5.76-23.51-20.66-14.39-28.77,22.87-20.33,47,22.73,52.36,33.06.55-3.26,1.1-6.47,1.64-9.58,1.44-8.36,2.8-16.25,3.55-22.22,1.07-8.57-2.12-20.91-7.82-34.73-4.55,1.44-19.9,5.68-36.78,3.27-20.14-2.88-30.35-18.56-23-25.89,12.48-12.48,49.36,13.38,58.9,20.43a320.08,320.08,0,0,0-22.87-42.76c-11.74,2.72-58.48,1.72-52.16-16.85s30.26-6.07,44.32,4.81c-1.16-1.71-2.32-3.41-3.48-5.08C1554.12,1081.39,1550.39,1071.51,1547.77,1061.05Z" fill="url(#linear-gradient-3)"/>
          <path d="M1631.1,1239.19c24.15-9.66,30.05,27.29,31.32,39.41,5.32-17.67,7.58-39.18,5.18-56.69-3.68-.09-17.92-.76-27.87-5.74-11.51-5.75-18.6-28.79-8.63-31.64,16.75-4.79,31.51,24.26,36,34.16-.39-2.23-.86-4.39-1.42-6.45-3.67-13.47-6.33-30.81-7.48-47.86-4.55-.09-17.22-.53-24.21-2.86-8.63-2.88-23.24-25.41-11.51-28.77,16.17-4.62,30.48,18.58,35.49,27.9-1-17.78-.24-34.9,2.79-46.56-1.3-5.12-3.76-16-3.76-24.48,0-11.51,13.35-34.16,25.89-23,22.9,20.36-11.42,44.15-19.65,49.37-2.78,11.49-3.39,28.07-2.4,45.27,5.14-12.94,25.92-59.51,50.81-37.11,9.57,8.61-11.5,28.77-25.89,34.52a81.52,81.52,0,0,1-24.72,5.75c1.16,16.75,3.8,33.82,7.41,47.09a73.59,73.59,0,0,1,1.62,7.59c5.45-11,30.83-57.79,58.84-37.42,11.63,8.46-11.5,28.77-23,34.52-9.88,4.94-30,5.2-35.48,5.17,2.39,17.45.23,38.8-5,56.71,8.45-12.79,33.16-45.61,51.94-24.48,11.14,12.53-17.71,23.16-25.89,25.89-7.21,2.4-22.63,3.12-27.52,3.29-4.09,12.35-9.65,22.6-16.15,28a1.44,1.44,0,0,1-.92.33,1.44,1.44,0,0,1-.92-2.54c6.2-5.17,11.5-15,15.42-26.77-3.75-1.56-14.64-6.26-21.69-11C1631.1,1265.07,1617.75,1244.53,1631.1,1239.19Z" fill="url(#linear-gradient-4)"/>
          <path d="M1569.26,1311.1h130.88a1.44,1.44,0,0,0,0-2.88H1569.26a1.44,1.44,0,0,0,0,2.88Z" fill="#40408b"/>
          <path d="M1523.23,1311.1h30.2a1.44,1.44,0,0,0,0-2.88h-30.2a1.44,1.44,0,0,0,0,2.88Z" fill="#40408b"/>
        </g>
        <g>
          <g>
            <path d="M1065.3,676.63a31.49,31.49,0,0,1-31.5-31.49V517.23c0-94.52-76.89-171.41-171.4-171.41S691,422.71,691,517.23V645.14a31.5,31.5,0,0,1-63,0V517.23C628,388,733.16,282.83,862.4,282.83S1096.79,388,1096.79,517.23V645.14A31.49,31.49,0,0,1,1065.3,676.63Z" fill="#6060a6"/>
            <rect x="522.84" y="629.02" width="682.08" height="682.08" rx="121.22" fill="url(#linear-gradient-5)"/>
            <path d="M911.13,1111.26H816.62a14.23,14.23,0,0,1-14-16.65l19-109.33a87,87,0,1,1,84.53,0l19,109.33a14.21,14.21,0,0,1-14,16.65Z" fill="#fff"/>
          </g>
          <g>
            <path d="M676.69,860.24,484.24,813.89,291.79,860.24s-20,190.79,22.94,276.7,144,174.16,169.51,174.16,126.55-88.24,169.51-174.16S676.69,860.24,676.69,860.24Z" fill="url(#linear-gradient-6)"/>
            <path d="M484.24,1282.66c-6.27,0-16.08-4.65-29.17-13.81-12.54-8.78-26.85-20.88-41.4-35-34.3-33.27-63.56-71.52-80.27-104.93-15.77-31.54-24-82.08-24.4-150.23-.32-50.55,4-92.49,4.06-92.91a3.4,3.4,0,0,1,2.58-2.95l167.81-40.42a3.56,3.56,0,0,1,1.59,0l167.8,40.42a3.4,3.4,0,0,1,2.58,2.95c.05.42,4.38,42.36,4.07,92.91-.43,68.15-8.64,118.69-24.41,150.23-16.71,33.41-46,71.66-80.27,104.93-14.54,14.11-28.86,26.21-41.4,35C500.33,1278,490.51,1282.66,484.24,1282.66ZM319.58,888.88c-.9,9.53-4.07,46.5-3.79,89.85.42,66.12,8.61,117,23.68,147.16,16.38,32.76,45.15,70.34,78.93,103.1,31.72,30.77,57.14,46.87,65.84,46.87s34.12-16.1,65.84-46.87c33.78-32.76,62.55-70.34,78.93-103.1,15.08-30.16,23.27-81,23.68-147.16.28-43.35-2.89-80.32-3.79-89.85L484.24,849.22Z" fill="#fff"/>
          </g>
          <g>
            <rect x="974.46" y="1069.35" width="592.68" height="241.75" rx="55.03" fill="url(#linear-gradient-7)"/>
            <g>
              <path d="M1486.19,1186.9H1265.53a13.9,13.9,0,0,1,0-27.79h220.66a13.9,13.9,0,0,1,0,27.79Z" fill="#5365d3"/>
              <path d="M1486.19,1246.13H1265.53a13.9,13.9,0,0,1,0-27.79h220.66a13.9,13.9,0,0,1,0,27.79Z" fill="#5365d3"/>
            </g>
            <path d="M1072.37,1234.68A33.67,33.67,0,1,1,1106,1201,33.71,33.71,0,0,1,1072.37,1234.68Zm0-47.4A13.74,13.74,0,1,0,1086.1,1201,13.75,13.75,0,0,0,1072.37,1187.28Z" fill="#5365d3"/>
            <path d="M1165.83,1234.68A33.67,33.67,0,1,1,1199.5,1201,33.7,33.7,0,0,1,1165.83,1234.68Zm0-47.4a13.74,13.74,0,1,0,13.74,13.73A13.75,13.75,0,0,0,1165.83,1187.28Z" fill="#5365d3"/>
          </g>
          <g>
            <path d="M1580.52,1310.11c-3.51-.5,2.41,6.8-.88,10.53s-22.17,13.39-31.83,8.34-5.26-17.77-4.6-21.29,40.82-29.85,43.89-29.85,14.56,2.51,16.7,4.77,2.2,0,3.19,3,2,14.85-.82,16.65S1586.79,1311,1580.52,1310.11Z" fill="url(#linear-gradient-8)"/>
            <path d="M1528.87,1246.05c0,12-.49,23.08,4.59,29.85s8,35.56,8.23,38,20.23-12.66,26.23-17.74,21.41-16.36,28.43-14.66,10.64,7.25,10.64,4.11-7-11.85-15.24-12.82-8.71,7.25-11.85,2.9a48.22,48.22,0,0,1-8.22-21.52c-1-9,.72-26.85-5.08-27.82S1528.87,1246.05,1528.87,1246.05Z" fill="url(#linear-gradient-9)"/>
            <path d="M1187.86,1301.79c-5.33,8.87-1.38,17,5.1,18.32s37.44,2.78,37.44,3.68-1.81,2.89,0,3.26,31.82,2.17,35.62,2,4-2.89,4-5.42.72-6.51.68-14.39S1187.86,1301.79,1187.86,1301.79Z" fill="url(#linear-gradient-10)"/>
            <path d="M1228.26,1253c-2,14.49-6.13,25.35-9.47,30.93s-9.75,12.53-11.42,12.81-16.72-3.06-19.51,5,42.91,20.06,47.65,18.11,5.67-6.72,18.62-6.72,15.47.72,16.55-4-3.24-38.14-2.88-46.42S1228.26,1253,1228.26,1253Z" fill="url(#linear-gradient-11)"/>
            <path d="M1321.11,994.12c-7,7.76-70.16,32.33-82.32,55.06s-13,70.82-12.66,92.42-5.4,103.25.2,114,40.49,15,43.85,13.42,7.16-53.69,7.83-66.45-3.24-86.25,8.48-102.85,29.29-30.27,37.76-30.27h145.49s30,16.6,31.9,23.44,4.57,58.21,8.31,77.25,12.31,75.35,16.94,79.41,42.28-4.06,42.86-19.7-6.37-62.12-6.37-84.86.34-72.39-14.48-93.41-73.07-53.89-85.13-57.45S1321.11,994.12,1321.11,994.12Z" fill="#282a3e"/>
            <path d="M1179.87,519.66c-3.77.28-7,4.88-7.4,7s-4,7.81-4,10.74,16,26.5,21.48,29.43S1249.82,660.59,1256,670s69.51,109.39,74.93,111.59,36.9-14.79,36.9-14.79-46.71-63.2-57-75.94-57.71-73.69-62.46-82.19S1209,558.24,1208.54,554s-.26-21.43-1.06-24.62-6.08-12.75-10.56-15.24-12.75-5.08-15.94-3.09S1179.87,519.66,1179.87,519.66Z" fill="#ffd3af"/>
            <path d="M1186.36,520.14c-2.41,1.48,2.14,3.77,2.66,5.39s1.85,7.61,3.4,9.08,2.58,1.92,4.21,1.7,2.8-6,1.62-9.08S1189.61,518.15,1186.36,520.14Z" fill="#282a3e"/>
            <path d="M1384.86,743.89c-18.27,7.65-63.22,35.85-63.22,40.7s11,0,14.68,10.66,10.44,83,4.35,104.18-29.74,96-24.37,97.81,65.21,11.47,82.41,10.4,54.82-7.17,61.27-12.54,14.18-107.89,24.45-111.77,29.14-7.22,30-13,7.49-64.1-1.39-73.82-31.91-25.53-40.23-26.91-15.13-17.2-18.81-19.41-30.8-11-44-10.43A115.22,115.22,0,0,0,1384.86,743.89Z" fill="url(#linear-gradient-12)"/>
            <path d="M1500.77,850.64s-31.83,20.26-29.88,25c1.5,3.62,6.26,8,11.32,10.11a5.12,5.12,0,0,1,2.22-2.38c10.27-3.89,29.14-7.22,30-13C1511.87,861.21,1505.44,852.67,1500.77,850.64Z" fill="url(#linear-gradient-13)"/>
            <path d="M1389.07,750.53c8.11,7.17,20.27,22.14,22.61,31s5.78,26,2.6,33.9-5.94,13.68-3.37,15.27,12.1,3.17,17.25,1.19,11.9-21.22,15.46-34.7,5-42.62-4.16-49.56-13.08-11.3-18.44-11.3S1389.07,750.53,1389.07,750.53Z" fill="#ffd3ae"/>
            <path d="M1368.54,649.35c-11.48-1.77-24.64,15.22-29,30.8s-14,41-20.84,52.19-7.43,43.49,24.92,48.74,47-35.39,55-36.8,29.37,16.21,42.77,7.05,19.5-30.78,5.4-52.16-21.41-37.73-28.73-45.82c-6.16-6.81-14.69-14.37-27.41-14.48C1373.59,638.74,1368.54,649.35,1368.54,649.35Z" fill="#5365d3"/>
            <path d="M1366.8,667c-2.9,38.68-16.44,32.16-7.56,51.09,4.86,10.39,19.64,36.79,46.17,40.76s29.18-41.11,27.85-49.07-18.57-45.1-27.85-47.75S1367.53,657.33,1366.8,667Z" fill="#ffd3af"/>
            <path d="M1466,860.82c-6.23,14.85-25.2,69-25.2,78.3s-1.71,87.6-2.69,96.16-2,17.29-7,19.35-16.83,5.76-17,19.64,12.84,32.47,17.57,33.65,13.94,1.68,16.57-3.15S1448,1089,1454,1089s10.1-5.27,9.66-14.71-6.36-15.37-4.39-27.44,23.84-120.76,24.87-133.12,8.23-33.63,14.16-40,8.75-16.14,4.63-21.54-7.72,4.89-16.22,5.14S1468.3,855.38,1466,860.82Z" fill="#ffd3af"/>
          </g>
        </g>
        <g>
          <path d="M555.07,457.27H541.25a5.76,5.76,0,1,1,0-11.51h13.82a5.76,5.76,0,1,1,0,11.51Z" fill="#40408b"/>
          <path d="M512.7,457.27H484.15a5.76,5.76,0,1,1,0-11.51H512.7a5.76,5.76,0,1,1,0,11.51Zm-57.11,0H427a5.76,5.76,0,1,1,0-11.51h28.55a5.76,5.76,0,1,1,0,11.51Z" fill="#40408b"/>
          <path d="M384.67,471.09a5.75,5.75,0,0,1-5.76-5.75V451.52a5.76,5.76,0,0,1,5.76-5.76h13.82a5.76,5.76,0,1,1,0,11.51h-8.06v8.07A5.75,5.75,0,0,1,384.67,471.09Z" fill="#40408b"/>
          <path d="M384.67,728a5.76,5.76,0,0,1-5.76-5.76V696.52a5.76,5.76,0,0,1,11.52,0v25.69A5.76,5.76,0,0,1,384.67,728Zm0-51.38a5.76,5.76,0,0,1-5.76-5.76V645.15a5.76,5.76,0,0,1,11.52,0v25.68A5.76,5.76,0,0,1,384.67,676.59Zm0-51.37a5.76,5.76,0,0,1-5.76-5.76V593.77a5.76,5.76,0,0,1,11.52,0v25.69A5.76,5.76,0,0,1,384.67,625.22Zm0-51.38a5.76,5.76,0,0,1-5.76-5.76V542.4a5.76,5.76,0,0,1,11.52,0v25.68A5.76,5.76,0,0,1,384.67,573.84Zm0-51.37a5.76,5.76,0,0,1-5.76-5.76V491a5.76,5.76,0,0,1,11.52,0v25.69A5.76,5.76,0,0,1,384.67,522.47Z" fill="#40408b"/>
          <path d="M384.67,767.47a5.75,5.75,0,0,1-5.76-5.75V747.9a5.76,5.76,0,0,1,11.52,0v13.82A5.75,5.75,0,0,1,384.67,767.47Z" fill="#40408b"/>
        </g>
        <path d="M1438.43,980.27a5.76,5.76,0,0,1-5.76-5.76V946.87a5.76,5.76,0,0,1,11.52,0v27.64A5.76,5.76,0,0,1,1438.43,980.27Zm0-55.28a5.76,5.76,0,0,1-5.76-5.76V891.6a5.76,5.76,0,1,1,11.52,0v27.63A5.76,5.76,0,0,1,1438.43,925Zm0-55.27a5.76,5.76,0,0,1-5.76-5.76V836.32a5.76,5.76,0,0,1,11.52,0V864A5.76,5.76,0,0,1,1438.43,869.72Zm0-55.28a5.76,5.76,0,0,1-5.76-5.76V781a5.76,5.76,0,1,1,11.52,0v27.64A5.76,5.76,0,0,1,1438.43,814.44Zm0-55.28a5.76,5.76,0,0,1-5.76-5.76V725.76a5.76,5.76,0,0,1,11.52,0V753.4A5.76,5.76,0,0,1,1438.43,759.16Zm0-55.28a5.75,5.75,0,0,1-5.76-5.75V670.49a5.76,5.76,0,0,1,11.52,0v27.64A5.75,5.75,0,0,1,1438.43,703.88Zm0-55.27a5.76,5.76,0,0,1-5.76-5.76V615.21a5.76,5.76,0,1,1,11.52,0v27.64A5.76,5.76,0,0,1,1438.43,648.61Zm0-55.28a5.76,5.76,0,0,1-5.76-5.76V559.93a5.76,5.76,0,0,1,11.52,0v27.64A5.76,5.76,0,0,1,1438.43,593.33Zm0-55.28a5.75,5.75,0,0,1-5.76-5.75V504.66a5.76,5.76,0,1,1,11.52,0V532.3A5.75,5.75,0,0,1,1438.43,538.05Zm0-55.27a5.76,5.76,0,0,1-5.76-5.76V456a5.75,5.75,0,0,1,3.62-10.23h2.14a5.76,5.76,0,0,1,5.76,5.76V477A5.76,5.76,0,0,1,1438.43,482.78Zm-29.78-25.51H1381a5.76,5.76,0,1,1,0-11.51h27.63a5.76,5.76,0,1,1,0,11.51Zm-55.27,0h-27.64a5.76,5.76,0,1,1,0-11.51h27.64a5.76,5.76,0,1,1,0,11.51Zm-55.28,0h-27.64a5.76,5.76,0,1,1,0-11.51h27.64a5.76,5.76,0,1,1,0,11.51Zm-55.28,0h-27.64a5.76,5.76,0,0,1,0-11.51h27.64a5.76,5.76,0,1,1,0,11.51Zm-55.27,0h-27.64a5.76,5.76,0,1,1,0-11.51h27.64a5.76,5.76,0,0,1,0,11.51Z" fill="#40408b"/>
      </g>
    </g>
  </g>
</svg>
