<svg xmlns="http://www.w3.org/2000/svg" viewBox="0 0 2027.12 1820">
  <title>onboarding-g2</title>
  <g id="Layer_2" data-name="Layer 2">
    <g id="onboarding-graphic">
      <path d="M1733.58,273.36c-197-32.42-223.71,64.78-549.87-116.16C606-163.31,162.15,23.5,180,561.19c11.54,346.86-416.29,514.87,8.22,854.26C462.83,1635,476.4,1957.9,996.63,1756.54c188.87-73.1,294.42-145.11,538-131.67,503.44,27.78,264.69-394.42,417.61-720.38C2101.47,586.45,2027.13,321.68,1733.58,273.36Z" fill="#282a3e"/>
      <g>
        <g>
          <rect x="522.33" y="185" width="641.18" height="459.44" rx="50.78" fill="#fff"/>
          <g>
            <g>
              <path d="M842.84,397.13a83.12,83.12,0,0,1-7-165.94c2.37-.21,4.76-.31,7.12-.31a83.12,83.12,0,0,1,6.94,166c-2.36.2-4.75.3-7.11.3ZM843,253c-1.73,0-3.49.08-5.23.22A61,61,0,0,0,842.85,375c1.73,0,3.49-.07,5.23-.22a61,61,0,0,0,55.58-65.9A61.29,61.29,0,0,0,843,253Z" fill="#ebf1ff"/>
              <path d="M870.57,391.6a11.07,11.07,0,0,1-4.24-21.3A61,61,0,0,0,843,253.06a11.12,11.12,0,0,1-8.39-18.52,11,11,0,0,1,8.1-3.64H843a83.1,83.1,0,0,1,31.87,159.83,11,11,0,0,1-4.3.87Z" fill="#5365d3"/>
            </g>
            <g>
              <path d="M717.66,430.86h-136a6.45,6.45,0,0,1-6.45-6.45h0a6.46,6.46,0,0,1,6.45-6.46h136a6.46,6.46,0,0,1,6.46,6.46h0A6.46,6.46,0,0,1,717.66,430.86Z" fill="#e4ebff"/>
              <path d="M717.66,456.68h-136a6.45,6.45,0,0,1-6.45-6.45h0a6.46,6.46,0,0,1,6.45-6.46h136a6.46,6.46,0,0,1,6.46,6.46h0A6.46,6.46,0,0,1,717.66,456.68Z" fill="#e4ebff"/>
              <path d="M717.66,482.5h-136a6.45,6.45,0,0,1-6.45-6.45h0a6.46,6.46,0,0,1,6.45-6.46h136a6.46,6.46,0,0,1,6.46,6.46h0A6.46,6.46,0,0,1,717.66,482.5Z" fill="#e4ebff"/>
              <path d="M717.66,508.32h-136a6.46,6.46,0,0,1-6.45-6.46h0a6.45,6.45,0,0,1,6.45-6.45h136a6.46,6.46,0,0,1,6.46,6.45h0A6.46,6.46,0,0,1,717.66,508.32Z" fill="#e4ebff"/>
              <path d="M702.6,534.14H596.74a6.46,6.46,0,0,1-6.45-6.46h0a6.45,6.45,0,0,1,6.45-6.45H702.6a6.46,6.46,0,0,1,6.46,6.45h0A6.46,6.46,0,0,1,702.6,534.14Z" fill="#e4ebff"/>
            </g>
            <g>
              <path d="M910.92,430.86h-136a6.45,6.45,0,0,1-6.45-6.45h0a6.46,6.46,0,0,1,6.45-6.46h136a6.46,6.46,0,0,1,6.45,6.46h0A6.45,6.45,0,0,1,910.92,430.86Z" fill="#e4ebff"/>
              <path d="M910.92,456.68h-136a6.45,6.45,0,0,1-6.45-6.45h0a6.46,6.46,0,0,1,6.45-6.46h136a6.46,6.46,0,0,1,6.45,6.46h0A6.45,6.45,0,0,1,910.92,456.68Z" fill="#e4ebff"/>
              <path d="M910.92,482.5h-136a6.45,6.45,0,0,1-6.45-6.45h0a6.46,6.46,0,0,1,6.45-6.46h136a6.46,6.46,0,0,1,6.45,6.46h0A6.45,6.45,0,0,1,910.92,482.5Z" fill="#e4ebff"/>
              <path d="M910.92,508.32h-136a6.46,6.46,0,0,1-6.45-6.46h0a6.45,6.45,0,0,1,6.45-6.45h136a6.45,6.45,0,0,1,6.45,6.45h0A6.46,6.46,0,0,1,910.92,508.32Z" fill="#e4ebff"/>
              <path d="M895.85,534.14H790a6.46,6.46,0,0,1-6.45-6.46h0a6.45,6.45,0,0,1,6.45-6.45H895.85a6.46,6.46,0,0,1,6.46,6.45h0A6.46,6.46,0,0,1,895.85,534.14Z" fill="#e4ebff"/>
            </g>
            <g>
              <path d="M673.45,598.57H579.28a12.73,12.73,0,0,1-12.74-12.73h0a12.74,12.74,0,0,1,12.74-12.74h94.17a12.73,12.73,0,0,1,12.73,12.74h0A12.73,12.73,0,0,1,673.45,598.57Z" fill="#5365d3"/>
              <path d="M784.8,598.57H727.43a12.73,12.73,0,0,1-12.73-12.73h0a12.73,12.73,0,0,1,12.73-12.74H784.8a12.73,12.73,0,0,1,12.73,12.74h0A12.73,12.73,0,0,1,784.8,598.57Z" fill="#4b4be0"/>
              <path d="M859.34,598.57H838.78a12.73,12.73,0,0,1-12.73-12.73h0a12.73,12.73,0,0,1,12.73-12.74h20.56a12.73,12.73,0,0,1,12.73,12.74h0A12.73,12.73,0,0,1,859.34,598.57Z" fill="#5365d3"/>
              <path d="M1019.76,598.57H913.32a12.73,12.73,0,0,1-12.73-12.73h0a12.73,12.73,0,0,1,12.73-12.74h106.44a12.74,12.74,0,0,1,12.74,12.74h0A12.73,12.73,0,0,1,1019.76,598.57Z" fill="#5365d3"/>
              <path d="M1106.57,598.57h-32.83A12.73,12.73,0,0,1,1061,585.84h0a12.73,12.73,0,0,1,12.73-12.74h32.83a12.74,12.74,0,0,1,12.74,12.74h0A12.74,12.74,0,0,1,1106.57,598.57Z" fill="#4b4be0"/>
            </g>
            <g>
              <path d="M1104.18,430.86h-136a6.46,6.46,0,0,1-6.46-6.45h0A6.46,6.46,0,0,1,968.2,418h136a6.46,6.46,0,0,1,6.46,6.46h0A6.46,6.46,0,0,1,1104.18,430.86Z" fill="#e4ebff"/>
              <path d="M1104.18,456.68h-136a6.46,6.46,0,0,1-6.46-6.45h0a6.46,6.46,0,0,1,6.46-6.46h136a6.46,6.46,0,0,1,6.46,6.46h0A6.46,6.46,0,0,1,1104.18,456.68Z" fill="#e4ebff"/>
              <path d="M1104.18,482.5h-136a6.46,6.46,0,0,1-6.46-6.45h0a6.46,6.46,0,0,1,6.46-6.46h136a6.46,6.46,0,0,1,6.46,6.46h0A6.46,6.46,0,0,1,1104.18,482.5Z" fill="#e4ebff"/>
              <path d="M1104.18,508.32h-136a6.46,6.46,0,0,1-6.46-6.46h0a6.46,6.46,0,0,1,6.46-6.45h136a6.46,6.46,0,0,1,6.46,6.45h0A6.46,6.46,0,0,1,1104.18,508.32Z" fill="#e4ebff"/>
              <path d="M1089.12,534.14H983.26a6.46,6.46,0,0,1-6.46-6.46h0a6.46,6.46,0,0,1,6.46-6.45h105.86a6.45,6.45,0,0,1,6.45,6.45h0A6.46,6.46,0,0,1,1089.12,534.14Z" fill="#e4ebff"/>
            </g>
            <g>
              <path d="M1036.1,397.13a83.12,83.12,0,0,1-6.94-165.94c2.36-.21,4.76-.31,7.12-.31a83.12,83.12,0,0,1,6.94,166c-2.36.2-4.76.3-7.11.3Zm.16-144.09c-1.72,0-3.49.08-5.23.22A61,61,0,0,0,1036.11,375c1.74,0,3.5-.07,5.23-.22a61,61,0,0,0,55.59-65.9C1094.27,277.56,1067.63,253,1036.26,253Z" fill="#ebf1ff"/>
              <path d="M1036.11,397.13a83,83,0,0,1-80.41-62.4,10.82,10.82,0,0,1,6.85-12.89l.41-.15a10.73,10.73,0,0,1,3.68-.65,10.92,10.92,0,0,1,10.54,8.24A60.84,60.84,0,0,0,1036.11,375a62.54,62.54,0,0,0,7-.39,61,61,0,0,0-6.83-121.52,11.12,11.12,0,0,1-8.38-18.52,11,11,0,0,1,8.09-3.64h.3a83,83,0,0,1,83,79.6c1.87,43.07-30.21,80.86-73,86A83.51,83.51,0,0,1,1036.11,397.13Z" fill="#4b4be0"/>
            </g>
            <g>
              <path d="M649.75,397.14a83.14,83.14,0,0,1-81.55-99.58c.47-2.32,1-4.65,1.7-6.91h0a83.12,83.12,0,0,1,161.25,39.81c-.47,2.32-1,4.65-1.71,6.91a83.16,83.16,0,0,1-79.7,59.78Zm.11-144.08a61.34,61.34,0,0,0-58.69,43.8c-.48,1.66-.9,3.37-1.25,5.09a60.9,60.9,0,0,0,59.58,73,61.33,61.33,0,0,0,58.68-43.8c.49-1.66.91-3.37,1.26-5.09a61,61,0,0,0-47.7-71.81A60.07,60.07,0,0,0,649.86,253.06Z" fill="#ebf1ff"/>
              <path d="M649.81,397.15a84.22,84.22,0,0,1-20-2.43c-41.88-10.27-69.17-51.65-62.14-94.19a85.08,85.08,0,0,1,2.24-9.88,82.95,82.95,0,0,1,79.66-59.76c.92,0,1.85,0,2.77,0a10.82,10.82,0,0,1,10.45,10.19l0,.43a10.86,10.86,0,0,1-.4,3.72,11,11,0,0,1-10.51,7.81h-.36c-.66,0-1.3,0-2,0a61.15,61.15,0,0,0-58.4,43.8h0A61,61,0,0,0,635,373.18a61.86,61.86,0,0,0,14.8,1.8,60.85,60.85,0,0,0,39.62-14.68,11.09,11.09,0,0,1,14.42,16.84,83,83,0,0,1-54,20Z" fill="#5365d3"/>
            </g>
          </g>
        </g>
        <g>
          <rect x="1132.37" y="266.48" width="616.94" height="483.68" rx="50.78" fill="#fff"/>
          <g>
            <g>
              <path d="M1316.59,317.15h-136a6.46,6.46,0,0,1-6.46-6.46h0a6.46,6.46,0,0,1,6.46-6.45h136a6.45,6.45,0,0,1,6.45,6.45h0A6.46,6.46,0,0,1,1316.59,317.15Z" fill="#d7e2ff"/>
              <rect x="1174.15" y="330.06" width="148.89" height="12.91" rx="6.45" fill="#d7e2ff"/>
              <path d="M1316.59,368.79h-136a6.46,6.46,0,0,1-6.46-6.46h0a6.46,6.46,0,0,1,6.46-6.45h136a6.45,6.45,0,0,1,6.45,6.45h0A6.46,6.46,0,0,1,1316.59,368.79Z" fill="#d7e2ff"/>
              <path d="M1286.47,394.61H1180.61a6.46,6.46,0,0,1-6.46-6.46h0a6.46,6.46,0,0,1,6.46-6.45h105.86a6.45,6.45,0,0,1,6.45,6.45h0A6.46,6.46,0,0,1,1286.47,394.61Z" fill="#d7e2ff"/>
            </g>
            <g>
              <path d="M1649.66,304.24H1697a10.51,10.51,0,0,1,10.51,10.51h0A10.52,10.52,0,0,1,1697,325.26h-47.36a10.52,10.52,0,0,1-10.51-10.51h0A10.51,10.51,0,0,1,1649.66,304.24Z" fill="#5365d3"/>
              <path d="M1588.14,304.24h17a10.51,10.51,0,0,1,10.51,10.51h0a10.52,10.52,0,0,1-10.51,10.51h-17a10.51,10.51,0,0,1-10.51-10.51h0A10.5,10.5,0,0,1,1588.14,304.24Z" fill="#5365d3"/>
              <path d="M1461.78,304.24h81.8a10.51,10.51,0,0,1,10.51,10.51h0a10.52,10.52,0,0,1-10.51,10.51h-81.8a10.52,10.52,0,0,1-10.51-10.51h0A10.51,10.51,0,0,1,1461.78,304.24Z" fill="#4b4be0"/>
              <path d="M1384.07,304.24h33.15a10.5,10.5,0,0,1,10.51,10.51h0a10.51,10.51,0,0,1-10.51,10.51h-33.15a10.51,10.51,0,0,1-10.51-10.51h0A10.5,10.5,0,0,1,1384.07,304.24Z" fill="#5365d3"/>
            </g>
          </g>
          <g>
            <rect x="1199.39" y="532.77" width="65.8" height="112.73" rx="5.37" fill="#6161e4"/>
            <rect x="1303.66" y="450.17" width="65.8" height="195.34" rx="5.37" fill="#6161e4"/>
            <rect x="1407.94" y="465.32" width="65.8" height="180.19" rx="5.37" fill="#6161e4"/>
            <rect x="1512.22" y="389.05" width="65.8" height="256.45" rx="5.37" fill="#6161e4"/>
            <rect x="1616.49" y="418.85" width="65.8" height="226.65" rx="5.37" fill="#6161e4"/>
            <path d="M1650.23,415.94,1546,386.14a3,3,0,0,0-2.62.46l-103.28,75.54-103-15a3,3,0,0,0-2.32.62l-104,82.41-3.57,1.77v6.76l6.55-3.24a3.77,3.77,0,0,0,.54-.34l103.25-81.8,103,15a3.05,3.05,0,0,0,2.23-.56l103.08-75.39,102.85,29.39a3,3,0,1,0,1.67-5.82Z" fill="#4b4be0"/>
            <g>
              <path d="M1232.28,545a12.22,12.22,0,1,1,12.22-12.22A12.23,12.23,0,0,1,1232.28,545Z" fill="#4b4be0"/>
              <path d="M1232.28,526.56a6.21,6.21,0,1,0,6.22,6.21A6.22,6.22,0,0,0,1232.28,526.56Z" fill="#fff"/>
            </g>
            <g>
              <circle cx="1336.56" cy="450.17" r="12.22" transform="matrix(0.86, -0.51, 0.51, 0.86, -41.53, 750)" fill="#4b4be0"/>
              <path d="M1336.56,444a6.22,6.22,0,1,0,6.21,6.22A6.22,6.22,0,0,0,1336.56,444Z" fill="#fff"/>
            </g>
            <g>
              <circle cx="1440.84" cy="465.32" r="12.22" transform="matrix(0.54, -0.84, 0.84, 0.54, 273.03, 1429.04)" fill="#4b4be0"/>
              <path d="M1440.84,459.1a6.22,6.22,0,1,0,6.21,6.22A6.22,6.22,0,0,0,1440.84,459.1Z" fill="#fff"/>
            </g>
            <g>
              <path d="M1545.12,401.27a12.22,12.22,0,1,1,12.21-12.22A12.23,12.23,0,0,1,1545.12,401.27Z" fill="#4b4be0"/>
              <path d="M1545.12,382.84a6.21,6.21,0,1,0,6.21,6.21A6.22,6.22,0,0,0,1545.12,382.84Z" fill="#fff"/>
            </g>
            <g>
              <circle cx="1650.54" cy="417.08" r="12.22" fill="#4b4be0"/>
              <path d="M1650.54,410.87a6.22,6.22,0,1,0,6.21,6.21A6.22,6.22,0,0,0,1650.54,410.87Z" fill="#fff"/>
            </g>
          </g>
          <g>
            <path d="M1430.16,697.34H1230.54a6.46,6.46,0,0,1-6.46-6.46h0a6.46,6.46,0,0,1,6.46-6.45h199.62a6.46,6.46,0,0,1,6.46,6.45h0A6.46,6.46,0,0,1,1430.16,697.34Z" fill="#e4ebff"/>
            <path d="M1399.86,723.15H1230.54a6.46,6.46,0,0,1-6.46-6.45h0a6.46,6.46,0,0,1,6.46-6.45h169.32a6.45,6.45,0,0,1,6.45,6.45h0A6.45,6.45,0,0,1,1399.86,723.15Z" fill="#e4ebff"/>
          </g>
        </g>
        <g>
          <path d="M610.4,1045.42c-156.83-38.16-62.29,100.34-108.77,112.17-30,7.64,168.16,33,264.26,47.88-4.83,17.18-8.07,31.23-12,52.21-15.42,81.59-47.6,210.14-47.6,210.14l25,8.65s80.38-181.63,116.13-278c9.17-24.72,5.38-46.94-16.09-58C821.48,1135.31,631.09,1050.46,610.4,1045.42Z" fill="#4848b7"/>
          <path d="M691.64,1480.25s13.51-8.51,14.64-12.44c.81-2.81,25,8.67,25,8.67s2.64,8.19,5.17,16,18.41,48.24,21.31,59.87c1,4-8.71,15.52-19.2,9-6.8-4.24-42.66-36.5-48.31-43.17-6.91-8.15-14.47-20.27-10.72-25.21C682.38,1489.14,688,1482.46,691.64,1480.25Z" fill="#ffdcc0"/>
        </g>
        <g>
          <g>
            <rect x="384.65" y="1342.21" width="308.33" height="7.96" transform="translate(442.14 -100.6) rotate(17.99)" fill="#313346"/>
            <rect x="384.65" y="1342.21" width="308.33" height="7.96" transform="translate(1467.08 2460.14) rotate(162.01)" fill="#313346"/>
          </g>
          <g>
            <path d="M726.87,1615.46h0a11.76,11.76,0,0,0,9.85-13.22l-58.63-426.7-38.16,5.93,73.54,424.38A11.76,11.76,0,0,0,726.87,1615.46Z" fill="#242459"/>
            <path d="M350.76,1615.46h0a11.76,11.76,0,0,1-9.85-13.22l58.63-426.7,38.16,5.93-73.54,424.38A11.76,11.76,0,0,1,350.76,1615.46Z" fill="#242459"/>
          </g>
          <path d="M546.21,1166.72c-46.52,0-86.26-3.49-117.94-5.59C366.77,922.22,418,799,368,750.46c-19.93-19.33-52-20.22-70.7,0-18.53,20-22.64,59.53-17.45,105.46,8,71.15,27.15,177.7,44.27,250.41,11.53,49,24.71,91.39,32,101,28.42,37.51,96.7,48.72,204.22,51.33,166.08,4,177.49-10.68,177.49-57.39S672.8,1166.72,546.21,1166.72Z" fill="#5365d3"/>
        </g>
        <g>
          <path d="M684.8,795.94c-36.86-38.38-82.58-111.34-98.59-140.12-13.84-24.88-11.57-8.44-28.05,3.43s-30.83,17.69-11.16,43c12.41,16,56,72.05,81.67,98,14.35,14.5,22.05,22.86,36.74,24.74S678.71,808,684.8,795.94Z" fill="#ffdabc"/>
          <path d="M847,859c-14.34.36-16.42-.13-25.31-3-39.16-12.79-105.32-47.59-159.63-70.43-1.66-.7-43,9-14.33,31.69,13.06,10.33,48.58,26.48,70.16,33.81,48.57,16.51,89.53,22.74,101.29,28.93s27.5,31.12,58.82,20.43c8.82-3,11.47-15.94,10.89-21.45C887.83,868.82,873.39,858.37,847,859Z" fill="#ffdabc"/>
          <path d="M604.19,532.32c20.29-22.26,26.86-35.12,22.69-80.49-5.42-59-99.93-61.36-112.56-31.62S541.48,601.11,604.19,532.32Z" fill="#6060a6"/>
          <path d="M555.46,599s33.67,11.54,49.39,4.8,22.06-67.47,23.15-83.38c1.47-21.66-7.41-49.55-16.43-59C587.38,436.28,458.91,484.58,555.46,599Z" fill="#ffdcc0"/>
          <path d="M623.6,1087.09c.59-33.17-.6-42.09-1.28-58.14-1.9-45.24-1.51-171.77,22.8-202.64s37.62-70.46,15-98.43-38.7-32.07-54.71-49.89-37.24-44.81-43.73-51.14S466,681.53,467.89,726.76c0,0,18,96.8,27.32,146.88s6.75,81.89-28.95,136.1c-14.49,22-17.29,49-12.93,77.35Z" fill="#fff"/>
          <path d="M491.84,961.13c-7.67,19.57-12.47,25-27.67,48.18-54,82.24-30.05,158,52.41,166.24q4.92.5,10.1.67c16.34.53,32.63,2,48.49,5.91l45.91,11.34c3.24-125.58,3.35-140.53,2.22-167.57-.66-15.67-1.58-23.17-1.5-50.36C594.72,975.63,527.69,970.41,491.84,961.13Z" fill="#343484"/>
          <path d="M819.08,1229.5s10.47-18.92,8.94-29.2.59-17.68-39.22-45.78c-43.73-30.86-166.95-94.34-234.86-127.28s-52.31,130.35-52.31,130.35,88.34,48.82,291.42,69.52C802.59,1228.09,811.25,1228.88,819.08,1229.5Z" fill="#343484"/>
          <path d="M636.52,832.92c-36.17-39-80.61-112.77-96.11-141.83C527,666,529,682.45,512.3,694s-31.13,17.15-11.91,42.84c12.13,16.21,54.73,73,79.94,99.47,14.09,14.74,21.65,23.24,36.3,25.38S630.22,844.89,636.52,832.92Z" fill="#ffdcc0"/>
          <path d="M807.36,865.62c-12.88,6.31-15,5.29-24.24,3.79-40.66-6.61-111.39-30.81-168.57-45-1.75-.43-41.1,15.53-9.28,33.53,14.49,8.19,52.08,18.68,74.53,22.6,50.53,8.83,92,8.68,104.53,13s23.09,9.57,52.38-5.82c8.26-4.34,37.48,1.47,36.06-3.89C870.15,873.92,827.69,855.65,807.36,865.62Z" fill="#ffdcc0"/>
          <path d="M477.34,424.45c30.22-24.67,89.44-41,117.92-9.73s37.84,54.44,5.29,84.49c-33.83,31.24-14,44-9.66,90.75,3.81,41.1-10.71,87.1-50.48,101.13-69.47,24.49-47.89,51.52-64.3,94.45s-123.41-56.95-53.56-89.32c51.15-23.7-22.42-56.38,18.71-107.9C495.14,520.84,407.39,481.55,477.34,424.45Z" fill="#6060a6"/>
          <g>
            <path d="M764.94,1214.88c.75,28-1.08,40.46,1.45,71.53,1.79,22,5.85,46.67,18.66,83.68,28.57,82.62,103.36,204.33,103.36,204.33l29.8-8.57s-70-221.91-85.5-322.23c-3.27-21.22-3.75-37.09-4.81-44.15C822.7,1164.56,764.24,1189.27,764.94,1214.88Z" fill="#343484"/>
            <path d="M884,1569.3c.19-1.84,1.15-1.37,14.27-2.71,9.05-.93,19.79-.92,19.79-.92s6.78,2.86,14.21,6.73,40.58,16.7,51.44,22.34c6.43,3.34,5.61,20.84-7,20.76-11.17-.08-51.86-.46-69.26-.58-21.41-.14-24.16-.3-25-6.58C881.87,1603.49,883.48,1574.81,884,1569.3Z" fill="#ffdcc0"/>
          </g>
        </g>
        <g>
          <g>
            <path d="M1141,683.41h-7.39V880.27h28.18V704.19A20.78,20.78,0,0,0,1141,683.41Z" fill="#7c82ce"/>
            <polygon points="1102.26 645.41 1149.99 696.17 1145.72 722.68 1099.23 677.85 1102.26 645.41" fill="#7c82ce"/>
            <path d="M1061.35,837.79l9.88,1.43a8.93,8.93,0,0,0,10.12-7.56l44-303.62a8.93,8.93,0,0,0-7.56-10.13l-9.87-1.43a8.94,8.94,0,0,0-10.13,7.56l-44,303.63A8.93,8.93,0,0,0,1061.35,837.79Z" fill="#9fa2e2"/>
          </g>
          <path d="M1031.64,900.48,837,905.5l-.24-9.09a10.61,10.61,0,0,1,10.33-10.87l173.44-4.47a10.59,10.59,0,0,1,10.87,10.32Z" fill="#242459"/>
          <path d="M1056.77,875.57h148.74a0,0,0,0,1,0,0v6.62a15.68,15.68,0,0,1-15.68,15.68H1072.45a15.68,15.68,0,0,1-15.68-15.68v-6.62A0,0,0,0,1,1056.77,875.57Z" transform="translate(2262.28 1773.45) rotate(180)" fill="#9fa2e2"/>
          <g>
            <rect x="1479.34" y="935.81" width="45.76" height="679.79" rx="8.84" transform="translate(3004.44 2551.42) rotate(180)" fill="#b0c3ff"/>
            <rect x="773.1" y="935.81" width="45.76" height="679.79" rx="8.84" transform="translate(1591.96 2551.42) rotate(180)" fill="#b0c3ff"/>
          </g>
          <rect x="724.05" y="897.88" width="851.66" height="56.85" rx="8.01" transform="translate(2299.76 1852.6) rotate(180)" fill="#45459b"/>
          <rect x="795.98" y="1027.24" width="706.24" height="18.18" fill="#b0c3ff"/>
          <rect x="795.98" y="1084.63" width="706.24" height="18.18" fill="#b0c3ff"/>
        </g>
        <g>
          <g>
            <g>
              <path d="M1395.84,1123.06v143.83c-26.15-124.54-137.33-169.49-154.9-178.14-163.4-80.39-43.23-208.51,68-140.52C1378.7,990.9,1395.84,1063.86,1395.84,1123.06Z" fill="#e4ebff"/>
              <path d="M1421.59,1003c-10.37,21.87-39.29,82.86-48.9,103.14,23.6-98.2-40.85-168.23-50.51-180.4-89.83-113.19,39.89-164.21,96.51-77.65C1454.23,902.39,1441.71,960.53,1421.59,1003Z" fill="#e4ebff"/>
              <path d="M1415.21,859.58c1,24.19,3.72,91.63,4.62,114,16.73-99.59,103.45-138.81,117.1-146.22,127-69,27.58-166.72-58.41-109.24C1424.56,754.24,1413.31,812.64,1415.21,859.58Z" fill="#e4ebff"/>
              <path d="M1392.7,1323.76c-1.51-8-2.46.19-2.46-8,0-67.89-49.26-161.28-179.69-182.72-147.49-24.25-202.36,159.88-11.84,178.62,18.41,1.81,115,1.64,194,69.44Z" fill="#e4ebff"/>
              <path d="M1392.7,1187.79c.9-4.79,1.47.11,1.47-4.79,0-40.81,29.61-97,108-109.84,88.66-14.58,121.64,96.11,7.12,107.37-11.07,1.09-69.16,1-116.61,41.74Z" fill="#e4ebff"/>
              <path d="M1399.47,1444.59v-415.2l-17.54,8.83s-1.6,28.09-1.6,61.2v345.17Z" fill="#d7e2ff"/>
              <path d="M1392.7,1356.72c1.33-7,2.16.16,2.16-7,0-59.85,43.43-142.18,158.4-161.08,130-21.37,178.39,140.94,10.45,157.46-16.24,1.59-101.42,1.45-171,61.21Z" fill="#d7e2ff"/>
              <path d="M1382.51,1050.66c2.61,28.85,9.86,109.28,12.27,136,14.1-120,115.4-172,131.28-181.66,147.65-90,23.09-200.85-76.26-127.08C1387.45,924.23,1377.46,994.68,1382.51,1050.66Z" fill="#d7e2ff"/>
            </g>
            <path d="M1445.37,1635a20,20,0,0,0,16.82-9.08c36.29-55.9,49.22-122,28.79-177.7a16.16,16.16,0,0,0-15.23-10.44h-174a16.17,16.17,0,0,0-15.24,10.44c-20.42,55.74-7.5,121.8,28.8,177.71a20,20,0,0,0,16.82,9.07Z" fill="#242459"/>
            <path d="M1462.2,1625.92a20.07,20.07,0,0,1-16.84,9.08h-113.2a20,20,0,0,1-16.81-9.08q-6-9.18-11.07-18.7A192.84,192.84,0,0,0,1478.21,1438a16,16,0,0,1,12.78,10.25C1511.41,1504,1498.49,1570,1462.2,1625.92Z" fill="#18183f"/>
          </g>
          <g>
            <path d="M1626.53,1237.5c-31.66-6.12-62.47-4.28-91.57,5.47-23.25,7.78-45.44,20.6-66,38.1a255.28,255.28,0,0,0-33.6,34.83,3.06,3.06,0,0,0,.53,4.3h0a3,3,0,0,0,4.28-.49,247.46,247.46,0,0,1,32.73-34c31.26-26.67,83.08-55.64,152.43-42.23a3,3,0,1,0,1.15-6Z" fill="#f1f5ff"/>
            <path d="M1543.37,898.1a3,3,0,0,0-3.67-2.22c-29.79,7.27-55.68,21.08-77,41-17,16-31.09,35.83-41.87,59.08a242.65,242.65,0,0,0-16.19,47.53,3.07,3.07,0,0,0,3,3.77h0a3,3,0,0,0,3-2.36,236.39,236.39,0,0,1,15.82-46.57c23.87-51.36,62.46-83.86,114.68-96.61A3,3,0,0,0,1543.37,898.1Z" fill="#f1f5ff"/>
            <path d="M1347.89,1287.71a3,3,0,0,1-2.67-1.6c-.18-.33-18-33-52-62-45.43-38.68-96.67-52.85-152.28-42.1a3,3,0,1,1-1.15-6c31.67-6.13,62.48-4.29,91.58,5.46,23.25,7.79,45.43,20.61,66,38.1,34.85,29.73,52.54,62.21,53.27,63.57a3,3,0,0,1-1.23,4.11A3,3,0,0,1,1347.89,1287.71Z" fill="#f1f5ff"/>
            <path d="M1345.08,1047.49h0a3,3,0,0,0,2.71-4.45,194,194,0,0,0-13.64-22.29c-12.13-17.08-26.42-31-42.46-41.24-20.09-12.88-43-20.13-68-21.53a3,3,0,1,0-.34,6.06c43.52,2.44,79.1,22.65,105.75,60.06a186.31,186.31,0,0,1,13.3,21.77A3,3,0,0,0,1345.08,1047.49Z" fill="#f1f5ff"/>
          </g>
        </g>
      </g>
    </g>
  </g>
</svg>
