<svg xmlns="http://www.w3.org/2000/svg" xmlns:xlink="http://www.w3.org/1999/xlink" viewBox="0 0 2027.12 1820">
  <defs>
    <linearGradient id="linear-gradient" x1="386.03" y1="1656.14" x2="1650.16" y2="149.6" gradientTransform="matrix(1, -0.05, 0.05, 1, -42.55, 47.72)" gradientUnits="userSpaceOnUse">
      <stop offset="0" stop-color="#0d0c45"/>
      <stop offset="0.16" stop-color="#191760"/>
      <stop offset="0.39" stop-color="#272581"/>
      <stop offset="0.62" stop-color="#313099"/>
      <stop offset="0.83" stop-color="#3836a8"/>
      <stop offset="1" stop-color="#3a38ad"/>
    </linearGradient>
    <linearGradient id="linear-gradient-2" x1="878.97" y1="826.59" x2="666.08" y2="241.68" gradientUnits="userSpaceOnUse">
      <stop offset="0" stop-color="#f7f8ff"/>
      <stop offset="1" stop-color="#c2caff"/>
    </linearGradient>
    <linearGradient id="linear-gradient-3" x1="1542.99" y1="926.6" x2="1197.89" y2="328.87" gradientUnits="userSpaceOnUse">
      <stop offset="0" stop-color="#f7f8ff"/>
      <stop offset="1" stop-color="#cdd4ff"/>
    </linearGradient>
  </defs>
  <title>onboarding-graphic</title>
  <g id="Layer_2" data-name="Layer 2">
    <g id="Layer_1-2" data-name="Layer 1">
      <path d="M1733.58,273.36c-197-32.42-223.71,64.78-549.87-116.16C606-163.31,162.15,23.5,180,561.19c11.54,346.86-416.29,514.87,8.22,854.26C462.83,1635,476.4,1957.9,996.63,1756.54c188.87-73.1,294.42-145.11,538-131.67,503.44,27.78,264.69-394.42,417.61-720.38C2101.47,586.45,2027.13,321.68,1733.58,273.36Z" fill="url(#linear-gradient)"/>
      <g>
        <g>
          <rect x="451.93" y="304.41" width="641.18" height="459.44" rx="50.78" fill="url(#linear-gradient-2)"/>
          <g>
            <g>
              <path d="M772.44,516.55a83.12,83.12,0,0,1-7-165.95c2.37-.2,4.76-.3,7.12-.3a83.12,83.12,0,0,1,6.94,166c-2.36.2-4.75.3-7.11.3Zm.16-144.09c-1.73,0-3.49.07-5.24.22a61,61,0,0,0-55.58,65.9c2.66,31.29,29.31,55.81,60.67,55.81,1.73,0,3.49-.08,5.23-.22a61,61,0,0,0,55.58-65.9A61.29,61.29,0,0,0,772.6,372.46Z" fill="#f5f5ff"/>
              <path d="M800.17,511a11.08,11.08,0,0,1-4.25-21.31A60.95,60.95,0,0,0,772.6,372.48,11.12,11.12,0,0,1,764.21,354a11,11,0,0,1,8.1-3.63h.29a83.1,83.1,0,0,1,31.87,159.82,11,11,0,0,1-4.3.88Z" fill="#593ecc"/>
            </g>
            <g>
              <path d="M647.26,550.28h-136a6.46,6.46,0,0,1-6.45-6.46h0a6.45,6.45,0,0,1,6.45-6.45h136a6.46,6.46,0,0,1,6.46,6.45h0A6.46,6.46,0,0,1,647.26,550.28Z" fill="#c5d4ff"/>
              <path d="M647.26,576.1h-136a6.46,6.46,0,0,1-6.45-6.46h0a6.45,6.45,0,0,1,6.45-6.45h136a6.46,6.46,0,0,1,6.46,6.45h0A6.46,6.46,0,0,1,647.26,576.1Z" fill="#c5d4ff"/>
              <path d="M647.26,601.91h-136a6.45,6.45,0,0,1-6.45-6.45h0a6.46,6.46,0,0,1,6.45-6.46h136a6.46,6.46,0,0,1,6.46,6.46h0A6.46,6.46,0,0,1,647.26,601.91Z" fill="#c5d4ff"/>
              <path d="M647.26,627.73h-136a6.45,6.45,0,0,1-6.45-6.45h0a6.46,6.46,0,0,1,6.45-6.46h136a6.46,6.46,0,0,1,6.46,6.46h0A6.46,6.46,0,0,1,647.26,627.73Z" fill="#c5d4ff"/>
              <path d="M632.2,653.55H526.34a6.45,6.45,0,0,1-6.45-6.45h0a6.46,6.46,0,0,1,6.45-6.46H632.2a6.46,6.46,0,0,1,6.46,6.46h0A6.46,6.46,0,0,1,632.2,653.55Z" fill="#c5d4ff"/>
            </g>
            <g>
              <path d="M840.52,550.28h-136a6.46,6.46,0,0,1-6.45-6.46h0a6.45,6.45,0,0,1,6.45-6.45h136a6.45,6.45,0,0,1,6.45,6.45h0A6.46,6.46,0,0,1,840.52,550.28Z" fill="#c5d4ff"/>
              <path d="M840.52,576.1h-136a6.46,6.46,0,0,1-6.45-6.46h0a6.45,6.45,0,0,1,6.45-6.45h136a6.45,6.45,0,0,1,6.45,6.45h0A6.46,6.46,0,0,1,840.52,576.1Z" fill="#c5d4ff"/>
              <path d="M840.52,601.91h-136a6.45,6.45,0,0,1-6.45-6.45h0a6.46,6.46,0,0,1,6.45-6.46h136a6.46,6.46,0,0,1,6.45,6.46h0A6.45,6.45,0,0,1,840.52,601.91Z" fill="#c5d4ff"/>
              <path d="M840.52,627.73h-136a6.45,6.45,0,0,1-6.45-6.45h0a6.46,6.46,0,0,1,6.45-6.46h136a6.46,6.46,0,0,1,6.45,6.46h0A6.45,6.45,0,0,1,840.52,627.73Z" fill="#c5d4ff"/>
              <path d="M825.45,653.55H719.59a6.45,6.45,0,0,1-6.45-6.45h0a6.46,6.46,0,0,1,6.45-6.46H825.45a6.46,6.46,0,0,1,6.46,6.46h0A6.46,6.46,0,0,1,825.45,653.55Z" fill="#c5d4ff"/>
            </g>
            <g>
              <path d="M603.05,718H508.88a12.73,12.73,0,0,1-12.74-12.73h0a12.73,12.73,0,0,1,12.74-12.73h94.17a12.73,12.73,0,0,1,12.73,12.73h0A12.73,12.73,0,0,1,603.05,718Z" fill="#593ecc"/>
              <path d="M714.4,718H657a12.73,12.73,0,0,1-12.73-12.73h0A12.73,12.73,0,0,1,657,692.52H714.4a12.73,12.73,0,0,1,12.73,12.73h0A12.73,12.73,0,0,1,714.4,718Z" fill="#f25366"/>
              <path d="M788.94,718H768.38a12.73,12.73,0,0,1-12.73-12.73h0a12.73,12.73,0,0,1,12.73-12.73h20.56a12.73,12.73,0,0,1,12.73,12.73h0A12.73,12.73,0,0,1,788.94,718Z" fill="#593ecc"/>
              <path d="M949.36,718H842.92a12.73,12.73,0,0,1-12.73-12.73h0a12.73,12.73,0,0,1,12.73-12.73H949.36a12.74,12.74,0,0,1,12.74,12.73h0A12.74,12.74,0,0,1,949.36,718Z" fill="#593ecc"/>
              <path d="M1036.17,718h-32.83a12.73,12.73,0,0,1-12.73-12.73h0a12.73,12.73,0,0,1,12.73-12.73h32.83a12.73,12.73,0,0,1,12.73,12.73h0A12.73,12.73,0,0,1,1036.17,718Z" fill="#f25366"/>
            </g>
            <g>
              <path d="M1033.78,550.28h-136a6.46,6.46,0,0,1-6.46-6.46h0a6.46,6.46,0,0,1,6.46-6.45h136a6.46,6.46,0,0,1,6.46,6.45h0A6.46,6.46,0,0,1,1033.78,550.28Z" fill="#c5d4ff"/>
              <path d="M1033.78,576.1h-136a6.46,6.46,0,0,1-6.46-6.46h0a6.46,6.46,0,0,1,6.46-6.45h136a6.46,6.46,0,0,1,6.46,6.45h0A6.46,6.46,0,0,1,1033.78,576.1Z" fill="#c5d4ff"/>
              <path d="M1033.78,601.91h-136a6.46,6.46,0,0,1-6.46-6.45h0A6.46,6.46,0,0,1,897.8,589h136a6.46,6.46,0,0,1,6.46,6.46h0A6.46,6.46,0,0,1,1033.78,601.91Z" fill="#c5d4ff"/>
              <path d="M1033.78,627.73h-136a6.46,6.46,0,0,1-6.46-6.45h0a6.46,6.46,0,0,1,6.46-6.46h136a6.46,6.46,0,0,1,6.46,6.46h0A6.46,6.46,0,0,1,1033.78,627.73Z" fill="#c5d4ff"/>
              <path d="M1018.72,653.55H912.86a6.46,6.46,0,0,1-6.46-6.45h0a6.46,6.46,0,0,1,6.46-6.46h105.86a6.46,6.46,0,0,1,6.45,6.46h0A6.45,6.45,0,0,1,1018.72,653.55Z" fill="#c5d4ff"/>
            </g>
            <g>
              <path d="M965.7,516.55a83.12,83.12,0,0,1-6.94-165.95c2.36-.2,4.76-.3,7.12-.3a83.12,83.12,0,0,1,6.94,166c-2.36.2-4.76.3-7.11.3Zm.16-144.09c-1.72,0-3.49.07-5.23.22a61,61,0,0,0,5.08,121.71c1.73,0,3.49-.08,5.23-.22a61,61,0,0,0,55.59-65.9A61.3,61.3,0,0,0,965.86,372.46Z" fill="#f5f5ff"/>
              <path d="M965.71,516.55a83,83,0,0,1-80.41-62.41,10.81,10.81,0,0,1,6.85-12.89l.41-.15a10.73,10.73,0,0,1,3.68-.65,10.91,10.91,0,0,1,10.54,8.25,60.83,60.83,0,0,0,58.93,45.69,62.54,62.54,0,0,0,7-.4,61,61,0,0,0-6.83-121.51A11.12,11.12,0,0,1,957.48,354a10.92,10.92,0,0,1,8.09-3.63h.3a83,83,0,0,1,83,79.59c1.86,43.07-30.21,80.86-73,86A85.29,85.29,0,0,1,965.71,516.55Z" fill="#f25366"/>
            </g>
            <g>
              <path d="M579.35,516.55A83.13,83.13,0,0,1,497.8,417c.47-2.33,1-4.65,1.7-6.91v0a83.16,83.16,0,0,1,79.7-59.76,84.12,84.12,0,0,1,16.51,1.65,83.12,83.12,0,0,1,65,97.92c-.47,2.33-1,4.66-1.71,6.92a83.13,83.13,0,0,1-79.7,59.77Zm.11-144.07a61.34,61.34,0,0,0-58.69,43.8c-.48,1.66-.9,3.37-1.25,5.08a60.85,60.85,0,0,0,59.58,73,61.32,61.32,0,0,0,58.68-43.8c.49-1.66.91-3.37,1.26-5.08a60.85,60.85,0,0,0-59.58-73Z" fill="#f5f5ff"/>
              <path d="M579.41,516.56a84.36,84.36,0,0,1-20-2.43c-41.87-10.27-69.16-51.64-62.13-94.19a84.45,84.45,0,0,1,2.24-9.87,82.92,82.92,0,0,1,79.66-59.77c.92,0,1.85,0,2.77.05a10.81,10.81,0,0,1,10.45,10.18l0,.44a10.86,10.86,0,0,1-.4,3.72,11,11,0,0,1-10.51,7.81h-.36c-.66,0-1.3,0-2,0a61.15,61.15,0,0,0-58.4,43.8v0a61,61,0,0,0,43.83,76.31,61.85,61.85,0,0,0,14.79,1.81A60.87,60.87,0,0,0,619,479.71a11.07,11.07,0,0,1,7.18-2.65,10.93,10.93,0,0,1,3.11.45,11.1,11.1,0,0,1,7.74,8.31,10.9,10.9,0,0,1-3.61,10.73,83,83,0,0,1-54,20Z" fill="#593ecc"/>
            </g>
          </g>
        </g>
        <g>
          <rect x="1061.97" y="385.89" width="616.94" height="483.69" rx="50.78" fill="url(#linear-gradient-3)"/>
          <g>
            <g>
              <path d="M1246.19,436.56h-136a6.46,6.46,0,0,1-6.46-6.45h0a6.46,6.46,0,0,1,6.46-6.46h136a6.46,6.46,0,0,1,6.45,6.46h0A6.45,6.45,0,0,1,1246.19,436.56Z" fill="#fff"/>
              <path d="M1110.21,449.47h136a6.45,6.45,0,0,1,6.45,6.45v0a6.45,6.45,0,0,1-6.45,6.45h-136a6.45,6.45,0,0,1-6.45-6.45v0a6.46,6.46,0,0,1,6.46-6.46Z" fill="#fff"/>
              <path d="M1246.19,488.2h-136a6.46,6.46,0,0,1-6.46-6.45h0a6.46,6.46,0,0,1,6.46-6.46h136a6.46,6.46,0,0,1,6.45,6.46h0A6.45,6.45,0,0,1,1246.19,488.2Z" fill="#fff"/>
              <path d="M1216.07,514H1110.21a6.46,6.46,0,0,1-6.46-6.45h0a6.46,6.46,0,0,1,6.46-6.46h105.86a6.46,6.46,0,0,1,6.45,6.46h0A6.45,6.45,0,0,1,1216.07,514Z" fill="#fff"/>
            </g>
            <g>
              <path d="M1579.26,423.65h47.36a10.51,10.51,0,0,1,10.5,10.51h0a10.5,10.5,0,0,1-10.5,10.51h-47.36a10.51,10.51,0,0,1-10.51-10.51h0A10.52,10.52,0,0,1,1579.26,423.65Z" fill="#593ecc"/>
              <path d="M1517.74,423.65h17a10.52,10.52,0,0,1,10.51,10.51h0a10.51,10.51,0,0,1-10.51,10.51h-17a10.5,10.5,0,0,1-10.51-10.51h0A10.51,10.51,0,0,1,1517.74,423.65Z" fill="#593ecc"/>
              <path d="M1391.38,423.65h81.8a10.52,10.52,0,0,1,10.51,10.51h0a10.51,10.51,0,0,1-10.51,10.51h-81.8a10.51,10.51,0,0,1-10.51-10.51h0A10.52,10.52,0,0,1,1391.38,423.65Z" fill="#f25366"/>
              <path d="M1313.67,423.65h33.15a10.51,10.51,0,0,1,10.51,10.51h0a10.5,10.5,0,0,1-10.51,10.51h-33.15a10.5,10.5,0,0,1-10.51-10.51h0A10.51,10.51,0,0,1,1313.67,423.65Z" fill="#593ecc"/>
            </g>
          </g>
          <g>
            <path d="M1366,816.37H1166.35a6.45,6.45,0,0,1-6.45-6.45h0a6.46,6.46,0,0,1,6.45-6.46H1366a6.46,6.46,0,0,1,6.46,6.46h0A6.46,6.46,0,0,1,1366,816.37Z" fill="#c5d4ff"/>
            <path d="M1335.67,842.19H1166.35a6.45,6.45,0,0,1-6.45-6.45h0a6.46,6.46,0,0,1,6.45-6.46h169.32a6.46,6.46,0,0,1,6.45,6.46h0A6.45,6.45,0,0,1,1335.67,842.19Z" fill="#c5d4ff"/>
          </g>
          <g>
            <rect x="1128.99" y="652.19" width="65.8" height="112.73" rx="5.37" fill="#ff8098"/>
            <rect x="1233.26" y="569.58" width="65.8" height="195.34" rx="5.37" fill="#ff8098"/>
            <rect x="1337.54" y="584.73" width="65.8" height="180.19" rx="5.37" fill="#ff8098"/>
            <rect x="1441.82" y="508.47" width="65.8" height="256.45" rx="5.37" fill="#ff8098"/>
            <rect x="1546.09" y="538.27" width="65.8" height="226.65" rx="5.37" fill="#ff8098"/>
            <path d="M1579.83,535.35l-104.28-29.8a3.05,3.05,0,0,0-2.62.47l-103.28,75.54-103.05-15a3,3,0,0,0-2.32.63l-104,82.4-3.57,1.77v6.77l6.55-3.25a2.57,2.57,0,0,0,.54-.34L1267,572.77l103,15a3,3,0,0,0,2.23-.55l103.08-75.39,102.85,29.39a3,3,0,1,0,1.67-5.83Z" fill="#f25366"/>
            <g>
              <circle cx="1161.88" cy="652.19" r="12.22" transform="translate(260.2 1633.15) rotate(-76.72)" fill="#f25366"/>
              <path d="M1161.88,646a6.21,6.21,0,1,0,6.22,6.21A6.22,6.22,0,0,0,1161.88,646Z" fill="#fff"/>
            </g>
            <g>
              <circle cx="1266.16" cy="569.58" r="12.22" transform="translate(-60.11 158.97) rotate(-7.02)" fill="#f25366"/>
              <path d="M1266.16,563.37a6.21,6.21,0,1,0,6.21,6.21A6.22,6.22,0,0,0,1266.16,563.37Z" fill="#fff"/>
            </g>
            <g>
              <circle cx="1370.44" cy="584.73" r="12.22" transform="translate(-12.08 1140.31) rotate(-45)" fill="#f25366"/>
              <path d="M1370.44,578.52a6.21,6.21,0,1,0,6.21,6.21A6.22,6.22,0,0,0,1370.44,578.52Z" fill="#fff"/>
            </g>
            <g>
              <circle cx="1474.72" cy="508.47" r="12.22" transform="translate(641.03 1826.91) rotate(-76.72)" fill="#f25366"/>
              <path d="M1474.72,502.25a6.22,6.22,0,1,0,6.21,6.22A6.23,6.23,0,0,0,1474.72,502.25Z" fill="#fff"/>
            </g>
            <g>
              <path d="M1580.13,548.72a12.22,12.22,0,1,1,12.22-12.22A12.23,12.23,0,0,1,1580.13,548.72Z" fill="#f25366"/>
              <path d="M1580.13,530.29a6.21,6.21,0,1,0,6.22,6.21A6.22,6.22,0,0,0,1580.13,530.29Z" fill="#fff"/>
            </g>
          </g>
        </g>
        <g>
          <path d="M540,1164.84c-156.83-38.16-62.29,100.34-108.77,112.17-30,7.64,168.16,33,264.26,47.87-4.83,17.18-8.07,31.24-12,52.22-15.42,81.59-47.6,210.13-47.6,210.13l25,8.66s80.38-181.64,116.13-278c9.16-24.72,5.38-46.95-16.09-58.06C751.08,1254.72,560.69,1169.88,540,1164.84Z" fill="#3c3c96"/>
          <path d="M621.24,1599.67s13.51-8.52,14.64-12.44c.81-2.81,25,8.66,25,8.66s2.64,8.2,5.17,16,18.41,48.24,21.31,59.87c1,4-8.72,15.53-19.2,9-6.8-4.23-42.66-36.5-48.31-43.16-6.91-8.16-14.47-20.27-10.72-25.22C612,1608.55,617.58,1601.88,621.24,1599.67Z" fill="#f25366"/>
        </g>
        <g>
          <g>
            <rect x="314.25" y="1461.63" width="308.33" height="7.96" transform="translate(475.58 -73.02) rotate(17.99)" fill="#3a3aaf"/>
            <rect x="314.25" y="1461.63" width="308.33" height="7.96" transform="translate(1366.6 2714.88) rotate(162.01)" fill="#3a3aaf"/>
          </g>
          <g>
            <path d="M656.47,1734.88h0a11.77,11.77,0,0,0,9.85-13.23L607.69,1295l-38.16,5.92,73.54,424.38A11.77,11.77,0,0,0,656.47,1734.88Z" fill="#3a3aaf"/>
            <path d="M280.36,1734.88h0a11.77,11.77,0,0,1-9.85-13.23L329.14,1295l38.16,5.92-73.54,424.38A11.77,11.77,0,0,1,280.36,1734.88Z" fill="#3a3aaf"/>
          </g>
          <path d="M475.81,1286.13c-46.52,0-86.26-3.49-117.94-5.59-61.5-238.91-10.25-362.17-60.24-410.66-19.93-19.33-52-20.22-70.7,0-18.53,20-22.64,59.53-17.45,105.45,8,71.15,27.15,177.7,44.27,250.42,11.52,49,24.71,91.38,32,101,28.42,37.5,96.7,48.71,204.22,51.33,166.08,4,177.49-10.68,177.49-57.4S602.4,1286.13,475.81,1286.13Z" fill="#09093d"/>
        </g>
        <g>
          <path d="M614.39,915.35C577.54,877,531.82,804,515.81,775.23c-13.84-24.87-11.57-8.43-28,3.43s-30.83,17.69-11.16,43c12.41,16,56,72.06,81.67,98,14.35,14.49,22.05,22.86,36.74,24.74S608.31,927.44,614.39,915.35Z" fill="#895f7f"/>
          <path d="M776.61,978.45c-14.34.36-16.43-.12-25.31-3C712.14,962.64,646,927.83,591.67,905c-1.66-.7-43,9-14.33,31.7C590.4,947,625.92,963.16,647.5,970.5,696.07,987,737,993.23,748.79,999.43s27.5,31.11,58.82,20.42c8.82-3,11.47-15.93,10.89-21.45C817.43,988.23,803,977.79,776.61,978.45Z" fill="#895f7f"/>
          <path d="M533.79,651.74c20.29-22.26,26.85-35.12,22.69-80.49-5.42-59-99.93-61.37-112.56-31.63S471.08,720.53,533.79,651.74Z" fill="#09093d"/>
          <path d="M485.06,718.45s33.67,11.55,49.39,4.81,22.06-67.48,23.15-83.39c1.47-21.65-7.41-49.55-16.43-58.94C517,555.69,388.51,604,485.06,718.45Z" fill="#966688"/>
          <path d="M553.2,1206.51c.59-33.18-.6-42.1-1.28-58.15-1.9-45.23-1.51-171.77,22.8-202.63s37.62-70.46,15-98.44S551,815.23,535,797.41s-37.24-44.81-43.73-51.15-95.65,54.68-93.75,99.91c0,0,18,96.8,27.32,146.89s6.75,81.89-29,136.09c-14.48,22-17.28,49-12.92,77.36Z" fill="#f25366"/>
          <path d="M421.43,1080.54c-7.66,19.58-12.46,25-27.66,48.19-54,82.23-30,157.94,52.41,166.24q4.92.49,10.1.66c16.34.54,32.62,2,48.49,5.91l45.91,11.35c3.24-125.58,3.35-140.53,2.22-167.58-.66-15.66-1.58-23.17-1.5-50.36C524.31,1095,457.29,1089.82,421.43,1080.54Z" fill="#343293"/>
          <path d="M748.68,1348.91s10.47-18.91,8.93-29.19.6-17.69-39.21-45.79c-43.73-30.86-166.95-94.34-234.86-127.27S431.23,1277,431.23,1277s88.34,48.81,291.42,69.52C732.19,1347.51,740.85,1348.29,748.68,1348.91Z" fill="#343293"/>
          <path d="M566.12,952.33C530,913.31,485.51,839.56,470,810.5c-13.4-25.11-11.42-8.64-28.11,2.94S410.77,830.58,430,856.27c12.13,16.21,54.73,73,79.94,99.47,14.09,14.74,21.65,23.24,36.3,25.38S559.82,964.3,566.12,952.33Z" fill="#966688"/>
          <path d="M737,985c-12.88,6.32-15,5.29-24.24,3.79-40.66-6.6-111.39-30.81-168.57-45-1.75-.44-41.1,15.53-9.28,33.52,14.49,8.2,52.08,18.68,74.53,22.61,50.53,8.83,92,8.67,104.53,13s23.09,9.57,52.38-5.82c8.26-4.34,37.48,1.47,36.06-3.89C799.75,993.33,757.29,975.07,737,985Z" fill="#966688"/>
          <path d="M406.94,543.86c30.22-24.66,89.44-41,117.92-9.72s37.84,54.44,5.29,84.48c-33.83,31.25-14,44-9.66,90.76,3.81,41.09-10.71,87.1-50.48,101.12C400.54,835,422.12,862,405.7,905s-123.4-57-53.55-89.32c51.15-23.7-22.42-56.39,18.71-107.9C424.74,640.25,337,601,406.94,543.86Z" fill="#09093d"/>
          <g>
            <path d="M694.54,1334.29c.75,28-1.08,40.47,1.45,71.53,1.79,22,5.85,46.68,18.65,83.69C743.22,1572.12,818,1693.84,818,1693.84l29.8-8.57s-70-221.92-85.5-322.23c-3.27-21.22-3.76-37.09-4.81-44.15C752.3,1284,693.84,1308.69,694.54,1334.29Z" fill="#343293"/>
            <path d="M813.63,1688.71c.19-1.83,1.15-1.36,14.27-2.71,9.05-.93,19.79-.91,19.79-.91s6.78,2.86,14.21,6.72,40.58,16.7,51.44,22.35c6.43,3.33,5.61,20.84-7,20.75-11.17-.07-51.86-.45-69.26-.57-21.41-.15-24.16-.3-25-6.58C811.47,1722.9,813.08,1694.22,813.63,1688.71Z" fill="#f25366"/>
          </g>
        </g>
        <g>
          <g>
            <path d="M1070.56,802.83h-7.39V999.68h28.17V823.61A20.78,20.78,0,0,0,1070.56,802.83Z" fill="#cdd2fc"/>
            <polygon points="1031.86 764.82 1079.59 815.58 1075.32 842.1 1028.83 797.27 1031.86 764.82" fill="#cdd2fc"/>
            <path d="M991,957.21l9.88,1.43a8.94,8.94,0,0,0,10.12-7.57l44-303.62a8.92,8.92,0,0,0-7.56-10.12l-9.87-1.43a8.93,8.93,0,0,0-10.13,7.56l-44,303.62A8.94,8.94,0,0,0,991,957.21Z" fill="#d3daff"/>
          </g>
          <path d="M961.24,1019.9l-194.64,5-.24-9.08A10.61,10.61,0,0,1,776.69,1005l173.44-4.47A10.6,10.6,0,0,1,961,1010.81Z" fill="#d3daff"/>
          <path d="M986.37,995h148.74a0,0,0,0,1,0,0v6.62a15.68,15.68,0,0,1-15.68,15.68H1002.05a15.68,15.68,0,0,1-15.68-15.68V995A0,0,0,0,1,986.37,995Z" transform="translate(2121.48 2012.28) rotate(180)" fill="#d3daff"/>
          <g>
            <rect x="1408.94" y="1055.23" width="45.76" height="679.79" rx="8.84" transform="translate(2863.64 2790.25) rotate(180)" fill="#8fa2ff"/>
            <rect x="702.7" y="1055.23" width="45.76" height="679.79" rx="8.84" transform="translate(1451.16 2790.25) rotate(180)" fill="#8fa2ff"/>
          </g>
          <rect x="653.65" y="1017.29" width="851.66" height="56.85" rx="8.01" transform="translate(2158.96 2091.43) rotate(180)" fill="#09093d"/>
          <rect x="725.58" y="1146.66" width="706.24" height="18.18" fill="#8fa2ff"/>
          <rect x="725.58" y="1204.05" width="706.24" height="18.18" fill="#8fa2ff"/>
        </g>
        <g>
          <g>
            <g>
              <path d="M1325.44,1242.47v143.84c-26.15-124.55-137.33-169.5-154.9-178.14-163.4-80.39-43.23-208.51,68-140.52C1308.3,1110.32,1325.44,1183.27,1325.44,1242.47Z" fill="#19197c"/>
              <path d="M1351.19,1122.39c-10.37,21.88-39.29,82.86-48.9,103.14,23.6-98.19-40.85-168.22-50.51-180.4-89.83-113.19,39.89-164.2,96.51-77.65C1383.83,1021.8,1371.31,1079.94,1351.19,1122.39Z" fill="#19197c"/>
              <path d="M1344.81,979c1,24.2,3.72,91.63,4.62,114.06,16.73-99.6,103.45-138.81,117.1-146.23,127-69,27.58-166.72-58.41-109.24C1354.16,873.66,1342.91,932.06,1344.81,979Z" fill="#19197c"/>
              <path d="M1322.3,1443.18c-1.51-8-2.46.19-2.46-8,0-67.88-49.26-161.28-179.69-182.72-147.49-24.24-202.36,159.89-11.85,178.62,18.42,1.81,115,1.64,194,69.44Z" fill="#19197c"/>
              <path d="M1322.3,1307.2c.9-4.79,1.47.12,1.47-4.79,0-40.81,29.61-97,108-109.84,88.66-14.57,121.64,96.11,7.12,107.37-11.07,1.09-69.16,1-116.61,41.75Z" fill="#19197c"/>
              <path d="M1329.07,1564V1148.81l-17.54,8.82s-1.6,28.09-1.6,61.21V1564Z" fill="#18186d"/>
              <path d="M1322.3,1476.13c1.33-7,2.16.17,2.16-7,0-59.84,43.43-142.18,158.4-161.07,130-21.38,178.39,140.94,10.45,157.45-16.24,1.6-101.42,1.45-171,61.22Z" fill="#18186d"/>
              <path d="M1312.11,1170.08c2.61,28.84,9.86,109.27,12.27,136,14.1-120,115.4-172,131.28-181.67,147.65-90,23.09-200.85-76.26-127.07C1317.05,1043.65,1307.06,1114.1,1312.11,1170.08Z" fill="#18186d"/>
            </g>
            <path d="M1375,1754.41a20,20,0,0,0,16.82-9.07c36.29-55.91,49.22-122,28.79-177.7a16.15,16.15,0,0,0-15.23-10.45h-174a16.17,16.17,0,0,0-15.24,10.45c-20.43,55.74-7.5,121.79,28.8,177.7a20,20,0,0,0,16.82,9.07Z" fill="#3a3aaf"/>
            <path d="M1391.8,1745.34a20.07,20.07,0,0,1-16.84,9.07h-113.2a20,20,0,0,1-16.81-9.07q-6-9.19-11.07-18.7a192.84,192.84,0,0,0,173.93-169.26,16,16,0,0,1,12.78,10.26C1441,1623.36,1428.09,1689.44,1391.8,1745.34Z" fill="#34329e"/>
          </g>
          <g>
            <path d="M1556.13,1356.92c-31.66-6.12-62.47-4.29-91.57,5.46-23.25,7.79-45.44,20.61-66,38.11a254.7,254.7,0,0,0-33.6,34.83,3,3,0,0,0,.53,4.29h0a3,3,0,0,0,4.28-.48,247.49,247.49,0,0,1,32.73-34c31.26-26.66,83.08-55.63,152.43-42.22a3,3,0,1,0,1.15-6Z" fill="#0e0e59"/>
            <path d="M1473,1017.52a3,3,0,0,0-3.67-2.23c-29.79,7.27-55.68,21.08-77,41-17,16-31.09,35.83-41.87,59.08a242.71,242.71,0,0,0-16.19,47.54,3.06,3.06,0,0,0,3,3.77h0a3,3,0,0,0,3-2.36,236.68,236.68,0,0,1,15.82-46.58c23.87-51.35,62.46-83.86,114.68-96.6A3,3,0,0,0,1473,1017.52Z" fill="#0e0e59"/>
            <path d="M1277.49,1407.12a3,3,0,0,1-2.67-1.6c-.18-.32-18-33-52-62-45.43-38.69-96.67-52.85-152.28-42.1a3,3,0,0,1-1.15-6c31.67-6.12,62.48-4.28,91.58,5.46,23.24,7.79,45.43,20.61,66,38.11,34.85,29.73,52.53,62.2,53.27,63.57a3,3,0,0,1-1.23,4.11A3.1,3.1,0,0,1,1277.49,1407.12Z" fill="#0e0e59"/>
            <path d="M1274.68,1166.91h0a3.05,3.05,0,0,0,2.71-4.46,194.82,194.82,0,0,0-13.64-22.28c-12.13-17.08-26.42-31-42.46-41.25-20.09-12.88-43-20.12-68-21.53a3,3,0,1,0-.34,6.06c43.52,2.44,79.1,22.65,105.75,60.07a186.22,186.22,0,0,1,13.3,21.76A3,3,0,0,0,1274.68,1166.91Z" fill="#0e0e59"/>
          </g>
        </g>
      </g>
    </g>
  </g>
</svg>
