<svg xmlns="http://www.w3.org/2000/svg" viewBox="0 0 2107.62 1650">
  <title>onboarding-g3</title>
  <g id="Layer_2" data-name="Layer 2">
    <g id="onboarding-graphic">
      <g>
        <g>
          <path d="M159.18,1442.05c22.2,75,60,136.4,120.75,182.11H1732.85c50.59-86.91,102.14-175.92,175.23-242.54,366.27-333.88,8.59-483.94-4.53-797.41-6.16-147.16-98.6-363.13-284.45-467.75C1371.21-23.08,1048.81-96,715.79,245.94c-61.14,62.78-204.15,99.3-284.14,116.67-92.58,20.09-168.08,51.12-254.24,132.85-164.42,156-180.68,371.21-49,583.86C189.64,1178.19,142.66,1386.3,159.18,1442.05Z" fill="#282a3e"/>
          <g>
            <g>
              <path d="M490.77,1616.86h25.47c-3-27.62-11.94-97.3-32-183.21-15.24-65.32-33.87-127.2-55.36-183.92-26.95-71.12-58.52-134.33-93.83-187.87-82.39-124.91-123-264.19-120.65-414a12.66,12.66,0,1,0-25.31-.39,760.35,760.35,0,0,0,23.82,202.3c20.58,79.55,54.56,155.6,101,226,77.78,117.93,122.15,262.82,145.67,363.6A1593.36,1593.36,0,0,1,490.77,1616.86Z" fill="#e4ebff"/>
              <path d="M467.57,1422.91c27.1-45.11,108.52-103,180.15-140.13,45-23.36,61.67-52.22,89.23-81.24,13.93-14.66,31.71-27.8,25.2,8.75-7.38,41.41-15.24,98.88-87.37,132.87-122.46,57.7-128.75,73.52-203,99.35Z" fill="#e4ebff"/>
              <path d="M454.13,1363.73c20.09-47,89.92-129,153.32-175.24,39.86-29.1,77.91-58.36,100.46-90.16,11.4-16.06,26.65-31.27,25,4.45-1.82,40.48-16.05,102.31-80.32,145.67-109.11,73.6-124.74,97.32-192.09,133.26Z" fill="#e4ebff"/>
              <path d="M413.12,1271c20.44-47.08,59.44-125.51,132.85-173.88,41.25-27.18,80.16-73.63,102.95-105.51,11.51-16.11,24.33-16.54,22.45,19.18-2.12,40.47-12,91.92-78.86,131.12-112.36,65.86-105.58,99.74-173.22,135.95Z" fill="#e4ebff"/>
              <path d="M381.1,1167.32c18.28-48.14,47.59-109.48,106.44-153.19C530,982.62,567.67,932.2,589.25,898c10.9-17.27,26.14-34.12,28,1.6,2.12,40.47-4.27,107.74-73.55,154-105.73,70.55-120.79,95.47-155.84,147.28Z" fill="#e4ebff"/>
              <path d="M476.09,1425.24c-49.19-14-123.08-17.8-202.08,6.74-49.66,15.43-110.53,20.56-150.07,19-20-.81-42,2.35-14.23,25,31.51,25.66,87.65,54.82,165.06,27.54C406.19,1457.16,411,1478,485,1443Z" fill="#e4ebff"/>
              <path d="M451,1351.87c-45.39-19.31-128.33-23.61-206.26-9.78-49,8.69-107.58,6.21-145.1-.1-19-3.19-40.32-2.85-16.24,22.11,27.29,28.28,77.69,62.88,154.41,46.24,130.25-28.24,145.49-16.07,219.81-40.46Z" fill="#e4ebff"/>
              <path d="M427.8,1265c-46.21-17-126.78-41.27-212.19-17.08-48,13.59-107.16,11.74-144.94,7.36-19.08-2.21-40.39-.77-15.2,22.93,28.53,26.84,81.77,63.7,156.32,38.24,125.29-42.79,143-13.53,216.12-41.71Z" fill="#e4ebff"/>
              <path d="M378,1164.43c-46.48-14.37-109.12-27.87-175.23-7.16C155.08,1172.19,95.89,1172,58,1168.64,38.89,1167,17.62,1169,43.38,1192c29.19,26,83.31,61.42,157.22,33.9,112.78-42,140-39,198.74-35.85Z" fill="#e4ebff"/>
              <path d="M342.08,1088.3c11.82-47.48,32.59-108.63,83.19-156.48,36.47-34.49,66.38-86.29,82.89-121,8.35-17.51,20.83-35.12,26.61-1.64,6.55,37.94,8.08,102.12-52.08,153.51-91.81,78.44-103.22,103.64-130.46,156.45Z" fill="#e4ebff"/>
              <path d="M302.1,1031.53c2.1-45.45-1.19-117.63,57.5-172.57,36.64-34.3,78-73.7,94.5-108.37,8.34-17.51,20.82-35.12,26.6-1.63,6.55,37.93-3.52,89.53-63.68,140.93C325.21,968.32,341,1000.22,313.71,1053Z" fill="#e4ebff"/>
              <path d="M331.9,1089.77c-44.67-20-105.62-41.31-174.49-31-49.64,7.45-83.86-3-121.33-11.42-18.94-4.23-40.5-5.26-17.69,19.94,25.83,28.54,66.86,59.72,144.42,44,118.35-23.93,128.78-5.67,187.16,5.44Z" fill="#e4ebff"/>
              <path d="M302.41,1025.89c-33.78-30.49-82.76-83.61-163.09-80.56-50.16,1.9-75.3-.39-111.55-13.05C9.45,925.89-11.84,922.37,7.89,950c22.35,31.34,50.07,59.6,128.92,53,120.33-10,116,28.42,172.71,46.22Z" fill="#e4ebff"/>
              <path d="M257.47,933.74c1.81-39-1-100.86,49.31-148,31.41-29.41,66.86-63.19,81-92.91,7.15-15,17.85-30.11,22.8-1.41,5.62,32.53-3,76.77-54.59,120.83-78.72,67.25-65.22,94.6-88.58,139.88Z" fill="#e4ebff"/>
              <path d="M218.87,848.69c1.52-33-.86-85.45,41.77-125.36,26.61-24.92,56.64-53.54,68.64-78.72,6.06-12.72,15.12-25.51,19.32-1.18,4.76,27.55-2.55,65-46.25,102.36-66.69,57-55.26,80.15-75.05,118.51Z" fill="#e4ebff"/>
              <path d="M267.57,951.85c-20.63-33.1-48.46-88.45-115.39-104.91C110.39,836.66,63,824.54,36.07,805.55,22.48,796,5.76,788,15.49,815.48c11,31.12,40.19,65.47,106.73,78.67,101.55,20.13,103.16,50.59,145.69,78.65Z" fill="#e4ebff"/>
              <path d="M228.83,841.71c-14.19-29.85-32.29-79.12-87-99.4-34.19-12.67-73-27.43-93.77-46-10.52-9.38-23.83-17.66-18.28,6.39C36,730,57.28,761.67,112,779.17c83.54,26.71,82,52.5,115.07,80.21Z" fill="#e4ebff"/>
              <path d="M199.9,750.25c1.38-29.83-.78-77.2,37.74-113.26,24.05-22.51,51.18-48.37,62-71.11,5.48-11.5,13.67-23,17.46-1.08,4.3,24.9-2.31,58.76-41.79,92.49-60.25,51.47-49.92,72.41-67.8,107.07Z" fill="#e4ebff"/>
              <path d="M207.37,735.81c-7.63-28.87-15.49-75.64-60.73-102.77-28.25-16.95-45.51-32-55.55-60.51-4.24-12-12.17-14.13-14.82,1.21-4.3,24.9-7.9,62.41,37.8,87.07,69.74,37.64,64,60.28,88.82,90.4Z" fill="#e4ebff"/>
              <path d="M190.59,693.75c-.77-40.82-8.34-89.46,10.81-120.9,17.13-28.14,34.2-61.56,37.67-86.52,1.75-12.61,6.07-26.1,16.32-6.29,11.61,22.44,15.52,56.71-11.94,100.79-41.92,67.25-25.75,84.09-32.34,122.53Z" fill="#e4ebff"/>
              <path d="M199.9,584.35c-7.49-30.69-21.42-66.14-12.28-93.12,8.18-24.15,15.42-52.27,13.82-71.7-.8-9.82.18-20.73,11.27-7.51,12.55,15,21.3,40.21,8,78.12-20.28,57.87-5.23,67.86-3.7,98Z" fill="#e4ebff"/>
              <path d="M146,459.39c8-19,12.95-6.87,15.47,4.61,5,22.73,15.38,53.38,32.3,78.65,24.81,37.08,17,75.55,11.62,102.59l-16.47,5.39c-3.26-32.21,8.75-46.54-29.46-98.38C131,513.66,136.94,480.87,146,459.39Z" fill="#e4ebff"/>
            </g>
            <g>
              <path d="M493.69,1104c-5.3,62.89-2.81,132.36,7.4,206.5,4.21,30.54,9.72,61.92,16.5,93.88,4.92,23.23,8.82,142.44,14.3,208.91h24.82c-5.41-64-9.77-190.41-15.42-217.52-18.09-86.74-31.16-190.16-22.78-289.68,7-82.7.52-164.4-19.17-242.82a748.14,748.14,0,0,0-74.67-186A12.46,12.46,0,0,0,403,689.57C475.53,817.88,506,957.33,493.69,1104Z" fill="#becdea"/>
              <path d="M531.56,1403.71c-41.34-30.14-146.67-64.55-229.08-71.51-51.8-4.37-110.61-21.88-147.14-37.6-18.46-7.94-40.2-13.13-21.84,16.89,20.8,34,63.52,80,145.37,84,139,6.74,173.72,31.14,255,27.1Z" fill="#becdea"/>
              <path d="M523.41,1326.32c-39.56-32.46-110.32-84.2-202.42-92.94-51.75-4.92-109.19-28.15-144.76-45.93-18-9-39.38-15.4-22.76,15.62,18.83,35.15,58.47,88.52,140.35,92.15,137.59,6.09,145,39.53,226.37,40.12Z" fill="#becdea"/>
              <path d="M503.56,1216.85c-38.46-33-92.67-72.18-164.1-82.24-51.48-7.24-107.8-33-142.54-52.41-17.55-9.78-38.65-17.16-23.44,14.58,17.22,36,54.42,91.07,136,98.39,124.57,11.16,149.32,25.6,204,53.85Z" fill="#becdea"/>
              <path d="M532,1408.17c32.62-39.43,126.19-98.78,204.33-125.87,49.12-17,101.79-48.51,133.3-72.77,15.93-12.25,35.71-22.65,25.33,11-11.75,38.1-41.78,93.23-120.12,117.29-133,40.85-160.66,73.08-240.44,89.24Z" fill="#becdea"/>
              <path d="M512.38,1321.54c34.49-37.8,97.08-99.18,187-121.06,50.51-12.29,104-43.53,136.66-66.23,16.5-11.48,36.77-20.91,24.77,12.18-13.58,37.49-45.15,96-125.66,111.35-135.29,25.79-137.78,59.94-218.26,72.22Z" fill="#becdea"/>
              <path d="M510.81,1209.66c35.95-35.71,87.17-78.74,157.67-94,50.82-11,105.11-40.82,138.34-62.66,16.79-11,37.3-19.94,24.45,12.83-14.56,37.12-47.64,94.79-128.52,108-123.42,20.21-147.06,36.41-199.53,68.57Z" fill="#becdea"/>
              <path d="M500.06,1130.19c-32.57-35.44-79.31-78.5-145.55-96-47.75-12.62-98-43.29-128.58-65.46-15.45-11.2-34.53-20.54-23.75,11.11,12.21,35.86,41.1,92,117.28,108.1,116.25,24.54,138,40.93,186.39,73.74Z" fill="#becdea"/>
              <path d="M507.88,1062.33c-23.22-38.29-54.38-102.19-130.95-122-47.81-12.38-102.08-27-132.67-49.13-15.46-11.2-34.53-20.54-23.75,11.12,12.2,35.86,45.2,75.69,121.38,91.76,116.25,24.54,117.67,59.51,166.08,92.31Z" fill="#becdea"/>
              <path d="M509.55,1126.67c29.2-38.27,71.8-85.43,136.17-108.92,46.39-16.94,93.61-52.07,122-77,14.37-12.57,32.51-23.61,24.68,8.9-8.88,36.82-32.52,95.39-106.9,118.37-113.53,35.06-133.66,53.38-178.86,90.47Z" fill="#becdea"/>
              <path d="M505,1057.6c14.82-42.25,32.12-111.21,103-146.4,44.23-22,94.33-47.43,119.69-75.43,12.81-14.15,29.55-27.22,25.54,6-4.55,37.61-28.62,83.39-99.85,114.83-108.69,48-102.87,82.49-143.47,124.57Z" fill="#becdea"/>
              <path d="M500.38,956.82C480.47,924,453.76,869.21,388.11,852.21c-41-10.61-87.52-23.11-113.75-42.12-13.25-9.61-29.61-17.61-20.37,9.53,10.47,30.74,38.76,64.9,104.07,78.68,99.67,21,100.89,51,142.39,79.14Z" fill="#becdea"/>
              <path d="M493.68,865.16c-16.87-27.81-39.49-74.23-95.11-88.63-34.74-9-74.16-19.58-96.38-35.68-11.23-8.14-25.08-14.92-17.25,8.07,8.86,26.05,32.83,55,88.17,66.66,84.44,17.82,85.47,43.22,120.64,67Z" fill="#becdea"/>
              <path d="M500.18,977.23c2.24-38.32.22-99.25,50.29-145,31.26-28.56,66.54-61.37,80.83-90.44,7.22-14.69,17.93-29.41,22.46-1.11,5.13,32.07-3.9,75.49-55.17,118.23-78.26,65.21-65.31,92.28-88.83,136.55Z" fill="#becdea"/>
              <path d="M481.78,863.83c-1.79-32.47-9.35-83.56,28.4-126.87,23.58-27,50.12-58.05,59.35-83.9,4.67-13.06,12.27-26.48,18.8-3.09,7.4,26.51,4,63.92-35.08,104.82-59.6,62.42-46.1,84-61.65,123.49Z" fill="#becdea"/>
              <path d="M463.71,771.18c-15.24-25.12-35.68-67.06-85.93-80.07-31.38-8.13-67-17.69-87.07-32.24-10.15-7.35-22.66-13.48-15.59,7.29,8,23.54,29.66,49.68,79.66,60.23,76.29,16.1,77.22,39.05,109,60.57Z" fill="#becdea"/>
              <path d="M450.46,762.23c-7-28.54-22.23-72.64,4.07-117.39C471,616.9,478.77,595.75,474,566.4c-2-12.37,3.86-17.94,13.38-5.93,15.43,19.49,36.21,50.2,8.34,93-42.53,65.35-26.95,82.23-34.17,119.92Z" fill="#becdea"/>
              <path d="M445.15,718c-18.55-35.63-34.92-81.21-66.27-99.37-28.05-16.24-58.53-37.08-73.28-57-7.46-10.07-17.54-19.68-17.07,2.25.54,24.86,13.3,56.31,57.78,81.46C414.19,683.68,408.15,705.85,432,736Z" fill="#becdea"/>
              <path d="M385.59,627.85c-8-30-12.64-67.22-33.24-86.23-18.44-17-37.94-37.89-45.71-55.43-3.92-8.87-9.91-17.83-13.26-1.19-3.8,18.86.52,44.77,29.86,71.27,44.77,40.45,36.47,56.16,49.35,82.92Z" fill="#becdea"/>
              <path d="M373.3,494.52c-15.85-12.62-14.42.17-11.19,11.28,6.39,22,11.84,53.35,9.13,83.15-4,43.72,20.92,73.26,38.27,94.1l16.76-3.1c-12.35-29.36-29.47-36.08-20.87-98.86C411.8,534.36,391.26,508.81,373.3,494.52Z" fill="#becdea"/>
            </g>
          </g>
          <g>
            <path d="M1494.07,1281a1277.11,1277.11,0,0,1-3,155.64c-6.73,85.2-19.56,149.67-23,166.1h22.77c4.57-22.43,16.2-84.59,22.49-164.35a1294.58,1294.58,0,0,0,3.22-157.39Z" fill="#e4ebff"/>
            <g>
              <path d="M1528.08,1213.45q3.84-14.07,7.25-28c16-65,24.59-126.67,25.7-183.14,2.57-131.75,42.64-253.07,119.09-360.58A11.15,11.15,0,0,0,1662,628.86a670,670,0,0,0-83.69,158.67c-24.77,68-38.07,140.12-39.53,214.39-1.41,72.53-15.65,146-33.86,211.53Z" fill="#e4ebff"/>
              <path d="M1513.28,1193.06c38.33-24,105.78-61.4,183.18-59.85,43.49.87,94.91-13.41,127.36-25.17,16.39-5.93,25.9.15,6.72,25.13-21.74,28.31-54.59,60.71-122.66,55.77-114.4-8.3-126.4,19.66-193.55,12.17Z" fill="#e4ebff"/>
              <path d="M1541.8,1101.86c37.29-25.81,89.18-55.68,153.69-58,46.5-1.68,99-19.44,131.74-33.46,16.53-7.09,36-11.71,19.53,15.14-18.67,30.42-56.88,76-130.22,75-111.93-1.59-135.29,9-186.59,29.07Z" fill="#e4ebff"/>
              <path d="M1526.91,1196.07c-25.07-35.38-71.39-93.24-145.43-118.32-41.61-14.09-83.61-45-108.83-67-12.74-11.13-28.92-20.72-22.48,9,7.31,33.73,27.54,87,94.34,105.78,112.26,31.49,110.5,61.56,177.62,77.61Z" fill="#e4ebff"/>
              <path d="M1541,1098.2c-26.55-33.64-65.26-74.69-123.56-92.67-42-13-84.85-42.66-110.66-64-13-10.77-29.49-19.92-22.28,9.62,8.18,33.47,29.79,86.14,97.15,103.07,102.78,25.82,121.06,41.56,162.08,73.19Z" fill="#e4ebff"/>
              <path d="M1552.93,1025.05c32.28-28.54,77.87-62.55,138.46-72,43.68-6.82,91.23-29.47,120.52-46.37,14.79-8.55,32.63-15.09,20.11,12.09-14.18,30.79-45.1,78.12-114.4,85.38-105.76,11.08-126.62,23.67-172.75,48.39Z" fill="#e4ebff"/>
              <path d="M1552.25,963.91c24.22-31.93,57.86-85.94,127.86-96.51,43.71-6.59,93.37-14.55,122.65-31.45,14.8-8.55,32.64-15.09,20.12,12.09-14.18,30.79-47.24,63.2-116.54,70.46-105.76,11.08-110.26,42.08-156.39,66.8Z" fill="#e4ebff"/>
              <path d="M1544.81,1021c-22.45-36.77-56-82.69-111.14-109.56-39.74-19.37-59.32-44.07-82.33-68.85-11.63-12.52-26.76-24-22.79,5.64,4.49,33.6,18.7,76.7,82.8,104,97.81,41.72,96.26,60.17,133.07,97.37Z" fill="#e4ebff"/>
              <path d="M1555.3,960c-9.29-39-18.31-102-78.11-139.85-37.35-23.66-54.44-37.87-74.43-65.15-10.1-13.78-23.79-27-23.28,3,.57,33.9,6.57,68.23,67.07,102.81,92.32,52.77,70,78.52,102.23,119.74Z" fill="#e4ebff"/>
              <path d="M1568.69,870.68c20.76-27.37,49.61-73.68,109.62-82.74,37.48-5.66,80.06-12.47,105.16-27,12.69-7.32,28-12.94,17.25,10.37-12.16,26.4-40.5,54.18-99.92,60.41-90.68,9.5-94.53,36.08-134.08,57.28Z" fill="#e4ebff"/>
              <path d="M1583.13,789.7c17.59-23.19,42-62.42,92.88-70.1,31.75-4.79,67.82-10.57,89.09-22.85,10.75-6.2,23.71-11,14.62,8.78-10.31,22.37-34.32,45.91-84.66,51.19-76.82,8-80.09,30.57-113.6,48.52Z" fill="#e4ebff"/>
              <path d="M1567,888.86c1.55-34.32,9-88.36-31.35-133.71-25.19-28.32-53.56-60.79-63.59-88-5.07-13.75-13.24-27.85-19.89-3.07-7.54,28.08-3.52,67.56,38.17,110.35,63.63,65.3,49.6,88.2,66.44,129.79Z" fill="#e4ebff"/>
              <path d="M1593.85,789.62c4.6-28.74,16.06-73.52-13.54-115.57-18.49-26.26-39.25-56.32-45.07-80.18-3-12.06-8.47-24.71-16.45-4.49-9,22.91-9.46,56.53,21.53,96.56,47.28,61.08,33.27,79,43.45,115.63Z" fill="#e4ebff"/>
              <path d="M1618.51,708.81c15.89-20.95,38-56.4,83.91-63.33,28.69-4.33,61.28-9.55,80.49-20.64,9.71-5.61,21.42-9.91,13.21,7.93-9.31,20.21-31,41.48-76.49,46.24-69.41,7.28-72.36,27.62-102.63,43.85Z" fill="#e4ebff"/>
              <path d="M1631.14,702.07c8.87-24.76,26.51-62.61,7.23-104.88-12-26.4-17-46-10.1-71.63,2.92-10.83-1.78-16.33-11.36-6.52-15.54,15.92-36.88,41.34-16,82,31.81,62.12,16.38,75.7,19.32,109.92Z" fill="#e4ebff"/>
              <path d="M1640,663.18c19.82-30,38.61-69.07,68.19-82.33,26.48-11.86,55.54-27.59,70.52-44,7.57-8.27,17.43-15.9,15,3.58-2.78,22.08-17.05,48.9-59,67.17-64,27.87-60.66,48.16-84.62,72.76Z" fill="#e4ebff"/>
              <path d="M1701.31,588.45c9.89-26,17.48-58.68,37.58-73.69,18-13.44,37.28-30.22,45.81-45.12,4.32-7.53,10.48-15,11.92.17,1.64,17.14-4.6,39.81-33.17,60.68-43.6,31.86-37.67,46.62-51.6,69.25Z" fill="#e4ebff"/>
              <path d="M1724.6,470.89c15.27-9.77,12.82,1.48,8.92,11.07-7.72,19-15.49,46.41-15.83,73.19-.5,39.28-25.4,63.27-42.77,80.23l-14.64-4.32c13.71-25,29.58-29.39,27.73-86.08C1686.63,502.79,1707.29,482,1724.6,470.89Z" fill="#e4ebff"/>
            </g>
            <g>
              <path d="M1912.13,681a12.4,12.4,0,0,0-13.5,11.19c-13.74,146.09-68.15,277.38-161.72,390.21-40.11,48.36-77.6,106.54-111.44,172.91-27,52.94-51.74,111.2-73.56,173.17a1584.79,1584.79,0,0,0-50.58,174.27h25.43a1567.38,1567.38,0,0,1,48.54-166c33.67-95.62,92.36-232,180.7-338.49,52.75-63.6,94-134,122.51-209.28a745.26,745.26,0,0,0,44.81-194.44A12.41,12.41,0,0,0,1912.13,681Z" fill="#becdea"/>
              <path d="M1564,1419.21c-24.37-47.13-106.12-127.87-179.33-172.52-46-28.08-92.46-71.57-119.06-103.09-13.44-15.92-31.19-30.82-28.08,5.54,3.52,41.2,21.81,103.68,95.9,145.31,125.78,70.66,146.7,109.41,224,143.35Z" fill="#becdea"/>
              <path d="M1597.35,1348.75c-16.62-48.16-83.1-136.19-146.46-188.76-39.83-33-77.92-80.81-98.82-114.44-10.56-17-25.36-33.61-27.45,1.37-2.36,39.63,6.36,101.52,71,151.34,109.7,84.57,124.21,124.28,192.93,167.24Z" fill="#becdea"/>
              <path d="M1634.73,1280.88c-13.86-49-42.22-131.56-112.49-191.1-39.48-33.46-73.19-85.12-92.13-119.88-9.58-17.57-23.41-35-27.49-.19-4.61,39.42-2.59,105.58,62.24,155.13,108.94,83.26,95.93,114.77,162.1,161.58Z" fill="#becdea"/>
              <path d="M1680.8,1180.15c-12.65-48.83-34.64-111.69-87.28-160.54-37.93-35.22-69.27-88.34-86.63-123.92-8.77-18-21.8-36-27.44-1.44-6.39,39.18-7.36,105.37,55.16,157.79,95.42,80,107.42,105.87,136,160.07Z" fill="#becdea"/>
              <path d="M1561.3,1421.2c52.44-8,165.84,10.48,245,43.35,49.79,20.67,112.29,32.58,153.42,35.52,20.79,1.48,43.28,7.06,12.06,26-35.37,21.41-96.63,43.42-173.91,8-131.18-60-174.82-54.13-247.76-96.6Z" fill="#becdea"/>
              <path d="M1595.16,1352.62c49.08-13.65,159.29-8.89,238.54,13.43,49.82,14,110.76,18.28,150.31,16.4,20-1,42.06,1.81,14.45,23.38-31.29,24.43-87.19,52.39-164.88,27.47-131.89-42.3-172.82-31.7-247.2-63.9Z" fill="#becdea"/>
              <path d="M1628.43,1270.69c49.69-11.25,135.74-25.78,221.63,7.49,48.26,18.69,109.74,23.61,149.33,23.65,20,0,41.93,3.84,13.31,24-32.43,22.9-91.52,52.74-166,19.47-125.2-55.91-146.67-29.42-219.4-65.18Z" fill="#becdea"/>
              <path d="M1690.81,1178.4c49.69-8.71,116-14.73,182.27,12.94,47.77,20,109.1,26.46,148.67,27.53,20,.53,41.82,4.93,12.68,24.38-33,22-92.86,50.34-166.47,15.15-112.33-53.72-140.85-53.93-202-57.51Z" fill="#becdea"/>
              <path d="M1727.24,1107.37c-6.44-47.49-20.12-109.26-64.28-161.26-31.83-37.48-55.42-91.11-67.8-126.63-6.25-18-16.52-36.42-25.73-4.43-10.43,36.24-18.78,98.56,34.31,155,81,86.18,89.44,111.94,110.32,166.28Z" fill="#becdea"/>
              <path d="M1772.24,1056.37c2.81-44.48,13.72-114.42-37.55-174.18-32-37.32-68.06-80.11-80.44-115.62-6.25-18-16.52-36.43-25.73-4.44-10.43,36.24-6.14,87.56,47,144,81,86.19,62.28,115.56,83.16,169.9Z" fill="#becdea"/>
              <path d="M1737,1109.89c45.63-14.66,107.26-28.94,173.21-11.51,47.54,12.56,106.11,10.72,143.49,6.58,18.89-2.1,40-.8,15.1,21.3-28.21,25-80.84,59.44-154.69,35.89-112.69-36-139.56-32.44-197.59-27.86Z" fill="#becdea"/>
              <path d="M1772.54,1050.84c36.15-26.08,89.52-72.57,167.41-61,48.64,7.22,104,14.92,140.7,6.48,18.52-4.27,39.63-5.43,17.46,19.41-25.11,28.13-70.82,51.84-146.9,37-116.1-22.65-131,8.86-188.09,20.14Z" fill="#becdea"/>
              <path d="M1826.14,965.91c2.41-38.14,11.77-98.1-32.2-149.34-27.45-32-58.35-68.68-69-99.13-5.36-15.39-14.17-31.23-22.06-3.8-8.94,31.07-5.26,75.07,40.25,123.49,69.46,73.89,53.4,99.08,71.3,145.67Z" fill="#becdea"/>
              <path d="M1872.82,887.22c2-32.31,10-83.12-27.27-126.53-23.26-27.1-49.44-58.18-58.43-84-4.55-13-12-26.46-18.69-3.23-7.58,26.33-4.46,63.6,34.1,104.63,58.85,62.6,45.24,83.94,60.41,123.41Z" fill="#becdea"/>
              <path d="M1814.37,982.47c23.63-30,56.64-81,123.57-89.83,41.79-5.54,89.28-12.28,117.49-27.9,14.26-7.89,31.38-13.83,19,11.88-14,29.12-46.13,59.45-112.34,65.19-101,8.76-105.85,38.24-150.26,61Z" fill="#becdea"/>
              <path d="M1863.86,879.36c17-27.55,39.9-73.59,95.39-87.49,34.64-8.68,74-18.91,96.22-34.77,11.24-8,25.08-14.66,17.11,8.17-9,25.86-33.12,54.48-88.29,65.67-84.21,17.08-85.44,42.36-120.63,65.81Z" fill="#becdea"/>
              <path d="M1901.81,793.39c1.84-29.19,9-75.09-24.64-114.31-21-24.49-44.67-52.57-52.79-75.88-4.11-11.78-10.85-23.9-16.89-2.91-6.84,23.78-4,57.46,30.81,94.52,53.17,56.56,40.87,75.84,54.58,111.51Z" fill="#becdea"/>
              <path d="M1896.08,778.53c10.51-27.29,23.17-72,70.12-93.58,29.32-13.48,47.73-26.32,60.56-53,5.4-11.24,13.36-12.47,14.3,2.76,1.52,24.71,1,61.61-46.12,80.74-71.92,29.2-68.8,51.85-96.14,78.54Z" fill="#becdea"/>
              <path d="M1916.91,739.37c5.12-39.66,17.68-86.21,2.4-118.88-13.67-29.23-26.72-63.6-27.44-88.27-.36-12.47-3.12-26.06-15.22-7.87-13.7,20.61-21.17,53.57.86,99.41,33.63,70,16.09,84.64,18.39,122.78Z" fill="#becdea"/>
              <path d="M1919.54,631.85c10.57-29.09,27.92-62.12,21.9-89.37-5.38-24.38-9.43-52.53-5.79-71.28,1.83-9.48,2-20.21-10.17-8.52-13.83,13.25-25,36.87-16.15,75.21,13.56,58.52-2.16,66.63-6.86,95.82Z" fill="#becdea"/>
              <path d="M1985.36,515.93c-5.77-19.33-11.88-8.07-15.56,2.84-7.29,21.59-20.68,50.33-39.85,73.13-28.13,33.45-24.59,71.75-22.28,98.65l15.46,7c6.62-31-3.55-46.25,39.2-92.65C1994.15,570.38,1991.9,537.82,1985.36,515.93Z" fill="#becdea"/>
            </g>
          </g>
          <ellipse cx="984.64" cy="1619.46" rx="779.64" ry="30.54" fill="#242459"/>
        </g>
        <g>
          <path d="M498.35,397v715.75a89,89,0,0,0,89,89h875.21a89,89,0,0,0,89-89V397Z" fill="#fff"/>
          <path d="M587.33,224.14h875.21a89,89,0,0,1,89,89V430.21a0,0,0,0,1,0,0H498.35a0,0,0,0,1,0,0V313.11A89,89,0,0,1,587.33,224.14Z" fill="#4b4be0"/>
          <g>
            <g>
              <rect x="615.09" y="477.29" width="106.35" height="106.35" rx="19.4" fill="#e9f2ff"/>
              <rect x="757.76" y="477.29" width="106.35" height="106.35" rx="19.4" fill="#e9f2ff"/>
              <rect x="900.42" y="477.29" width="106.35" height="106.35" rx="19.4" fill="#e9f2ff"/>
              <rect x="1043.09" y="477.29" width="106.35" height="106.35" rx="19.4" fill="#e9f2ff"/>
              <rect x="1185.75" y="477.29" width="106.35" height="106.35" rx="19.4" fill="#a4c7ff"/>
              <path d="M1347.82,477.29h67.54a19.4,19.4,0,0,1,19.4,19.4v67.54a19.4,19.4,0,0,1-19.4,19.4h-67.54a19.41,19.41,0,0,1-19.41-19.41V496.7A19.4,19.4,0,0,1,1347.82,477.29Z" fill="#a4c7ff"/>
            </g>
            <g>
              <path d="M634.5,618.38H702a19.41,19.41,0,0,1,19.41,19.41v67.54a19.4,19.4,0,0,1-19.4,19.4H634.5a19.4,19.4,0,0,1-19.4-19.4V637.78A19.4,19.4,0,0,1,634.5,618.38Z" fill="#a4c7ff"/>
              <rect x="757.76" y="618.38" width="106.35" height="106.35" rx="19.4" fill="#a4c7ff"/>
              <rect x="900.42" y="618.38" width="106.35" height="106.35" rx="19.4" fill="#4b4be0"/>
              <rect x="1043.09" y="618.38" width="106.35" height="106.35" rx="19.4" fill="#a4c7ff"/>
              <rect x="1185.75" y="618.38" width="106.35" height="106.35" rx="19.4" fill="#a4c7ff"/>
              <path d="M1347.82,618.38h67.54a19.4,19.4,0,0,1,19.4,19.4v67.54a19.4,19.4,0,0,1-19.4,19.4h-67.54a19.41,19.41,0,0,1-19.41-19.41V637.78A19.41,19.41,0,0,1,1347.82,618.38Z" fill="#a4c7ff"/>
            </g>
            <g>
              <rect x="615.09" y="759.46" width="106.35" height="106.35" rx="19.4" fill="#a4c7ff"/>
              <rect x="757.76" y="759.46" width="106.35" height="106.35" rx="19.4" fill="#a4c7ff"/>
              <rect x="900.42" y="759.46" width="106.35" height="106.35" rx="19.4" fill="#a4c7ff"/>
              <rect x="1043.09" y="759.46" width="106.35" height="106.35" rx="19.4" fill="#a4c7ff"/>
              <rect x="1185.75" y="759.46" width="106.35" height="106.35" rx="19.4" fill="#a4c7ff"/>
              <path d="M1347.82,759.46h67.54a19.4,19.4,0,0,1,19.4,19.4v67.54a19.4,19.4,0,0,1-19.4,19.4h-67.54a19.41,19.41,0,0,1-19.41-19.41V778.86A19.4,19.4,0,0,1,1347.82,759.46Z" fill="#a4c7ff"/>
            </g>
            <g>
              <rect x="615.09" y="900.54" width="106.35" height="106.35" rx="19.4" fill="#a4c7ff"/>
              <rect x="757.76" y="900.54" width="106.35" height="106.35" rx="19.4" fill="#a4c7ff"/>
              <rect x="900.42" y="900.54" width="106.35" height="106.35" rx="19.4" fill="#a4c7ff"/>
              <rect x="1043.09" y="900.54" width="106.35" height="106.35" rx="19.4" fill="#a4c7ff"/>
              <rect x="1185.75" y="900.54" width="106.35" height="106.35" rx="19.4" fill="#a4c7ff"/>
              <path d="M1347.82,900.54h67.54a19.4,19.4,0,0,1,19.4,19.4v67.54a19.4,19.4,0,0,1-19.4,19.4h-67.54a19.41,19.41,0,0,1-19.41-19.41V919.95A19.41,19.41,0,0,1,1347.82,900.54Z" fill="#a4c7ff"/>
            </g>
            <g>
              <rect x="615.09" y="1041.63" width="106.35" height="106.35" rx="19.4" fill="#a4c7ff"/>
              <rect x="757.76" y="1041.63" width="106.35" height="106.35" rx="19.4" fill="#a4c7ff"/>
              <rect x="900.42" y="1041.63" width="106.35" height="106.35" rx="19.4" fill="#a4c7ff"/>
              <rect x="1043.09" y="1041.63" width="106.35" height="106.35" rx="19.4" fill="#e9f2ff"/>
              <rect x="1185.75" y="1041.63" width="106.35" height="106.35" rx="19.4" fill="#e9f2ff"/>
              <path d="M1347.82,1041.63h67.54a19.4,19.4,0,0,1,19.4,19.4v67.54a19.4,19.4,0,0,1-19.4,19.4h-67.54a19.41,19.41,0,0,1-19.41-19.41V1061A19.4,19.4,0,0,1,1347.82,1041.63Z" fill="#e9f2ff"/>
            </g>
          </g>
          <g>
            <g>
              <path d="M680.56,333.08h0a33.42,33.42,0,0,1-33.42-33.42V209.93a33.42,33.42,0,0,1,33.42-33.42h0A33.41,33.41,0,0,1,714,209.93v89.73A33.41,33.41,0,0,1,680.56,333.08Z" fill="#d7e2ff"/>
              <rect x="750.29" y="176.51" width="66.83" height="156.57" rx="33.42" fill="#d7e2ff"/>
              <path d="M886.85,333.08h0a33.42,33.42,0,0,1-33.42-33.42V209.93a33.42,33.42,0,0,1,33.42-33.42h0a33.42,33.42,0,0,1,33.42,33.42v89.73A33.42,33.42,0,0,1,886.85,333.08Z" fill="#d7e2ff"/>
            </g>
            <g>
              <path d="M1163,333.08h0a33.42,33.42,0,0,1-33.42-33.42V209.93A33.42,33.42,0,0,1,1163,176.51h0a33.42,33.42,0,0,1,33.42,33.42v89.73A33.42,33.42,0,0,1,1163,333.08Z" fill="#d7e2ff"/>
              <rect x="1232.74" y="176.51" width="66.83" height="156.57" rx="33.42" fill="#d7e2ff"/>
              <path d="M1369.3,333.08h0a33.41,33.41,0,0,1-33.41-33.42V209.93a33.41,33.41,0,0,1,33.41-33.42h0a33.42,33.42,0,0,1,33.42,33.42v89.73A33.42,33.42,0,0,1,1369.3,333.08Z" fill="#d7e2ff"/>
            </g>
          </g>
          <g>
            <path d="M1430.8,268.07c-147.29,0-267.33,119.85-267.33,267.33s120,267.42,267.33,267.42c147.58,0,267.51-119.94,267.51-267.42S1578.38,268.07,1430.8,268.07Z" fill="#18183f"/>
            <path d="M1430.81,306.89c-125.9,0-228.51,102.44-228.51,228.51S1304.91,764,1430.81,764c126.15,0,228.68-102.52,228.68-228.6S1557,306.89,1430.81,306.89Z" fill="#fff"/>
            <path d="M1430.89,514.27a21.18,21.18,0,1,0,21.18,21.17A21.2,21.2,0,0,0,1430.89,514.27Z" fill="#65658e"/>
            <path d="M1430.9,545.74a10.29,10.29,0,0,1-4.05-19.76l125.35-53.57a10.29,10.29,0,0,1,8.08,18.93l-125.34,53.57A10.33,10.33,0,0,1,1430.9,545.74Z" fill="#65658e"/>
            <path d="M1430.9,544.59a9.15,9.15,0,0,1-8-4.66l-92.24-163.7a9.14,9.14,0,1,1,15.93-9L1438.86,531a9.15,9.15,0,0,1-8,13.64Z" fill="#65658e"/>
            <g>
              <path d="M1430.89,361.1a7.43,7.43,0,0,1-7.43-7.43V329.09a7.43,7.43,0,1,1,14.86,0v24.58A7.43,7.43,0,0,1,1430.89,361.1Z" fill="#65658e"/>
              <path d="M1430.89,749.23a7.43,7.43,0,0,1-7.43-7.43V716.08a7.43,7.43,0,1,1,14.86,0V741.8A7.43,7.43,0,0,1,1430.89,749.23Z" fill="#65658e"/>
            </g>
            <g>
              <path d="M1605.24,535.44a7.43,7.43,0,0,1,7.43-7.43h24.58a7.44,7.44,0,0,1,0,14.87h-24.58A7.43,7.43,0,0,1,1605.24,535.44Z" fill="#65658e"/>
              <path d="M1217.11,535.44a7.43,7.43,0,0,1,7.43-7.43h25.72a7.44,7.44,0,0,1,0,14.87h-25.72A7.43,7.43,0,0,1,1217.11,535.44Z" fill="#65658e"/>
            </g>
          </g>
        </g>
        <g>
          <g>
            <g>
              <path d="M1312.43,1110.38h-58.75c-13,31.89-35.6,97.69-17.65,131.56l133,18.47c4.6-9.8-10.11-98-14-118.62C1352.9,1130.72,1333.2,1119.4,1312.43,1110.38Z" fill="#343484"/>
              <path d="M1356.17,1241.94c-4.6-9.79-13-43.91-9.07-64.5,4.59-24.23,25.49-72.57,25.49-72.57s23.19,28.61,14.88,70.16c-6,30.19,18,70.47-8.64,86.76Z" fill="#343484"/>
            </g>
            <g>
              <path d="M1382.05,1119.76c5.61,47.74-33.39,60.36-74.58,60.36s-66.83.52-66.83-47.55,27.61-77.28,68.8-77.28S1376.25,1070.49,1382.05,1119.76Z" fill="#343484"/>
              <g>
                <g>
                  <g>
                    <path d="M1318.07,1460.78h-95c4.91-25.25-10.42-118.29-10.42-118.29L1184,1396.08l20.29,51.27-27,23s-8-2.33-25.73-31.82-.29-72.32,24.13-140.78c13.78-38.63,23.32-59.6,43-64.7,6.52-1.69,17.75-4.16,30.3-6.83,13.43-2.86,58.15-5.83,58.15-5.83H1314l1,59.9.18,10.84Z" fill="#5365d3"/>
                    <path d="M1462.67,1438.55c-17.77,29.49-25.73,31.82-25.73,31.82l-27-23,20.29-51.27-28.63-53.59s-15.33,93-10.42,118.29h-95l2.88-169.62.18-10.84,1-59.9h6.92s44.73,3,58.15,5.83c12.55,2.67,23.78,5.14,30.3,6.83,19.65,5.1,29.19,26.07,43,64.7C1463,1366.23,1480.43,1409.06,1462.67,1438.55Z" fill="#5365d3"/>
                  </g>
                  <path d="M1412.07,1526c22.85,86-49.5,75.43-105,75.43s-127.52,6.2-103.25-78.17c27.33-95,47.8-100.81,103.25-100.81S1389.22,1440,1412.07,1526Z" fill="#001475"/>
                  <path d="M1334.05,1220.42c.38,4.25,1,6.18,1.94,10.36-13.8,28.84-42.86,28.84-57.67,0,.89-4.13,1.53-6,1.92-10.18a117.49,117.49,0,0,0-1.92-34.08H1336A117.33,117.33,0,0,0,1334.05,1220.42Z" fill="#f7d5bc"/>
                </g>
                <g id="laptop">
                  <path d="M1446,1491.38H1168.28L1155.83,1342a7.11,7.11,0,0,1,7.08-7.7h288.42a7.12,7.12,0,0,1,7.08,7.7Z" fill="#a4c7ff"/>
                  <path d="M1446,1494.87H1168.28l-12.45-149.43a7.1,7.1,0,0,1,7.08-7.69h288.42a7.11,7.11,0,0,1,7.08,7.69Z" fill="#e9f2ff"/>
                  <path d="M1168.53,1494.87h277.18a.76.76,0,0,1,.76.76v3.84A5.49,5.49,0,0,1,1441,1505H1173.25a5.49,5.49,0,0,1-5.49-5.49v-3.84A.76.76,0,0,1,1168.53,1494.87Z" fill="#a4c7ff"/>
                </g>
                <path d="M1308.21,1173.36l-1,0-1.05,0Z" fill="#ffe6d1"/>
                <path d="M1365.27,1226.24c-29.28,39.7-89,34.17-116.3,0,14-2.86,31.71-5.84,31.71-5.84h52.89S1351.22,1223.38,1365.27,1226.24Z" fill="#f7d5bc"/>
              </g>
              <path d="M1358.74,1144.69c-8.5-52.67-36.65-49.37-51.58-49.37-29.25,0-43.08,1.7-51.58,49.37l-.13,2.87a71.45,71.45,0,0,0,11.16,41.67c1.66,2.61,19.23,30.52,40.55,30.52s38.55-27.45,40.08-29.8a71.49,71.49,0,0,0,11.63-42.39Z" fill="#ffdcc0"/>
            </g>
            <g>
              <g>
                <path d="M1411.4,1581.61c9.17,3.62,21.27,5.9,28.8,9.56,5.92,8.84,3,15.29-4.64,23.64-8.57-.76-20-3.27-29.84-4.45l-17.34-19.17Z" fill="#fcd9c3"/>
                <path d="M1440.2,1591.17c3.41,8.35,1,14.91-4.64,23.64,6.5,4.25,17.94,8.26,25.73,9,42.47,3.8,58.46-19,39.46-27.76S1449.45,1586.76,1440.2,1591.17Z" fill="#a4c7ff"/>
              </g>
              <path d="M1411.4,1581.61s-25.4-8.18-57.81-21.61c-52-21.57-126.42-53.68-174.55-64.73-74.26-17-111.5,50.49-25,78.24,62.55,20.06,128.31,26.14,177.62,30.3,43.11,3.65,74,6.55,74,6.55A50.81,50.81,0,0,1,1411.4,1581.61Z" fill="#0e1669"/>
            </g>
            <g>
              <g>
                <path d="M1201.34,1581.61c-9.17,3.62-21.27,5.9-28.81,9.56-29.45,10.74-16.34,24.63,4.65,23.64,8.57-.76,20-3.27,29.84-4.45l17.34-19.17Z" fill="#fcd9c3"/>
                <path d="M1172.53,1591.17c-11.19,7-4.76,15.88,4.65,23.64-6.5,4.25-18,8.26-25.73,9-42.47,3.8-58.46-19-39.46-27.76S1163.28,1586.76,1172.53,1591.17Z" fill="#a4c7ff"/>
              </g>
              <path d="M1201.34,1581.61s25.4-8.18,57.81-21.61c52-21.57,126.42-53.68,174.54-64.73,74.27-17,111.51,50.49,25,78.24-62.55,20.06-128.32,26.14-177.62,30.3-43.12,3.65-74,6.55-74,6.55A50.81,50.81,0,0,0,1201.34,1581.61Z" fill="#091570"/>
            </g>
          </g>
          <path d="M1249.69,1155.68s55.62-2.26,76.33-45.35S1261.93,1045.4,1249.69,1155.68Z" fill="#343484"/>
          <path d="M1308.24,1120.41l37.85,18.39s15,38.86,28.49,42.54,4-45.93-9.13-65.56-51.56-38.56-58.72-34.22S1300.58,1111.83,1308.24,1120.41Z" fill="#343484"/>
        </g>
        <g>
          <g>
            <g>
              <g>
                <path d="M696.79,1094.6c-32.21-1.66-76.4-16.64-78.34-17.3a5.89,5.89,0,0,0-.23,1.2l73.36,26.6v3.8l5.23-1.9,5.24,1.9v-3.8l80.4-26.6a5.89,5.89,0,0,0-.23-1.2c-2,.69-53.2,15.64-85.38,17.3Z" fill="#f7d5bc"/>
                <path d="M607.32,1084.28l-.3,0a46,46,0,0,1-12.23-.07,127,127,0,0,1-23.31-5.49l-6.47-8.38-16.76,16.33c3.63,3.26,6.7,6,8.9,7.89,6.74,9.4,16.29,16.66,25.2,21.75a97.92,97.92,0,0,0,11.38,5.56,67.32,67.32,0,0,0,7.08,2.49C612.92,1127.79,622.88,1081.7,607.32,1084.28Z" fill="#f7d5bc"/>
                <path d="M772.16,1083.18H692.77V1223.6c12.45,28.74,26.68,77.62,32.36,122,10.09,78.76,7.09,156.81,7.09,243.62,10.79,4.32,20.27,6,25.91,0,29.46-73.76,42.71-187.46,44.48-277.69C803.57,1261.76,807.06,1151.76,772.16,1083.18Z" fill="#091570"/>
                <path d="M691,1083.18H608.08c-8.59,17.6-19.9,44.57-22.91,69.71-7.94,66.21,4.09,303.15,31.49,436.31,9.78,6.47,18.29,6.72,25.39,0,0-139.06,57.42-354.23,72.37-402.75Z" fill="#091570"/>
                <path d="M613,1612.32c.2-7.09,1-16.5,3.69-23.12a51.94,51.94,0,0,0,25.39,0c5.63,7.59,7.85,13.9,8.32,23a3.12,3.12,0,0,1-3.11,3.27H616.08A3.11,3.11,0,0,1,613,1612.32Z" fill="#c7e4ff"/>
                <path d="M730.61,1612.59c0-7.11.13-16.67,1.62-23.39,10.52,2.28,21.37,4.35,25.9,0,23.08,10.69,29.54,13.2,28.26,23.77a2.92,2.92,0,0,1-2.9,2.54h-50A2.92,2.92,0,0,1,730.61,1612.59Z" fill="#c7e4ff"/>
              </g>
              <path d="M679.12,629s-14.17-5.46-26.89,14-41,28.61-24.31,88.92c11.71,42.21-42.7,101.68-42.7,101.68L711.44,869s3.14-94-2.66-165C706.06,670.54,693.05,644.42,679.12,629Z" fill="#6060a6"/>
              <path d="M920.15,733.51a102.15,102.15,0,0,1,2.35-28.76c3.57-16.41,17-38.13,20.89-44.5s11.89-2.36,4.49,13.18-8.26,18.35.29,23.17,22.12,14.68,9.43,28.28-16.51,24.82-19.31,31.83S906.19,768,920.15,733.51Z" fill="#f7d5bc"/>
              <path d="M746.77,695.2c1.67,1.15-25.68,56.34,18.34,83.34s32.49,80.74-33.83,134.09-89,19.21-84.87-43.65S651.69,629.57,746.77,695.2Z" fill="#6060a6"/>
              <path d="M743.27,789.14c23.62,11.92,34,19.22,56.91,18.92,30.79-.4,81.72-13.16,108.47-67.56,7.57-15.39,37.19-3.1,37.39,10.42,1.12,78.73-74.9,141.89-171.68,163.79S712,773.37,743.27,789.14Z" fill="#4b4be0"/>
              <path d="M797.25,902.82c9-31.08.74-43-30.23-76.3-8.41-9-8.55-25.06-17.9-33-9.83-8.37-23.2-11.86-23.2-11.86s0,12.14-29,12.14-37.32-17.88-37.32-17.88c-85.64,0-160,109.37-160.08,208.13-.05,48.62,44.36,113.39,57.82,120.12,6.69,3.35,27.75-21.06,22.09-26.86-18.85-19.34-33.3-71.88-9.65-108.52s26.13-39.15,26.59-35.91,10.85,45.65,2.87,104.9c-8.19,60.87-30.53,95.51,12.95,102.34,35.16,5.52,106,9,159.86,0,35.91-6,12.23-38.67,10.44-97.43C780.85,990.49,782.28,954.76,797.25,902.82Z" fill="#4b4be0"/>
            </g>
            <path d="M718.64,753.9s-12.83,21.71,7.28,27.75c0,0-2.32,25-15.46,26.16-40.19,3.54-50.9-31.9-50.9-31.9s17.38-3.5,16.3-34.84C675,717.17,715,737.28,718.64,753.9Z" fill="#f7d5bc"/>
            <path d="M632.69,683.17c1.41-64.4,51.8-75.65,88.56-61.48,37.26,14.36,40.89,47,21.11,100.2C739,731,684.73,780.61,645,721.12,639.11,712.29,632.32,699.79,632.69,683.17Z" fill="#6060a6"/>
            <path d="M666.36,700.92s-.39-18.84,8.34-29.74c11.27-14.07,17.9-19,33.33-18.08,28,1.75,49.13,28.39,47.19,59.5-.78,12.4-3,24-7.14,33.26-6.27,14-11.31,20.8-31.68,17.27-14.78-2.55-38.56,1.18-51.68-36.2-7.64-2.61-11.15-7.46-12.2-13.48-2-11.3,6.35-15.19,13.84-12.53Z" fill="#ffdcc0"/>
            <path d="M583.11,1082.1a102.09,102.09,0,0,0,11.68,2.16,46,46,0,0,0,12.23.07l.31,0c15.54-2.58,5.59,43.51-6.51,40.13a66.61,66.61,0,0,1-7.09-2.49,98.3,98.3,0,0,1-10.62-5.14Z" fill="#f7d5bc"/>
          </g>
          <path d="M741.78,645.9c16.44,48.12-67.34,93.26-72,115l-32.57-65.14S679.76,604.15,741.78,645.9Z" fill="#6060a6"/>
          <path d="M719.44,653c.21.46,22.65,18.4,29.39,37.26s2.79,45.37,2.79,45.37,13.25-.43,13.49-41c.1-17.84-7.22-35-16.33-50.42-19.24-32.51-40.35-12.54-40.35-12.54S715.85,645.11,719.44,653Z" fill="#6060a6"/>
        </g>
      </g>
    </g>
  </g>
</svg>
