<svg xmlns="http://www.w3.org/2000/svg" viewBox="0 0 1730.65 1860">
  <title></title>
  <g id="Layer_2" data-name="Layer 2">
    <g id="Layer_1-2" data-name="Layer 1">
      <g>
        <path id="SVGID" d="M1603.84,561.74c0-126.27-38.28-315.1-191.76-430.28C1217-14.93,879.5-107.89,548.86,237.27c-52,54.25-128.77,70-197.91,82-80,13.91-145.8,37.78-222.53,104.71C-18,551.76-39.6,735.55,65.59,922.41c48.92,86.88,1.24,263.46,13.39,311.81,40.48,161,165.83,254.44,473.51,255.26,173.86.47,231.66,122.25,380.62,174.4,410.29,143.64,435.45-242.4,646.12-418.93C1904.9,972,1603.88,830.72,1603.84,561.74Z" fill="#282a3e"/>
        <g>
          <rect x="872.79" y="263.42" width="655.02" height="469.36" rx="51.87" fill="#fff"/>
          <g>
            <path d="M1344.51,352.53l21.82-34.83a95.44,95.44,0,0,0-74.33-9l12.82,39.06A54.48,54.48,0,0,1,1344.51,352.53Z" fill="#6161e4"/>
            <path d="M1298.17,349.9l-12.83-39.06a95.57,95.57,0,0,0-56.72,56.91l39.05,12.68A54.59,54.59,0,0,1,1298.17,349.9Z" fill="#e4ebff"/>
            <path d="M1335.59,452.62a54.66,54.66,0,0,1-70-65.52l-39.11-12.7a95.73,95.73,0,0,0,171.62,79.5l-35-21.61A54.43,54.43,0,0,1,1335.59,452.62Z" fill="#5365d3"/>
            <path d="M1370.51,383.56a54.53,54.53,0,0,1-3.74,42.78l35,21.61a95.7,95.7,0,0,0-29.49-126.53l-21.82,34.84A54.42,54.42,0,0,1,1370.51,383.56Z" fill="#4b4be0"/>
          </g>
          <g>
            <rect x="1175.37" y="523.97" width="89.92" height="13.3" rx="6.65" fill="#4b4be0"/>
            <rect x="1280.18" y="523.97" width="84.53" height="13.3" rx="6.65" fill="#e4ebff"/>
            <rect x="1386.6" y="523.97" width="89.92" height="13.3" rx="6.65" fill="#e4ebff"/>
            <path d="M1182,554.69h76.63a6.65,6.65,0,0,1,6.65,6.65h0a6.65,6.65,0,0,1-6.65,6.65H1182a6.65,6.65,0,0,1-6.65-6.65h0A6.65,6.65,0,0,1,1182,554.69Z" fill="#e4ebff"/>
            <path d="M1286.83,554.69h71.23a6.65,6.65,0,0,1,6.65,6.65h0a6.65,6.65,0,0,1-6.65,6.65h-71.23a6.65,6.65,0,0,1-6.65-6.65h0A6.65,6.65,0,0,1,1286.83,554.69Z" fill="#e4ebff"/>
            <path d="M1476.52,561.34h0a6.65,6.65,0,0,1-6.65,6.65h-76.62a6.65,6.65,0,0,1-6.65-6.65h0a6.65,6.65,0,0,1,6.65-6.65h76.62A6.65,6.65,0,0,1,1476.52,561.34Z" fill="#4b4be0"/>
            <rect x="1175.37" y="585.42" width="89.92" height="13.3" rx="6.65" fill="#e4ebff"/>
            <rect x="1280.18" y="585.42" width="84.53" height="13.3" rx="6.65" fill="#4b4be0"/>
            <rect x="1386.6" y="585.42" width="89.92" height="13.3" rx="6.65" fill="#e4ebff"/>
            <rect x="1175.37" y="616.11" width="89.92" height="13.3" rx="6.65" fill="#e4ebff"/>
            <rect x="1280.18" y="616.11" width="84.53" height="13.3" rx="6.65" fill="#e4ebff"/>
            <rect x="1386.6" y="616.11" width="89.92" height="13.3" rx="6.65" fill="#e4ebff"/>
            <path d="M1182,646.84h76.63a6.64,6.64,0,0,1,6.65,6.64h0a6.65,6.65,0,0,1-6.65,6.65H1182a6.65,6.65,0,0,1-6.65-6.65h0A6.64,6.64,0,0,1,1182,646.84Z" fill="#e4ebff"/>
            <path d="M1286.83,646.84h71.23a6.64,6.64,0,0,1,6.65,6.64h0a6.64,6.64,0,0,1-6.65,6.65h-71.23a6.65,6.65,0,0,1-6.65-6.65h0A6.64,6.64,0,0,1,1286.83,646.84Z" fill="#e4ebff"/>
            <path d="M1476.52,653.48h0a6.64,6.64,0,0,1-6.65,6.65h-76.62a6.65,6.65,0,0,1-6.65-6.65h0a6.64,6.64,0,0,1,6.65-6.64h76.62A6.64,6.64,0,0,1,1476.52,653.48Z" fill="#4b4be0"/>
            <path d="M1182,677.56h76.63a6.65,6.65,0,0,1,6.65,6.65h0a6.65,6.65,0,0,1-6.65,6.65H1182a6.65,6.65,0,0,1-6.65-6.65h0A6.65,6.65,0,0,1,1182,677.56Z" fill="#e4ebff"/>
            <path d="M1286.83,677.56h71.23a6.65,6.65,0,0,1,6.65,6.65h0a6.65,6.65,0,0,1-6.65,6.65h-71.23a6.65,6.65,0,0,1-6.65-6.65h0A6.65,6.65,0,0,1,1286.83,677.56Z" fill="#e4ebff"/>
            <path d="M1476.52,684.21h0a6.65,6.65,0,0,1-6.65,6.65h-76.62a6.65,6.65,0,0,1-6.65-6.65h0a6.65,6.65,0,0,1,6.65-6.65h76.62A6.65,6.65,0,0,1,1476.52,684.21Z" fill="#e4ebff"/>
          </g>
          <g>
            <path d="M1476.52,458.61v28.6a10.73,10.73,0,0,1-10.73,10.73h0a10.74,10.74,0,0,1-10.74-10.73v-28.6a10.74,10.74,0,0,1,10.74-10.74h0A10.73,10.73,0,0,1,1476.52,458.61Z" fill="#5365d3"/>
            <path d="M1476.52,395.75v17.34a10.72,10.72,0,0,1-10.73,10.73h0a10.73,10.73,0,0,1-10.74-10.73V395.75A10.74,10.74,0,0,1,1465.79,385h0A10.73,10.73,0,0,1,1476.52,395.75Z" fill="#5365d3"/>
            <path d="M1476.52,306.22v44A10.73,10.73,0,0,1,1465.79,361h0a10.74,10.74,0,0,1-10.74-10.74v-44a10.74,10.74,0,0,1,10.74-10.74h0A10.73,10.73,0,0,1,1476.52,306.22Z" fill="#4b4be0"/>
          </g>
          <g>
            <path d="M1117.16,690.86h-71.23a6.65,6.65,0,0,1-6.65-6.65h0a6.65,6.65,0,0,1,6.65-6.65h71.23a6.65,6.65,0,0,1,6.65,6.65h0A6.65,6.65,0,0,1,1117.16,690.86Z" fill="#e4ebff"/>
            <path d="M927.47,684.21h0a6.65,6.65,0,0,1,6.65-6.65h76.62a6.65,6.65,0,0,1,6.65,6.65h0a6.65,6.65,0,0,1-6.65,6.65H934.12A6.65,6.65,0,0,1,927.47,684.21Z" fill="#e4ebff"/>
            <rect x="1039.28" y="646.84" width="84.53" height="13.3" rx="6.65" fill="#e4ebff"/>
            <rect x="927.47" y="646.84" width="89.92" height="13.3" rx="6.65" fill="#4b4be0"/>
            <rect x="1039.28" y="616.11" width="84.53" height="13.3" rx="6.65" fill="#4b4be0"/>
            <rect x="927.47" y="616.11" width="89.92" height="13.3" rx="6.65" fill="#e4ebff"/>
            <rect x="1039.28" y="585.42" width="84.53" height="13.3" rx="6.65" fill="#e4ebff"/>
            <rect x="927.47" y="585.42" width="89.92" height="13.3" rx="6.65" fill="#e4ebff"/>
            <path d="M1117.16,568h-71.23a6.65,6.65,0,0,1-6.65-6.65h0a6.65,6.65,0,0,1,6.65-6.65h71.23a6.65,6.65,0,0,1,6.65,6.65h0A6.65,6.65,0,0,1,1117.16,568Z" fill="#e4ebff"/>
            <path d="M927.47,561.34h0a6.65,6.65,0,0,1,6.65-6.65h76.62a6.65,6.65,0,0,1,6.65,6.65h0a6.65,6.65,0,0,1-6.65,6.65H934.12A6.65,6.65,0,0,1,927.47,561.34Z" fill="#4b4be0"/>
            <rect x="1039.28" y="523.97" width="84.53" height="13.3" rx="6.65" fill="#e4ebff"/>
            <rect x="927.47" y="523.97" width="89.92" height="13.3" rx="6.65" fill="#e4ebff"/>
          </g>
          <g>
            <path d="M1044.24,362.09a39.92,39.92,0,0,1,44.65,18.69l49-26.93a95.85,95.85,0,0,0-115.21-43.55Z" fill="#5365d3"/>
            <path d="M1091.83,387.08a39.89,39.89,0,1,1-54.13-22.65l-21.38-51.66A95.76,95.76,0,1,0,1141,359.88Z" fill="#e4ebff"/>
          </g>
        </g>
        <g>
          <rect x="363.37" y="336.46" width="655.02" height="469.36" rx="51.87" fill="#fff"/>
          <g>
            <g>
              <path d="M690.79,553.17a84.92,84.92,0,0,1-7.1-169.53c2.42-.2,4.87-.3,7.27-.3a84.92,84.92,0,0,1,7.1,169.53c-2.42.2-4.86.3-7.27.3ZM691,406c-1.76,0-3.56.08-5.34.23a62.36,62.36,0,0,0-56.79,67.32c2.72,32,29.94,57,62,57,1.77,0,3.57-.08,5.34-.23A62.28,62.28,0,0,0,752.93,463C750.22,431,723,406,691,406Z" fill="#ebf1ff"/>
              <path d="M719.12,547.52a11.31,11.31,0,0,1-4.34-21.76A62.27,62.27,0,0,0,691,406a11.36,11.36,0,0,1-8.56-18.92,11.17,11.17,0,0,1,8.27-3.71h.3a84.89,84.89,0,0,1,32.56,163.27,11.34,11.34,0,0,1-4.4.89Z" fill="#5365d3"/>
            </g>
            <g>
              <path d="M562.91,587.63H424a6.59,6.59,0,0,1-6.6-6.59h0a6.59,6.59,0,0,1,6.6-6.6H562.91a6.59,6.59,0,0,1,6.6,6.6h0A6.59,6.59,0,0,1,562.91,587.63Z" fill="#e4ebff"/>
              <path d="M562.91,614H424a6.59,6.59,0,0,1-6.6-6.6h0a6.59,6.59,0,0,1,6.6-6.59H562.91a6.59,6.59,0,0,1,6.6,6.59h0A6.59,6.59,0,0,1,562.91,614Z" fill="#e4ebff"/>
              <path d="M562.91,640.38H424a6.59,6.59,0,0,1-6.6-6.59h0a6.59,6.59,0,0,1,6.6-6.59H562.91a6.59,6.59,0,0,1,6.6,6.59h0A6.59,6.59,0,0,1,562.91,640.38Z" fill="#e4ebff"/>
              <path d="M562.91,666.76H424a6.59,6.59,0,0,1-6.6-6.59h0a6.6,6.6,0,0,1,6.6-6.6H562.91a6.6,6.6,0,0,1,6.6,6.6h0A6.59,6.59,0,0,1,562.91,666.76Z" fill="#e4ebff"/>
              <path d="M547.53,693.14H439.38a6.59,6.59,0,0,1-6.59-6.6h0a6.59,6.59,0,0,1,6.59-6.59H547.53a6.59,6.59,0,0,1,6.59,6.59h0A6.59,6.59,0,0,1,547.53,693.14Z" fill="#e4ebff"/>
            </g>
            <g>
              <path d="M760.34,587.63H621.42a6.6,6.6,0,0,1-6.6-6.59h0a6.6,6.6,0,0,1,6.6-6.6H760.34a6.59,6.59,0,0,1,6.59,6.6h0A6.59,6.59,0,0,1,760.34,587.63Z" fill="#e4ebff"/>
              <path d="M760.34,614H621.42a6.6,6.6,0,0,1-6.6-6.6h0a6.6,6.6,0,0,1,6.6-6.59H760.34a6.59,6.59,0,0,1,6.59,6.59h0A6.59,6.59,0,0,1,760.34,614Z" fill="#e4ebff"/>
              <path d="M760.34,640.38H621.42a6.6,6.6,0,0,1-6.6-6.59h0a6.6,6.6,0,0,1,6.6-6.59H760.34a6.59,6.59,0,0,1,6.59,6.59h0A6.59,6.59,0,0,1,760.34,640.38Z" fill="#e4ebff"/>
              <path d="M760.34,666.76H621.42a6.6,6.6,0,0,1-6.6-6.59h0a6.61,6.61,0,0,1,6.6-6.6H760.34a6.6,6.6,0,0,1,6.59,6.6h0A6.59,6.59,0,0,1,760.34,666.76Z" fill="#e4ebff"/>
              <path d="M745,693.14H636.81a6.59,6.59,0,0,1-6.6-6.6h0a6.59,6.59,0,0,1,6.6-6.59H745a6.59,6.59,0,0,1,6.59,6.59h0A6.59,6.59,0,0,1,745,693.14Z" fill="#e4ebff"/>
            </g>
            <g>
              <path d="M517.75,759H421.54a13,13,0,0,1-13-13h0a13,13,0,0,1,13-13h96.21a13,13,0,0,1,13,13h0A13,13,0,0,1,517.75,759Z" fill="#5365d3"/>
              <path d="M631.5,759H572.89a13,13,0,0,1-13-13h0a13,13,0,0,1,13-13H631.5a13,13,0,0,1,13,13h0A13,13,0,0,1,631.5,759Z" fill="#4b4be0"/>
              <path d="M707.65,759h-21a13,13,0,0,1-13-13h0a13,13,0,0,1,13-13h21a13,13,0,0,1,13,13h0A13,13,0,0,1,707.65,759Z" fill="#5365d3"/>
              <path d="M871.53,759H762.79a13,13,0,0,1-13-13h0a13,13,0,0,1,13-13H871.53a13,13,0,0,1,13,13h0A13,13,0,0,1,871.53,759Z" fill="#5365d3"/>
              <path d="M960.22,759H926.68a13,13,0,0,1-13-13h0a13,13,0,0,1,13-13h33.54a13,13,0,0,1,13,13h0A13,13,0,0,1,960.22,759Z" fill="#4b4be0"/>
            </g>
            <g>
              <path d="M957.77,587.63H818.86a6.59,6.59,0,0,1-6.6-6.59h0a6.59,6.59,0,0,1,6.6-6.6H957.77a6.59,6.59,0,0,1,6.6,6.6h0A6.59,6.59,0,0,1,957.77,587.63Z" fill="#e4ebff"/>
              <path d="M957.77,614H818.86a6.59,6.59,0,0,1-6.6-6.6h0a6.59,6.59,0,0,1,6.6-6.59H957.77a6.59,6.59,0,0,1,6.6,6.59h0A6.59,6.59,0,0,1,957.77,614Z" fill="#e4ebff"/>
              <path d="M957.77,640.38H818.86a6.59,6.59,0,0,1-6.6-6.59h0a6.59,6.59,0,0,1,6.6-6.59H957.77a6.59,6.59,0,0,1,6.6,6.59h0A6.59,6.59,0,0,1,957.77,640.38Z" fill="#e4ebff"/>
              <path d="M957.77,666.76H818.86a6.59,6.59,0,0,1-6.6-6.59h0a6.6,6.6,0,0,1,6.6-6.6H957.77a6.6,6.6,0,0,1,6.6,6.6h0A6.59,6.59,0,0,1,957.77,666.76Z" fill="#e4ebff"/>
              <path d="M942.39,693.14H834.24a6.59,6.59,0,0,1-6.59-6.6h0a6.59,6.59,0,0,1,6.59-6.59H942.39a6.59,6.59,0,0,1,6.59,6.59h0A6.59,6.59,0,0,1,942.39,693.14Z" fill="#e4ebff"/>
            </g>
            <g>
              <path d="M888.23,553.17a84.92,84.92,0,0,1-7.1-169.53c2.42-.2,4.86-.3,7.27-.3a84.92,84.92,0,0,1,7.1,169.53c-2.42.2-4.86.3-7.27.3Zm.16-147.2c-1.77,0-3.56.08-5.34.23a62.36,62.36,0,0,0-56.79,67.32c2.71,32,29.94,57,62,57,1.77,0,3.56-.08,5.34-.23A62.28,62.28,0,0,0,950.37,463C947.65,431,920.43,406,888.39,406Z" fill="#ebf1ff"/>
              <path d="M888.23,553.17a84.76,84.76,0,0,1-82.15-63.75,11.07,11.07,0,0,1,7-13.17l.42-.15a11,11,0,0,1,3.76-.67A11.16,11.16,0,0,1,828,483.86a62.15,62.15,0,0,0,60.2,46.68,62.36,62.36,0,0,0,62.31-64.82A62.14,62.14,0,0,0,888.39,406a11.36,11.36,0,0,1-8.57-18.92,11.19,11.19,0,0,1,8.27-3.71h.3a84.74,84.74,0,0,1,84.77,81.31c1.9,44-30.86,82.6-74.6,87.88A87.17,87.17,0,0,1,888.23,553.17Z" fill="#4b4be0"/>
            </g>
            <g>
              <path d="M493.53,553.18a85.58,85.58,0,0,1-16.87-1.69,84.93,84.93,0,0,1-66.44-100c.48-2.38,1.07-4.75,1.74-7.06v0a84.95,84.95,0,0,1,81.43-61.05A85.48,85.48,0,0,1,510.26,385a84.91,84.91,0,0,1,66.44,100c-.48,2.38-1.07,4.75-1.74,7.07a85,85,0,0,1-81.43,61.06ZM493.65,406a62.67,62.67,0,0,0-60,44.75c-.49,1.7-.92,3.44-1.28,5.19a62.19,62.19,0,0,0,60.87,74.58,62.67,62.67,0,0,0,60-44.74c.49-1.7.92-3.45,1.28-5.2a62.35,62.35,0,0,0-48.73-73.36A61.09,61.09,0,0,0,493.65,406Z" fill="#ebf1ff"/>
              <path d="M493.6,553.19a86.36,86.36,0,0,1-20.45-2.48c-42.78-10.5-70.66-52.76-63.48-96.23A86.64,86.64,0,0,1,412,444.39a84.75,84.75,0,0,1,81.38-61.05c.94,0,1.89,0,2.83,0a11.06,11.06,0,0,1,10.68,10.41l0,.44a11.06,11.06,0,0,1-.42,3.8,11.21,11.21,0,0,1-10.73,8h-.37c-.67,0-1.33,0-2,0a62.47,62.47,0,0,0-59.66,44.75h0a66.22,66.22,0,0,0-1.61,7,62.32,62.32,0,0,0,102,57.85,11.24,11.24,0,0,1,7.33-2.71,11.32,11.32,0,0,1,11.09,8.94,11.15,11.15,0,0,1-3.69,11,84.84,84.84,0,0,1-55.19,20.44Z" fill="#5365d3"/>
            </g>
          </g>
        </g>
        <g>
          <rect x="151.27" y="839.74" width="630.26" height="494.13" rx="51.87" fill="#fff"/>
          <g>
            <g>
              <path d="M339.47,891.51H200.55a6.6,6.6,0,0,1-6.6-6.6h0a6.6,6.6,0,0,1,6.6-6.59H339.47a6.59,6.59,0,0,1,6.59,6.59h0A6.59,6.59,0,0,1,339.47,891.51Z" fill="#d7e2ff"/>
              <rect x="193.95" y="904.7" width="152.11" height="13.19" rx="6.59" fill="#d7e2ff"/>
              <path d="M339.47,944.26H200.55a6.6,6.6,0,0,1-6.6-6.59h0a6.6,6.6,0,0,1,6.6-6.6H339.47a6.59,6.59,0,0,1,6.59,6.6h0A6.59,6.59,0,0,1,339.47,944.26Z" fill="#d7e2ff"/>
              <path d="M308.69,970.64H200.55A6.6,6.6,0,0,1,194,964h0a6.6,6.6,0,0,1,6.6-6.59H308.69a6.59,6.59,0,0,1,6.6,6.59h0A6.59,6.59,0,0,1,308.69,970.64Z" fill="#d7e2ff"/>
            </g>
            <g>
              <path d="M679.73,878.32H728.1a10.74,10.74,0,0,1,10.74,10.74h0a10.74,10.74,0,0,1-10.74,10.73H679.73A10.74,10.74,0,0,1,669,889.06h0A10.74,10.74,0,0,1,679.73,878.32Z" fill="#5365d3"/>
              <path d="M616.87,878.32h17.34A10.74,10.74,0,0,1,645,889.06h0a10.74,10.74,0,0,1-10.74,10.73H616.87a10.74,10.74,0,0,1-10.73-10.73h0A10.74,10.74,0,0,1,616.87,878.32Z" fill="#5365d3"/>
              <path d="M487.79,878.32h83.57a10.73,10.73,0,0,1,10.73,10.74h0a10.73,10.73,0,0,1-10.73,10.73H487.79a10.73,10.73,0,0,1-10.73-10.73h0A10.73,10.73,0,0,1,487.79,878.32Z" fill="#4b4be0"/>
              <path d="M408.4,878.32h33.87A10.74,10.74,0,0,1,453,889.06h0a10.74,10.74,0,0,1-10.74,10.73H408.4a10.74,10.74,0,0,1-10.74-10.73h0A10.74,10.74,0,0,1,408.4,878.32Z" fill="#5365d3"/>
            </g>
          </g>
          <g>
            <rect x="219.73" y="1111.79" width="67.22" height="115.17" rx="5.49" fill="#6161e4"/>
            <rect x="326.26" y="1027.39" width="67.22" height="199.56" rx="5.49" fill="#6161e4"/>
            <rect x="432.79" y="1042.87" width="67.22" height="184.08" rx="5.49" fill="#6161e4"/>
            <rect x="539.32" y="964.96" width="67.22" height="261.99" rx="5.49" fill="#6161e4"/>
            <rect x="645.84" y="995.4" width="67.22" height="231.55" rx="5.49" fill="#6161e4"/>
            <path d="M680.3,992.43,573.78,962a3.15,3.15,0,0,0-2.68.48l-105.51,77.17-105.27-15.3a3.08,3.08,0,0,0-2.37.64l-106.27,84.19L248,1111v6.91l6.7-3.31a3.11,3.11,0,0,0,.54-.35l105.48-83.56L466,1045.94a3.15,3.15,0,0,0,2.28-.57l105.3-77,105.07,30a3.09,3.09,0,1,0,1.7-6Z" fill="#4b4be0"/>
            <g>
              <path d="M253.34,1124.27a12.49,12.49,0,1,1,12.48-12.48A12.5,12.5,0,0,1,253.34,1124.27Z" fill="#4b4be0"/>
              <path d="M253.34,1105.44a6.35,6.35,0,1,0,6.35,6.35A6.36,6.36,0,0,0,253.34,1105.44Z" fill="#fff"/>
            </g>
            <g>
              <circle cx="359.87" cy="1027.39" r="12.48" transform="translate(-365.77 215.92) rotate(-22.5)" fill="#4b4be0"/>
              <path d="M359.87,1021.05a6.35,6.35,0,1,0,6.35,6.34A6.36,6.36,0,0,0,359.87,1021.05Z" fill="#fff"/>
            </g>
            <g>
              <circle cx="466.4" cy="1042.87" r="12.48" transform="translate(-600.82 635.24) rotate(-45)" fill="#4b4be0"/>
              <path d="M466.4,1036.53a6.35,6.35,0,1,0,6.34,6.34A6.36,6.36,0,0,0,466.4,1036.53Z" fill="#fff"/>
            </g>
            <g>
              <path d="M572.93,977.44A12.48,12.48,0,1,1,585.41,965,12.5,12.5,0,0,1,572.93,977.44Z" fill="#4b4be0"/>
              <path d="M572.93,958.62a6.35,6.35,0,1,0,6.34,6.34A6.35,6.35,0,0,0,572.93,958.62Z" fill="#fff"/>
            </g>
            <g>
              <circle cx="680.62" cy="993.6" r="12.48" fill="#4b4be0"/>
              <path d="M680.62,987.25A6.35,6.35,0,1,0,687,993.6,6.36,6.36,0,0,0,680.62,987.25Z" fill="#fff"/>
            </g>
          </g>
          <g>
            <path d="M455.49,1279.9H251.56a6.6,6.6,0,0,1-6.6-6.59h0a6.6,6.6,0,0,1,6.6-6.6H455.49a6.59,6.59,0,0,1,6.59,6.6h0A6.59,6.59,0,0,1,455.49,1279.9Z" fill="#e4ebff"/>
            <path d="M424.53,1306.28h-173a6.6,6.6,0,0,1-6.6-6.6h0a6.6,6.6,0,0,1,6.6-6.59h173a6.59,6.59,0,0,1,6.59,6.59h0A6.59,6.59,0,0,1,424.53,1306.28Z" fill="#e4ebff"/>
          </g>
        </g>
        <g>
          <g>
            <g>
              <path d="M1103.77,1107.39c44.84-2.32,106.38-23.18,109.08-24.1a8.29,8.29,0,0,1,.31,1.67L1111,1122v5.28l-7.29-2.64-7.29,2.64V1122l-102.13-37a7.46,7.46,0,0,1,.31-1.66c2.81,1,64.27,21.77,109.08,24.09Z" fill="#ffd3af"/>
              <path d="M1278.24,1085.35c9.27-12,25.23-32.76,44-57.1a66,66,0,0,1,39,21.72c-27.94,26-52.3,48.16-63,57.43-9.38,13.09-22.68,23.2-35.09,30.28a136.25,136.25,0,0,1-15.83,7.74,92.19,92.19,0,0,1-9.87,3.46c-16.85,4.72-30.71-59.45-9.07-55.86l.43.06a64.41,64.41,0,0,0,17-.09C1257.86,1091.56,1270.42,1087.92,1278.24,1085.35Z" fill="#ffd3af"/>
              <path d="M1215.33,1796c-13.61,9-25.47,9.36-35.34,0,0-202-51.58-487.87-70.76-539.39a3.43,3.43,0,0,0-2.94-2.21h0a3.67,3.67,0,0,0-2.91,2.21c-8.19,18.06-46.75,119.64-51.13,191.59-6.7,110.35-7.6,226.93-7.6,347.8-15,6-28.21,8.41-36.06,0-41-102.7-59.47-261-61.93-386.64-1.36-69.27-6.19-222.42,42.4-317.91h238.26c12,24.5,27.71,62.06,31.9,97C1270.22,1280.73,1253.49,1610.64,1215.33,1796Z" fill="#343484"/>
              <path d="M1220.47,1828.23c-.27-9.87-1.4-23-5.14-32.19-12.1,2.84-23.91,3-35.34,0-7.85,10.57-10.94,19.35-11.58,32.08a4.32,4.32,0,0,0,4.32,4.55h43.42A4.32,4.32,0,0,0,1220.47,1828.23Z" fill="#ceddea"/>
              <path d="M1046.87,1828.61c0-9.9-.18-23.21-2.25-32.57-14.65,3.18-29.76,6.06-36.06,0-32.14,14.88-41.14,18.38-39.35,33.1a4,4,0,0,0,4,3.53h69.57A4.06,4.06,0,0,0,1046.87,1828.61Z" fill="#ceddea"/>
            </g>
            <path d="M949,846.76l11.08-158c16-12.67,34.08-20.65,55.19-21.69a299.83,299.83,0,0,0,38.2-4.31s9.75,25.76,50.21,25.76,52-24.89,52-24.89c119.24,0,271.74,157.26,271.89,294.77.06,67.69-110.76,152.89-129.52,162.27-9.31,4.66-38.63-29.33-30.75-37.41,26.25-26.92,90.9-97.43,58-148.44s-79.37-44.69-80-40.17-33.08,48.59-13.71,131.89,21.6,88.25-39,97.76c-49,7.69-104.72-5.75-171.31-4.84-64.4.88-64.57-21.57-51.66-79.68C978.6,999.11,956.42,878.68,949,846.76Z" fill="#4b4be0"/>
            <path d="M801.73,570.44s1.15-19-5.29-44-28.38-57.56-34.68-67.1-18.38-2.95-6.12,20.48,13.76,27.69.9,35.6-33.09,23.83-12.81,44,26.79,37.13,31.5,47.73S825.16,622.58,801.73,570.44Z" fill="#ffd3af"/>
            <path d="M1045.82,664.06c-6.47.66-29.12,2.38-34,2.87-28.25,2.82-34.71,11.94-66.56,11.52-42.86-.56-102.84-16.41-131.14-97.51-7.87-22.55-51.78-4.32-52.05,14.51-1.57,109.62,96.23,242.56,231,273S1092.37,659.27,1045.82,664.06Z" fill="#4b4be0"/>
          </g>
          <path d="M1073.35,633s9.72,17-19.92,29.79,22.62,55.58,34.13,54.86c56.06-3.5,68-54,68-54s-24.2-4.89-22.7-48.51C1134.06,581.87,1078.35,609.87,1073.35,633Z" fill="#ffd3af"/>
          <path d="M1189.82,535.94c-2-89.66-68.92-106.74-120.1-87-51.89,20-56.94,65.45-29.41,139.52,4.7,12.64,80.25,81.76,135.56-1.08C1184.08,575.08,1190.33,559.09,1189.82,535.94Z" fill="#343484"/>
          <path d="M1146.14,559.24s.54-26.23-11.61-41.4c-15.69-19.6-24.93-26.53-46.41-25.19-39,2.44-68.41,39.53-65.7,82.85s17.86,77.62,56.85,75.18c24.88-1.56,50.89-3.17,69.16-55.23,10.63-3.63,15.51-10.38,17-18.76,2.74-15.73-8.85-21.16-19.27-17.45Z" fill="#ffd3af"/>
          <path d="M1151.2,503.76c1,16.48-60,28.65-87.06,30.34s-31.81-13.25-32.84-29.73,11.29-28.17,38.33-29.86S1150.17,487.27,1151.2,503.76Z" fill="#343484"/>
          <path d="M1262.05,1090a142.32,142.32,0,0,1-16.26,3,64.41,64.41,0,0,1-17,.09l-.43-.06c-21.64-3.59-7.78,60.58,9.07,55.86a92.19,92.19,0,0,0,9.87-3.46,137,137,0,0,0,14.78-7.15Z" fill="#ffd3af"/>
        </g>
        <g>
          <g>
            <path d="M727.46,1178.4c0,65-45.12,81.56-100.78,81.56s-100.77-16.59-100.77-81.56,45.11-94.65,100.77-94.65S727.46,1113.44,727.46,1178.4Z" fill="#6060a6"/>
            <ellipse cx="624.85" cy="1094.99" rx="50.49" ry="39.19" fill="#6060a6"/>
            <g>
              <g>
                <g>
                  <path d="M641,1639.2H512.67c6.64-34.12-14.08-159.83-14.08-159.83l-38.69,72.4,27.42,69.28-36.52,31.1S440,1649,416,1609.16s-.39-97.72,32.61-190.22c18.61-52.2,31.51-80.53,58.05-87.42,8.81-2.3,24-5.63,41-9.24,18.13-3.86,78.56-7.88,78.56-7.88l9.35,0,1.31,80.93.25,14.65Z" fill="#5365d3"/>
                  <path d="M836.39,1609.16c-24,39.85-34.77,43-34.77,43l-36.52-31.1,27.42-69.28-38.68-72.4s-20.72,125.71-14.08,159.83H611.42l3.89-229.2.24-14.65,1.32-80.93,9.34,0s60.44,4,78.58,7.88c17,3.61,32.13,6.94,40.94,9.24,26.55,6.89,39.44,35.22,58.06,87.42C836.78,1511.44,860.39,1569.31,836.39,1609.16Z" fill="#5365d3"/>
                </g>
                <path d="M768,1727.29c30.88,116.14-66.89,101.91-141.81,101.91s-172.32,8.39-139.51-105.62c36.92-128.31,64.58-136.22,139.51-136.22S737.15,1611.15,768,1727.29Z" fill="#5e5ea5"/>
                <path d="M662.6,1314.42c.52,5.74,1.39,8.35,2.62,14-18.65,39-57.91,39-77.92,0,1.21-5.58,2.07-8.11,2.6-13.76a158.93,158.93,0,0,0-2.6-46h77.92A159,159,0,0,0,662.6,1314.42Z" fill="#ffd3ae"/>
              </g>
              <g id="laptop">
                <path d="M813.81,1680.54H438.62l-16.83-201.91a9.6,9.6,0,0,1,9.56-10.4H821.07a9.6,9.6,0,0,1,9.57,10.4Z" fill="#e4ebff"/>
                <path d="M813.81,1685.26H438.62l-16.83-201.91a9.6,9.6,0,0,1,9.56-10.4H821.07a9.6,9.6,0,0,1,9.57,10.4Z" fill="#f1f5ff"/>
                <path d="M438.95,1685.26H813.48a1,1,0,0,1,1,1v5.19a7.41,7.41,0,0,1-7.41,7.41H445.33a7.41,7.41,0,0,1-7.41-7.41v-5.19A1,1,0,0,1,438.95,1685.26Z" fill="#e4ebff"/>
              </g>
              <path d="M627.69,1250.83c-.47,0-1,0-1.42,0s-.95,0-1.42,0Z" fill="#ffd3ae"/>
              <path d="M704.79,1322.28c-10.11,46.67-35.86,81.57-67.15,88.47a52.79,52.79,0,0,1-22.84,0c-31.29-6.9-57-41.8-67.15-88.47,19-3.86,42.84-7.88,42.84-7.88H662S685.81,1318.42,704.79,1322.28Z" fill="#ffd3ae"/>
            </g>
            <g>
              <path d="M696,1212.09c-11.48-71.16-49.51-66.71-69.69-66.71-39.52,0-58.21,2.3-69.7,66.71l-.17,3.88a96.41,96.41,0,0,0,15.08,56.3c2.24,3.53,26,41.24,54.79,41.24s52.08-37.08,54.16-40.26A96.58,96.58,0,0,0,696.14,1216Z" fill="#ffdabc"/>
              <path d="M706.84,1156.63c0,30.19-2.2,59.09-2.2,59.09H701.4c-3.14,0-7.55,4.07-8.69,1.15,0,0-5.4-31-14.29-40.66,0,0-13.48-11.63-51-11.63s-55.19,11.63-55.19,11.63c-10.31,15.56-12.42,40.71-12.42,40.71-1.21,2.78-5.07-1.2-8.1-1.2h-3.77V1163.2A48,48,0,0,1,587.15,1116L593,1115a193.09,193.09,0,0,1,73.18.59C688.53,1120.05,706.84,1126.44,706.84,1156.63Z" fill="#6060a6"/>
              <g>
                <path d="M565.35,1229.53c0,9.35-3.12,18.89-9.38,18.89s-13.28-9.54-13.28-18.89.57-19.26,6.82-19.26S565.35,1220.18,565.35,1229.53Z" fill="#ffdabc"/>
                <path d="M687.18,1229.53c0,9.35,3.12,18.89,9.38,18.89s13.28-9.54,13.28-18.89-.56-19.26-6.82-19.26S687.18,1220.18,687.18,1229.53Z" fill="#ffdabc"/>
              </g>
            </g>
          </g>
          <g>
            <g>
              <path d="M767.12,1802.46c12.39,4.89,28.74,8,38.92,12.92,8,11.95,4,20.67-6.28,31.94-11.58-1-27.09-4.42-40.32-6L736,1815.41Z" fill="#ffd3ae"/>
              <path d="M806,1815.38c4.6,11.28,1.36,20.14-6.28,31.94,8.78,5.74,24.25,11.16,34.77,12.11,57.38,5.14,79-25.66,53.32-37.51S818.54,1809.43,806,1815.38Z" fill="#5365d3"/>
            </g>
            <path d="M767.12,1802.46s-34.32-11-78.11-29.19c-70.33-29.14-170.83-72.54-235.85-87.47-100.35-23-150.67,68.23-33.75,105.72,84.52,27.1,173.38,35.32,240,41,58.26,4.92,100,8.84,100,8.84A68.73,68.73,0,0,1,767.12,1802.46Z" fill="#343484"/>
          </g>
          <g>
            <g>
              <path d="M483.28,1802.46c-12.39,4.89-28.74,8-38.92,12.92-39.8,14.52-22.08,33.28,6.27,31.94,11.59-1,27.1-4.42,40.32-6l23.44-25.9Z" fill="#ffd3ae"/>
              <path d="M444.36,1815.38c-15.13,9.51-6.44,21.46,6.27,31.94-8.78,5.74-24.24,11.16-34.76,12.11-57.38,5.14-79-25.66-53.32-37.51S431.86,1809.43,444.36,1815.38Z" fill="#5365d3"/>
            </g>
            <path d="M483.28,1802.46s34.32-11,78.11-29.19c70.33-29.14,170.83-72.54,235.85-87.47,100.35-23,150.67,68.23,33.75,105.72-84.52,27.1-173.38,35.32-240,41-58.26,4.92-100,8.84-100,8.84A68.67,68.67,0,0,0,483.28,1802.46Z" fill="#343484"/>
          </g>
        </g>
      </g>
    </g>
  </g>
</svg>
