<svg xmlns="http://www.w3.org/2000/svg" xmlns:xlink="http://www.w3.org/1999/xlink" viewBox="0 0 893.28 1254.47">
  <defs>
    <linearGradient id="linear-gradient" x1="532.34" y1="1378.87" x2="532.34" y2="610.28" gradientUnits="userSpaceOnUse">
      <stop offset="0" stop-color="#dbe1f2"/>
      <stop offset="1" stop-color="#f1f3fa"/>
    </linearGradient>
    <linearGradient id="linear-gradient-2" x1="193.76" y1="437.52" x2="193.76" y2="120.94" xlink:href="#linear-gradient"/>
    <linearGradient id="linear-gradient-3" x1="710.19" y1="356.31" x2="749.56" y2="356.31" xlink:href="#linear-gradient"/>
    <linearGradient id="linear-gradient-4" x1="696.09" y1="356.31" x2="712.49" y2="356.31" xlink:href="#linear-gradient"/>
    <linearGradient id="linear-gradient-5" x1="597.12" y1="338.3" x2="723.22" y2="338.3" xlink:href="#linear-gradient"/>
    <linearGradient id="linear-gradient-6" x1="38.59" y1="451.2" x2="90.31" y2="451.2" xlink:href="#linear-gradient"/>
    <linearGradient id="linear-gradient-7" x1="38.59" y1="488.58" x2="90.31" y2="488.58" xlink:href="#linear-gradient"/>
    <linearGradient id="linear-gradient-8" x1="38.59" y1="525.95" x2="90.31" y2="525.95" xlink:href="#linear-gradient"/>
    <linearGradient id="linear-gradient-9" x1="111.66" y1="451.2" x2="126.38" y2="451.2" xlink:href="#linear-gradient"/>
    <linearGradient id="linear-gradient-10" x1="111.66" y1="488.58" x2="126.38" y2="488.58" xlink:href="#linear-gradient"/>
    <linearGradient id="linear-gradient-11" x1="111.66" y1="525.95" x2="126.38" y2="525.95" xlink:href="#linear-gradient"/>
  </defs>
  <title>validation</title>
  <g id="Layer_2" data-name="Layer 2">
    <g id="Layer_1-2" data-name="Layer 1">
      <rect x="171.39" y="407.13" width="721.89" height="847.34" rx="69.12" opacity="0.95" fill="url(#linear-gradient)"/>
      <rect x="498.7" y="907" width="57.26" height="10.6" fill="#9aaad7"/>
      <g>
        <rect x="281.33" y="1004.17" width="333.16" height="20.53" fill="#c1cce8"/>
        <rect x="281.33" y="1102.74" width="269.41" height="20.53" fill="#c1cce8"/>
        <rect x="281.33" y="1053.45" width="157.94" height="20.53" fill="#c1cce8"/>
      </g>
      <path d="M701.66,491.63V502h61.05v57.29h10.37V491.63ZM287.07,559.29h10.37V502h61.05V491.63H287.07ZM762.71,855v57.32H701.66v10.37h71.42V855Zm-465.27,0H287.07v67.69h71.42V912.27H297.44Z" fill="#9aaad7"/>
      <g>
        <path d="M740.75,1124.78a61.06,61.06,0,1,1,61.06-61.06A61.13,61.13,0,0,1,740.75,1124.78Zm0-110.3A49.24,49.24,0,1,0,790,1063.72,49.3,49.3,0,0,0,740.75,1014.48Z" fill="#9aaad7"/>
        <polygon points="736.86 1087.75 709.12 1060.01 717.48 1051.65 736.86 1071.04 764.03 1043.87 772.39 1052.22 736.86 1087.75" fill="#9aaad7"/>
      </g>
      <rect y="37.26" width="387.53" height="349.02" rx="48.23" opacity="0.95" fill="url(#linear-gradient-2)"/>
      <rect x="178.4" y="326.11" width="30.74" height="5.69" fill="#9aaad7"/>
      <g>
        <path d="M220.09,6.7s24.76,13.59,16.9,47-10.85,37.85-4.46,51.36,12,70.13,5.19,80.49-75.89-50.52-83.57-99.23S163.76,17,169.88,9.24,198.24-5.72,220.09,6.7Z" fill="#f1bea6"/>
        <path d="M266.58,283.05H240.07c-1.28-13.07-2.46-22.18-2.22-23.52.39-2.23-26.39-72.45-28.88-78.26s-12.34-21.37-13.62-36,17.84-20.59,17.84-20.59C239,129.26,247.75,165,247.75,165s10.84,72.41,16.32,92.79C265.48,263,266.24,272.23,266.58,283.05Z" fill="#f6d6c6"/>
        <path d="M253.24,182.42l-39.48,16.64s-36.29-90-5.88-80S251.86,147.93,253.24,182.42Z" fill="#677ebe"/>
        <path d="M244.45,224.82c-1.15,8.94-5.87,40.61-4.82,49.16.18,1.41.77,4.66,1.64,9.07h-95.2c2.54-9,4.84-17,6.23-21.69,4.63-15.33.2-19.44-2.14-31.71-.91-4.8-4.1-13.92-7.59-24.22-1.17-3.44-2.37-7-3.52-10.63-4.19-13-6.13-26.25-7.34-34-5.74-36.62,22.43-40.14,22.43-40.14,10.46-1.93,28.75-7.58,28.75-7.58l28.64,6a30.81,30.81,0,0,1,6.7,4s0,0,0,0a52.19,52.19,0,0,1,6.44,5.65c3.13,3.21,9.36,12.41,15.58,22.52,1.9,3.1,3.81,6.28,5.61,9.41,5.82,10.08,10,18.21,9.83,27.38C255.6,197,245.61,215.88,244.45,224.82Z" fill="#677ebe"/>
        <path d="M211.53,119.07s17.94,30.66,11.27,33S181,146.57,167.22,117.6C167.22,117.6,190.31,107.11,211.53,119.07Z" fill="#f6d6c6"/>
        <path d="M209,133.07s-15.93,6.74-30.37-15.46c0,0,3.88-25.21-4.32-39.79S210.11,95.3,210.11,95.3s-.72,3-1.45,7.44c-.38,2.28-.77,4.92-1.07,7.72-.24,2.34-.43,4.79-.52,7.24C206.89,123.37,207.29,129,209,133.07Z" fill="#f6d6c6"/>
        <path d="M169.39,167.42c-3.28,16.87-26.82,38-26.82,38-1.17-3.45-2.37-7-3.52-10.62C155.29,184.45,169.39,167.42,169.39,167.42Z" fill="#5b74b8"/>
        <path d="M163.48,180.85c-1.49,6.15-8.35,68.44-7.6,70.56.43,1.22,3.76,15.63,7.09,31.64H132.23c-3.14-10.32-5-18.88-4.56-23.74,2-21-5.16-88-5.16-88s-6.37-40.52,27.25-45.58c0,0,19.86,2.62,21.06,17.28S165,174.71,163.48,180.85Z" fill="#f6d6c6"/>
        <path d="M120,189.45l41.73,9.75s33.1-64.27,3.29-76C133.62,110.83,112.5,154.4,120,189.45Z" fill="#677ebe"/>
        <path d="M216.23,10.26s36.27,13.31,13.28,75.88S159.61,75.46,166.7,37,216.23,10.26,216.23,10.26Z" fill="#f6d7c8"/>
        <path d="M235.07,48.3s-19.14,17.08-49.85,17.88c0,0-7.18,17.5-8.34,22.87,0,0-30.34-52.1,4.54-78.42S248,37.38,235.07,48.3Z" fill="#f1bea6"/>
        <path d="M189.37,69.93c0-4.63-2.37-15.29-9.38-12.67s-.73,24.39,3.89,23.29C183.88,80.55,189.41,80.9,189.37,69.93Z" fill="#f6d7c8"/>
        <path d="M207.12,116.63c-17-4.72-23.63-21-23.84-21.5,13.86,17.9,24.31,15.33,24.31,15.33C207.35,112.8,207.33,114.26,207.12,116.63Z" fill="#f0b79a"/>
      </g>
      <path d="M285.88,100.42V106h32.77v30.76h5.56V100.42ZM63.31,136.75h5.57V106h32.77v-5.57H63.31ZM318.65,295.46v30.77H285.88v5.57h38.33V295.46Zm-249.77,0H63.31V331.8h38.34v-5.57H68.88Z" fill="#9aaad7"/>
      <g>
        <path d="M732.68,850.2H700.83c-.58-1.27-1.05-2.38-1.44-3.27-9.45-22.32-58.16-73.49-58.16-73.49v.11a.1.1,0,0,0,0,.06v0a1.43,1.43,0,0,1-.08.22c0,.11,0,.25-.11.42a.88.88,0,0,0-.06.28,2,2,0,0,1-.08.22c-2,7.46-11.81,44.6-16.71,75.4H408.62c-.5-2.85-1.08-5.57-1.75-8.09a175.77,175.77,0,0,1-4.15-22.29c0-.36-.09-.69-.11-1.05-.17-1.31-.31-2.61-.42-3.89a204,204,0,0,1-.36-35.67c-.61,1.3-5,17.27-10.67,37C388,827,384.48,839,381,850.2H330.06l63.87-184.26c1.41-1.11,18-9.12,30.08-14.89,12.33-5.88,27.22-14.5,40.66-21.87,6.88-3.77,13.37-7.18,19-9.76l.86-.39v0c9.29-4.25,15.47-7,15.47-7h0l4-.39c13-1.24,53.22-5,66.7-5.79,1.11-.08,2-.11,2.77-.14s1.08,0,1.36,0c1.69.11,10,3,20.9,7.15.41.14.83.31,1.25.48l1.55.58c.94.36,1.91.72,2.88,1.11l6,2.35,2.13.84c21.82,8.64,46.83,19.37,52.76,23.64,3.93,2.8,16.16,25.84,30.32,54.34C707.9,745,726.56,815.44,732.68,850.2Z" fill="#f9e3d9"/>
        <path d="M574.52,599.38c-.58,29-56.67,44.82-56.67,44.82S494.38,614.78,500,612c2.2-1.11,3.09-5.5,3.37-10.42A103.58,103.58,0,0,0,503,588.4c-.17-2-.33-3.36-.33-3.36s8-8.46,18.21-18.53c17.82-17.62,42.32-40.19,42.36-31.21a8.41,8.41,0,0,1-.21,1.7C558.76,557.2,574.52,599.38,574.52,599.38Z" fill="#f6d6c6"/>
        <path d="M552.91,556.93h0c-.11.17-2.49,3.73-6.55,8.84-8.61,10.83-24.8,28.63-43,35.78A103.58,103.58,0,0,0,503,588.4a28.35,28.35,0,0,1-5.57-.67,174,174,0,0,1,12.19-17.86l11.26-3.36Z" fill="#f0b79a"/>
        <path d="M563.68,535.69c-4.85,10.55-9.46,18.21-10.77,21.24h0c-.85,2-3.17,5.2-6.55,8.84-9.25,10-26.43,23.09-43.32,22.63a28.35,28.35,0,0,1-5.57-.67c-6.83-1.49-14.88-4.66-19.31-13.33-35-68.52-9.66-124.55-9.66-124.55s95.69-27.06,110.66,1.74C589.67,471.8,575.08,510.88,563.68,535.69Z" fill="#f6d6c6"/>
        <path d="M468.5,449.85s-8.89-.5-11.09-17.35c-2.17-16.64,2.22-21.26,2.22-21.26s39.51-16.53,53.7-18.68,49.07-4.22,57.24,5.13c0,0,19.87-4.61,25.28,28.37,8.59,52.32-29.26,103.12-29.26,103.12s.33-34.18-7.21-38.71-14,6.24-14,6.24l-15.42,2.77s23.42-50.57-4.67-52.45S484.58,452.78,468.5,449.85Z" fill="#f1bea6"/>
        <path d="M545.76,483.09c1.46-15.06,28.7-20.81,26.87-5S557.4,509,551.2,508.48,544.64,494.57,545.76,483.09Z" fill="#f6d6c6"/>
        <path d="M705.16,697.54c-8.87-28.42-16.55-50.9-20-53.34-6-4.27-53.2-17.27-75.63-26.05l-2.13-.84-6-2.35c-1-.39-1.94-.75-2.88-1.11l-1.55-.58c-.42-.17-.84-.34-1.25-.48,0,0-.06.09-.11.12a365.05,365.05,0,0,0-24.76,31.65c-23.17,32.94-53.36,86.3-48.73,135.56,1.49,15.8,3.32,38.51,6.4,64,.22,2,.47,4,.75,6.1H633.89c1.27-26.67,3.54-61.79,7-75.4a2,2,0,0,0,.08-.22.88.88,0,0,1,.06-.28c0-.14.08-.28.11-.42a1.43,1.43,0,0,0,.08-.22v0a.1.1,0,0,1,0-.06s25.31,39.56,26.61,76.65h65.82C730.44,815.74,720.38,746.3,705.16,697.54Z" fill="#6f6f6f"/>
        <path d="M484.11,619.75S476.21,646,466,711.65v0c-.36,2.19-.69,4.43-1.05,6.73,0,.25-.08.53-.11.81-.25,1.49-.47,3-.69,4.6l-.09.55c-.16,1-.33,2.08-.47,3.16-.39,2.58-.77,5.24-1.16,7.93-3.83,26.78-8.93,69.33-14.11,114.74H407c-2.24-12.61-4.35-24.09-4.18-32a3.35,3.35,0,0,0-.19.53c-3.3,9.14-6.94,19.1-10.62,28.77-.34.89-.67,1.77-1,2.66H319.75l71-185.65c1.42-1.11,19.68-10.95,31.77-16.69,12.62-6,28.55-13.42,42.69-19.93,6.77-3.13,13.12-6,18.49-8.51Z" fill="#6f6f6f"/>
        <path d="M580.22,684.68l-27.31,15.41L564.58,712,539,850.2h-9.65c-3.55-27.94-5.57-53-7.15-70.08C515,703.94,591.06,618,595.77,612.79c3.66,1.39,7.59,2.92,11.67,4.52Z" fill="#616262"/>
        <path d="M484.52,619s-10.2,33.3-22.06,116.43c-3.83,26.75-9,69.33-14.14,114.74h-4L439,719.61l13-14.09-11.56-14.44,24.73-63.15c6.77-3.13,13.12-6,18.49-8.51Z" fill="#616262"/>
        <path d="M597.15,613.12l-22.63-13.74s-.64,12.41-56.67,44.82L533.76,689Z" fill="#fdf1ec"/>
        <path d="M502.94,605.63s.88,13.39,14.91,38.57l-31.06,40.49L484.52,619Z" fill="#fdf1ec"/>
        <path d="M517.93,644.2s6,24.08,3.85,30.82c0,0-13.23,4.81-22.75-1.21C499,673.81,505.77,657,517.93,644.2Z" fill="#677ebe"/>
        <path d="M510.64,726.06c-6.35,43.25-6.35,87-4,124.14H480.11c-.36-5.24-.69-10.7-1-16.41-4.94-85.63,25.34-162.14,25.34-162.14l13.5-3.38S513.57,706.11,510.64,726.06Z" fill="#677ebe"/>
        <path d="M403.66,779.43c-1,20.54-.87,38.79-.87,38.79h0c0,.1,0,.66-.07,1.58l-.12-1c-3.29,9.15-6.94,19.09-10.61,28.77a309.23,309.23,0,0,1-.82-31.35c1.47-57.61,19.59-87.82,19.59-87.82C406.6,738.41,404.61,760,403.66,779.43Z" fill="#616262"/>
      </g>
      <g opacity="0.95">
        <polygon points="719.41 365.88 749.56 365.88 740.33 346.74 710.19 346.74 719.41 365.88" fill="url(#linear-gradient-3)"/>
        <polygon points="705.31 365.88 712.49 365.88 703.27 346.74 696.09 346.74 705.31 365.88" fill="url(#linear-gradient-4)"/>
        <polygon points="601.17 343.09 723.22 343.09 719.17 333.52 597.12 333.52 601.17 343.09" fill="url(#linear-gradient-5)"/>
      </g>
      <g>
        <rect x="38.59" y="443.41" width="51.72" height="15.59" rx="2.82" fill="url(#linear-gradient-6)"/>
        <rect x="38.59" y="480.78" width="51.72" height="15.59" rx="2.82" fill="url(#linear-gradient-7)"/>
        <rect x="38.59" y="518.16" width="51.72" height="15.59" rx="2.82" fill="url(#linear-gradient-8)"/>
        <rect x="111.66" y="443.41" width="14.72" height="15.59" rx="2.82" fill="url(#linear-gradient-9)"/>
        <rect x="111.66" y="480.78" width="14.72" height="15.59" rx="2.82" fill="url(#linear-gradient-10)"/>
        <rect x="111.66" y="518.16" width="14.72" height="15.59" rx="2.82" fill="url(#linear-gradient-11)"/>
      </g>
    </g>
  </g>
</svg>
