<?xml version="1.0" standalone="no"?>
<!DOCTYPE svg PUBLIC "-//W3C//DTD SVG 1.1//EN" "http://www.w3.org/Graphics/SVG/1.1/DTD/svg11.dtd" >
<svg xmlns="http://www.w3.org/2000/svg" xmlns:xlink="http://www.w3.org/1999/xlink" version="1.1">
<metadata>
Created by FontForge 20170731 at Tue Dec 29 17:42:27 2015
 By Aleksey,,,
Copyright (c) 2014 by Type Dynamic. All rights reserved.
</metadata>
<defs>
<font id="Sailec-BoldItalic" horiz-adv-x="602" >
  <font-face 
    font-family="Sailec-BoldItalic"
    font-weight="400"
    font-style="italic"
    font-stretch="normal"
    units-per-em="1000"
    panose-1="0 0 8 0 0 0 0 0 0 0"
    ascent="747"
    descent="-253"
    x-height="517"
    cap-height="748"
    bbox="-264 -380 1246.13 1079"
    underline-thickness="50"
    underline-position="-150"
    slope="-10"
    unicode-range="U+000D-FB02"
  />
<missing-glyph horiz-adv-x="735" 
d="M21 0l132 748h602l-132 -748h-602zM402 466l144 179h-220zM323 372l-88 194l-73 -387zM543 186l70 373l-155 -187zM452 104l-74 175l-141 -175h215z" />
    <glyph glyph-name=".notdef" horiz-adv-x="735" 
d="M21 0l132 748h602l-132 -748h-602zM402 466l144 179h-220zM323 372l-88 194l-73 -387zM543 186l70 373l-155 -187zM452 104l-74 175l-141 -175h215z" />
    <glyph glyph-name=".null" horiz-adv-x="0" 
 />
    <glyph glyph-name="nonmarkingreturn" unicode="&#xd;" horiz-adv-x="600" 
 />
    <glyph glyph-name="NULL" horiz-adv-x="0" 
 />
    <glyph glyph-name="NULL" horiz-adv-x="0" 
 />
    <glyph glyph-name="space" unicode=" " horiz-adv-x="226" 
 />
    <glyph glyph-name="exclam" unicode="!" horiz-adv-x="324" 
d="M80 228l83 520h170l-99 -520h-154zM134 166q21 0 37.5 -8t28 -21.5t16 -31t0.5 -37.5q-6 -34 -32.5 -56.5t-58.5 -22.5q-42 0 -65.5 28.5t-16.5 69.5q6 33 32.5 56t58.5 23z" />
    <glyph glyph-name="quotedbl" unicode="&#x22;" horiz-adv-x="419" 
d="M92 473l35 282h140l-64 -282h-111zM289 473l36 282h140l-64 -282h-112z" />
    <glyph glyph-name="numbersign" unicode="#" horiz-adv-x="669" 
d="M717 563l-47 -116h-108l-63 -151h110l-48 -116h-109l-75 -180h-121l75 180h-113l-75 -180h-120l75 180h-106l47 116h106l63 151h-108l48 116h107l78 185h121l-78 -185h113l77 185h121l-77 -185h107zM266 296h113l62 151h-112z" />
    <glyph glyph-name="dollar" unicode="$" horiz-adv-x="663" 
d="M489 526q5 48 -20.5 73.5t-75.5 25.5q-57 0 -91.5 -26t-39.5 -68q-3 -21 2.5 -35t20.5 -24.5t40 -18.5t61 -17q57 -14 103.5 -32t77 -44.5t44.5 -63t7 -87.5q-8 -54 -32 -94t-60 -66.5t-81 -41t-94 -17.5l-20 -108h-121l21 115q-95 20 -146 78t-39 152l157 5
q-6 -51 27 -80t90 -29t95 21.5t45 69.5q6 40 -27.5 61.5t-101.5 38.5q-51 13 -95.5 28.5t-76 40.5t-46.5 62.5t-7 93.5q6 42 25.5 80.5t52 68t78 48.5t104.5 22l18 107h120l-19 -116q85 -20 128.5 -76.5t33.5 -140.5z" />
    <glyph glyph-name="percent" unicode="%" horiz-adv-x="892" 
d="M285 759q40 0 72 -14t52.5 -40t28 -62.5t-0.5 -80.5q-7 -41 -25 -74.5t-44 -56.5t-58.5 -35.5t-68.5 -12.5q-41 0 -72.5 14t-52 40t-28.5 62.5t0 80.5q7 41 25.5 74t44.5 56.5t58.5 36t68.5 12.5zM82 0l625 748h144l-625 -748h-144zM280 657q-34 0 -57 -23.5t-30 -68.5
q-5 -38 10 -59.5t44 -21.5q33 0 56 24t30 69q5 38 -9.5 59t-43.5 21zM693 365q40 0 72 -14t52 -39.5t27.5 -62t-0.5 -80.5q-7 -41 -25 -74.5t-44 -57t-58.5 -36t-68.5 -12.5q-41 0 -72.5 14.5t-52 40.5t-28.5 62.5t0 80.5q7 41 25.5 74t45 56t59 35.5t68.5 12.5zM687 264
q-35 0 -57.5 -23.5t-29.5 -68.5q-7 -38 9 -59.5t45 -21.5q34 0 56.5 24t29.5 69q5 38 -9.5 59t-43.5 21z" />
    <glyph glyph-name="ampersand" unicode="&#x26;" horiz-adv-x="720" 
d="M515 87q-55 -51 -114 -74t-124 -23q-69 0 -117.5 18t-78.5 48.5t-41 71.5t-5 88q11 71 50 117t99 84q-21 29 -33.5 63.5t-5.5 78.5q7 50 29 87.5t55 62.5t75.5 37.5t91.5 12.5q97 0 154.5 -52t59.5 -143l-148 -2q0 71 -66 71q-41 0 -67 -22t-32 -64q-3 -19 1 -35
t13.5 -30.5t22.5 -29t28 -29.5l142 -133q31 53 60 128l133 -45q-22 -53 -45 -97t-47 -81l104 -98l-94 -108zM279 121q74 0 141 59l-150 147q-31 -21 -51.5 -48.5t-26.5 -67.5q-8 -43 16 -66.5t71 -23.5z" />
    <glyph glyph-name="quotesingle" unicode="'" horiz-adv-x="222" 
d="M93 473l35 282h140l-64 -282h-111z" />
    <glyph glyph-name="parenleft" unicode="(" horiz-adv-x="298" 
d="M360 687q-27 -36 -53 -77.5t-48 -88.5t-39.5 -99.5t-27.5 -110.5q-20 -112 -8.5 -202.5t40.5 -163.5l-126 -36q-18 38 -32.5 83.5t-22 98t-6.5 112.5t13 126q22 128 73 231t114 179z" />
    <glyph glyph-name="parenright" unicode=")" horiz-adv-x="298" 
d="M224 731q36 -76 53 -181.5t-6 -238.5q-22 -128 -73.5 -231t-114.5 -179l-122 52q54 73 100.5 166t67.5 210q19 112 7.5 202.5t-40.5 163.5z" />
    <glyph glyph-name="asterisk" unicode="*" horiz-adv-x="369" 
d="M410 682l12 -76l-123 -37l57 -95l-70 -48l-50 99l-88 -100l-61 49l89 95l-109 37l38 76l108 -40l20 122h81l-24 -122z" />
    <glyph glyph-name="plus" unicode="+" horiz-adv-x="548" 
d="M547 436l-23 -132h-172l-31 -178h-142l31 178h-172l24 132h172l31 176h141l-31 -176h172z" />
    <glyph glyph-name="comma" unicode="," horiz-adv-x="244" 
d="M96 166q45 0 64 -30.5t11 -76.5q-12 -68 -56 -125t-131 -97l2 65q28 17 49.5 39t35.5 51q-33 6 -51 32.5t-12 62.5q6 33 30.5 56t57.5 23z" />
    <glyph glyph-name="hyphen" unicode="-" horiz-adv-x="406" 
d="M34 194l24 136h316l-24 -136h-316z" />
    <glyph glyph-name="period" unicode="." horiz-adv-x="253" 
d="M98 166q21 0 38 -8t28 -21.5t15.5 -31t1.5 -37.5q-6 -34 -33 -56.5t-59 -22.5q-21 0 -37.5 7.5t-27.5 21t-15.5 31.5t-0.5 38q6 33 32 56t58 23z" />
    <glyph glyph-name="slash" unicode="/" horiz-adv-x="421" 
d="M-52 -67l399 815h156l-399 -815h-156z" />
    <glyph glyph-name="zero" unicode="0" horiz-adv-x="651" 
d="M391 759q65 0 115.5 -26t82 -76.5t42.5 -124t-3 -167.5q-13 -92 -43 -162t-73 -117.5t-97 -72t-114 -24.5q-65 0 -115.5 26t-82 76.5t-42.5 123.5t3 168q13 91 43 161.5t73 118t96.5 72t114.5 24.5zM387 622q-71 0 -110.5 -64t-59.5 -190q-17 -119 4.5 -180.5t82.5 -61.5
q71 0 111.5 64t58.5 190q17 119 -4.5 180.5t-82.5 61.5z" />
    <glyph glyph-name="one" unicode="1" horiz-adv-x="393" 
d="M118 0l97 547l-90 -58l-62 121l227 138h114l-132 -748h-154z" />
    <glyph glyph-name="two" unicode="2" horiz-adv-x="542" 
d="M360 759q54 0 95 -16.5t67 -46.5t35.5 -71.5t0.5 -91.5q-8 -46 -24 -82t-38.5 -66.5t-51 -57.5t-59.5 -55l-152 -135h257l-24 -137h-463l21 117l249 231q61 56 91.5 100t37.5 92q6 38 -8 60t-48 22q-43 0 -65.5 -27.5t-32.5 -77.5l-152 9q21 115 88 174t176 59z" />
    <glyph glyph-name="three" unicode="3" horiz-adv-x="568" 
d="M357 759q58 0 100 -16.5t68 -46.5t35 -72t0 -94q-10 -58 -38 -92t-70 -57q17 -7 31.5 -21.5t24.5 -36t13 -49.5t-3 -61q-9 -54 -33.5 -95.5t-60 -70t-80.5 -43.5t-97 -15q-62 0 -106.5 17t-71.5 47.5t-37.5 73.5t-2.5 95l153 -1q-11 -95 73 -95q44 0 73 25t38 76
q8 45 -13.5 69.5t-65.5 24.5h-82l24 129h70q38 0 69 22t39 67q6 38 -10 60.5t-50 22.5q-42 0 -67 -26.5t-36 -72.5l-150 19q20 103 87 160t176 57z" />
    <glyph glyph-name="four" unicode="4" horiz-adv-x="603" 
d="M582 268l-24 -137h-112l-23 -131h-139l24 131h-303l23 127l406 490h121l-84 -480h111zM331 268l39 214l-179 -214h140z" />
    <glyph glyph-name="five" unicode="5" horiz-adv-x="570" 
d="M253 464q31 11 66 11q51 0 93.5 -16t71 -47t40 -77.5t1.5 -106.5q-8 -55 -31 -99t-58 -75t-82 -48t-103 -17q-59 0 -103 16t-72 45t-40 69.5t-6 89.5l153 4q-4 -41 16.5 -64t60.5 -23q50 0 77 30.5t35 81.5q8 46 -12 73t-59 27q-28 0 -46.5 -8t-36.5 -19l-146 1l77 436
h438l-24 -136h-284z" />
    <glyph glyph-name="six" unicode="6" horiz-adv-x="608" 
d="M378 485q48 -8 86.5 -29.5t64 -54t36.5 -76t4 -94.5q-8 -55 -32.5 -100t-61.5 -76.5t-84.5 -48.5t-101.5 -17q-59 0 -108 18.5t-82.5 53t-49 82t-6.5 106.5q7 45 23.5 83.5t48.5 73.5l309 342h189zM413 246q8 61 -18 89.5t-69 28.5q-26 0 -49 -9.5t-41 -29.5
q-15 -17 -24 -36t-13 -46q-7 -60 18.5 -88.5t70.5 -28.5q26 0 48 9.5t38 26t26 38.5t13 46z" />
    <glyph glyph-name="seven" unicode="7" horiz-adv-x="541" 
d="M175 0h-178l400 612h-314l24 136h492l-22 -124z" />
    <glyph glyph-name="eight" unicode="8" horiz-adv-x="615" 
d="M377 759q54 0 98 -15.5t73.5 -44t42.5 -69t4 -91.5q-13 -92 -94 -146q34 -25 53 -71t9 -110q-9 -53 -34.5 -94t-63 -70t-85.5 -44t-102 -15q-58 0 -105.5 17t-79 48.5t-45.5 76t-5 100.5q18 113 118 174q-26 23 -40.5 61t-6.5 91q8 48 31.5 85.5t58 63.5t79 39.5
t94.5 13.5zM368 622q-41 0 -69.5 -24.5t-33.5 -65.5q-4 -38 16.5 -57.5t56.5 -19.5q40 0 69 22.5t34 64.5q5 38 -15.5 59t-57.5 21zM324 332q-52 0 -86.5 -29.5t-41.5 -79.5q-5 -46 19.5 -71.5t69.5 -25.5q52 0 86.5 29.5t40.5 79.5q5 46 -19 71.5t-69 25.5z" />
    <glyph glyph-name="nine" unicode="9" horiz-adv-x="608" 
d="M360 759q59 0 108 -18.5t82.5 -53t49 -82.5t6.5 -106q-7 -45 -23.5 -83.5t-48.5 -73.5l-309 -342h-189l235 263q-48 8 -86.5 29.5t-64 54t-37 76t-3.5 94.5q8 55 32.5 100t61.5 76.5t84.5 48.5t101.5 17zM323 384q26 0 49 9.5t41 29.5q15 17 24 36t13 46q7 60 -18.5 88.5
t-70.5 28.5q-26 0 -48 -9.5t-38 -26t-26 -38.5t-13 -46q-8 -61 18 -89.5t69 -28.5z" />
    <glyph glyph-name="colon" unicode=":" horiz-adv-x="253" 
d="M162 527q42 0 65.5 -28.5t16.5 -69.5q-6 -33 -32.5 -55.5t-58.5 -22.5q-42 0 -65.5 28t-16.5 69q6 33 32.5 56t58.5 23zM97 166q21 0 38 -8t28 -21.5t15.5 -31t1.5 -37.5q-6 -34 -33 -56.5t-59 -22.5q-21 0 -37.5 7.5t-27.5 21t-15.5 31.5t-0.5 38q6 33 32 56t58 23z" />
    <glyph glyph-name="semicolon" unicode=";" horiz-adv-x="253" 
d="M162 527q42 0 65.5 -28.5t16.5 -69.5q-6 -33 -32.5 -55.5t-58.5 -22.5q-42 0 -65.5 28t-16.5 69q6 33 32.5 56t58.5 23zM104 166q44 0 63.5 -30.5t11.5 -76.5q-13 -69 -56.5 -125t-130.5 -97l2 65q28 17 49.5 39t35.5 51q-34 6 -52 32.5t-11 62.5q6 33 30.5 56t57.5 23z
" />
    <glyph glyph-name="less" unicode="&#x3c;" horiz-adv-x="538" 
d="M334 369l174 -101l-28 -166l-431 267l523 266l-26 -165z" />
    <glyph glyph-name="equal" unicode="=" horiz-adv-x="548" 
d="M60 424l25 137h485l-24 -137h-486zM17 179l24 137h486l-25 -137h-485z" />
    <glyph glyph-name="greater" unicode="&#x3e;" horiz-adv-x="538" 
d="M5 102l27 166l212 101l-175 101l28 165l432 -266z" />
    <glyph glyph-name="question" unicode="?" horiz-adv-x="535" 
d="M343 760q60 0 106 -17t74.5 -47.5t39.5 -74t1 -97.5q-10 -59 -43 -96.5t-76 -67.5q-20 -14 -37 -26t-30 -24t-22 -26t-12 -32l-4 -24h-154l6 36q8 52 41 90.5t75 69.5q37 26 65.5 50t35.5 62q8 40 -13 64t-62 24q-48 0 -78 -27.5t-41 -74.5l-150 14q11 52 36 93.5
t61 70.5t82 44.5t99 15.5zM240 166q21 0 37.5 -8t28 -21.5t16 -31t0.5 -37.5q-6 -34 -32.5 -56.5t-58.5 -22.5q-42 0 -65.5 28.5t-16.5 69.5q6 33 32.5 56t58.5 23z" />
    <glyph glyph-name="at" unicode="@" horiz-adv-x="794" 
d="M439 607q81 0 145 -28t106 -77.5t60 -117.5t7 -147q-14 -100 -61 -149.5t-119 -49.5q-73 0 -101 42q-24 -23 -52.5 -34t-66.5 -11q-45 0 -81 16t-60 45t-34 69.5t-3 90.5q6 46 24.5 83.5t46 63.5t63 40.5t75.5 14.5q48 0 77.5 -15.5t43.5 -35.5l9 36h105l-51 -292
q-6 -37 28 -37q28 0 53.5 33.5t36.5 108.5q9 62 -5.5 114.5t-47.5 90.5t-83 59t-112 21q-66 0 -124 -23t-103.5 -63.5t-75.5 -96t-39 -121.5q-10 -66 6.5 -118.5t51.5 -89t86.5 -56t112.5 -19.5q52 0 94.5 12.5t80.5 33.5l24 -67q-45 -24 -95 -35t-104 -11q-82 0 -147 27
t-108.5 76t-62 117t-6.5 149q11 76 47 140.5t90.5 111.5t123.5 73t145 26zM369 133q44 0 72 26.5t36 76.5l3 17q8 51 -14.5 78.5t-64.5 27.5q-43 0 -72 -27.5t-37 -81.5q-9 -55 13.5 -86t63.5 -31z" />
    <glyph glyph-name="A" unicode="A" horiz-adv-x="789" 
d="M567 0l-36 147h-310l-88 -147h-169l453 748h130l189 -748h-169zM499 268l-60 241l-144 -241h204z" />
    <glyph glyph-name="B" unicode="B" horiz-adv-x="706" 
d="M469 748q51 0 91.5 -14.5t67.5 -43t38 -70t2 -95.5q-9 -53 -34 -84t-59 -52q16 -8 31 -23.5t25.5 -38t14 -52t-2.5 -66.5q-9 -52 -33 -91t-59.5 -65.5t-81.5 -39.5t-100 -13h-340l132 748h308zM263 448h146q38 0 66.5 18.5t36.5 63.5q7 41 -14.5 61.5t-64.5 20.5h-141z
M208 137h159q45 0 80 20.5t43 69.5q7 46 -17.5 68t-67.5 22h-165z" />
    <glyph glyph-name="C" unicode="C" horiz-adv-x="826" 
d="M492 759q70 0 129 -20t102.5 -57t68 -90t25.5 -119l-161 -12q-4 80 -51 120.5t-120 40.5q-52 0 -96 -18t-78 -52t-56 -81.5t-30 -105.5q-8 -59 2.5 -104t35.5 -75t61.5 -45t80.5 -15q81 0 140.5 41.5t85.5 119.5l159 -18q-20 -66 -57.5 -118t-87.5 -88t-111 -55t-127 -19
q-84 0 -152 27t-113 78t-64.5 124t-6.5 165q12 89 49.5 159t93.5 118t127 73.5t151 25.5z" />
    <glyph glyph-name="D" unicode="D" horiz-adv-x="803" 
d="M450 748q80 0 146 -26t110 -75.5t62.5 -120.5t3.5 -161q-15 -89 -52 -157.5t-91.5 -114.5t-124 -69.5t-148.5 -23.5h-327l132 748h289zM207 132h159q49 0 92 15.5t77 46.5t56.5 78t31.5 109q16 118 -33.5 176.5t-147.5 58.5h-150z" />
    <glyph glyph-name="E" unicode="E" 
d="M291 612l-28 -162h282l-24 -133h-282l-31 -180h326l-24 -137h-481l132 748h480l-24 -136h-326z" />
    <glyph glyph-name="F" unicode="F" horiz-adv-x="588" 
d="M291 612l-28 -162h265l-25 -136h-264l-55 -314h-155l132 748h480l-24 -136h-326z" />
    <glyph glyph-name="G" unicode="G" horiz-adv-x="834" 
d="M810 408l-7 -55q-12 -83 -45 -150t-84.5 -114.5t-119.5 -73.5t-148 -26q-84 0 -151.5 27t-112.5 78t-64.5 124t-6.5 165q12 89 49.5 159t93.5 118t127 73.5t151 25.5q67 0 123 -18t98 -51.5t68 -82.5t33 -110l-159 -18q-6 69 -50.5 106t-116.5 37q-53 0 -97 -16.5
t-78 -48.5t-56.5 -80t-31.5 -112q-8 -60 1.5 -105t33.5 -75t61.5 -44.5t85.5 -14.5q72 0 128 35.5t84 110.5h-185l19 136h357z" />
    <glyph glyph-name="H" unicode="H" horiz-adv-x="762" 
d="M487 0l56 315h-304l-55 -315h-155l132 748h155l-53 -296h304l52 296h154l-132 -748h-154z" />
    <glyph glyph-name="I" unicode="I" horiz-adv-x="305" 
d="M29 0l132 748h155l-132 -748h-155z" />
    <glyph glyph-name="J" unicode="J" horiz-adv-x="614" 
d="M545 262q-23 -132 -102.5 -202.5t-198.5 -70.5q-60 0 -105.5 18.5t-75 53t-41.5 83t-5 108.5l156 7q-8 -66 11.5 -99.5t70.5 -33.5q52 0 88 36t48 101l85 485h154z" />
    <glyph glyph-name="K" unicode="K" horiz-adv-x="721" 
d="M661 0h-168l-152 322l-120 -115l-37 -207h-155l132 748h155l-57 -309l309 309h204l-316 -312z" />
    <glyph glyph-name="L" unicode="L" horiz-adv-x="591" 
d="M534 137l-24 -137h-481l132 748h155l-108 -611h326z" />
    <glyph glyph-name="M" unicode="M" horiz-adv-x="973" 
d="M699 0l70 400l-274 -392h-102l-138 400l-71 -408h-155l132 748h131l185 -514l364 514h143l-132 -748h-153z" />
    <glyph glyph-name="N" unicode="N" horiz-adv-x="764" 
d="M512 0l-247 463l-81 -463h-155l132 748h131l247 -464l82 464h154l-132 -748h-131z" />
    <glyph glyph-name="O" unicode="O" horiz-adv-x="875" 
d="M488 759q86 0 156 -28t118 -79t70.5 -124t12.5 -163q-9 -87 -45 -156.5t-91 -118t-127 -75t-153 -26.5q-87 0 -157.5 28t-118.5 79.5t-70 124t-12 162.5q9 87 45 156.5t91.5 118t127 75t153.5 26.5zM486 622q-53 0 -98.5 -18t-80 -51t-55.5 -80.5t-26 -107.5
q-5 -56 8 -100.5t40 -75.5t67 -47t89 -16q53 0 98.5 18t80 51t55.5 80.5t26 107.5q5 57 -8 101t-40.5 75t-67 47t-88.5 16z" />
    <glyph glyph-name="P" unicode="P" horiz-adv-x="667" 
d="M461 748q54 0 98 -17t74 -49.5t43.5 -79t5.5 -106.5q-7 -56 -29.5 -99t-57.5 -72t-81 -44t-99 -15h-184l-47 -266h-155l132 748h300zM255 403h153q45 0 79 25.5t41 79.5q6 48 -19 76t-70 28h-148z" />
    <glyph glyph-name="Q" unicode="Q" horiz-adv-x="879" 
d="M488 759q86 0 156 -28t118 -79t70.5 -124t12.5 -163q-8 -72 -34 -132.5t-68 -107.5l82 -97l-113 -101l-89 106q-88 -44 -194 -44q-87 0 -157.5 28t-118.5 79.5t-70 124t-12 162.5q9 87 45 156.5t91.5 118t127 75t153.5 26.5zM646 241q36 59 44 142q5 57 -8 101t-40.5 75
t-67 47t-88.5 16q-53 0 -98.5 -18t-80 -51t-55.5 -80.5t-26 -107.5q-5 -56 8 -100.5t40 -75.5t67 -47t89 -16q54 0 99 18l-100 118l114 101z" />
    <glyph glyph-name="R" unicode="R" horiz-adv-x="707" 
d="M679 497q-15 -81 -56 -134t-104 -76l106 -287h-162l-99 269h-133l-47 -269h-155l132 748h296q54 0 98 -17t74.5 -49.5t44 -79t5.5 -105.5zM523 509q7 48 -17.5 75.5t-69.5 27.5h-145l-36 -206h150q45 0 77 24.5t41 78.5z" />
    <glyph glyph-name="S" unicode="S" horiz-adv-x="663" 
d="M391 759q64 0 114 -16t83.5 -45.5t49 -71.5t9.5 -94l-158 -6q5 48 -20.5 73.5t-75.5 25.5q-57 0 -91.5 -26t-39.5 -68q-3 -21 2.5 -35t20.5 -24.5t40 -18.5t61 -17q57 -14 103.5 -32t77 -44.5t44.5 -63t7 -87.5q-9 -58 -36 -99.5t-67 -68.5t-90 -39.5t-104 -12.5
q-67 0 -121 16t-91 46.5t-54 74.5t-9 101l157 5q-6 -51 27 -80t90 -29t95 21.5t45 69.5q6 40 -27.5 61.5t-101.5 38.5q-51 13 -95.5 28.5t-76 40.5t-46.5 62.5t-7 93.5q6 45 27.5 85t57 70t85.5 47.5t115 17.5z" />
    <glyph glyph-name="T" unicode="T" horiz-adv-x="693" 
d="M486 612l-108 -612h-154l108 612h-251l25 136h655l-25 -136h-250z" />
    <glyph glyph-name="U" unicode="U" horiz-adv-x="777" 
d="M714 299q-27 -151 -121.5 -230.5t-240.5 -79.5q-75 0 -132 22t-92.5 63t-48.5 100t0 134l77 440h155l-79 -444q-17 -90 18 -134t112 -44q85 0 135 48t65 134l77 440h154z" />
    <glyph glyph-name="V" unicode="V" horiz-adv-x="783" 
d="M281 0l-183 748h161l121 -509l300 509h178l-447 -748h-130z" />
    <glyph glyph-name="W" unicode="W" horiz-adv-x="1124" 
d="M676 0l-75 478l-243 -478h-131l-129 748h161l72 -492l246 492h126l73 -492l246 492h177l-393 -748h-130z" />
    <glyph glyph-name="X" unicode="X" horiz-adv-x="727" 
d="M662 0h-172l-122 268l-212 -268h-185l306 392l-158 356h171l110 -257l199 257h186l-294 -376z" />
    <glyph glyph-name="Y" unicode="Y" horiz-adv-x="744" 
d="M404 0h-154l53 288l-203 460h171l125 -304l236 304h189l-365 -460z" />
    <glyph glyph-name="Z" unicode="Z" horiz-adv-x="626" 
d="M220 137h351l-24 -137h-555l21 116l428 496h-336l24 136h540l-21 -117z" />
    <glyph glyph-name="bracketleft" unicode="[" horiz-adv-x="307" 
d="M258 597l-97 -553h87l-20 -121h-234l140 795h234l-22 -121h-88z" />
    <glyph glyph-name="backslash" unicode="\" horiz-adv-x="421" 
d="M206 -67l-111 815h149l111 -815h-149z" />
    <glyph glyph-name="bracketright" unicode="]" horiz-adv-x="307" 
d="M-38 -77l21 121h88l98 553h-88l21 121h234l-140 -795h-234z" />
    <glyph glyph-name="asciicircum" unicode="^" horiz-adv-x="596" 
d="M426 372l-74 167l-138 -167h-169l339 394l204 -394h-162z" />
    <glyph glyph-name="underscore" unicode="_" horiz-adv-x="688" 
d="M-24 -137l24 137h598l-24 -137h-598z" />
    <glyph glyph-name="grave" unicode="`" horiz-adv-x="268" 
d="M207 598l-102 191h162l50 -191h-110z" />
    <glyph glyph-name="a" unicode="a" horiz-adv-x="556" 
d="M320 527q48 0 85.5 -14.5t61.5 -42t32.5 -67t-0.5 -89.5l-56 -314h-135l8 41q-24 -23 -57 -37.5t-83 -14.5q-37 0 -67.5 11t-51 32t-29.5 51.5t-2 69.5q7 41 28.5 68.5t53 44.5t69.5 24.5t79 9.5l95 5l5 23q6 35 -7 56t-46 21q-42 0 -61.5 -22.5t-24.5 -49.5l-143 11
q6 34 26 67t52 59t74.5 41.5t93.5 15.5zM266 204q-41 -2 -66.5 -15t-29.5 -42q-3 -22 11 -33.5t40 -11.5q38 0 69.5 22t40.5 66l3 18z" />
    <glyph glyph-name="b" unicode="b" horiz-adv-x="657" 
d="M252 476q22 24 55 37.5t84 13.5q57 0 102 -20t74 -56.5t41 -88t3 -113.5q-8 -59 -31 -107t-59 -82t-83 -52.5t-102 -18.5q-60 0 -100 21t-58 49l-14 -59h-137l136 777h146zM358 402q-56 0 -92.5 -33.5t-45.5 -94.5l-4 -24q-9 -66 22 -101t85 -35q56 0 95 35.5t47 103.5
q5 36 -1.5 63.5t-21 46.5t-36.5 29t-48 10z" />
    <glyph glyph-name="c" unicode="c" horiz-adv-x="592" 
d="M333 527q49 0 90.5 -14.5t72 -40.5t47.5 -64t19 -84l-142 -10q0 42 -23.5 65t-64.5 23q-57 0 -94 -40.5t-48 -112.5q-8 -66 19.5 -100t75.5 -34q47 0 77.5 23.5t41.5 59.5l141 -15q-13 -46 -38 -82t-59 -61t-75.5 -38t-86.5 -13q-60 0 -108 19t-80 55t-46 88t-6 117
q8 62 33 110t63 81t87 50.5t104 17.5z" />
    <glyph glyph-name="d" unicode="d" horiz-adv-x="657" 
d="M404 0l7 47q-24 -28 -59 -43t-86 -15q-57 0 -102 20t-74 57t-41 88t-3 114q8 59 31 107t58.5 81.5t82.5 52t103 18.5q59 0 97.5 -18t52.5 -43l59 311h146l-136 -777h-136zM334 402q-56 0 -95 -35t-47 -103q-5 -36 1 -63.5t20.5 -46.5t36.5 -29t48 -10q57 0 93.5 33
t45.5 94l4 24q8 66 -22.5 101t-84.5 35z" />
    <glyph glyph-name="e" unicode="e" horiz-adv-x="598" 
d="M333 527q58 0 103.5 -18.5t75 -52.5t41.5 -82.5t3 -109.5l-9 -52h-354q-4 -51 20.5 -78t73.5 -27q39 0 64 15.5t37 41.5l147 -10q-12 -39 -36.5 -69.5t-57.5 -52t-73 -32.5t-83 -11q-61 0 -109.5 19.5t-80 55.5t-45 87.5t-4.5 116.5q9 61 34 109t62.5 81.5t86 51
t104.5 17.5zM331 413q-49 0 -81 -28t-43 -76h207q7 50 -14.5 77t-68.5 27z" />
    <glyph glyph-name="f" unicode="f" horiz-adv-x="380" 
d="M401 783q21 0 33 -1t23 -3l-22 -125q-7 2 -14 2h-14q-42 0 -72 -25t-36 -62l-9 -52h120l-23 -126h-120l-68 -391h-146l69 391h-94l23 126h93l11 58q8 49 30 87.5t54.5 65.5t73.5 41t88 14z" />
    <glyph glyph-name="g" unicode="g" horiz-adv-x="648" 
d="M321 527q60 0 100.5 -21t57.5 -49l14 60h137l-95 -541q-9 -56 -35 -100.5t-64.5 -76t-89 -48t-108.5 -16.5q-62 0 -107 15t-74 41t-42.5 61.5t-12.5 77.5l142 4q-1 -38 25 -56.5t71 -18.5q59 0 98.5 31t50.5 85l12 63q-19 -23 -51.5 -36t-83.5 -13q-57 0 -101.5 20
t-74 57t-41 88t-2.5 114q8 59 31 107t58.5 81.5t82 52t102.5 18.5zM334 402q-55 0 -94 -35t-48 -103q-5 -36 1.5 -63.5t21 -46.5t36.5 -29t48 -10q56 0 92.5 33t45.5 94l4 24q9 66 -22 101t-85 35z" />
    <glyph glyph-name="h" unicode="h" horiz-adv-x="616" 
d="M253 478q19 20 52 34.5t81 14.5q45 0 81 -14.5t59.5 -42.5t32.5 -68.5t0 -91.5l-54 -310h-146l51 289q9 50 -10.5 76t-60.5 26q-48 0 -78 -29.5t-38 -76.5l-51 -285h-146l137 777h146z" />
    <glyph glyph-name="i" unicode="i" horiz-adv-x="291" 
d="M225 774q21 0 37.5 -7.5t27 -21t15 -31t1.5 -37.5q-6 -33 -32.5 -55.5t-58.5 -22.5q-20 0 -36.5 7.5t-27.5 20.5t-15.5 30.5t-1.5 37.5q7 34 33.5 56.5t57.5 22.5zM26 0l92 517h146l-92 -517h-146z" />
    <glyph glyph-name="j" unicode="j" horiz-adv-x="291" 
d="M225 774q21 0 37.5 -7.5t27 -21t15 -31t1.5 -37.5q-6 -33 -32.5 -55.5t-58.5 -22.5q-20 0 -36.5 7.5t-27.5 20.5t-15.5 30.5t-1.5 37.5q7 34 33 56.5t58 22.5zM164 -55q-9 -49 -31 -87.5t-54 -65t-73 -40.5t-87 -14q-22 0 -33.5 1t-22.5 3l22 125q8 -2 15 -2h14
q42 0 70 24.5t35 62.5l99 565h147z" />
    <glyph glyph-name="k" unicode="k" horiz-adv-x="582" 
d="M427 517h186l-243 -225l154 -292h-162l-101 190l-64 -55l-25 -135h-146l137 777h146l-79 -442z" />
    <glyph glyph-name="l" unicode="l" horiz-adv-x="291" 
d="M26 0l137 777h146l-137 -777h-146z" />
    <glyph glyph-name="m" unicode="m" horiz-adv-x="930" 
d="M704 527q94 0 140 -56t29 -154l-56 -317h-146l51 289q9 50 -9 76t-56 26q-45 0 -73.5 -27.5t-37.5 -70.5l-2 -10l-50 -283h-145l51 289q8 50 -10 76t-56 26q-48 0 -76 -29t-36 -77l-50 -285h-146l92 517h134l-9 -52q20 26 54 44t84 18q57 0 97 -21.5t60 -60.5
q28 37 68.5 59.5t97.5 22.5z" />
    <glyph glyph-name="n" unicode="n" horiz-adv-x="618" 
d="M386 527q45 0 81 -14.5t59.5 -42.5t32.5 -68.5t0 -91.5l-54 -310h-146l51 289q9 50 -10.5 76t-60.5 26q-48 0 -78 -29.5t-38 -76.5l-51 -285h-146l92 517h134l-8 -47q20 24 56 40.5t86 16.5z" />
    <glyph glyph-name="o" unicode="o" horiz-adv-x="638" 
d="M339 527q61 0 111.5 -20t84.5 -56.5t49.5 -87.5t7.5 -114q-6 -59 -31.5 -107t-64.5 -82t-89.5 -52.5t-107.5 -18.5q-62 0 -112 20t-84 56.5t-49.5 88t-7.5 114.5q6 59 31.5 107t64.5 81.5t89.5 52t107.5 18.5zM341 402q-61 0 -102.5 -40.5t-47.5 -112.5
q-5 -65 24.5 -99.5t81.5 -34.5q61 0 102.5 40.5t47.5 112.5q5 64 -24.5 99t-81.5 35z" />
    <glyph glyph-name="p" unicode="p" horiz-adv-x="657" 
d="M391 527q57 0 102 -20t74.5 -56.5t41 -88t2.5 -113.5q-8 -59 -31 -107t-58.5 -82t-82.5 -52.5t-102 -18.5q-60 0 -98 18.5t-53 42.5l-58 -305h-146l135 772h136l-7 -48q24 28 59 43t86 15zM359 402q-56 0 -93 -33.5t-46 -94.5l-3 -24q-9 -66 21.5 -101t84.5 -35
q56 0 95 35.5t47 103.5q5 36 -1 63.5t-20.5 46.5t-36.5 29t-48 10z" />
    <glyph glyph-name="q" unicode="q" horiz-adv-x="657" 
d="M321 527q60 0 100.5 -21t57.5 -49l14 60h137l-136 -772h-146l58 296q-23 -25 -56 -38.5t-84 -13.5q-57 0 -101.5 20t-74 57t-41 88t-2.5 114q8 59 31 107t58.5 81.5t82 52t102.5 18.5zM334 402q-55 0 -94 -35t-48 -103q-5 -36 1.5 -63.5t21 -46.5t36.5 -29t48 -10
q56 0 92.5 33t45.5 94l4 24q9 66 -22 101t-85 35z" />
    <glyph glyph-name="r" unicode="r" horiz-adv-x="378" 
d="M376 381q-32 0 -58.5 -9.5t-47.5 -26t-34.5 -39t-17.5 -49.5l-46 -257h-146l92 517h136l-9 -55q21 25 58 42.5t97 17.5z" />
    <glyph glyph-name="s" unicode="s" horiz-adv-x="506" 
d="M277 527q51 0 88.5 -14t62 -37t35.5 -54t10 -64l-145 -3q3 27 -12.5 43.5t-46.5 16.5q-29 0 -45.5 -12.5t-20.5 -32.5q-4 -27 20 -37t66 -20q39 -10 71 -22.5t53.5 -31t31.5 -44.5t5 -63q-11 -75 -69.5 -119t-155.5 -44q-105 0 -157 45.5t-48 122.5l144 5q-6 -61 67 -61
q32 0 51 11.5t22 34.5q4 23 -13 36.5t-65 25.5q-41 11 -75 22.5t-56.5 29t-32.5 44.5t-4 68q11 72 68 113t151 41z" />
    <glyph glyph-name="t" unicode="t" horiz-adv-x="404" 
d="M239 197q-3 -21 0.5 -35.5t12.5 -23.5t21 -13t25 -4q20 0 31.5 2t20.5 4l-22 -132q-16 -2 -33 -3.5t-43 -1.5q-44 0 -78.5 11t-56 33.5t-29.5 56t0 78.5l41 222h-95l22 126h96l31 171h146l-31 -171h120l-22 -126h-121z" />
    <glyph glyph-name="u" unicode="u" 
d="M352 0l7 51q-20 -26 -54 -44t-84 -18q-94 0 -138 54t-28 150l58 324h146l-52 -296q-8 -48 8.5 -72t54.5 -24q47 0 73.5 27t34.5 72l52 293h145l-91 -517h-132z" />
    <glyph glyph-name="v" unicode="v" horiz-adv-x="573" 
d="M183 0l-133 517h155l66 -305l174 305h169l-315 -517h-116z" />
    <glyph glyph-name="w" unicode="w" horiz-adv-x="846" 
d="M478 0l-53 269l-149 -269h-119l-107 517h155l47 -299l158 299h102l54 -299l152 299h169l-289 -517h-120z" />
    <glyph glyph-name="x" unicode="x" horiz-adv-x="553" 
d="M494 0h-157l-75 158l-127 -158h-169l216 266l-118 251h155l70 -154l127 154h169l-213 -260z" />
    <glyph glyph-name="y" unicode="y" horiz-adv-x="578" 
d="M-18 -255l187 307l-117 465h161l64 -305l173 305h162l-466 -772h-164z" />
    <glyph glyph-name="z" unicode="z" horiz-adv-x="455" 
d="M189 118h207l-19 -118h-388l16 96l257 303h-199l21 118h376l-17 -97z" />
    <glyph glyph-name="braceleft" unicode="{" horiz-adv-x="303" 
d="M340 597q-45 0 -66.5 -31t-25.5 -108q0 -27 -2.5 -50.5t-11.5 -42t-26.5 -30.5t-48.5 -15q26 -3 39 -16.5t16.5 -34.5t-1.5 -48t-14 -57q-12 -35 -16.5 -58t-0.5 -37t16 -19.5t35 -5.5h11l-21 -121h-2q-53 0 -95 15.5t-66 46t-27 76.5t20 108q11 26 18 43.5t6.5 28.5
t-11.5 15.5t-36 4.5h-13l21 119h3q25 0 39.5 6.5t22.5 20t10 34t1 49.5q-3 58 14 101t49 71.5t77 42t98 13.5h11l-21 -121h-2z" />
    <glyph glyph-name="bar" unicode="|" horiz-adv-x="288" 
d="M14 -67l144 815h145l-144 -815h-145z" />
    <glyph glyph-name="braceright" unicode="}" horiz-adv-x="303" 
d="M104 718q53 0 94.5 -15.5t65.5 -46t27.5 -77t-19.5 -107.5q-12 -26 -19 -43.5t-6 -28.5t12 -15.5t35 -4.5h14l-21 -119h-3q-25 0 -39.5 -6.5t-22.5 -20t-10 -34t-2 -49.5q3 -59 -13.5 -102t-48.5 -71t-77 -41.5t-98 -13.5h-11l21 121h2q45 0 66.5 31t25.5 108
q0 27 2.5 50.5t11.5 42t27 30.5t49 16q-26 3 -39 16t-16.5 34t1 48t13.5 57q12 35 16 58t0.5 37t-16 19.5t-34.5 5.5h-11l21 121h2z" />
    <glyph glyph-name="asciitilde" unicode="~" horiz-adv-x="544" 
d="M556 362q-42 -43 -82.5 -65.5t-87.5 -22.5q-33 0 -56.5 9t-42.5 19.5t-37 19.5t-42 9q-39 0 -67.5 -13.5t-57.5 -42.5l-54 105q40 43 80.5 65t86.5 22q31 0 53.5 -9t42 -19.5t38.5 -19.5t44 -9q40 0 69 14t57 43z" />
    <glyph glyph-name="exclamdown" unicode="&#xa1;" horiz-adv-x="324" 
d="M188 334q-21 0 -38 8t-28 21.5t-15.5 31t-1.5 37.5q6 34 33 56.5t59 22.5q21 0 37.5 -7.5t27.5 -21t15.5 -31.5t0.5 -38q-5 -33 -31.5 -56t-58.5 -23zM242 272l-83 -520h-171l100 520h154z" />
    <glyph glyph-name="cent" unicode="&#xa2;" horiz-adv-x="592" 
d="M285 115q47 0 77.5 23.5t41.5 59.5l141 -15q-24 -84 -85 -133.5t-142 -58.5l-19 -109h-121l20 119q-40 12 -71.5 35.5t-51.5 57.5t-28 77.5t-1 96.5q7 56 28 100.5t53.5 77t73.5 52.5t89 26l19 103h121l-20 -110q68 -19 108.5 -69t43.5 -124l-142 -10q0 42 -23.5 65
t-64.5 23q-57 0 -94 -40.5t-48 -112.5q-8 -66 19.5 -100t75.5 -34z" />
    <glyph glyph-name="sterling" unicode="&#xa3;" horiz-adv-x="566" 
d="M435 547q6 35 -7.5 55t-45.5 20q-40 0 -62 -27.5t-26 -75.5l-8 -92h149l-21 -121h-138l-1 -11q-5 -61 -25.5 -98t-52.5 -64l326 4l-24 -137h-516l18 127q64 13 93.5 57t36.5 122h-95l22 121h83l6 68q10 128 69 196t180 68q103 0 154.5 -55.5t37.5 -151.5z" />
    <glyph glyph-name="currency" unicode="&#xa4;" horiz-adv-x="601" 
d="M487 243q-9 -50 -32 -88l90 -107l-103 -91l-93 109q-33 -13 -74 -13q-48 0 -82 18l-131 -114l-81 91l135 117q-12 43 -3 97q9 48 33 87l-93 108l105 92l93 -111q36 14 73 14q23 0 44 -5t38 -13l132 115l80 -92l-135 -118q6 -21 7.5 -45.5t-3.5 -50.5zM230 246
q-8 -44 6 -67t43 -23q35 0 59 27t33 75q7 42 -7 66t-44 24q-35 0 -58.5 -26.5t-31.5 -75.5z" />
    <glyph glyph-name="yen" unicode="&#xa5;" horiz-adv-x="744" 
d="M600 354l-16 -90h-132l-12 -66h133l-17 -91h-133l-19 -107h-154l20 107h-135l17 91h134l13 66h-136l16 90h95l-174 394h171l125 -304l236 304h189l-313 -394h92z" />
    <glyph glyph-name="brokenbar" unicode="&#xa6;" horiz-adv-x="288" 
d="M102 429l56 319h145l-56 -319h-145zM14 -67l57 319h145l-57 -319h-145z" />
    <glyph glyph-name="section" unicode="&#xa7;" horiz-adv-x="529" 
d="M383 595q4 28 -12 45t-48 17q-35 0 -55.5 -15t-24.5 -44q-2 -12 1.5 -21.5t13.5 -17.5t28.5 -14.5t48.5 -13.5q44 -10 80 -21.5t60.5 -29t36 -43t5.5 -64.5q-6 -43 -28.5 -70t-58.5 -47q28 -19 40 -47.5t5 -73.5q-5 -36 -24 -66t-49.5 -51.5t-71.5 -33.5t-91 -12
q-114 0 -170.5 46t-44.5 124l145 2q-5 -31 12 -51t55 -20q41 0 65.5 17t29.5 49q2 12 -1.5 21.5t-14 17.5t-30 15t-50.5 14q-44 9 -80.5 20.5t-61.5 29t-36.5 43.5t-6.5 65q7 44 30 71t60 48q-25 18 -36 45.5t-5 71.5q5 36 23 65t47 49.5t67.5 32t85.5 11.5q109 0 162 -44
t43 -117zM383 372q2 15 -4 24.5t-20 16.5t-36 12.5t-52 12.5l-19 4q-26 -14 -44.5 -31t-22.5 -46q-2 -14 3.5 -23.5t19.5 -17t36.5 -13t52.5 -12.5l18 -4q26 14 44.5 31t23.5 46z" />
    <glyph glyph-name="dieresis" unicode="&#xa8;" horiz-adv-x="371" 
d="M166 757q19 0 34 -7t25.5 -19t14.5 -27.5t1 -33.5q-6 -31 -29 -50.5t-52 -19.5q-38 0 -59 25.5t-15 62.5q5 30 28 49.5t52 19.5zM359 757q19 0 34 -7t25 -19t14.5 -27.5t1.5 -33.5q-6 -31 -29.5 -50.5t-52.5 -19.5q-38 0 -59 25.5t-14 62.5q5 30 28 49.5t52 19.5z" />
    <glyph glyph-name="copyright" unicode="&#xa9;" horiz-adv-x="595" 
d="M367 761q60 0 109 -20.5t81.5 -56.5t46.5 -84.5t6 -104.5q-8 -53 -33.5 -98t-65 -78t-89.5 -51.5t-106 -18.5q-61 0 -110 20.5t-81.5 56.5t-47 85t-6.5 106q8 53 34 98t65.5 77.5t89.5 50.5t107 18zM369 711q-46 0 -87 -15t-73 -42t-53.5 -64t-27.5 -81q-6 -45 4.5 -83.5
t35 -66.5t62 -44t84.5 -16q45 0 85.5 15t73 42t53.5 64.5t27 82.5t-4.5 83t-35 66t-61.5 43.5t-83 15.5zM354 663q60 0 98 -31.5t39 -85.5l-80 -3q-1 25 -16.5 37.5t-37.5 12.5q-35 0 -58 -24.5t-30 -70.5q-6 -40 12 -58.5t45 -18.5q55 0 72 51l82 -9q-16 -53 -57.5 -83
t-92.5 -30q-35 0 -63.5 11.5t-47.5 33.5t-27 52.5t-2 68.5q10 71 56 109t108 38z" />
    <glyph glyph-name="ordfeminine" unicode="&#xaa;" horiz-adv-x="458" 
d="M304 757q91 0 133 -43.5t28 -125.5l-45 -255h-123l5 30q-19 -17 -47.5 -27.5t-67.5 -10.5q-64 0 -98.5 30t-26.5 90q5 35 23 58t44 37.5t58.5 21.5t67.5 9l78 6l3 21q5 27 -5 42.5t-35 15.5q-29 0 -45 -16.5t-21 -39.5l-126 4q5 28 21 55t41.5 49t60 35.5t77.5 13.5z
M263 493q-28 -3 -45.5 -11t-19.5 -29q-3 -18 9 -26t32 -8q29 0 49.5 15t26.5 45l4 20z" />
    <glyph glyph-name="guillemotleft" unicode="&#xab;" horiz-adv-x="581" 
d="M175 246l84 -155l-117 -68l-128 238l199 233l112 -79zM446 246l84 -155l-117 -68l-128 238l199 233l112 -79z" />
    <glyph glyph-name="logicalnot" unicode="&#xac;" 
d="M430 147l34 190h-417l20 113h531l-54 -303h-114z" />
    <glyph glyph-name="registered" unicode="&#xae;" horiz-adv-x="595" 
d="M367 761q60 0 109 -20.5t81.5 -56.5t46.5 -84.5t6 -104.5q-8 -53 -33.5 -98t-65 -78t-89.5 -51.5t-106 -18.5q-61 0 -110 20.5t-81.5 56.5t-47 85t-6.5 106q8 53 34 98t65.5 77.5t89.5 50.5t107 18zM553 503q6 45 -4.5 83t-35 66t-61.5 43.5t-83 15.5t-87 -15t-73 -42
t-53.5 -64t-27.5 -81q-6 -45 4.5 -83.5t35 -66.5t62 -44t84.5 -16q45 0 85.5 15t73 42t53.5 64.5t27 82.5zM386 659q44 0 68.5 -29t15.5 -80q-10 -59 -57 -81l35 -116h-85l-31 106h-36l-20 -106h-79l54 306h135zM343 523q17 0 31 7.5t18 28.5q6 35 -32 35h-41l-13 -71h37z
" />
    <glyph glyph-name="macron" unicode="&#xaf;" horiz-adv-x="317" 
d="M72 619l20 112h300l-20 -112h-300z" />
    <glyph glyph-name="degree" unicode="&#xb0;" horiz-adv-x="377" 
d="M265 758q37 0 67 -11t49.5 -31t27.5 -48.5t1 -64.5l-3 -22q-13 -72 -62 -108.5t-115 -36.5q-38 0 -67.5 11t-49 31t-27 48.5t-0.5 64.5l4 22q12 72 60 108.5t115 36.5zM262 669q-61 0 -73 -64l-4 -16q-6 -31 8 -47.5t40 -16.5q29 0 50 17t26 49l2 14q5 33 -8.5 48.5
t-40.5 15.5z" />
    <glyph glyph-name="plusminus" unicode="&#xb1;" horiz-adv-x="548" 
d="M567 547l-23 -132h-172l-31 -177h-142l31 177h-172l24 132h172l31 176h141l-31 -176h172zM-6 50l25 136h485l-24 -136h-486z" />
    <glyph glyph-name="acute" unicode="&#xb4;" horiz-adv-x="268" 
d="M67 598l119 191h168l-170 -191h-117z" />
    <glyph glyph-name="paragraph" unicode="&#xb6;" horiz-adv-x="711" 
d="M691 640l-125 -707h-112l124 707h-96l-125 -707h-112l77 435h-50q-47 0 -84.5 13t-62.5 38t-34.5 62.5t-1.5 86.5q16 92 79.5 136t158.5 44h453l-20 -108h-69z" />
    <glyph glyph-name="periodcentered" unicode="&#xb7;" horiz-adv-x="269" 
d="M148 412q21 0 37.5 -8t28 -21.5t16 -31t1.5 -37.5q-7 -34 -33.5 -56.5t-58.5 -22.5q-21 0 -37.5 7.5t-27.5 21t-15.5 31.5t-0.5 38q5 33 31.5 56t58.5 23z" />
    <glyph glyph-name="cedilla" unicode="&#xb8;" horiz-adv-x="274" 
d="M91 -41q22 -2 41 -9.5t32.5 -21.5t19 -34.5t1.5 -47.5q-4 -25 -18 -43.5t-34 -30.5t-43.5 -18t-47.5 -6q-40 0 -64 6t-42 15l27 73q10 -7 24 -9.5t28 -2.5q20 0 40 5.5t25 27.5q3 17 -8 28t-29 11q-15 0 -26 -2t-19 -4l52 116h66z" />
    <glyph glyph-name="ordmasculine" unicode="&#xba;" horiz-adv-x="513" 
d="M326 757q51 0 91 -16.5t67 -46t38.5 -71t4.5 -92.5q-6 -47 -27 -85t-53 -65t-73 -41.5t-87 -14.5q-51 0 -91.5 16t-67.5 45.5t-38.5 71t-4.5 92.5q6 47 27.5 85t53.5 65t73 42t87 15zM324 645q-43 0 -73.5 -29.5t-35.5 -81.5q-5 -48 16 -73t58 -25q44 0 74.5 29.5
t36.5 80.5q5 48 -16.5 73.5t-59.5 25.5z" />
    <glyph glyph-name="guillemotright" unicode="&#xbb;" horiz-adv-x="581" 
d="M99 23l-112 79l150 168l-85 156l118 68l128 -238zM370 23l-112 79l150 168l-85 156l118 68l127 -238z" />
    <glyph glyph-name="onequarter" unicode="&#xbc;" horiz-adv-x="744" 
d="M-13 0l638 748h152l-638 -748h-152zM99 322l45 254l-47 -27l-38 95l154 89h70l-72 -411h-112zM710 162l-17 -99h-44l-11 -63h-112l11 63h-164l15 87l215 261h107l-44 -249h44zM554 162l16 85l-71 -85h55z" />
    <glyph glyph-name="onehalf" unicode="&#xbd;" horiz-adv-x="781" 
d="M-13 0l638 748h152l-638 -748h-152zM99 322l45 254l-47 -27l-38 95l154 89h70l-72 -411h-112zM646 418q36 0 60 -11.5t38 -30.5t18 -45t0 -54q-6 -42 -28 -71t-54 -59l-52 -48h103l-18 -99h-276l14 77l154 140q20 17 30.5 32t15.5 38q5 31 -19 31q-28 0 -36 -37l-109 6
q12 61 55 96t104 35z" />
    <glyph glyph-name="threequarters" unicode="&#xbe;" horiz-adv-x="822" 
d="M65 0l638 748h152l-638 -748h-152zM237 739q70 0 101.5 -36.5t20.5 -97.5q-5 -27 -18.5 -45t-37.5 -33q17 -8 27.5 -31.5t4.5 -58.5q-11 -60 -52.5 -91.5t-98.5 -31.5q-37 0 -63.5 10t-42.5 27.5t-22 41.5t-1 52l112 4q-2 -15 3 -25t19 -10t24.5 12.5t12.5 32.5
q2 14 -5 20.5t-21 6.5h-47l15 88h37q15 0 31 13t17 34q3 21 -20 21q-13 0 -23.5 -10.5t-13.5 -27.5l-105 10q10 62 47 93.5t99 31.5zM788 162l-17 -99h-44l-11 -63h-112l11 63h-164l15 87l215 261h107l-44 -249h44zM632 162l16 85l-71 -85h55z" />
    <glyph glyph-name="questiondown" unicode="&#xbf;" horiz-adv-x="535" 
d="M295 351q-42 0 -65.5 28.5t-16.5 69.5q6 33 32.5 55.5t58.5 22.5q42 0 65.5 -28t16.5 -69q-6 -33 -32.5 -56t-58.5 -23zM192 -243q-60 0 -106 17t-74.5 47.5t-39.5 74t-1 97.5q10 59 43 96.5t76 66.5q20 15 37 27t30 24t22 25.5t12 31.5l4 24h154l-6 -35
q-8 -52 -41 -90.5t-75 -70.5q-18 -13 -35 -24.5t-30.5 -24.5t-23 -28t-12.5 -34q-8 -41 13 -64.5t62 -23.5q48 0 78 27.5t41 74.5l150 -14q-11 -52 -36 -93.5t-61 -70.5t-82 -44.5t-99 -15.5z" />
    <glyph glyph-name="Agrave" unicode="&#xc0;" horiz-adv-x="789" 
d="M425 795l-167 154h196l101 -154h-130zM567 0l-36 147h-310l-88 -147h-169l453 748h130l189 -748h-169zM499 268l-60 241l-144 -241h204z" />
    <glyph glyph-name="Aacute" unicode="&#xc1;" horiz-adv-x="789" 
d="M428 795l155 154h202l-221 -154h-136zM567 0l-36 147h-310l-88 -147h-169l453 748h130l189 -748h-169zM499 268l-60 241l-144 -241h204z" />
    <glyph glyph-name="Acircumflex" unicode="&#xc2;" horiz-adv-x="789" 
d="M562 795l-48 75l-81 -75h-125l144 160h141l89 -160h-120zM567 0l-36 147h-310l-88 -147h-169l453 748h130l189 -748h-169zM499 268l-60 241l-144 -241h204z" />
    <glyph glyph-name="Atilde" unicode="&#xc3;" horiz-adv-x="789" 
d="M447 959q26 0 41.5 -8.5t27 -18t22.5 -18t28 -8.5q26 0 40 12.5t18 32.5h79q0 -33 -10.5 -61.5t-29 -49t-42 -32t-48.5 -11.5q-26 0 -42 8.5t-27.5 18t-22.5 18t-27 8.5q-26 0 -40 -13.5t-18 -33.5h-79q0 33 10.5 61.5t29 49.5t42 33t48.5 12zM567 0l-36 147h-310
l-88 -147h-169l453 748h130l189 -748h-169zM499 268l-60 241l-144 -241h204z" />
    <glyph glyph-name="Adieresis" unicode="&#xc4;" horiz-adv-x="789" 
d="M417 957q38 0 60 -26t15 -62q-5 -30 -28 -50t-52 -20q-38 0 -59.5 25.5t-15.5 62.5q5 30 28 50t52 20zM610 957q38 0 59.5 -26t15.5 -62q-5 -30 -28.5 -50t-52.5 -20q-37 0 -59 25.5t-15 62.5q5 30 28 50t52 20zM567 0l-36 147h-310l-88 -147h-169l453 748h130l189 -748
h-169zM499 268l-60 241l-144 -241h204z" />
    <glyph glyph-name="Aring" unicode="&#xc5;" horiz-adv-x="789" 
d="M523 1008q25 0 46.5 -9t35.5 -24.5t20 -37t1 -46.5q-7 -44 -41 -71t-77 -27q-54 0 -84.5 33t-22.5 83q8 45 43 72t79 27zM519 941q-17 0 -30 -10.5t-16 -27.5t7.5 -29.5t29.5 -12.5q17 0 29.5 10t15.5 27q3 18 -7 30.5t-29 12.5zM567 0l-36 147h-310l-88 -147h-169
l453 748h130l189 -748h-169zM499 268l-60 241l-144 -241h204z" />
    <glyph glyph-name="AE" unicode="&#xc6;" horiz-adv-x="1036" 
d="M697 450h282l-24 -133h-282l-31 -180h326l-24 -137h-480l19 109h-241l-92 -109h-192l636 748h481l-24 -136h-326zM547 473l-199 -238h157z" />
    <glyph glyph-name="Ccedilla" unicode="&#xc7;" horiz-adv-x="826" 
d="M405 126q81 0 140.5 41.5t85.5 119.5l159 -18q-20 -66 -57.5 -118t-87.5 -88t-111 -55t-127 -19l-16 -35q22 -2 41 -9.5t32.5 -21.5t19 -34.5t1.5 -47.5q-4 -25 -18 -43.5t-34 -30.5t-43.5 -18t-47.5 -6q-40 0 -64 6t-42 15l27 73q10 -7 24 -9.5t28 -2.5q20 0 40 5.5
t25 27.5q3 17 -8 28t-29 11q-15 0 -26 -2t-19 -4l45 102q-70 10 -125.5 41t-92 80.5t-51.5 117.5t-3 151q12 89 49.5 159t93.5 118t127 73.5t151 25.5q70 0 129 -20t102.5 -57t68 -90t25.5 -119l-161 -12q-4 80 -51 120.5t-120 40.5q-52 0 -96 -18t-78 -52t-56 -81.5
t-30 -105.5q-8 -59 2.5 -104t35.5 -75t61.5 -45t80.5 -15z" />
    <glyph glyph-name="Egrave" unicode="&#xc8;" 
d="M343 795l-167 154h196l101 -154h-130zM291 612l-28 -162h282l-24 -133h-282l-31 -180h326l-24 -137h-481l132 748h480l-24 -136h-326z" />
    <glyph glyph-name="Eacute" unicode="&#xc9;" 
d="M346 795l155 154h202l-221 -154h-136zM291 612l-28 -162h282l-24 -133h-282l-31 -180h326l-24 -137h-481l132 748h480l-24 -136h-326z" />
    <glyph glyph-name="Ecircumflex" unicode="&#xca;" 
d="M480 795l-48 75l-81 -75h-125l144 160h141l89 -160h-120zM291 612l-28 -162h282l-24 -133h-282l-31 -180h326l-24 -137h-481l132 748h480l-24 -136h-326z" />
    <glyph glyph-name="Edieresis" unicode="&#xcb;" 
d="M335 957q38 0 60 -26t15 -62q-5 -30 -28 -50t-52 -20q-38 0 -59.5 25.5t-15.5 62.5q5 30 28 50t52 20zM528 957q38 0 59.5 -26t15.5 -62q-5 -30 -28.5 -50t-52.5 -20q-37 0 -59 25.5t-15 62.5q5 30 28 50t52 20zM291 612l-28 -162h282l-24 -133h-282l-31 -180h326
l-24 -137h-481l132 748h480l-24 -136h-326z" />
    <glyph glyph-name="Igrave" unicode="&#xcc;" horiz-adv-x="305" 
d="M181 795l-167 154h196l101 -154h-130zM29 0l132 748h155l-132 -748h-155z" />
    <glyph glyph-name="Iacute" unicode="&#xcd;" horiz-adv-x="305" 
d="M184 795l155 154h202l-221 -154h-136zM29 0l132 748h155l-132 -748h-155z" />
    <glyph glyph-name="Icircumflex" unicode="&#xce;" horiz-adv-x="305" 
d="M318 795l-48 75l-81 -75h-125l144 160h141l89 -160h-120zM29 0l132 748h155l-132 -748h-155z" />
    <glyph glyph-name="Idieresis" unicode="&#xcf;" horiz-adv-x="305" 
d="M173 957q38 0 60 -26t15 -62q-5 -30 -28 -50t-52 -20q-38 0 -59.5 25.5t-15.5 62.5q5 30 28 50t52 20zM366 957q38 0 59.5 -26t15.5 -62q-5 -30 -28.5 -50t-52.5 -20q-37 0 -59 25.5t-15 62.5q5 30 28 50t52 20zM29 0l132 748h155l-132 -748h-155z" />
    <glyph glyph-name="Eth" unicode="&#xd0;" horiz-adv-x="805" 
d="M450 748q80 0 146 -26t110 -75.5t62.5 -120.5t3.5 -161q-15 -89 -52 -157.5t-91.5 -114.5t-124 -69.5t-148.5 -23.5h-327l56 315h-67l20 117h67l56 316h289zM623 381q16 118 -33.5 176.5t-147.5 58.5h-150l-32 -184h126l-20 -117h-127l-32 -183h159q49 0 92 15.5t77 46.5
t56.5 78t31.5 109z" />
    <glyph glyph-name="Ntilde" unicode="&#xd1;" horiz-adv-x="764" 
d="M424 959q26 0 41.5 -8.5t27 -18t22.5 -18t28 -8.5q26 0 40 12.5t18 32.5h79q0 -33 -10.5 -61.5t-29 -49t-42 -32t-48.5 -11.5q-26 0 -42 8.5t-27.5 18t-22.5 18t-27 8.5q-26 0 -40 -13.5t-18 -33.5h-79q0 33 10.5 61.5t29 49.5t42 33t48.5 12zM512 0l-247 463l-81 -463
h-155l132 748h131l247 -464l82 464h154l-132 -748h-131z" />
    <glyph glyph-name="Ograve" unicode="&#xd2;" horiz-adv-x="875" 
d="M458 795l-167 154h196l101 -154h-130zM488 759q86 0 156 -28t118 -79t70.5 -124t12.5 -163q-9 -87 -45 -156.5t-91 -118t-127 -75t-153 -26.5q-87 0 -157.5 28t-118.5 79.5t-70 124t-12 162.5q9 87 45 156.5t91.5 118t127 75t153.5 26.5zM486 622q-53 0 -98.5 -18
t-80 -51t-55.5 -80.5t-26 -107.5q-5 -56 8 -100.5t40 -75.5t67 -47t89 -16q53 0 98.5 18t80 51t55.5 80.5t26 107.5q5 57 -8 101t-40.5 75t-67 47t-88.5 16z" />
    <glyph glyph-name="Oacute" unicode="&#xd3;" horiz-adv-x="875" 
d="M460 795l155 154h202l-221 -154h-136zM488 759q86 0 156 -28t118 -79t70.5 -124t12.5 -163q-9 -87 -45 -156.5t-91 -118t-127 -75t-153 -26.5q-87 0 -157.5 28t-118.5 79.5t-70 124t-12 162.5q9 87 45 156.5t91.5 118t127 75t153.5 26.5zM486 622q-53 0 -98.5 -18
t-80 -51t-55.5 -80.5t-26 -107.5q-5 -56 8 -100.5t40 -75.5t67 -47t89 -16q53 0 98.5 18t80 51t55.5 80.5t26 107.5q5 57 -8 101t-40.5 75t-67 47t-88.5 16z" />
    <glyph glyph-name="Ocircumflex" unicode="&#xd4;" horiz-adv-x="875" 
d="M594 795l-48 75l-81 -75h-125l144 160h141l89 -160h-120zM488 759q86 0 156 -28t118 -79t70.5 -124t12.5 -163q-9 -87 -45 -156.5t-91 -118t-127 -75t-153 -26.5q-87 0 -157.5 28t-118.5 79.5t-70 124t-12 162.5q9 87 45 156.5t91.5 118t127 75t153.5 26.5zM486 622
q-53 0 -98.5 -18t-80 -51t-55.5 -80.5t-26 -107.5q-5 -56 8 -100.5t40 -75.5t67 -47t89 -16q53 0 98.5 18t80 51t55.5 80.5t26 107.5q5 57 -8 101t-40.5 75t-67 47t-88.5 16z" />
    <glyph glyph-name="Otilde" unicode="&#xd5;" horiz-adv-x="875" 
d="M479 959q26 0 41.5 -8.5t27 -18t22.5 -18t28 -8.5q26 0 40 12.5t18 32.5h79q0 -33 -10.5 -61.5t-29 -49t-42 -32t-48.5 -11.5q-26 0 -42 8.5t-27.5 18t-22.5 18t-27 8.5q-26 0 -40 -13.5t-18 -33.5h-79q0 33 10.5 61.5t29 49.5t42 33t48.5 12zM488 759q86 0 156 -28
t118 -79t70.5 -124t12.5 -163q-9 -87 -45 -156.5t-91 -118t-127 -75t-153 -26.5q-87 0 -157.5 28t-118.5 79.5t-70 124t-12 162.5q9 87 45 156.5t91.5 118t127 75t153.5 26.5zM486 622q-53 0 -98.5 -18t-80 -51t-55.5 -80.5t-26 -107.5q-5 -56 8 -100.5t40 -75.5t67 -47
t89 -16q53 0 98.5 18t80 51t55.5 80.5t26 107.5q5 57 -8 101t-40.5 75t-67 47t-88.5 16z" />
    <glyph glyph-name="Odieresis" unicode="&#xd6;" horiz-adv-x="875" 
d="M450 957q38 0 60 -26t15 -62q-5 -30 -28 -50t-52 -20q-38 0 -59.5 25.5t-15.5 62.5q5 30 28 50t52 20zM643 957q38 0 59.5 -26t15.5 -62q-5 -30 -28.5 -50t-52.5 -20q-37 0 -59 25.5t-15 62.5q5 30 28 50t52 20zM488 759q86 0 156 -28t118 -79t70.5 -124t12.5 -163
q-9 -87 -45 -156.5t-91 -118t-127 -75t-153 -26.5q-87 0 -157.5 28t-118.5 79.5t-70 124t-12 162.5q9 87 45 156.5t91.5 118t127 75t153.5 26.5zM486 622q-53 0 -98.5 -18t-80 -51t-55.5 -80.5t-26 -107.5q-5 -56 8 -100.5t40 -75.5t67 -47t89 -16q53 0 98.5 18t80 51
t55.5 80.5t26 107.5q5 57 -8 101t-40.5 75t-67 47t-88.5 16z" />
    <glyph glyph-name="multiply" unicode="&#xd7;" horiz-adv-x="549" 
d="M391 367l112 -134l-107 -93l-112 135l-160 -138l-87 101l161 137l-111 135l106 92l111 -135l158 135l88 -100z" />
    <glyph glyph-name="Oslash" unicode="&#xd8;" horiz-adv-x="875" 
d="M775 637q42 -51 60.5 -119.5t9.5 -152.5q-9 -87 -45 -156.5t-91 -118t-127 -75t-153 -26.5q-61 0 -114 14t-96 40l-87 -92l-86 72l89 95q-39 51 -56 117.5t-8 147.5q9 87 45 156.5t91.5 118t127 75t153.5 26.5q59 0 110 -13t93 -37l85 90l85 -71zM226 365q-6 -75 19 -131
l344 366q-47 22 -103 22q-53 0 -98.5 -18t-80 -51t-55.5 -80.5t-26 -107.5zM690 383q7 80 -22 139l-347 -370q47 -26 109 -26q53 0 98.5 18t80 51t55.5 80.5t26 107.5z" />
    <glyph glyph-name="Ugrave" unicode="&#xd9;" horiz-adv-x="777" 
d="M412 795l-167 154h196l101 -154h-130zM714 299q-27 -151 -121.5 -230.5t-240.5 -79.5q-75 0 -132 22t-92.5 63t-48.5 100t0 134l77 440h155l-79 -444q-17 -90 18 -134t112 -44q85 0 135 48t65 134l77 440h154z" />
    <glyph glyph-name="Uacute" unicode="&#xda;" horiz-adv-x="777" 
d="M415 795l155 154h202l-221 -154h-136zM714 299q-27 -151 -121.5 -230.5t-240.5 -79.5q-75 0 -132 22t-92.5 63t-48.5 100t0 134l77 440h155l-79 -444q-17 -90 18 -134t112 -44q85 0 135 48t65 134l77 440h154z" />
    <glyph glyph-name="Ucircumflex" unicode="&#xdb;" horiz-adv-x="777" 
d="M549 795l-48 75l-81 -75h-125l144 160h141l89 -160h-120zM714 299q-27 -151 -121.5 -230.5t-240.5 -79.5q-75 0 -132 22t-92.5 63t-48.5 100t0 134l77 440h155l-79 -444q-17 -90 18 -134t112 -44q85 0 135 48t65 134l77 440h154z" />
    <glyph glyph-name="Udieresis" unicode="&#xdc;" horiz-adv-x="777" 
d="M404 957q38 0 60 -26t15 -62q-5 -30 -28 -50t-52 -20q-38 0 -59.5 25.5t-15.5 62.5q5 30 28 50t52 20zM597 957q38 0 59.5 -26t15.5 -62q-5 -30 -28.5 -50t-52.5 -20q-37 0 -59 25.5t-15 62.5q5 30 28 50t52 20zM714 299q-27 -151 -121.5 -230.5t-240.5 -79.5
q-75 0 -132 22t-92.5 63t-48.5 100t0 134l77 440h155l-79 -444q-17 -90 18 -134t112 -44q85 0 135 48t65 134l77 440h154z" />
    <glyph glyph-name="Yacute" unicode="&#xdd;" horiz-adv-x="744" 
d="M399 795l155 154h202l-221 -154h-136zM404 0h-154l53 288l-203 460h171l125 -304l236 304h189l-365 -460z" />
    <glyph glyph-name="Thorn" unicode="&#xde;" horiz-adv-x="656" 
d="M451 653q54 0 96 -17t69.5 -49t37.5 -78t0 -105q-10 -56 -34.5 -99t-60.5 -72.5t-82.5 -44.5t-99.5 -15h-163l-30 -173h-155l132 748h155l-17 -95h152zM239 310h133q45 0 81.5 29t46.5 83q9 48 -14 71t-68 23h-143z" />
    <glyph glyph-name="germandbls" unicode="&#xdf;" horiz-adv-x="659" 
d="M390 785q57 0 100.5 -13.5t72 -38t40.5 -58.5t5 -75q-6 -38 -23.5 -59.5t-36.5 -37.5t-36 -32.5t-22 -44.5q-4 -20 5 -34.5t24 -29t32.5 -30t31.5 -36.5t20.5 -48.5t-0.5 -66.5q-8 -47 -31.5 -82t-57.5 -59t-76.5 -36t-88.5 -12q-41 0 -67 5t-46 13l39 117q32 -13 67 -13
q21 0 40.5 5t35.5 16t27.5 27.5t16.5 40.5q4 24 -4.5 43.5t-22.5 37t-31.5 34t-32 35t-22.5 40t-3 48.5q6 34 22.5 52.5t35.5 32t35 27t20 39.5q6 32 -12.5 52t-58.5 20q-48 0 -79.5 -29t-39.5 -77l-98 -558h-146l101 571q9 50 32 89.5t57.5 67.5t79 42.5t95.5 14.5z" />
    <glyph glyph-name="agrave" unicode="&#xe0;" horiz-adv-x="556" 
d="M281 598l-102 191h162l50 -191h-110zM320 527q48 0 85.5 -14.5t61.5 -42t32.5 -67t-0.5 -89.5l-56 -314h-135l8 41q-24 -23 -57 -37.5t-83 -14.5q-37 0 -67.5 11t-51 32t-29.5 51.5t-2 69.5q7 41 28.5 68.5t53 44.5t69.5 24.5t79 9.5l95 5l5 23q6 35 -7 56t-46 21
q-42 0 -61.5 -22.5t-24.5 -49.5l-143 11q6 34 26 67t52 59t74.5 41.5t93.5 15.5zM266 204q-41 -2 -66.5 -15t-29.5 -42q-3 -22 11 -33.5t40 -11.5q38 0 69.5 22t40.5 66l3 18z" />
    <glyph glyph-name="aacute" unicode="&#xe1;" horiz-adv-x="556" 
d="M278 598l119 191h168l-170 -191h-117zM320 527q48 0 85.5 -14.5t61.5 -42t32.5 -67t-0.5 -89.5l-56 -314h-135l8 41q-24 -23 -57 -37.5t-83 -14.5q-37 0 -67.5 11t-51 32t-29.5 51.5t-2 69.5q7 41 28.5 68.5t53 44.5t69.5 24.5t79 9.5l95 5l5 23q6 35 -7 56t-46 21
q-42 0 -61.5 -22.5t-24.5 -49.5l-143 11q6 34 26 67t52 59t74.5 41.5t93.5 15.5zM266 204q-41 -2 -66.5 -15t-29.5 -42q-3 -22 11 -33.5t40 -11.5q38 0 69.5 22t40.5 66l3 18z" />
    <glyph glyph-name="acircumflex" unicode="&#xe2;" horiz-adv-x="556" 
d="M406 599l-47 82l-82 -82h-126l148 177h141l86 -177h-120zM320 527q48 0 85.5 -14.5t61.5 -42t32.5 -67t-0.5 -89.5l-56 -314h-135l8 41q-24 -23 -57 -37.5t-83 -14.5q-37 0 -67.5 11t-51 32t-29.5 51.5t-2 69.5q7 41 28.5 68.5t53 44.5t69.5 24.5t79 9.5l95 5l5 23
q6 35 -7 56t-46 21q-42 0 -61.5 -22.5t-24.5 -49.5l-143 11q6 34 26 67t52 59t74.5 41.5t93.5 15.5zM266 204q-41 -2 -66.5 -15t-29.5 -42q-3 -22 11 -33.5t40 -11.5q38 0 69.5 22t40.5 66l3 18z" />
    <glyph glyph-name="atilde" unicode="&#xe3;" horiz-adv-x="556" 
d="M290 761q26 0 41.5 -8.5t27 -18.5t22.5 -18.5t28 -8.5q26 0 40 12.5t18 33.5h80q0 -33 -11 -61.5t-29 -49.5t-42 -32.5t-49 -11.5q-26 0 -42 8.5t-27.5 18t-22.5 18t-27 8.5q-26 0 -40 -13.5t-18 -33.5h-79q0 33 10.5 62t29 50t42 33t48.5 12zM320 527q48 0 85.5 -14.5
t61.5 -42t32.5 -67t-0.5 -89.5l-56 -314h-135l8 41q-24 -23 -57 -37.5t-83 -14.5q-37 0 -67.5 11t-51 32t-29.5 51.5t-2 69.5q7 41 28.5 68.5t53 44.5t69.5 24.5t79 9.5l95 5l5 23q6 35 -7 56t-46 21q-42 0 -61.5 -22.5t-24.5 -49.5l-143 11q6 34 26 67t52 59t74.5 41.5
t93.5 15.5zM266 204q-41 -2 -66.5 -15t-29.5 -42q-3 -22 11 -33.5t40 -11.5q38 0 69.5 22t40.5 66l3 18z" />
    <glyph glyph-name="adieresis" unicode="&#xe4;" horiz-adv-x="556" 
d="M259 757q19 0 34 -7t25.5 -19t14.5 -27.5t1 -33.5q-6 -31 -29 -50.5t-52 -19.5q-38 0 -59 25.5t-15 62.5q5 30 28 49.5t52 19.5zM452 757q19 0 34 -7t25 -19t14.5 -27.5t1.5 -33.5q-6 -31 -29.5 -50.5t-52.5 -19.5q-38 0 -59 25.5t-14 62.5q5 30 28 49.5t52 19.5z
M320 527q48 0 85.5 -14.5t61.5 -42t32.5 -67t-0.5 -89.5l-56 -314h-135l8 41q-24 -23 -57 -37.5t-83 -14.5q-37 0 -67.5 11t-51 32t-29.5 51.5t-2 69.5q7 41 28.5 68.5t53 44.5t69.5 24.5t79 9.5l95 5l5 23q6 35 -7 56t-46 21q-42 0 -61.5 -22.5t-24.5 -49.5l-143 11
q6 34 26 67t52 59t74.5 41.5t93.5 15.5zM266 204q-41 -2 -66.5 -15t-29.5 -42q-3 -22 11 -33.5t40 -11.5q38 0 69.5 22t40.5 66l3 18z" />
    <glyph glyph-name="aring" unicode="&#xe5;" horiz-adv-x="556" 
d="M367 823q30 0 54 -10t40 -27.5t23 -41.5t2 -52q-5 -25 -18 -46t-31.5 -36t-41.5 -23t-48 -8q-30 0 -54.5 10t-40.5 27.5t-22.5 41.5t-1.5 52q4 25 17 46t31.5 36t42 23t48.5 8zM360 745q-18 0 -31.5 -11.5t-16.5 -29.5q-4 -20 7.5 -33t32.5 -13q18 0 31 10.5t17 28.5
q3 20 -8 34t-32 14zM320 527q48 0 85.5 -14.5t61.5 -42t32.5 -67t-0.5 -89.5l-56 -314h-135l8 41q-24 -23 -57 -37.5t-83 -14.5q-37 0 -67.5 11t-51 32t-29.5 51.5t-2 69.5q7 41 28.5 68.5t53 44.5t69.5 24.5t79 9.5l95 5l5 23q6 35 -7 56t-46 21q-42 0 -61.5 -22.5
t-24.5 -49.5l-143 11q6 34 26 67t52 59t74.5 41.5t93.5 15.5zM266 204q-41 -2 -66.5 -15t-29.5 -42q-3 -22 11 -33.5t40 -11.5q38 0 69.5 22t40.5 66l3 18z" />
    <glyph glyph-name="ae" unicode="&#xe6;" horiz-adv-x="892" 
d="M631 527q58 0 103.5 -18.5t75 -52.5t41 -82.5t2.5 -109.5l-8 -52h-354q-4 -51 20.5 -78t73.5 -27q39 0 63.5 15.5t37.5 41.5l147 -10q-12 -39 -36.5 -69.5t-57.5 -52t-73 -32.5t-83 -11q-64 0 -113.5 21t-81.5 60q-38 -36 -87.5 -58.5t-107.5 -22.5q-45 0 -79.5 11.5
t-56 32.5t-30 51t-1.5 68q7 42 28.5 69.5t53 44t69.5 24.5t78 10l96 5l5 23q6 35 -7 56t-46 21q-21 0 -36 -6.5t-25.5 -16.5t-16 -23t-8.5 -26l-143 11q6 34 25.5 67t50 59t71 41.5t89.5 15.5q99 0 147 -55q73 55 174 55zM629 413q-49 0 -81 -28t-43 -76h207q7 50 -14.5 77
t-68.5 27zM261 204q-38 -2 -62 -15t-29 -40q-4 -23 10 -34t41 -11q17 0 35 5.5t33.5 16.5t26.5 27.5t15 39.5l3 15z" />
    <glyph glyph-name="ccedilla" unicode="&#xe7;" horiz-adv-x="592" 
d="M285 115q47 0 77.5 23.5t41.5 59.5l141 -15q-13 -46 -38 -82t-59 -61t-75 -38t-86 -13l-16 -34q22 -2 41 -9.5t32.5 -21.5t19 -34.5t1.5 -47.5q-4 -25 -18 -43.5t-34 -30.5t-43.5 -18t-47.5 -6q-40 0 -64 6t-42 15l27 73q10 -7 24 -9.5t28 -2.5q20 0 40 5.5t25 27.5
q3 17 -8 28t-29 11q-15 0 -26 -2t-19 -4l46 103q-46 9 -82.5 31.5t-60 57.5t-33 81.5t-2.5 102.5q8 62 33 110t63 81t87 50.5t104 17.5q49 0 90.5 -14.5t72 -40.5t47.5 -64t19 -84l-142 -10q0 42 -23.5 65t-64.5 23q-57 0 -94 -40.5t-48 -112.5q-8 -66 19.5 -100t75.5 -34z
" />
    <glyph glyph-name="egrave" unicode="&#xe8;" horiz-adv-x="598" 
d="M202 789h162l50 -191h-110zM333 527q58 0 103.5 -18.5t75 -52.5t41.5 -82.5t3 -109.5l-9 -52h-354q-4 -51 20.5 -78t73.5 -27q39 0 64 15.5t37 41.5l147 -10q-12 -39 -36.5 -69.5t-57.5 -52t-73 -32.5t-83 -11q-61 0 -109.5 19.5t-80 55.5t-45 87.5t-4.5 116.5
q9 61 34 109t62.5 81.5t86 51t104.5 17.5zM331 413q-49 0 -81 -28t-43 -76h207q7 50 -14.5 77t-68.5 27z" />
    <glyph glyph-name="eacute" unicode="&#xe9;" horiz-adv-x="598" 
d="M301 598l119 191h168l-170 -191h-117zM333 527q58 0 103.5 -18.5t75 -52.5t41.5 -82.5t3 -109.5l-9 -52h-354q-4 -51 20.5 -78t73.5 -27q39 0 64 15.5t37 41.5l147 -10q-12 -39 -36.5 -69.5t-57.5 -52t-73 -32.5t-83 -11q-61 0 -109.5 19.5t-80 55.5t-45 87.5t-4.5 116.5
q9 61 34 109t62.5 81.5t86 51t104.5 17.5zM331 413q-49 0 -81 -28t-43 -76h207q7 50 -14.5 77t-68.5 27z" />
    <glyph glyph-name="ecircumflex" unicode="&#xea;" horiz-adv-x="598" 
d="M174 599l148 177h141l86 -177h-120l-47 82l-82 -82h-126zM333 527q58 0 103.5 -18.5t75 -52.5t41.5 -82.5t3 -109.5l-9 -52h-354q-4 -51 20.5 -78t73.5 -27q39 0 64 15.5t37 41.5l147 -10q-12 -39 -36.5 -69.5t-57.5 -52t-73 -32.5t-83 -11q-61 0 -109.5 19.5t-80 55.5
t-45 87.5t-4.5 116.5q9 61 34 109t62.5 81.5t86 51t104.5 17.5zM331 413q-49 0 -81 -28t-43 -76h207q7 50 -14.5 77t-68.5 27z" />
    <glyph glyph-name="edieresis" unicode="&#xeb;" horiz-adv-x="598" 
d="M275 600q-38 0 -59 25.5t-15 62.5q5 30 28 49.5t52 19.5q19 0 34 -7t25.5 -19t14.5 -27.5t1 -33.5q-6 -31 -29 -50.5t-52 -19.5zM467 600q-38 0 -59 25.5t-14 62.5q5 30 28 49.5t52 19.5q19 0 34 -7t25 -19t14.5 -27.5t1.5 -33.5q-6 -31 -29.5 -50.5t-52.5 -19.5z
M333 527q58 0 103.5 -18.5t75 -52.5t41.5 -82.5t3 -109.5l-9 -52h-354q-4 -51 20.5 -78t73.5 -27q39 0 64 15.5t37 41.5l147 -10q-12 -39 -36.5 -69.5t-57.5 -52t-73 -32.5t-83 -11q-61 0 -109.5 19.5t-80 55.5t-45 87.5t-4.5 116.5q9 61 34 109t62.5 81.5t86 51t104.5 17.5
zM331 413q-49 0 -81 -28t-43 -76h207q7 50 -14.5 77t-68.5 27z" />
    <glyph glyph-name="igrave" unicode="&#xec;" horiz-adv-x="291" 
d="M149 598l-102 191h162l50 -191h-110zM26 0l92 517h146l-92 -517h-146z" />
    <glyph glyph-name="iacute" unicode="&#xed;" horiz-adv-x="291" 
d="M147 598l119 191h168l-170 -191h-117zM26 0l92 517h146l-92 -517h-146z" />
    <glyph glyph-name="icircumflex" unicode="&#xee;" horiz-adv-x="291" 
d="M274 599l-47 82l-82 -82h-126l148 177h141l86 -177h-120zM26 0l92 517h146l-92 -517h-146z" />
    <glyph glyph-name="idieresis" unicode="&#xef;" horiz-adv-x="291" 
d="M127 757q19 0 34 -7t25.5 -19t14.5 -27.5t1 -33.5q-6 -31 -29 -50.5t-52 -19.5q-38 0 -59 25.5t-15 62.5q5 30 28 49.5t52 19.5zM320 757q19 0 34 -7t25 -19t14.5 -27.5t1.5 -33.5q-6 -31 -29.5 -50.5t-52.5 -19.5q-38 0 -59 25.5t-14 62.5q5 30 28 49.5t52 19.5zM26 0
l92 517h146l-92 -517h-146z" />
    <glyph glyph-name="eth" unicode="&#xf0;" horiz-adv-x="608" 
d="M562 263l-1 -4q-23 -134 -97.5 -202t-189.5 -68q-53 0 -100 17.5t-80 50.5t-48.5 81t-4.5 110q10 56 35.5 99t61.5 72.5t81 45t94 15.5q33 0 63 -7t56 -18q-3 42 -14 75.5t-28 58.5l-81 -66l-58 65l70 58q-46 21 -113 24l9 107q123 0 205 -50l91 75l60 -63l-83 -68
q58 -67 76 -169t-3 -230zM281 107q54 0 89.5 36t46.5 96q9 60 -18.5 93.5t-79.5 33.5q-54 0 -92 -37.5t-45 -100.5q-4 -29 2 -51t19 -38t33 -24t45 -8z" />
    <glyph glyph-name="ntilde" unicode="&#xf1;" horiz-adv-x="618" 
d="M331 761q26 0 41.5 -8.5t27 -18.5t22.5 -18.5t28 -8.5q26 0 40 12.5t18 33.5h80q0 -33 -11 -61.5t-29 -49.5t-42 -32.5t-49 -11.5q-26 0 -42 8.5t-27.5 18t-22.5 18t-27 8.5q-26 0 -40 -13.5t-18 -33.5h-79q0 33 10.5 62t29 50t42 33t48.5 12zM386 527q45 0 81 -14.5
t59.5 -42.5t32.5 -68.5t0 -91.5l-54 -310h-146l51 289q9 50 -10.5 76t-60.5 26q-48 0 -78 -29.5t-38 -76.5l-51 -285h-146l92 517h134l-8 -47q20 24 56 40.5t86 16.5z" />
    <glyph glyph-name="ograve" unicode="&#xf2;" horiz-adv-x="638" 
d="M311 598l-102 191h162l50 -191h-110zM339 527q61 0 111.5 -20t84.5 -56.5t49.5 -87.5t7.5 -114q-6 -59 -31.5 -107t-64.5 -82t-89.5 -52.5t-107.5 -18.5q-62 0 -112 20t-84 56.5t-49.5 88t-7.5 114.5q6 59 31.5 107t64.5 81.5t89.5 52t107.5 18.5zM341 402
q-61 0 -102.5 -40.5t-47.5 -112.5q-5 -65 24.5 -99.5t81.5 -34.5q61 0 102.5 40.5t47.5 112.5q5 64 -24.5 99t-81.5 35z" />
    <glyph glyph-name="oacute" unicode="&#xf3;" horiz-adv-x="638" 
d="M309 598l119 191h168l-170 -191h-117zM339 527q61 0 111.5 -20t84.5 -56.5t49.5 -87.5t7.5 -114q-6 -59 -31.5 -107t-64.5 -82t-89.5 -52.5t-107.5 -18.5q-62 0 -112 20t-84 56.5t-49.5 88t-7.5 114.5q6 59 31.5 107t64.5 81.5t89.5 52t107.5 18.5zM341 402
q-61 0 -102.5 -40.5t-47.5 -112.5q-5 -65 24.5 -99.5t81.5 -34.5q61 0 102.5 40.5t47.5 112.5q5 64 -24.5 99t-81.5 35z" />
    <glyph glyph-name="ocircumflex" unicode="&#xf4;" horiz-adv-x="638" 
d="M436 599l-47 82l-82 -82h-126l148 177h141l86 -177h-120zM339 527q61 0 111.5 -20t84.5 -56.5t49.5 -87.5t7.5 -114q-6 -59 -31.5 -107t-64.5 -82t-89.5 -52.5t-107.5 -18.5q-62 0 -112 20t-84 56.5t-49.5 88t-7.5 114.5q6 59 31.5 107t64.5 81.5t89.5 52t107.5 18.5z
M341 402q-61 0 -102.5 -40.5t-47.5 -112.5q-5 -65 24.5 -99.5t81.5 -34.5q61 0 102.5 40.5t47.5 112.5q5 64 -24.5 99t-81.5 35z" />
    <glyph glyph-name="otilde" unicode="&#xf5;" horiz-adv-x="638" 
d="M320 761q26 0 41.5 -8.5t27 -18.5t22.5 -18.5t28 -8.5q26 0 40 12.5t18 33.5h80q0 -33 -11 -61.5t-29 -49.5t-42 -32.5t-49 -11.5q-26 0 -42 8.5t-27.5 18t-22.5 18t-27 8.5q-26 0 -40 -13.5t-18 -33.5h-79q0 33 10.5 62t29 50t42 33t48.5 12zM339 527q61 0 111.5 -20
t84.5 -56.5t49.5 -87.5t7.5 -114q-6 -59 -31.5 -107t-64.5 -82t-89.5 -52.5t-107.5 -18.5q-62 0 -112 20t-84 56.5t-49.5 88t-7.5 114.5q6 59 31.5 107t64.5 81.5t89.5 52t107.5 18.5zM341 402q-61 0 -102.5 -40.5t-47.5 -112.5q-5 -65 24.5 -99.5t81.5 -34.5
q61 0 102.5 40.5t47.5 112.5q5 64 -24.5 99t-81.5 35z" />
    <glyph glyph-name="odieresis" unicode="&#xf6;" horiz-adv-x="638" 
d="M289 757q19 0 34 -7t25.5 -19t14.5 -27.5t1 -33.5q-6 -31 -29 -50.5t-52 -19.5q-38 0 -59 25.5t-15 62.5q5 30 28 49.5t52 19.5zM482 757q19 0 34 -7t25 -19t14.5 -27.5t1.5 -33.5q-6 -31 -29.5 -50.5t-52.5 -19.5q-38 0 -59 25.5t-14 62.5q5 30 28 49.5t52 19.5z
M339 527q61 0 111.5 -20t84.5 -56.5t49.5 -87.5t7.5 -114q-6 -59 -31.5 -107t-64.5 -82t-89.5 -52.5t-107.5 -18.5q-62 0 -112 20t-84 56.5t-49.5 88t-7.5 114.5q6 59 31.5 107t64.5 81.5t89.5 52t107.5 18.5zM341 402q-61 0 -102.5 -40.5t-47.5 -112.5q-5 -65 24.5 -99.5
t81.5 -34.5q61 0 102.5 40.5t47.5 112.5q5 64 -24.5 99t-81.5 35z" />
    <glyph glyph-name="divide" unicode="&#xf7;" horiz-adv-x="548" 
d="M341 702q21 0 37.5 -7.5t28 -21t16 -31.5t0.5 -38q-5 -34 -32 -56t-59 -22q-21 0 -37.5 7.5t-27.5 20.5t-15.5 30.5t-0.5 37.5q5 34 31.5 57t58.5 23zM38 303l25 137h485l-24 -137h-486zM256 218q42 0 65.5 -28.5t16.5 -69.5q-6 -33 -33 -56t-59 -23q-21 0 -37.5 8
t-27 21.5t-15 31t-1.5 37.5q6 34 32.5 56.5t58.5 22.5z" />
    <glyph glyph-name="oslash" unicode="&#xf8;" horiz-adv-x="638" 
d="M549 434q27 -35 38.5 -81.5t4.5 -103.5q-6 -59 -31.5 -107t-64.5 -82t-89.5 -52.5t-107.5 -18.5q-38 0 -72 8t-63 22l-60 -65l-73 59l61 66q-29 35 -41.5 83t-4.5 106q6 59 31.5 107t64.5 81.5t89.5 52t107.5 18.5q78 0 137 -32l52 57l74 -60zM191 249q-2 -17 -0.5 -31
t4.5 -27l188 204q-18 7 -42 7q-61 0 -102.5 -40.5t-47.5 -112.5zM447 268q2 30 -3 53l-186 -200q18 -6 39 -6q61 0 102.5 40.5t47.5 112.5z" />
    <glyph glyph-name="ugrave" unicode="&#xf9;" 
d="M303 598l-102 191h162l50 -191h-110zM352 0l7 51q-20 -26 -54 -44t-84 -18q-94 0 -138 54t-28 150l58 324h146l-52 -296q-8 -48 8.5 -72t54.5 -24q47 0 73.5 27t34.5 72l52 293h145l-91 -517h-132z" />
    <glyph glyph-name="uacute" unicode="&#xfa;" 
d="M300 598l119 191h168l-170 -191h-117zM352 0l7 51q-20 -26 -54 -44t-84 -18q-94 0 -138 54t-28 150l58 324h146l-52 -296q-8 -48 8.5 -72t54.5 -24q47 0 73.5 27t34.5 72l52 293h145l-91 -517h-132z" />
    <glyph glyph-name="ucircumflex" unicode="&#xfb;" 
d="M428 599l-47 82l-82 -82h-126l148 177h141l86 -177h-120zM352 0l7 51q-20 -26 -54 -44t-84 -18q-94 0 -138 54t-28 150l58 324h146l-52 -296q-8 -48 8.5 -72t54.5 -24q47 0 73.5 27t34.5 72l52 293h145l-91 -517h-132z" />
    <glyph glyph-name="udieresis" unicode="&#xfc;" 
d="M281 757q19 0 34 -7t25.5 -19t14.5 -27.5t1 -33.5q-6 -31 -29 -50.5t-52 -19.5q-38 0 -59 25.5t-15 62.5q5 30 28 49.5t52 19.5zM474 757q19 0 34 -7t25 -19t14.5 -27.5t1.5 -33.5q-6 -31 -29.5 -50.5t-52.5 -19.5q-38 0 -59 25.5t-14 62.5q5 30 28 49.5t52 19.5zM352 0
l7 51q-20 -26 -54 -44t-84 -18q-94 0 -138 54t-28 150l58 324h146l-52 -296q-8 -48 8.5 -72t54.5 -24q47 0 73.5 27t34.5 72l52 293h145l-91 -517h-132z" />
    <glyph glyph-name="yacute" unicode="&#xfd;" horiz-adv-x="578" 
d="M287 598l119 191h168l-170 -191h-117zM-18 -255l187 307l-117 465h161l64 -305l173 305h162l-466 -772h-164z" />
    <glyph glyph-name="thorn" unicode="&#xfe;" horiz-adv-x="657" 
d="M253 477q23 23 59 36.5t84 13.5q57 0 101.5 -20.5t73 -57t39.5 -88t1 -114.5q-9 -59 -33.5 -106.5t-60.5 -81.5t-83 -52t-101 -18q-57 0 -93.5 18t-53.5 43l-58 -305h-146l182 1032h146zM361 402q-56 0 -93 -33.5t-48 -94.5l-3 -23q-5 -33 0.5 -59t19.5 -43t35.5 -26
t48.5 -9q56 0 95.5 35.5t48.5 103.5q11 72 -20 110.5t-84 38.5z" />
    <glyph glyph-name="ydieresis" unicode="&#xff;" horiz-adv-x="578" 
d="M268 757q19 0 34 -7t25.5 -19t14.5 -27.5t1 -33.5q-6 -31 -29 -50.5t-52 -19.5q-38 0 -59 25.5t-15 62.5q5 30 28 49.5t52 19.5zM461 757q19 0 34 -7t25 -19t14.5 -27.5t1.5 -33.5q-6 -31 -29.5 -50.5t-52.5 -19.5q-38 0 -59 25.5t-14 62.5q5 30 28 49.5t52 19.5z
M-18 -255l187 307l-117 465h161l64 -305l173 305h162l-466 -772h-164z" />
    <glyph glyph-name="Amacron" unicode="&#x100;" horiz-adv-x="789" 
d="M350 815l19 111h301l-21 -111h-299zM567 0l-36 147h-310l-88 -147h-169l453 748h130l189 -748h-169zM499 268l-60 241l-144 -241h204z" />
    <glyph glyph-name="amacron" unicode="&#x101;" horiz-adv-x="556" 
d="M193 619l20 112h300l-20 -112h-300zM320 527q48 0 85.5 -14.5t61.5 -42t32.5 -67t-0.5 -89.5l-56 -314h-135l8 41q-24 -23 -57 -37.5t-83 -14.5q-37 0 -67.5 11t-51 32t-29.5 51.5t-2 69.5q7 41 28.5 68.5t53 44.5t69.5 24.5t79 9.5l95 5l5 23q6 35 -7 56t-46 21
q-42 0 -61.5 -22.5t-24.5 -49.5l-143 11q6 34 26 67t52 59t74.5 41.5t93.5 15.5zM266 204q-41 -2 -66.5 -15t-29.5 -42q-3 -22 11 -33.5t40 -11.5q38 0 69.5 22t40.5 66l3 18z" />
    <glyph glyph-name="Abreve" unicode="&#x102;" horiz-adv-x="789" 
d="M710 961q-8 -44 -26 -75t-44.5 -51t-60.5 -29.5t-72 -9.5q-43 0 -77.5 11t-57 32t-31.5 51.5t-1 70.5h117q-6 -34 10.5 -49t45.5 -15q32 0 53.5 19t26.5 45h117zM567 0l-36 147h-310l-88 -147h-169l453 748h130l189 -748h-169zM499 268l-60 241l-144 -241h204z" />
    <glyph glyph-name="abreve" unicode="&#x103;" horiz-adv-x="556" 
d="M552 758q-8 -44 -26 -75t-44.5 -51t-60.5 -29.5t-72 -9.5q-43 0 -77 11t-56.5 32t-31.5 52t-1 70h116q-5 -35 11.5 -50t44.5 -15q34 0 54.5 19.5t25.5 45.5h117zM320 527q48 0 85.5 -14.5t61.5 -42t32.5 -67t-0.5 -89.5l-56 -314h-135l8 41q-24 -23 -57 -37.5t-83 -14.5
q-37 0 -67.5 11t-51 32t-29.5 51.5t-2 69.5q7 41 28.5 68.5t53 44.5t69.5 24.5t79 9.5l95 5l5 23q6 35 -7 56t-46 21q-42 0 -61.5 -22.5t-24.5 -49.5l-143 11q6 34 26 67t52 59t74.5 41.5t93.5 15.5zM266 204q-41 -2 -66.5 -15t-29.5 -42q-3 -22 11 -33.5t40 -11.5
q38 0 69.5 22t40.5 66l3 18z" />
    <glyph glyph-name="Aogonek" unicode="&#x104;" horiz-adv-x="789" 
d="M618 -115q17 0 29.5 4.5t23.5 9.5l11 -75q-19 -8 -39.5 -12t-45.5 -4q-28 0 -51.5 6.5t-39.5 19.5t-23.5 32.5t-2.5 45.5q6 32 28.5 54.5t57.5 39.5l-35 141h-310l-88 -147h-169l453 748h130l189 -748h-55q-38 -20 -62.5 -39t-29.5 -47q-5 -29 29 -29zM439 509l-144 -241
h204z" />
    <glyph glyph-name="aogonek" unicode="&#x105;" horiz-adv-x="556" 
d="M320 527q48 0 85.5 -14.5t61.5 -42t32.5 -67t-0.5 -89.5l-56 -314h-14q-37 -19 -61 -38.5t-29 -46.5q-5 -29 29 -29q17 0 29.5 4.5t23.5 9.5l11 -75q-19 -8 -39.5 -12t-45.5 -4q-28 0 -51.5 6.5t-39.5 19.5t-23.5 32.5t-2.5 45.5q5 30 26 51.5t53 38.5l7 38
q-24 -23 -57 -37.5t-83 -14.5q-37 0 -67.5 11t-51 32t-29.5 51.5t-2 69.5q7 41 28.5 68.5t53 44.5t69.5 24.5t79 9.5l95 5l5 23q6 35 -7 56t-46 21q-42 0 -61.5 -22.5t-24.5 -49.5l-143 11q6 34 26 67t52 59t74.5 41.5t93.5 15.5zM221 102q38 0 69.5 22t40.5 66l3 18l-68 -4
q-41 -2 -66.5 -15t-29.5 -42q-3 -22 11 -33.5t40 -11.5z" />
    <glyph glyph-name="Cacute" unicode="&#x106;" horiz-adv-x="826" 
d="M444 795l155 154h202l-221 -154h-136zM492 759q70 0 129 -20t102.5 -57t68 -90t25.5 -119l-161 -12q-4 80 -51 120.5t-120 40.5q-52 0 -96 -18t-78 -52t-56 -81.5t-30 -105.5q-8 -59 2.5 -104t35.5 -75t61.5 -45t80.5 -15q81 0 140.5 41.5t85.5 119.5l159 -18
q-20 -66 -57.5 -118t-87.5 -88t-111 -55t-127 -19q-84 0 -152 27t-113 78t-64.5 124t-6.5 165q12 89 49.5 159t93.5 118t127 73.5t151 25.5z" />
    <glyph glyph-name="cacute" unicode="&#x107;" horiz-adv-x="592" 
d="M296 598l119 191h168l-170 -191h-117zM333 527q49 0 90.5 -14.5t72 -40.5t47.5 -64t19 -84l-142 -10q0 42 -23.5 65t-64.5 23q-57 0 -94 -40.5t-48 -112.5q-8 -66 19.5 -100t75.5 -34q47 0 77.5 23.5t41.5 59.5l141 -15q-13 -46 -38 -82t-59 -61t-75.5 -38t-86.5 -13
q-60 0 -108 19t-80 55t-46 88t-6 117q8 62 33 110t63 81t87 50.5t104 17.5z" />
    <glyph glyph-name="Ccircumflex" unicode="&#x108;" horiz-adv-x="826" 
d="M578 795l-48 75l-81 -75h-125l144 160h141l89 -160h-120zM492 759q70 0 129 -20t102.5 -57t68 -90t25.5 -119l-161 -12q-4 80 -51 120.5t-120 40.5q-52 0 -96 -18t-78 -52t-56 -81.5t-30 -105.5q-8 -59 2.5 -104t35.5 -75t61.5 -45t80.5 -15q81 0 140.5 41.5t85.5 119.5
l159 -18q-20 -66 -57.5 -118t-87.5 -88t-111 -55t-127 -19q-84 0 -152 27t-113 78t-64.5 124t-6.5 165q12 89 49.5 159t93.5 118t127 73.5t151 25.5z" />
    <glyph glyph-name="ccircumflex" unicode="&#x109;" horiz-adv-x="592" 
d="M424 599l-47 82l-82 -82h-126l148 177h141l86 -177h-120zM333 527q49 0 90.5 -14.5t72 -40.5t47.5 -64t19 -84l-142 -10q0 42 -23.5 65t-64.5 23q-57 0 -94 -40.5t-48 -112.5q-8 -66 19.5 -100t75.5 -34q47 0 77.5 23.5t41.5 59.5l141 -15q-13 -46 -38 -82t-59 -61
t-75.5 -38t-86.5 -13q-60 0 -108 19t-80 55t-46 88t-6 117q8 62 33 110t63 81t87 50.5t104 17.5z" />
    <glyph glyph-name="Cdotaccent" unicode="&#x10a;" horiz-adv-x="826" 
d="M532 973q21 0 37.5 -7.5t28 -21t16 -31t1.5 -37.5q-6 -34 -33 -56t-59 -22q-20 0 -36.5 7.5t-27.5 20.5t-15.5 30.5t-1.5 37.5q6 34 32.5 56.5t57.5 22.5zM492 759q70 0 129 -20t102.5 -57t68 -90t25.5 -119l-161 -12q-4 80 -51 120.5t-120 40.5q-52 0 -96 -18t-78 -52
t-56 -81.5t-30 -105.5q-8 -59 2.5 -104t35.5 -75t61.5 -45t80.5 -15q81 0 140.5 41.5t85.5 119.5l159 -18q-20 -66 -57.5 -118t-87.5 -88t-111 -55t-127 -19q-84 0 -152 27t-113 78t-64.5 124t-6.5 165q12 89 49.5 159t93.5 118t127 73.5t151 25.5z" />
    <glyph glyph-name="cdotaccent" unicode="&#x10b;" horiz-adv-x="592" 
d="M377 770q41 0 64.5 -28.5t16.5 -69.5q-6 -33 -32.5 -55.5t-58.5 -22.5q-21 0 -37.5 7.5t-27.5 21t-15.5 31t-0.5 37.5q6 33 32.5 56t58.5 23zM333 527q49 0 90.5 -14.5t72 -40.5t47.5 -64t19 -84l-142 -10q0 42 -23.5 65t-64.5 23q-57 0 -94 -40.5t-48 -112.5
q-8 -66 19.5 -100t75.5 -34q47 0 77.5 23.5t41.5 59.5l141 -15q-13 -46 -38 -82t-59 -61t-75.5 -38t-86.5 -13q-60 0 -108 19t-80 55t-46 88t-6 117q8 62 33 110t63 81t87 50.5t104 17.5z" />
    <glyph glyph-name="Ccaron" unicode="&#x10c;" horiz-adv-x="826" 
d="M444 795l-89 160h119l49 -75l80 75h126l-145 -160h-140zM492 759q70 0 129 -20t102.5 -57t68 -90t25.5 -119l-161 -12q-4 80 -51 120.5t-120 40.5q-52 0 -96 -18t-78 -52t-56 -81.5t-30 -105.5q-8 -59 2.5 -104t35.5 -75t61.5 -45t80.5 -15q81 0 140.5 41.5t85.5 119.5
l159 -18q-20 -66 -57.5 -118t-87.5 -88t-111 -55t-127 -19q-84 0 -152 27t-113 78t-64.5 124t-6.5 165q12 89 49.5 159t93.5 118t127 73.5t151 25.5z" />
    <glyph glyph-name="ccaron" unicode="&#x10d;" horiz-adv-x="592" 
d="M289 597l-85 176h119l48 -82l81 82h126l-148 -176h-141zM333 527q49 0 90.5 -14.5t72 -40.5t47.5 -64t19 -84l-142 -10q0 42 -23.5 65t-64.5 23q-57 0 -94 -40.5t-48 -112.5q-8 -66 19.5 -100t75.5 -34q47 0 77.5 23.5t41.5 59.5l141 -15q-13 -46 -38 -82t-59 -61
t-75.5 -38t-86.5 -13q-60 0 -108 19t-80 55t-46 88t-6 117q8 62 33 110t63 81t87 50.5t104 17.5z" />
    <glyph glyph-name="Dcaron" unicode="&#x10e;" horiz-adv-x="803" 
d="M375 795l-89 160h119l49 -75l80 75h126l-145 -160h-140zM450 748q80 0 146 -26t110 -75.5t62.5 -120.5t3.5 -161q-15 -89 -52 -157.5t-91.5 -114.5t-124 -69.5t-148.5 -23.5h-327l132 748h289zM207 132h159q49 0 92 15.5t77 46.5t56.5 78t31.5 109q16 118 -33.5 176.5
t-147.5 58.5h-150z" />
    <glyph glyph-name="dcaron" unicode="&#x10f;" horiz-adv-x="816" 
d="M676 777l-136 -777h-136l7 47q-24 -28 -59 -43t-86 -15q-57 0 -102 20t-74 57t-41 88t-3 114q8 59 31 107t58.5 81.5t82.5 52t103 18.5q59 0 97.5 -18t52.5 -43l59 311h146zM802 776q45 0 64 -30.5t11 -76.5q-12 -68 -56 -125t-131 -97l2 65q28 17 49.5 39t35.5 51
q-33 6 -51 32.5t-12 62.5q6 33 30.5 56t57.5 23zM441 266q8 66 -22.5 101t-84.5 35q-56 0 -95 -35t-47 -103q-5 -36 1 -63.5t20.5 -46.5t36.5 -29t48 -10q57 0 93.5 33t45.5 94z" />
    <glyph glyph-name="Dcroat" unicode="&#x110;" horiz-adv-x="805" 
d="M450 748q80 0 146 -26t110 -75.5t62.5 -120.5t3.5 -161q-15 -89 -52 -157.5t-91.5 -114.5t-124 -69.5t-148.5 -23.5h-327l56 315h-67l20 117h67l56 316h289zM623 381q16 118 -33.5 176.5t-147.5 58.5h-150l-32 -184h126l-20 -117h-127l-32 -183h159q49 0 92 15.5t77 46.5
t56.5 78t31.5 109z" />
    <glyph glyph-name="dcroat" unicode="&#x111;" horiz-adv-x="655" 
d="M644 596l-104 -596h-136l7 47q-24 -28 -59 -43t-86 -15q-57 0 -102 20t-74 57t-41 88t-3 114q8 59 31 107t58.5 81.5t82.5 52t103 18.5q59 0 97.5 -18t52.5 -43l25 130h-81l19 112h83l13 69h146l-12 -69h71l-21 -112h-70zM441 266q8 66 -22.5 101t-84.5 35q-56 0 -95 -35
t-47 -103q-5 -36 1 -63.5t20.5 -46.5t36.5 -29t48 -10q57 0 93.5 33t45.5 94z" />
    <glyph glyph-name="Emacron" unicode="&#x112;" 
d="M268 815l19 111h301l-21 -111h-299zM291 612l-28 -162h282l-24 -133h-282l-31 -180h326l-24 -137h-481l132 748h480l-24 -136h-326z" />
    <glyph glyph-name="emacron" unicode="&#x113;" horiz-adv-x="598" 
d="M216 619l20 112h300l-20 -112h-300zM333 527q58 0 103.5 -18.5t75 -52.5t41.5 -82.5t3 -109.5l-9 -52h-354q-4 -51 20.5 -78t73.5 -27q39 0 64 15.5t37 41.5l147 -10q-12 -39 -36.5 -69.5t-57.5 -52t-73 -32.5t-83 -11q-61 0 -109.5 19.5t-80 55.5t-45 87.5t-4.5 116.5
q9 61 34 109t62.5 81.5t86 51t104.5 17.5zM331 413q-49 0 -81 -28t-43 -76h207q7 50 -14.5 77t-68.5 27z" />
    <glyph glyph-name="Ebreve" unicode="&#x114;" 
d="M629 961q-8 -44 -26 -75t-44.5 -51t-60.5 -29.5t-72 -9.5q-43 0 -77.5 11t-57 32t-31.5 51.5t-1 70.5h117q-6 -34 10.5 -49t45.5 -15q32 0 53.5 19t26.5 45h117zM291 612l-28 -162h282l-24 -133h-282l-31 -180h326l-24 -137h-481l132 748h480l-24 -136h-326z" />
    <glyph glyph-name="ebreve" unicode="&#x115;" horiz-adv-x="598" 
d="M372 593q-43 0 -77 11t-56.5 32t-31.5 52t-1 70h116q-5 -35 11.5 -50t44.5 -15q34 0 54.5 19.5t25.5 45.5h117q-8 -44 -26 -75t-44.5 -51t-60.5 -29.5t-72 -9.5zM333 527q58 0 103.5 -18.5t75 -52.5t41.5 -82.5t3 -109.5l-9 -52h-354q-4 -51 20.5 -78t73.5 -27
q39 0 64 15.5t37 41.5l147 -10q-12 -39 -36.5 -69.5t-57.5 -52t-73 -32.5t-83 -11q-61 0 -109.5 19.5t-80 55.5t-45 87.5t-4.5 116.5q9 61 34 109t62.5 81.5t86 51t104.5 17.5zM331 413q-49 0 -81 -28t-43 -76h207q7 50 -14.5 77t-68.5 27z" />
    <glyph glyph-name="Edotaccent" unicode="&#x116;" 
d="M434 973q21 0 37.5 -7.5t28 -21t16 -31t1.5 -37.5q-6 -34 -33 -56t-59 -22q-20 0 -36.5 7.5t-27.5 20.5t-15.5 30.5t-1.5 37.5q6 34 32.5 56.5t57.5 22.5zM291 612l-28 -162h282l-24 -133h-282l-31 -180h326l-24 -137h-481l132 748h480l-24 -136h-326z" />
    <glyph glyph-name="edotaccent" unicode="&#x117;" horiz-adv-x="598" 
d="M372 594q-21 0 -37.5 7.5t-27.5 21t-15.5 31t-0.5 37.5q6 33 32.5 56t58.5 23q41 0 64.5 -28.5t16.5 -69.5q-6 -33 -32.5 -55.5t-58.5 -22.5zM333 527q58 0 103.5 -18.5t75 -52.5t41.5 -82.5t3 -109.5l-9 -52h-354q-4 -51 20.5 -78t73.5 -27q39 0 64 15.5t37 41.5
l147 -10q-12 -39 -36.5 -69.5t-57.5 -52t-73 -32.5t-83 -11q-61 0 -109.5 19.5t-80 55.5t-45 87.5t-4.5 116.5q9 61 34 109t62.5 81.5t86 51t104.5 17.5zM331 413q-49 0 -81 -28t-43 -76h207q7 50 -14.5 77t-68.5 27z" />
    <glyph glyph-name="Eogonek" unicode="&#x118;" 
d="M263 450h282l-24 -133h-282l-31 -180h326l-24 -135l1 -1h-1l-1 -1q-38 -20 -62.5 -39t-29.5 -47q-5 -29 29 -29q17 0 29.5 4.5t23.5 9.5l11 -75q-19 -8 -39.5 -12t-45.5 -4q-28 0 -51.5 6.5t-39.5 19.5t-23.5 32.5t-2.5 45.5q5 29 24.5 50t49.5 38h-353l132 748h480
l-24 -136h-326z" />
    <glyph glyph-name="eogonek" unicode="&#x119;" horiz-adv-x="598" 
d="M333 527q58 0 103.5 -18.5t75 -52.5t41.5 -82.5t3 -109.5l-9 -52h-354q-4 -51 21 -78t73 -27q39 0 64 15.5t37 41.5l147 -10q-21 -68 -76 -109.5t-127 -52.5q-32 -17 -52.5 -35t-25.5 -43q-5 -29 29 -29q17 0 29.5 4.5t23.5 9.5l11 -75q-19 -8 -39.5 -12t-45.5 -4
q-28 0 -51.5 6.5t-39.5 19.5t-23.5 32.5t-2.5 45.5q5 28 23 48.5t45 36.5q-45 10 -79.5 33.5t-56.5 58t-30.5 80t-0.5 99.5q9 61 34 109t62.5 81.5t86 51t104.5 17.5zM331 413q-49 0 -81 -28t-43 -76h207q7 50 -14.5 77t-68.5 27z" />
    <glyph glyph-name="Ecaron" unicode="&#x11a;" 
d="M346 795l-89 160h119l49 -75l80 75h126l-145 -160h-140zM291 612l-28 -162h282l-24 -133h-282l-31 -180h326l-24 -137h-481l132 748h480l-24 -136h-326z" />
    <glyph glyph-name="ecaron" unicode="&#x11b;" horiz-adv-x="598" 
d="M209 773h119l48 -82l81 82h126l-148 -176h-141zM333 527q58 0 103.5 -18.5t75 -52.5t41.5 -82.5t3 -109.5l-9 -52h-354q-4 -51 20.5 -78t73.5 -27q39 0 64 15.5t37 41.5l147 -10q-12 -39 -36.5 -69.5t-57.5 -52t-73 -32.5t-83 -11q-61 0 -109.5 19.5t-80 55.5t-45 87.5
t-4.5 116.5q9 61 34 109t62.5 81.5t86 51t104.5 17.5zM331 413q-49 0 -81 -28t-43 -76h207q7 50 -14.5 77t-68.5 27z" />
    <glyph glyph-name="Gcircumflex" unicode="&#x11c;" horiz-adv-x="834" 
d="M325 795l144 160h141l89 -160h-120l-48 75l-81 -75h-125zM810 408l-7 -55q-12 -83 -45 -150t-84.5 -114.5t-119.5 -73.5t-148 -26q-84 0 -151.5 27t-112.5 78t-64.5 124t-6.5 165q12 89 49.5 159t93.5 118t127 73.5t151 25.5q67 0 123 -18t98 -51.5t68 -82.5t33 -110
l-159 -18q-6 69 -50.5 106t-116.5 37q-53 0 -97 -16.5t-78 -48.5t-56.5 -80t-31.5 -112q-8 -60 1.5 -105t33.5 -75t61.5 -44.5t85.5 -14.5q72 0 128 35.5t84 110.5h-185l19 136h357z" />
    <glyph glyph-name="gcircumflex" unicode="&#x11d;" horiz-adv-x="648" 
d="M444 599l-47 82l-82 -82h-126l148 177h141l86 -177h-120zM321 527q60 0 100.5 -21t57.5 -49l14 60h137l-95 -541q-9 -56 -35 -100.5t-64.5 -76t-89 -48t-108.5 -16.5q-62 0 -107 15t-74 41t-42.5 61.5t-12.5 77.5l142 4q-1 -38 25 -56.5t71 -18.5q59 0 98.5 31t50.5 85
l12 63q-19 -23 -51.5 -36t-83.5 -13q-57 0 -101.5 20t-74 57t-41 88t-2.5 114q8 59 31 107t58.5 81.5t82 52t102.5 18.5zM334 402q-55 0 -94 -35t-48 -103q-5 -36 1.5 -63.5t21 -46.5t36.5 -29t48 -10q56 0 92.5 33t45.5 94l4 24q9 66 -22 101t-85 35z" />
    <glyph glyph-name="Gbreve" unicode="&#x11e;" horiz-adv-x="834" 
d="M525 796q-43 0 -77.5 11t-57 32t-31.5 51.5t-1 70.5h117q-6 -34 10.5 -49t45.5 -15q32 0 53.5 19t26.5 45h117q-8 -44 -26 -75t-44.5 -51t-60.5 -29.5t-72 -9.5zM810 408l-7 -55q-12 -83 -45 -150t-84.5 -114.5t-119.5 -73.5t-148 -26q-84 0 -151.5 27t-112.5 78
t-64.5 124t-6.5 165q12 89 49.5 159t93.5 118t127 73.5t151 25.5q67 0 123 -18t98 -51.5t68 -82.5t33 -110l-159 -18q-6 69 -50.5 106t-116.5 37q-53 0 -97 -16.5t-78 -48.5t-56.5 -80t-31.5 -112q-8 -60 1.5 -105t33.5 -75t61.5 -44.5t85.5 -14.5q72 0 128 35.5t84 110.5
h-185l19 136h357z" />
    <glyph glyph-name="gbreve" unicode="&#x11f;" horiz-adv-x="648" 
d="M590 758q-8 -44 -26 -75t-44.5 -51t-60.5 -29.5t-72 -9.5q-43 0 -77 11t-56.5 32t-31.5 52t-1 70h116q-5 -35 11.5 -50t44.5 -15q34 0 54.5 19.5t25.5 45.5h117zM321 527q60 0 100.5 -21t57.5 -49l14 60h137l-95 -541q-9 -56 -35 -100.5t-64.5 -76t-89 -48t-108.5 -16.5
q-62 0 -107 15t-74 41t-42.5 61.5t-12.5 77.5l142 4q-1 -38 25 -56.5t71 -18.5q59 0 98.5 31t50.5 85l12 63q-19 -23 -51.5 -36t-83.5 -13q-57 0 -101.5 20t-74 57t-41 88t-2.5 114q8 59 31 107t58.5 81.5t82 52t102.5 18.5zM334 402q-55 0 -94 -35t-48 -103
q-5 -36 1.5 -63.5t21 -46.5t36.5 -29t48 -10q56 0 92.5 33t45.5 94l4 24q9 66 -22 101t-85 35z" />
    <glyph glyph-name="Gdotaccent" unicode="&#x120;" horiz-adv-x="834" 
d="M524 798q-20 0 -36.5 7.5t-27.5 20.5t-15.5 30.5t-1.5 37.5q6 34 32.5 56.5t57.5 22.5q21 0 37.5 -7.5t28 -21t16 -31t1.5 -37.5q-6 -34 -33 -56t-59 -22zM810 408l-7 -55q-12 -83 -45 -150t-84.5 -114.5t-119.5 -73.5t-148 -26q-84 0 -151.5 27t-112.5 78t-64.5 124
t-6.5 165q12 89 49.5 159t93.5 118t127 73.5t151 25.5q67 0 123 -18t98 -51.5t68 -82.5t33 -110l-159 -18q-6 69 -50.5 106t-116.5 37q-53 0 -97 -16.5t-78 -48.5t-56.5 -80t-31.5 -112q-8 -60 1.5 -105t33.5 -75t61.5 -44.5t85.5 -14.5q72 0 128 35.5t84 110.5h-185l19 136
h357z" />
    <glyph glyph-name="gdotaccent" unicode="&#x121;" horiz-adv-x="648" 
d="M398 770q41 0 64.5 -28.5t16.5 -69.5q-6 -33 -32.5 -55.5t-58.5 -22.5q-21 0 -37.5 7.5t-27.5 21t-15.5 31t-0.5 37.5q6 33 32.5 56t58.5 23zM321 527q60 0 100.5 -21t57.5 -49l14 60h137l-95 -541q-9 -56 -35 -100.5t-64.5 -76t-89 -48t-108.5 -16.5q-62 0 -107 15
t-74 41t-42.5 61.5t-12.5 77.5l142 4q-1 -38 25 -56.5t71 -18.5q59 0 98.5 31t50.5 85l12 63q-19 -23 -51.5 -36t-83.5 -13q-57 0 -101.5 20t-74 57t-41 88t-2.5 114q8 59 31 107t58.5 81.5t82 52t102.5 18.5zM334 402q-55 0 -94 -35t-48 -103q-5 -36 1.5 -63.5t21 -46.5
t36.5 -29t48 -10q56 0 92.5 33t45.5 94l4 24q9 66 -22 101t-85 35z" />
    <glyph glyph-name="Gcommaaccent" unicode="&#x122;" horiz-adv-x="834" 
d="M810 408l-7 -55q-12 -83 -45 -150t-84.5 -114.5t-119.5 -73.5t-148 -26q-84 0 -151.5 27t-112.5 78t-64.5 124t-6.5 165q12 89 49.5 159t93.5 118t127 73.5t151 25.5q67 0 123 -18t98 -51.5t68 -82.5t33 -110l-159 -18q-6 69 -50.5 106t-116.5 37q-53 0 -97 -16.5
t-78 -48.5t-56.5 -80t-31.5 -112q-8 -60 1.5 -105t33.5 -75t61.5 -44.5t85.5 -14.5q72 0 128 35.5t84 110.5h-185l19 136h357zM358 -48q45 0 64 -30.5t11 -76.5q-12 -68 -56 -125t-131 -97l2 65q28 17 49.5 39t35.5 51q-33 6 -51 32.5t-12 62.5q6 33 30.5 56t57.5 23z" />
    <glyph glyph-name="gcommaaccent" unicode="&#x123;" horiz-adv-x="648" 
d="M516 793q-12 -68 -56 -125t-131 -97l2 65q28 17 49.5 39t35.5 51q-33 6 -51 32.5t-12 62.5q6 33 30.5 56t57.5 23q45 0 64 -30.5t11 -76.5zM535 -24q-9 -56 -35 -100.5t-64.5 -76t-89 -48t-108.5 -16.5q-62 0 -107 15t-74 41t-42.5 61.5t-12.5 77.5l142 4
q-1 -38 25 -56.5t71 -18.5q59 0 98.5 31t50.5 85l12 63q-19 -23 -51.5 -36t-83.5 -13q-57 0 -101.5 20t-74 57t-41 88t-2.5 114q8 59 31 107t58.5 81.5t82 52t102.5 18.5q60 0 100.5 -21t57.5 -49l14 60h137zM441 266q9 66 -22 101t-85 35q-55 0 -94 -35t-48 -103
q-5 -36 1.5 -63.5t21 -46.5t36.5 -29t48 -10q56 0 92.5 33t45.5 94z" />
    <glyph glyph-name="Hcircumflex" unicode="&#x124;" horiz-adv-x="762" 
d="M543 795l-48 75l-81 -75h-125l144 160h141l89 -160h-120zM487 0l56 315h-304l-55 -315h-155l132 748h155l-53 -296h304l52 296h154l-132 -748h-154z" />
    <glyph glyph-name="hcircumflex" unicode="&#x125;" horiz-adv-x="616" 
d="M309 801l-48 76l-81 -76h-125l144 160h141l88 -160h-119zM253 478q19 20 52 34.5t81 14.5q45 0 81 -14.5t59.5 -42.5t32.5 -68.5t0 -91.5l-54 -310h-146l51 289q9 50 -10.5 76t-60.5 26q-48 0 -78 -29.5t-38 -76.5l-51 -285h-146l137 777h146z" />
    <glyph glyph-name="Hbar" unicode="&#x126;" horiz-adv-x="779" 
d="M744 539l-95 -539h-154l56 315h-304l-56 -315h-154l95 539h-74l21 117h74l16 92h154l-16 -92h304l16 92h154l-16 -92h75l-21 -117h-75zM286 539l-15 -87h304l15 87h-304z" />
    <glyph glyph-name="hbar" unicode="&#x127;" horiz-adv-x="616" 
d="M386 527q45 0 81 -14.5t59.5 -42.5t32.5 -68.5t0 -91.5l-54 -310h-146l51 289q9 50 -10.5 76t-60.5 26q-48 0 -78 -29.5t-38 -76.5l-51 -285h-146l105 596h-68l20 112h68l12 69h146l-13 -69h87l-20 -112h-88l-22 -118q19 20 52 34.5t81 14.5z" />
    <glyph glyph-name="Itilde" unicode="&#x128;" horiz-adv-x="305" 
d="M202 959q26 0 41.5 -8.5t27 -18t22.5 -18t28 -8.5q26 0 40 12.5t18 32.5h79q0 -33 -10.5 -61.5t-29 -49t-42 -32t-48.5 -11.5q-26 0 -42 8.5t-27.5 18t-22.5 18t-27 8.5q-26 0 -40 -13.5t-18 -33.5h-79q0 33 10.5 61.5t29 49.5t42 33t48.5 12zM29 0l132 748h155
l-132 -748h-155z" />
    <glyph glyph-name="itilde" unicode="&#x129;" horiz-adv-x="291" 
d="M158 761q26 0 41.5 -8.5t27 -18.5t22.5 -18.5t28 -8.5q26 0 40 12.5t18 33.5h80q0 -33 -11 -61.5t-29 -49.5t-42 -32.5t-49 -11.5q-26 0 -42 8.5t-27.5 18t-22.5 18t-27 8.5q-26 0 -40 -13.5t-18 -33.5h-79q0 33 10.5 62t29 50t42 33t48.5 12zM26 0l92 517h146l-92 -517
h-146z" />
    <glyph glyph-name="Imacron" unicode="&#x12a;" horiz-adv-x="305" 
d="M105 815l19 111h301l-21 -111h-299zM29 0l132 748h155l-132 -748h-155z" />
    <glyph glyph-name="imacron" unicode="&#x12b;" horiz-adv-x="291" 
d="M62 619l20 112h300l-20 -112h-300zM26 0l92 517h146l-92 -517h-146z" />
    <glyph glyph-name="Ibreve" unicode="&#x12c;" horiz-adv-x="305" 
d="M466 961q-8 -44 -26 -75t-44.5 -51t-60.5 -29.5t-72 -9.5q-43 0 -77.5 11t-57 32t-31.5 51.5t-1 70.5h117q-6 -34 10.5 -49t45.5 -15q32 0 53.5 19t26.5 45h117zM29 0l132 748h155l-132 -748h-155z" />
    <glyph glyph-name="ibreve" unicode="&#x12d;" horiz-adv-x="291" 
d="M420 758q-8 -44 -26 -75t-44.5 -51t-60.5 -29.5t-72 -9.5q-43 0 -77 11t-56.5 32t-31.5 52t-1 70h116q-5 -35 11.5 -50t44.5 -15q34 0 54.5 19.5t25.5 45.5h117zM26 0l92 517h146l-92 -517h-146z" />
    <glyph glyph-name="Iogonek" unicode="&#x12e;" horiz-adv-x="305" 
d="M126 0q-37 -19 -61 -38.5t-29 -46.5q-5 -29 29 -29q17 0 29.5 4.5t23.5 9.5l11 -75q-19 -8 -39.5 -12t-45.5 -4q-28 0 -51.5 6.5t-39.5 19.5t-23.5 32.5t-2.5 45.5q7 36 34.5 60.5t70.5 41.5l129 733h155l-132 -748h-58z" />
    <glyph glyph-name="iogonek" unicode="&#x12f;" horiz-adv-x="291" 
d="M228 770q41 0 64.5 -28.5t16.5 -69.5q-6 -33 -32.5 -55.5t-58.5 -22.5q-21 0 -37.5 7.5t-27.5 21t-15.5 31t-0.5 37.5q6 33 32.5 56t58.5 23zM264 517l-92 -517h-33q-37 -19 -61 -38.5t-29 -46.5q-5 -29 29 -29q17 0 29.5 4.5t23.5 9.5l11 -75q-19 -8 -39.5 -12t-45.5 -4
q-28 0 -51.5 6.5t-39.5 19.5t-23.5 32.5t-2.5 45.5q6 32 29 55t58 40l91 509h146z" />
    <glyph glyph-name="Idotaccent" unicode="&#x130;" horiz-adv-x="305" 
d="M271 973q21 0 37.5 -7.5t28 -21t16 -31t1.5 -37.5q-6 -34 -33 -56t-59 -22q-20 0 -36.5 7.5t-27.5 20.5t-15.5 30.5t-1.5 37.5q6 34 32.5 56.5t57.5 22.5zM29 0l132 748h155l-132 -748h-155z" />
    <glyph glyph-name="dotlessi" unicode="&#x131;" horiz-adv-x="291" 
d="M26 0l92 517h146l-92 -517h-146z" />
    <glyph glyph-name="Jcircumflex" unicode="&#x134;" horiz-adv-x="614" 
d="M636 795l-48 75l-81 -75h-125l144 160h141l89 -160h-120zM545 262q-23 -132 -102.5 -202.5t-198.5 -70.5q-60 0 -105.5 18.5t-75 53t-41.5 83t-5 108.5l156 7q-8 -66 11.5 -99.5t70.5 -33.5q52 0 88 36t48 101l85 485h154z" />
    <glyph glyph-name="jcircumflex" unicode="&#x135;" horiz-adv-x="291" 
d="M270 599l-47 82l-82 -82h-126l148 177h141l86 -177h-120zM163 -55q-10 -56 -31 -96t-50 -65.5t-65 -37t-76 -11.5q-48 0 -79 11t-51 25l71 114q9 -8 19 -14.5t25 -6.5q36 0 60 21t32 61l100 571h146z" />
    <glyph glyph-name="Kcommaaccent" unicode="&#x136;" horiz-adv-x="721" 
d="M661 0h-168l-152 322l-120 -115l-37 -207h-155l132 748h155l-57 -309l309 309h204l-316 -312zM301 -43q45 0 64 -30.5t11 -76.5q-12 -68 -56 -125t-131 -97l2 65q28 17 49.5 39t35.5 51q-33 6 -51 32.5t-12 62.5q6 33 30.5 56t57.5 23z" />
    <glyph glyph-name="kcommaaccent" unicode="&#x137;" horiz-adv-x="582" 
d="M524 0h-162l-101 190l-64 -55l-25 -135h-146l137 777h146l-79 -442l197 182h186l-243 -225zM233 -43q45 0 64 -30.5t11 -76.5q-12 -68 -56 -125t-131 -97l2 65q28 17 49.5 39t35.5 51q-33 6 -51 32.5t-12 62.5q6 33 30.5 56t57.5 23z" />
    <glyph glyph-name="Lacute" unicode="&#x139;" horiz-adv-x="591" 
d="M186 795l155 154h202l-221 -154h-136zM534 137l-24 -137h-481l132 748h155l-108 -611h326z" />
    <glyph glyph-name="lacute" unicode="&#x13a;" horiz-adv-x="291" 
d="M180 812l155 154h202l-220 -154h-137zM26 0l137 777h146l-137 -777h-146z" />
    <glyph glyph-name="Lcommaaccent" unicode="&#x13b;" horiz-adv-x="591" 
d="M510 0h-481l132 748h155l-108 -611h326zM255 -43q45 0 64 -30.5t11 -76.5q-12 -68 -56 -125t-131 -97l2 65q28 17 49.5 39t35.5 51q-33 6 -51 32.5t-12 62.5q6 33 30.5 56t57.5 23z" />
    <glyph glyph-name="lcommaaccent" unicode="&#x13c;" horiz-adv-x="291" 
d="M172 0h-146l137 777h146zM78 -43q45 0 64 -30.5t11 -76.5q-12 -68 -56 -125t-131 -97l2 65q28 17 49.5 39t35.5 51q-33 6 -51 32.5t-12 62.5q6 33 30.5 56t57.5 23z" />
    <glyph glyph-name="Lcaron" unicode="&#x13d;" horiz-adv-x="591" 
d="M597 776q45 0 64 -30.5t11 -76.5q-12 -68 -56 -125t-131 -97l2 65q28 17 49.5 39t35.5 51q-33 6 -51 32.5t-12 62.5q6 33 30.5 56t57.5 23zM534 137l-24 -137h-481l132 748h155l-108 -611h326z" />
    <glyph glyph-name="lcaron" unicode="&#x13e;" horiz-adv-x="451" 
d="M309 777l-137 -777h-146l137 777h146zM434 776q45 0 64 -30.5t11 -76.5q-12 -68 -56 -125t-131 -97l2 65q28 17 49.5 39t35.5 51q-33 6 -51 32.5t-12 62.5q6 33 30.5 56t57.5 23z" />
    <glyph glyph-name="Ldot" unicode="&#x13f;" horiz-adv-x="591" 
d="M534 137l-24 -137h-481l132 748h155l-108 -611h326zM517 502q21 0 38 -8t28 -21.5t15.5 -31t1.5 -37.5q-6 -34 -33 -56.5t-59 -22.5q-21 0 -37.5 7.5t-27.5 21t-15.5 31.5t-0.5 38q6 33 32 56t58 23z" />
    <glyph glyph-name="ldot" unicode="&#x140;" horiz-adv-x="469" 
d="M26 0l137 777h146l-137 -777h-146zM374 412q21 0 38 -8t28 -21.5t15.5 -31t1.5 -37.5q-6 -34 -33 -56.5t-59 -22.5q-21 0 -37.5 7.5t-27.5 21t-15.5 31.5t-0.5 38q6 33 32 56t58 23z" />
    <glyph glyph-name="Lslash" unicode="&#x141;" horiz-adv-x="601" 
d="M510 0h-481l48 272l-64 -12l3 117l82 15l63 356h155l-58 -326l101 19l-3 -116l-119 -23l-29 -165h326z" />
    <glyph glyph-name="lslash" unicode="&#x142;" horiz-adv-x="315" 
d="M184 0h-146l39 222l-77 -20l-7 115l106 27l76 433h146l-69 -393l79 20l8 -115l-109 -28z" />
    <glyph glyph-name="Nacute" unicode="&#x143;" horiz-adv-x="764" 
d="M405 795l155 154h202l-221 -154h-136zM512 0l-247 463l-81 -463h-155l132 748h131l247 -464l82 464h154l-132 -748h-131z" />
    <glyph glyph-name="nacute" unicode="&#x144;" horiz-adv-x="618" 
d="M319 598l119 191h168l-170 -191h-117zM386 527q45 0 81 -14.5t59.5 -42.5t32.5 -68.5t0 -91.5l-54 -310h-146l51 289q9 50 -10.5 76t-60.5 26q-48 0 -78 -29.5t-38 -76.5l-51 -285h-146l92 517h134l-8 -47q20 24 56 40.5t86 16.5z" />
    <glyph glyph-name="Ncommaaccent" unicode="&#x145;" horiz-adv-x="764" 
d="M643 0h-131l-247 463l-81 -463h-155l132 748h131l247 -464l82 464h154zM334 -43q45 0 64 -30.5t11 -76.5q-12 -68 -56 -125t-131 -97l2 65q28 17 49.5 39t35.5 51q-33 6 -51 32.5t-12 62.5q6 33 30.5 56t57.5 23z" />
    <glyph glyph-name="ncommaaccent" unicode="&#x146;" horiz-adv-x="618" 
d="M386 527q45 0 81 -14.5t59.5 -42.5t32.5 -68.5t0 -91.5l-54 -310h-146l51 289q9 50 -10.5 76t-60.5 26q-48 0 -78 -29.5t-38 -76.5l-51 -285h-146l92 517h134l-8 -47q20 24 56 40.5t86 16.5zM244 -43q45 0 64 -30.5t11 -76.5q-12 -68 -56 -125t-131 -97l2 65
q28 17 49.5 39t35.5 51q-33 6 -51 32.5t-12 62.5q6 33 30.5 56t57.5 23z" />
    <glyph glyph-name="Ncaron" unicode="&#x147;" horiz-adv-x="764" 
d="M405 795l-89 160h119l49 -75l80 75h126l-145 -160h-140zM512 0l-247 463l-81 -463h-155l132 748h131l247 -464l82 464h154l-132 -748h-131z" />
    <glyph glyph-name="ncaron" unicode="&#x148;" horiz-adv-x="618" 
d="M312 597l-85 176h119l48 -82l81 82h126l-148 -176h-141zM386 527q45 0 81 -14.5t59.5 -42.5t32.5 -68.5t0 -91.5l-54 -310h-146l51 289q9 50 -10.5 76t-60.5 26q-48 0 -78 -29.5t-38 -76.5l-51 -285h-146l92 517h134l-8 -47q20 24 56 40.5t86 16.5z" />
    <glyph glyph-name="Eng" unicode="&#x14a;" horiz-adv-x="764" 
d="M641 -27q-8 -50 -33 -91.5t-64 -72t-90.5 -47.5t-112.5 -17l13 136q53 0 91.5 36.5t50.5 104.5l1 6l-232 435l-81 -463h-155l132 748h131l247 -464l82 464h154l-43 -244z" />
    <glyph glyph-name="eng" unicode="&#x14b;" horiz-adv-x="618" 
d="M386 527q45 0 81 -14.5t59.5 -42.5t32.5 -68.5t0 -91.5l-45 -257l-18 -108q-9 -49 -31.5 -87.5t-55.5 -65t-76.5 -40.5t-94.5 -14l21 127q31 0 58 24.5t33 62.5l26 143l34 194q9 50 -10.5 76t-60.5 26q-48 0 -78 -29.5t-38 -76.5l-51 -285h-146l92 517h134l-8 -47
q20 24 56 40.5t86 16.5z" />
    <glyph glyph-name="Omacron" unicode="&#x14c;" horiz-adv-x="875" 
d="M382 815l19 111h301l-21 -111h-299zM488 759q86 0 156 -28t118 -79t70.5 -124t12.5 -163q-9 -87 -45 -156.5t-91 -118t-127 -75t-153 -26.5q-87 0 -157.5 28t-118.5 79.5t-70 124t-12 162.5q9 87 45 156.5t91.5 118t127 75t153.5 26.5zM486 622q-53 0 -98.5 -18t-80 -51
t-55.5 -80.5t-26 -107.5q-5 -56 8 -100.5t40 -75.5t67 -47t89 -16q53 0 98.5 18t80 51t55.5 80.5t26 107.5q5 57 -8 101t-40.5 75t-67 47t-88.5 16z" />
    <glyph glyph-name="omacron" unicode="&#x14d;" horiz-adv-x="638" 
d="M224 619l20 112h300l-20 -112h-300zM339 527q61 0 111.5 -20t84.5 -56.5t49.5 -87.5t7.5 -114q-6 -59 -31.5 -107t-64.5 -82t-89.5 -52.5t-107.5 -18.5q-62 0 -112 20t-84 56.5t-49.5 88t-7.5 114.5q6 59 31.5 107t64.5 81.5t89.5 52t107.5 18.5zM341 402
q-61 0 -102.5 -40.5t-47.5 -112.5q-5 -65 24.5 -99.5t81.5 -34.5q61 0 102.5 40.5t47.5 112.5q5 64 -24.5 99t-81.5 35z" />
    <glyph glyph-name="Obreve" unicode="&#x14e;" horiz-adv-x="875" 
d="M743 961q-8 -44 -26 -75t-44.5 -51t-60.5 -29.5t-72 -9.5q-43 0 -77.5 11t-57 32t-31.5 51.5t-1 70.5h117q-6 -34 10.5 -49t45.5 -15q32 0 53.5 19t26.5 45h117zM488 759q86 0 156 -28t118 -79t70.5 -124t12.5 -163q-9 -87 -45 -156.5t-91 -118t-127 -75t-153 -26.5
q-87 0 -157.5 28t-118.5 79.5t-70 124t-12 162.5q9 87 45 156.5t91.5 118t127 75t153.5 26.5zM486 622q-53 0 -98.5 -18t-80 -51t-55.5 -80.5t-26 -107.5q-5 -56 8 -100.5t40 -75.5t67 -47t89 -16q53 0 98.5 18t80 51t55.5 80.5t26 107.5q5 57 -8 101t-40.5 75t-67 47
t-88.5 16z" />
    <glyph glyph-name="obreve" unicode="&#x14f;" horiz-adv-x="638" 
d="M582 758q-8 -44 -26 -75t-44.5 -51t-60.5 -29.5t-72 -9.5q-43 0 -77 11t-56.5 32t-31.5 52t-1 70h116q-5 -35 11.5 -50t44.5 -15q34 0 54.5 19.5t25.5 45.5h117zM339 527q61 0 111.5 -20t84.5 -56.5t49.5 -87.5t7.5 -114q-6 -59 -31.5 -107t-64.5 -82t-89.5 -52.5
t-107.5 -18.5q-62 0 -112 20t-84 56.5t-49.5 88t-7.5 114.5q6 59 31.5 107t64.5 81.5t89.5 52t107.5 18.5zM341 402q-61 0 -102.5 -40.5t-47.5 -112.5q-5 -65 24.5 -99.5t81.5 -34.5q61 0 102.5 40.5t47.5 112.5q5 64 -24.5 99t-81.5 35z" />
    <glyph glyph-name="Ohungarumlaut" unicode="&#x150;" horiz-adv-x="875" 
d="M363 798l91 169h141l-115 -169h-117zM565 798l91 169h141l-115 -169h-117zM488 759q86 0 156 -28t118 -79t70.5 -124t12.5 -163q-9 -87 -45 -156.5t-91 -118t-127 -75t-153 -26.5q-87 0 -157.5 28t-118.5 79.5t-70 124t-12 162.5q9 87 45 156.5t91.5 118t127 75
t153.5 26.5zM486 622q-53 0 -98.5 -18t-80 -51t-55.5 -80.5t-26 -107.5q-5 -56 8 -100.5t40 -75.5t67 -47t89 -16q53 0 98.5 18t80 51t55.5 80.5t26 107.5q5 57 -8 101t-40.5 75t-67 47t-88.5 16z" />
    <glyph glyph-name="ohungarumlaut" unicode="&#x151;" horiz-adv-x="638" 
d="M208 602l94 180h141l-118 -180h-117zM410 602l94 180h141l-118 -180h-117zM339 527q61 0 111.5 -20t84.5 -56.5t49.5 -87.5t7.5 -114q-6 -59 -31.5 -107t-64.5 -82t-89.5 -52.5t-107.5 -18.5q-62 0 -112 20t-84 56.5t-49.5 88t-7.5 114.5q6 59 31.5 107t64.5 81.5
t89.5 52t107.5 18.5zM341 402q-61 0 -102.5 -40.5t-47.5 -112.5q-5 -65 24.5 -99.5t81.5 -34.5q61 0 102.5 40.5t47.5 112.5q5 64 -24.5 99t-81.5 35z" />
    <glyph glyph-name="OE" unicode="&#x152;" horiz-adv-x="1195" 
d="M857 450h282l-24 -133h-278q-4 -26 -14 -54l-22 -126h326l-24 -137h-480l6 36q-89 -47 -200 -47q-87 0 -157.5 28t-118.5 79.5t-70 124t-12 162.5q9 87 45 156.5t91.5 118t127 75t153.5 26.5q78 0 142 -22.5t112 -64.5l13 76h479l-24 -136h-325zM430 126q93 0 159.5 51.5
t90.5 144.5l9 54l1 7q5 57 -8 101t-40.5 75t-67 47t-88.5 16q-53 0 -98.5 -18t-80 -51t-55.5 -80.5t-26 -107.5q-5 -56 8 -100.5t40 -75.5t67 -47t89 -16z" />
    <glyph glyph-name="oe" unicode="&#x153;" horiz-adv-x="1001" 
d="M735 527q58 0 103.5 -18.5t75 -52.5t41 -82.5t2.5 -109.5l-8 -52h-354q-4 -51 20.5 -78t73.5 -27q39 0 64 15.5t37 41.5l147 -10q-12 -39 -36.5 -69.5t-57.5 -52t-73 -32.5t-83 -11q-60 0 -108 19t-80 54q-39 -35 -90.5 -54t-109.5 -19q-62 0 -112 20t-84 56.5t-49.5 88
t-7.5 114.5q6 59 31.5 107t64.5 81.5t89.5 52t107.5 18.5q62 0 112 -20t85 -57q38 38 88.5 57.5t110.5 19.5zM733 413q-49 0 -81 -28t-43 -76h207q7 50 -14.5 77t-68.5 27zM297 115q61 0 102.5 40.5t47.5 112.5q5 64 -24.5 99t-81.5 35q-61 0 -102.5 -40.5t-47.5 -112.5
q-5 -65 24.5 -99.5t81.5 -34.5z" />
    <glyph glyph-name="Racute" unicode="&#x154;" horiz-adv-x="707" 
d="M345 795l155 154h202l-221 -154h-136zM457 748q54 0 98 -17t74.5 -49.5t44 -79t5.5 -105.5q-15 -81 -56 -134t-104 -76l106 -287h-162l-99 269h-133l-47 -269h-155l132 748h296zM523 509q7 48 -17.5 75.5t-69.5 27.5h-145l-36 -206h150q45 0 77 24.5t41 78.5z" />
    <glyph glyph-name="racute" unicode="&#x155;" horiz-adv-x="378" 
d="M222 598l119 191h168l-170 -191h-117zM376 381q-32 0 -58.5 -9.5t-47.5 -26t-34.5 -39t-17.5 -49.5l-46 -257h-146l92 517h136l-9 -55q21 25 58 42.5t97 17.5z" />
    <glyph glyph-name="Rcommaaccent" unicode="&#x156;" horiz-adv-x="707" 
d="M679 497q-15 -81 -56 -134t-104 -76l106 -287h-162l-99 269h-133l-47 -269h-155l132 748h296q54 0 98 -17t74.5 -49.5t44 -79t5.5 -105.5zM523 509q7 48 -17.5 75.5t-69.5 27.5h-145l-36 -206h150q45 0 77 24.5t41 78.5zM291 -43q45 0 64 -30.5t11 -76.5
q-12 -68 -56 -125t-131 -97l2 65q28 17 49.5 39t35.5 51q-33 6 -51 32.5t-12 62.5q6 33 30.5 56t57.5 23z" />
    <glyph glyph-name="rcommaaccent" unicode="&#x157;" horiz-adv-x="378" 
d="M245 462q21 25 58 42.5t97 17.5l-24 -141q-32 0 -58.5 -9.5t-47.5 -26t-34.5 -39t-17.5 -49.5l-46 -257h-146l92 517h136zM78 -43q45 0 64 -30.5t11 -76.5q-12 -68 -56 -125t-131 -97l2 65q28 17 49.5 39t35.5 51q-33 6 -51 32.5t-12 62.5q6 33 30.5 56t57.5 23z" />
    <glyph glyph-name="Rcaron" unicode="&#x158;" horiz-adv-x="707" 
d="M256 955h119l49 -75l80 75h126l-145 -160h-140zM679 497q-15 -81 -56 -134t-104 -76l106 -287h-162l-99 269h-133l-47 -269h-155l132 748h296q54 0 98 -17t74.5 -49.5t44 -79t5.5 -105.5zM523 509q7 48 -17.5 75.5t-69.5 27.5h-145l-36 -206h150q45 0 77 24.5t41 78.5z
" />
    <glyph glyph-name="rcaron" unicode="&#x159;" horiz-adv-x="378" 
d="M215 597l-85 176h119l48 -82l81 82h126l-148 -176h-141zM376 381q-32 0 -58.5 -9.5t-47.5 -26t-34.5 -39t-17.5 -49.5l-46 -257h-146l92 517h136l-9 -55q21 25 58 42.5t97 17.5z" />
    <glyph glyph-name="Sacute" unicode="&#x15a;" horiz-adv-x="663" 
d="M344 795l155 154h202l-221 -154h-136zM391 759q64 0 114 -16t83.5 -45.5t49 -71.5t9.5 -94l-158 -6q5 48 -20.5 73.5t-75.5 25.5q-57 0 -91.5 -26t-39.5 -68q-3 -21 2.5 -35t20.5 -24.5t40 -18.5t61 -17q57 -14 103.5 -32t77 -44.5t44.5 -63t7 -87.5q-9 -58 -36 -99.5
t-67 -68.5t-90 -39.5t-104 -12.5q-67 0 -121 16t-91 46.5t-54 74.5t-9 101l157 5q-6 -51 27 -80t90 -29t95 21.5t45 69.5q6 40 -27.5 61.5t-101.5 38.5q-51 13 -95.5 28.5t-76 40.5t-46.5 62.5t-7 93.5q6 45 27.5 85t57 70t85.5 47.5t115 17.5z" />
    <glyph glyph-name="sacute" unicode="&#x15b;" horiz-adv-x="506" 
d="M237 598l119 191h168l-170 -191h-117zM277 527q51 0 88.5 -14t62 -37t35.5 -54t10 -64l-145 -3q3 27 -12.5 43.5t-46.5 16.5q-29 0 -45.5 -12.5t-20.5 -32.5q-4 -27 20 -37t66 -20q39 -10 71 -22.5t53.5 -31t31.5 -44.5t5 -63q-11 -75 -69.5 -119t-155.5 -44
q-105 0 -157 45.5t-48 122.5l144 5q-6 -61 67 -61q32 0 51 11.5t22 34.5q4 23 -13 36.5t-65 25.5q-41 11 -75 22.5t-56.5 29t-32.5 44.5t-4 68q11 72 68 113t151 41z" />
    <glyph glyph-name="Scircumflex" unicode="&#x15c;" horiz-adv-x="663" 
d="M478 795l-48 75l-81 -75h-125l144 160h141l89 -160h-120zM391 759q64 0 114 -16t83.5 -45.5t49 -71.5t9.5 -94l-158 -6q5 48 -20.5 73.5t-75.5 25.5q-57 0 -91.5 -26t-39.5 -68q-3 -21 2.5 -35t20.5 -24.5t40 -18.5t61 -17q57 -14 103.5 -32t77 -44.5t44.5 -63t7 -87.5
q-9 -58 -36 -99.5t-67 -68.5t-90 -39.5t-104 -12.5q-67 0 -121 16t-91 46.5t-54 74.5t-9 101l157 5q-6 -51 27 -80t90 -29t95 21.5t45 69.5q6 40 -27.5 61.5t-101.5 38.5q-51 13 -95.5 28.5t-76 40.5t-46.5 62.5t-7 93.5q6 45 27.5 85t57 70t85.5 47.5t115 17.5z" />
    <glyph glyph-name="scircumflex" unicode="&#x15d;" horiz-adv-x="506" 
d="M364 599l-47 82l-82 -82h-126l148 177h141l86 -177h-120zM277 527q51 0 88.5 -14t62 -37t35.5 -54t10 -64l-145 -3q3 27 -12.5 43.5t-46.5 16.5q-29 0 -45.5 -12.5t-20.5 -32.5q-4 -27 20 -37t66 -20q39 -10 71 -22.5t53.5 -31t31.5 -44.5t5 -63q-11 -75 -69.5 -119
t-155.5 -44q-105 0 -157 45.5t-48 122.5l144 5q-6 -61 67 -61q32 0 51 11.5t22 34.5q4 23 -13 36.5t-65 25.5q-41 11 -75 22.5t-56.5 29t-32.5 44.5t-4 68q11 72 68 113t151 41z" />
    <glyph glyph-name="Scedilla" unicode="&#x15e;" horiz-adv-x="663" 
d="M489 526q5 48 -20.5 73.5t-75.5 25.5q-57 0 -91.5 -26t-39.5 -68q-3 -21 2.5 -35t20.5 -24.5t40 -18.5t61 -17q57 -14 103.5 -32t77 -44.5t44.5 -63t7 -87.5q-8 -56 -33.5 -97t-63.5 -68t-85.5 -40.5t-99.5 -14.5l-17 -35q22 -2 41 -9.5t32.5 -21.5t19 -34.5t1.5 -47.5
q-4 -25 -18 -43.5t-34 -30.5t-43.5 -18t-47.5 -6q-40 0 -64 6t-42 15l27 73q10 -7 24 -9.5t28 -2.5q20 0 40 5.5t25 27.5q3 17 -8 28t-29 11q-15 0 -26 -2t-19 -4l45 100q-56 6 -100.5 24.5t-74.5 48.5t-43.5 71t-6.5 92l157 5q-6 -51 27 -80t90 -29t95 21.5t45 69.5
q6 40 -27.5 61.5t-101.5 38.5q-51 13 -95.5 28.5t-76 40.5t-46.5 62.5t-7 93.5q6 45 27.5 85t57 70t85.5 47.5t115 17.5q64 0 114 -16t83.5 -45.5t49 -71.5t9.5 -94z" />
    <glyph glyph-name="scedilla" unicode="&#x15f;" horiz-adv-x="506" 
d="M328 355q3 27 -12.5 43.5t-46.5 16.5q-29 0 -45.5 -12.5t-20.5 -32.5q-4 -27 20 -37t66 -20q39 -10 71 -22.5t53.5 -31t31.5 -44.5t5 -63q-11 -72 -64.5 -115t-143.5 -48l-17 -35q22 -2 41 -9.5t32.5 -21.5t19 -34.5t1.5 -47.5q-4 -25 -18 -43.5t-34 -30.5t-43.5 -18
t-47.5 -6q-40 0 -64 6t-42 15l27 73q10 -7 24 -9.5t28 -2.5q20 0 40 5.5t25 27.5q3 17 -8 28t-29 11q-15 0 -26 -2t-19 -4l46 101q-81 11 -121 54t-37 111l144 5q-6 -61 67 -61q32 0 51 11.5t22 34.5q4 23 -13 36.5t-65 25.5q-41 11 -75 22.5t-56.5 29t-32.5 44.5t-4 68
q11 72 68 113t151 41q51 0 88.5 -14t62 -37t35.5 -54t10 -64z" />
    <glyph glyph-name="Scaron" unicode="&#x160;" horiz-adv-x="663" 
d="M344 795l-89 160h119l49 -75l80 75h126l-145 -160h-140zM391 759q64 0 114 -16t83.5 -45.5t49 -71.5t9.5 -94l-158 -6q5 48 -20.5 73.5t-75.5 25.5q-57 0 -91.5 -26t-39.5 -68q-3 -21 2.5 -35t20.5 -24.5t40 -18.5t61 -17q57 -14 103.5 -32t77 -44.5t44.5 -63t7 -87.5
q-9 -58 -36 -99.5t-67 -68.5t-90 -39.5t-104 -12.5q-67 0 -121 16t-91 46.5t-54 74.5t-9 101l157 5q-6 -51 27 -80t90 -29t95 21.5t45 69.5q6 40 -27.5 61.5t-101.5 38.5q-51 13 -95.5 28.5t-76 40.5t-46.5 62.5t-7 93.5q6 45 27.5 85t57 70t85.5 47.5t115 17.5z" />
    <glyph glyph-name="scaron" unicode="&#x161;" horiz-adv-x="506" 
d="M229 597l-85 176h119l48 -82l81 82h126l-148 -176h-141zM277 527q51 0 88.5 -14t62 -37t35.5 -54t10 -64l-145 -3q3 27 -12.5 43.5t-46.5 16.5q-29 0 -45.5 -12.5t-20.5 -32.5q-4 -27 20 -37t66 -20q39 -10 71 -22.5t53.5 -31t31.5 -44.5t5 -63q-11 -75 -69.5 -119
t-155.5 -44q-105 0 -157 45.5t-48 122.5l144 5q-6 -61 67 -61q32 0 51 11.5t22 34.5q4 23 -13 36.5t-65 25.5q-41 11 -75 22.5t-56.5 29t-32.5 44.5t-4 68q11 72 68 113t151 41z" />
    <glyph glyph-name="Tcaron" unicode="&#x164;" horiz-adv-x="693" 
d="M377 795l-89 160h119l49 -75l80 75h126l-145 -160h-140zM486 612l-108 -612h-154l108 612h-251l25 136h655l-25 -136h-250z" />
    <glyph glyph-name="tcaron" unicode="&#x165;" horiz-adv-x="585" 
d="M567 776q45 0 64 -30.5t11 -76.5q-12 -68 -56 -125t-131 -97l2 65q28 17 49.5 39t35.5 51q-33 6 -51 32.5t-12 62.5q6 33 30.5 56t57.5 23zM418 517l-22 -126h-121l-36 -194q-3 -21 0.5 -35.5t12.5 -23.5t21 -13t25 -4q20 0 31.5 2t20.5 4l-22 -132q-16 -2 -33 -3.5
t-43 -1.5q-44 0 -78.5 11t-56 33.5t-29.5 56t0 78.5l41 222h-95l22 126h96l31 171h146l-31 -171h120z" />
    <glyph glyph-name="Tbar" unicode="&#x166;" horiz-adv-x="693" 
d="M451 414h124l-22 -118h-123l-52 -296h-154l52 296h-124l21 118h124l35 198h-251l25 136h655l-25 -136h-250z" />
    <glyph glyph-name="tbar" unicode="&#x167;" horiz-adv-x="404" 
d="M264 315h119l-19 -104h-119l-3 -14q-4 -21 0 -35.5t12.5 -23.5t21 -13t25.5 -4q20 0 31.5 2t19.5 4l-22 -132q-16 -2 -33 -3.5t-43 -1.5q-44 0 -78 11t-56 33.5t-29.5 56t0.5 78.5l8 42h-97l19 104h97l14 76h-95l22 126h96l31 171h146l-31 -171h120l-22 -126h-121z" />
    <glyph glyph-name="Utilde" unicode="&#x168;" horiz-adv-x="777" 
d="M434 959q26 0 41.5 -8.5t27 -18t22.5 -18t28 -8.5q26 0 40 12.5t18 32.5h79q0 -33 -10.5 -61.5t-29 -49t-42 -32t-48.5 -11.5q-26 0 -42 8.5t-27.5 18t-22.5 18t-27 8.5q-26 0 -40 -13.5t-18 -33.5h-79q0 33 10.5 61.5t29 49.5t42 33t48.5 12zM714 299
q-27 -151 -121.5 -230.5t-240.5 -79.5q-75 0 -132 22t-92.5 63t-48.5 100t0 134l77 440h155l-79 -444q-17 -90 18 -134t112 -44q85 0 135 48t65 134l77 440h154z" />
    <glyph glyph-name="utilde" unicode="&#x169;" 
d="M312 761q26 0 41.5 -8.5t27 -18.5t22.5 -18.5t28 -8.5q26 0 40 12.5t18 33.5h80q0 -33 -11 -61.5t-29 -49.5t-42 -32.5t-49 -11.5q-26 0 -42 8.5t-27.5 18t-22.5 18t-27 8.5q-26 0 -40 -13.5t-18 -33.5h-79q0 33 10.5 62t29 50t42 33t48.5 12zM352 0l7 51
q-20 -26 -54 -44t-84 -18q-94 0 -138 54t-28 150l58 324h146l-52 -296q-8 -48 8.5 -72t54.5 -24q47 0 73.5 27t34.5 72l52 293h145l-91 -517h-132z" />
    <glyph glyph-name="Umacron" unicode="&#x16a;" horiz-adv-x="777" 
d="M337 815l19 111h301l-21 -111h-299zM714 299q-27 -151 -121.5 -230.5t-240.5 -79.5q-75 0 -132 22t-92.5 63t-48.5 100t0 134l77 440h155l-79 -444q-17 -90 18 -134t112 -44q85 0 135 48t65 134l77 440h154z" />
    <glyph glyph-name="umacron" unicode="&#x16b;" 
d="M215 619l20 112h300l-20 -112h-300zM352 0l7 51q-20 -26 -54 -44t-84 -18q-94 0 -138 54t-28 150l58 324h146l-52 -296q-8 -48 8.5 -72t54.5 -24q47 0 73.5 27t34.5 72l52 293h145l-91 -517h-132z" />
    <glyph glyph-name="Ubreve" unicode="&#x16c;" horiz-adv-x="777" 
d="M698 961q-8 -44 -26 -75t-44.5 -51t-60.5 -29.5t-72 -9.5q-43 0 -77.5 11t-57 32t-31.5 51.5t-1 70.5h117q-6 -34 10.5 -49t45.5 -15q32 0 53.5 19t26.5 45h117zM714 299q-27 -151 -121.5 -230.5t-240.5 -79.5q-75 0 -132 22t-92.5 63t-48.5 100t0 134l77 440h155
l-79 -444q-17 -90 18 -134t112 -44q85 0 135 48t65 134l77 440h154z" />
    <glyph glyph-name="ubreve" unicode="&#x16d;" 
d="M574 758q-8 -44 -26 -75t-44.5 -51t-60.5 -29.5t-72 -9.5q-43 0 -77 11t-56.5 32t-31.5 52t-1 70h116q-5 -35 11.5 -50t44.5 -15q34 0 54.5 19.5t25.5 45.5h117zM352 0l7 51q-20 -26 -54 -44t-84 -18q-94 0 -138 54t-28 150l58 324h146l-52 -296q-8 -48 8.5 -72t54.5 -24
q47 0 73.5 27t34.5 72l52 293h145l-91 -517h-132z" />
    <glyph glyph-name="Uring" unicode="&#x16e;" horiz-adv-x="777" 
d="M510 1008q25 0 46.5 -9t35.5 -24.5t20 -37t1 -46.5q-7 -44 -41 -71t-77 -27q-54 0 -84.5 33t-22.5 83q8 45 43 72t79 27zM506 941q-17 0 -30 -10.5t-16 -27.5t7.5 -29.5t29.5 -12.5q17 0 29.5 10t15.5 27q3 18 -7 30.5t-29 12.5zM714 299q-27 -151 -121.5 -230.5
t-240.5 -79.5q-75 0 -132 22t-92.5 63t-48.5 100t0 134l77 440h155l-79 -444q-17 -90 18 -134t112 -44q85 0 135 48t65 134l77 440h154z" />
    <glyph glyph-name="uring" unicode="&#x16f;" 
d="M389 823q30 0 54 -10t40 -27.5t23 -41.5t2 -52q-5 -25 -18 -46t-31.5 -36t-41.5 -23t-48 -8q-30 0 -54.5 10t-40.5 27.5t-22.5 41.5t-1.5 52q4 25 17 46t31.5 36t42 23t48.5 8zM382 745q-18 0 -31.5 -11.5t-16.5 -29.5q-4 -20 7.5 -33t32.5 -13q18 0 31 10.5t17 28.5
q3 20 -8 34t-32 14zM352 0l7 51q-20 -26 -54 -44t-84 -18q-94 0 -138 54t-28 150l58 324h146l-52 -296q-8 -48 8.5 -72t54.5 -24q47 0 73.5 27t34.5 72l52 293h145l-91 -517h-132z" />
    <glyph glyph-name="Uhungarumlaut" unicode="&#x170;" horiz-adv-x="777" 
d="M318 798l91 169h141l-115 -169h-117zM520 798l91 169h141l-115 -169h-117zM714 299q-27 -151 -121.5 -230.5t-240.5 -79.5q-75 0 -132 22t-92.5 63t-48.5 100t0 134l77 440h155l-79 -444q-17 -90 18 -134t112 -44q85 0 135 48t65 134l77 440h154z" />
    <glyph glyph-name="uhungarumlaut" unicode="&#x171;" 
d="M200 602l94 180h141l-118 -180h-117zM402 602l94 180h141l-118 -180h-117zM352 0l7 51q-20 -26 -54 -44t-84 -18q-94 0 -138 54t-28 150l58 324h146l-52 -296q-8 -48 8.5 -72t54.5 -24q47 0 73.5 27t34.5 72l52 293h145l-91 -517h-132z" />
    <glyph glyph-name="Uogonek" unicode="&#x172;" horiz-adv-x="777" 
d="M714 299q-23 -128 -95 -205t-184 -98q-34 -18 -56.5 -36.5t-26.5 -44.5q-5 -29 29 -29q17 0 29.5 4.5t23.5 9.5l11 -75q-19 -8 -39.5 -12t-45.5 -4q-28 0 -51.5 6.5t-39.5 19.5t-23.5 32.5t-2.5 45.5t20 45t38 34q-63 7 -110 32t-76 65.5t-38.5 95.5t2.5 123l77 440h155
l-79 -444q-17 -90 18 -134t112 -44q85 0 135 48t65 134l77 440h154z" />
    <glyph glyph-name="uogonek" unicode="&#x173;" 
d="M459 0q-38 -20 -62.5 -39t-29.5 -47q-5 -29 29 -29q17 0 29.5 4.5t23.5 9.5l11 -75q-19 -8 -39.5 -12t-45.5 -4q-28 0 -51.5 6.5t-39.5 19.5t-23.5 32.5t-2.5 45.5q6 35 31.5 58t63.5 40l6 41q-20 -26 -54 -44t-84 -18q-94 0 -138 54t-28 150l58 324h146l-52 -296
q-8 -48 8.5 -72t54.5 -24q47 0 73.5 27t34.5 72l52 293h145l-91 -517h-25z" />
    <glyph glyph-name="Wcircumflex" unicode="&#x174;" horiz-adv-x="1124" 
d="M718 795l-48 75l-81 -75h-125l144 160h141l89 -160h-120zM676 0l-75 478l-243 -478h-131l-129 748h161l72 -492l246 492h126l73 -492l246 492h177l-393 -748h-130z" />
    <glyph glyph-name="wcircumflex" unicode="&#x175;" horiz-adv-x="846" 
d="M547 599l-47 82l-82 -82h-126l148 177h141l86 -177h-120zM478 0l-53 269l-149 -269h-119l-107 517h155l47 -299l158 299h102l54 -299l152 299h169l-289 -517h-120z" />
    <glyph glyph-name="Ycircumflex" unicode="&#x176;" horiz-adv-x="744" 
d="M533 795l-48 75l-81 -75h-125l144 160h141l89 -160h-120zM404 0h-154l53 288l-203 460h171l125 -304l236 304h189l-365 -460z" />
    <glyph glyph-name="ycircumflex" unicode="&#x177;" horiz-adv-x="578" 
d="M415 599l-47 82l-82 -82h-126l148 177h141l86 -177h-120zM-18 -255l187 307l-117 465h161l64 -305l173 305h162l-466 -772h-164z" />
    <glyph glyph-name="Ydieresis" unicode="&#x178;" horiz-adv-x="744" 
d="M388 957q38 0 60 -26t15 -62q-5 -30 -28 -50t-52 -20q-38 0 -59.5 25.5t-15.5 62.5q5 30 28 50t52 20zM581 957q38 0 59.5 -26t15.5 -62q-5 -30 -28.5 -50t-52.5 -20q-37 0 -59 25.5t-15 62.5q5 30 28 50t52 20zM404 0h-154l53 288l-203 460h171l125 -304l236 304h189
l-365 -460z" />
    <glyph glyph-name="Zacute" unicode="&#x179;" horiz-adv-x="626" 
d="M341 795l155 154h202l-221 -154h-136zM220 137h351l-24 -137h-555l21 116l428 496h-336l24 136h540l-21 -117z" />
    <glyph glyph-name="zacute" unicode="&#x17a;" horiz-adv-x="455" 
d="M228 598l119 191h168l-170 -191h-117zM189 118h207l-19 -118h-388l16 96l257 303h-199l21 118h376l-17 -97z" />
    <glyph glyph-name="Zdotaccent" unicode="&#x17b;" horiz-adv-x="626" 
d="M429 973q21 0 37.5 -7.5t28 -21t16 -31t1.5 -37.5q-6 -34 -33 -56t-59 -22q-20 0 -36.5 7.5t-27.5 20.5t-15.5 30.5t-1.5 37.5q6 34 32.5 56.5t57.5 22.5zM220 137h351l-24 -137h-555l21 116l428 496h-336l24 136h540l-21 -117z" />
    <glyph glyph-name="zdotaccent" unicode="&#x17c;" horiz-adv-x="455" 
d="M309 770q41 0 64.5 -28.5t16.5 -69.5q-6 -33 -32.5 -55.5t-58.5 -22.5q-21 0 -37.5 7.5t-27.5 21t-15.5 31t-0.5 37.5q6 33 32.5 56t58.5 23zM189 118h207l-19 -118h-388l16 96l257 303h-199l21 118h376l-17 -97z" />
    <glyph glyph-name="Zcaron" unicode="&#x17d;" horiz-adv-x="626" 
d="M341 795l-89 160h119l49 -75l80 75h126l-145 -160h-140zM220 137h351l-24 -137h-555l21 116l428 496h-336l24 136h540l-21 -117z" />
    <glyph glyph-name="zcaron" unicode="&#x17e;" horiz-adv-x="455" 
d="M220 597l-85 176h119l48 -82l81 82h126l-148 -176h-141zM189 118h207l-19 -118h-388l16 96l257 303h-199l21 118h376l-17 -97z" />
    <glyph glyph-name="florin" unicode="&#x192;" horiz-adv-x="444" 
d="M447 786q56 0 90.5 -13.5t57.5 -30.5l-73 -113q-9 13 -24.5 20.5t-35.5 7.5q-71 0 -95 -71l-25 -69h123l-22 -121h-144l-192 -538h-150l190 538h-94l22 121h115l36 103q32 89 90 127.5t131 38.5z" />
    <glyph glyph-name="Aringacute" unicode="&#x1fa;" horiz-adv-x="789" 
d="M496 772q-27 0 -48.5 9t-35.5 24.5t-20.5 36.5t-1.5 46q5 27 20 48t36 34l135 109h186l-191 -111q23 -15 34 -40.5t5 -57.5q-7 -44 -41.5 -71t-77.5 -27zM543 877q3 18 -6.5 30.5t-28.5 12.5q-17 0 -30 -10.5t-16 -27.5t7.5 -29.5t28.5 -12.5t30.5 10t14.5 27zM736 0
h-169l-36 147h-310l-88 -147h-169l453 748h130zM439 509l-144 -241h204z" />
    <glyph glyph-name="aringacute" unicode="&#x1fb;" horiz-adv-x="556" 
d="M349 575q-26 0 -47.5 9t-36 24.5t-21 37t-1.5 46.5q5 28 20.5 49t38.5 33l133 108h186l-192 -110q23 -15 34 -41t5 -58q-7 -44 -41.5 -71t-77.5 -27zM396 680q3 18 -6.5 30.5t-28.5 12.5q-17 0 -30 -10t-16 -27q-3 -18 7.5 -30.5t28.5 -12.5t30.5 10t14.5 27zM320 527
q48 0 85.5 -14.5t61.5 -42t32.5 -67t-0.5 -89.5l-56 -314h-135l8 41q-24 -23 -57 -37.5t-83 -14.5q-37 0 -67.5 11t-51 32t-29.5 51.5t-2 69.5q7 41 28.5 68.5t53 44.5t69.5 24.5t79 9.5l95 5l5 23q6 35 -7 56t-46 21q-42 0 -61.5 -22.5t-24.5 -49.5l-143 11q6 34 26 67
t52 59t74.5 41.5t93.5 15.5zM266 204q-41 -2 -66.5 -15t-29.5 -42q-3 -22 11 -33.5t40 -11.5q38 0 69.5 22t40.5 66l3 18z" />
    <glyph glyph-name="AEacute" unicode="&#x1fc;" horiz-adv-x="1036" 
d="M691 795l155 154h202l-221 -154h-136zM697 450h282l-24 -133h-282l-31 -180h326l-24 -137h-480l19 109h-241l-92 -109h-192l636 748h481l-24 -136h-326zM547 473l-199 -238h157z" />
    <glyph glyph-name="aeacute" unicode="&#x1fd;" horiz-adv-x="892" 
d="M432 598l119 191h168l-170 -191h-117zM631 527q58 0 103.5 -18.5t75 -52.5t41 -82.5t2.5 -109.5l-8 -52h-354q-4 -51 20.5 -78t73.5 -27q39 0 63.5 15.5t37.5 41.5l147 -10q-12 -39 -36.5 -69.5t-57.5 -52t-73 -32.5t-83 -11q-64 0 -113.5 21t-81.5 60
q-38 -36 -87.5 -58.5t-107.5 -22.5q-45 0 -79.5 11.5t-56 32.5t-30 51t-1.5 68q7 42 28.5 69.5t53 44t69.5 24.5t78 10l96 5l5 23q6 35 -7 56t-46 21q-21 0 -36 -6.5t-25.5 -16.5t-16 -23t-8.5 -26l-143 11q6 34 25.5 67t50 59t71 41.5t89.5 15.5q99 0 147 -55q73 55 174 55
zM629 413q-49 0 -81 -28t-43 -76h207q7 50 -14.5 77t-68.5 27zM261 204q-38 -2 -62 -15t-29 -40q-4 -23 10 -34t41 -11q17 0 35 5.5t33.5 16.5t26.5 27.5t15 39.5l3 15z" />
    <glyph glyph-name="Oslashacute" unicode="&#x1fe;" horiz-adv-x="875" 
d="M460 795l155 154h202l-221 -154h-136zM775 637q42 -51 60.5 -119.5t9.5 -152.5q-9 -87 -45 -156.5t-91 -118t-127 -75t-153 -26.5q-61 0 -114 14t-96 40l-87 -92l-86 72l89 95q-39 51 -56 117.5t-8 147.5q9 87 45 156.5t91.5 118t127 75t153.5 26.5q59 0 110 -13t93 -37
l85 90l85 -71zM226 365q-6 -75 19 -131l344 366q-47 22 -103 22q-53 0 -98.5 -18t-80 -51t-55.5 -80.5t-26 -107.5zM690 383q7 80 -22 139l-347 -370q47 -26 109 -26q53 0 98.5 18t80 51t55.5 80.5t26 107.5z" />
    <glyph glyph-name="oslashacute" unicode="&#x1ff;" horiz-adv-x="638" 
d="M309 598l119 191h168l-170 -191h-117zM549 434q27 -35 38.5 -81.5t4.5 -103.5q-6 -59 -31.5 -107t-64.5 -82t-89.5 -52.5t-107.5 -18.5q-38 0 -72 8t-63 22l-60 -65l-73 59l61 66q-29 35 -41.5 83t-4.5 106q6 59 31.5 107t64.5 81.5t89.5 52t107.5 18.5q78 0 137 -32
l52 57l74 -60zM191 249q-2 -17 -0.5 -31t4.5 -27l188 204q-18 7 -42 7q-61 0 -102.5 -40.5t-47.5 -112.5zM447 268q2 30 -3 53l-186 -200q18 -6 39 -6q61 0 102.5 40.5t47.5 112.5z" />
    <glyph glyph-name="Scommaaccent" unicode="&#x218;" horiz-adv-x="663" 
d="M489 526q5 48 -20.5 73.5t-75.5 25.5q-57 0 -91.5 -26t-39.5 -68q-3 -21 2.5 -35t20.5 -24.5t40 -18.5t61 -17q57 -14 103.5 -32t77 -44.5t44.5 -63t7 -87.5q-9 -58 -36 -99.5t-67 -68.5t-90 -39.5t-104 -12.5q-67 0 -121 16t-91 46.5t-54 74.5t-9 101l157 5
q-6 -51 27 -80t90 -29t95 21.5t45 69.5q6 40 -27.5 61.5t-101.5 38.5q-51 13 -95.5 28.5t-76 40.5t-46.5 62.5t-7 93.5q6 45 27.5 85t57 70t85.5 47.5t115 17.5q64 0 114 -16t83.5 -45.5t49 -71.5t9.5 -94zM283 -48q45 0 64 -30.5t11 -76.5q-12 -68 -56 -125t-131 -97l2 65
q28 17 49.5 39t35.5 51q-33 6 -51 32.5t-12 62.5q6 33 30.5 56t57.5 23z" />
    <glyph glyph-name="scommaaccent" unicode="&#x219;" horiz-adv-x="506" 
d="M328 355q3 27 -12.5 43.5t-46.5 16.5q-29 0 -45.5 -12.5t-20.5 -32.5q-4 -27 20 -37t66 -20q39 -10 71 -22.5t53.5 -31t31.5 -44.5t5 -63q-11 -75 -69.5 -119t-155.5 -44q-105 0 -157 45.5t-48 122.5l144 5q-6 -61 67 -61q32 0 51 11.5t22 34.5q4 23 -13 36.5t-65 25.5
q-41 11 -75 22.5t-56.5 29t-32.5 44.5t-4 68q11 72 68 113t151 41q51 0 88.5 -14t62 -37t35.5 -54t10 -64zM189 -48q45 0 64 -30.5t11 -76.5q-12 -68 -56 -125t-131 -97l2 65q28 17 49.5 39t35.5 51q-33 6 -51 32.5t-12 62.5q6 33 30.5 56t57.5 23z" />
    <glyph glyph-name="uni021A" unicode="&#x21a;" horiz-adv-x="693" 
d="M736 612h-250l-108 -612h-154l108 612h-251l25 136h655zM280 -43q45 0 64 -30.5t11 -76.5q-12 -68 -56 -125t-131 -97l2 65q28 17 49.5 39t35.5 51q-33 6 -51 32.5t-12 62.5q6 33 30.5 56t57.5 23z" />
    <glyph glyph-name="uni021B" unicode="&#x21b;" horiz-adv-x="404" 
d="M239 197q-3 -21 0.5 -35.5t12.5 -23.5t21 -13t25 -4q20 0 31.5 2t20.5 4l-22 -132q-16 -2 -33 -3.5t-43 -1.5q-44 0 -78.5 11t-56 33.5t-29.5 56t0 78.5l41 222h-95l22 126h96l31 171h146l-31 -171h120l-22 -126h-121zM164 -51q45 0 64 -30.5t11 -76.5q-12 -68 -56 -125
t-131 -97l2 65q28 17 49.5 39t35.5 51q-33 6 -51 32.5t-12 62.5q6 33 30.5 56t57.5 23z" />
    <glyph glyph-name="dotlessj" unicode="&#x237;" horiz-adv-x="291" 
d="M163 -55q-10 -56 -31 -96t-50 -65.5t-65 -37t-76 -11.5q-48 0 -79 11t-51 25l71 114q9 -8 19 -14.5t25 -6.5q36 0 60 21t32 61l100 571h146z" />
    <glyph glyph-name="circumflex" unicode="&#x2c6;" horiz-adv-x="391" 
d="M322 599l-47 82l-82 -82h-126l148 177h141l86 -177h-120z" />
    <glyph glyph-name="caron" unicode="&#x2c7;" horiz-adv-x="391" 
d="M187 597l-85 176h119l48 -82l81 82h126l-148 -176h-141z" />
    <glyph glyph-name="breve" unicode="&#x2d8;" horiz-adv-x="391" 
d="M468 758q-8 -44 -26 -75t-44.5 -51t-60.5 -29.5t-72 -9.5q-43 0 -77 11t-56.5 32t-31.5 52t-1 70h116q-5 -35 11.5 -50t44.5 -15q34 0 54.5 19.5t25.5 45.5h117z" />
    <glyph glyph-name="dotaccent" unicode="&#x2d9;" horiz-adv-x="195" 
d="M177 770q41 0 64.5 -28.5t16.5 -69.5q-6 -33 -32.5 -55.5t-58.5 -22.5q-21 0 -37.5 7.5t-27.5 21t-15.5 31t-0.5 37.5q6 33 32.5 56t58.5 23z" />
    <glyph glyph-name="ring" unicode="&#x2da;" horiz-adv-x="281" 
d="M229 823q30 0 54 -10t40 -27.5t23 -41.5t2 -52q-5 -25 -18 -46t-31.5 -36t-41.5 -23t-48 -8q-30 0 -54.5 10t-40.5 27.5t-22.5 41.5t-1.5 52q4 25 17 46t31.5 36t42 23t48.5 8zM222 745q-18 0 -31.5 -11.5t-16.5 -29.5q-4 -20 7.5 -33t32.5 -13q18 0 31 10.5t17 28.5
q3 20 -8 34t-32 14z" />
    <glyph glyph-name="ogonek" unicode="&#x2db;" horiz-adv-x="235" 
d="M155 4q-38 -20 -63.5 -39.5t-30.5 -47.5q-5 -29 29 -29q17 0 29.5 4.5t23.5 9.5l11 -75q-19 -8 -39.5 -12t-45.5 -4q-28 0 -51.5 6.5t-39.5 19.5t-23.5 32.5t-2.5 45.5q9 49 56.5 77.5t117.5 48.5z" />
    <glyph glyph-name="tilde" unicode="&#x2dc;" horiz-adv-x="384" 
d="M203 761q26 0 41.5 -8.5t27 -18.5t22.5 -18.5t28 -8.5q26 0 40 12.5t18 33.5h80q0 -33 -11 -61.5t-29 -49.5t-42 -32.5t-49 -11.5q-26 0 -42 8.5t-27.5 18t-22.5 18t-27 8.5q-26 0 -40 -13.5t-18 -33.5h-79q0 33 10.5 62t29 50t42 33t48.5 12z" />
    <glyph glyph-name="hungarumlaut" unicode="&#x2dd;" horiz-adv-x="420" 
d="M68 602l94 180h141l-118 -180h-117zM270 602l94 180h141l-118 -180h-117z" />
    <glyph glyph-name="uni0326" unicode="&#x326;" horiz-adv-x="0" 
d="M57 -43q44 0 63 -30.5t11 -75.5q-12 -69 -56 -126t-131 -97l2 66q59 34 85 89q-33 6 -51 33t-11 62q5 34 30 56.5t58 22.5z" />
    <glyph glyph-name="Omega" unicode="&#x3a9;" horiz-adv-x="798" 
d="M471 726q80 0 138.5 -28t94 -76t47.5 -113t-1 -139q-8 -43 -23.5 -82t-36 -73t-44 -61t-45.5 -45l150 3l-19 -112h-309l15 106q31 18 62.5 47.5t57.5 66t45 78.5t27 85q9 51 3.5 93t-25.5 73t-54 48t-81 17q-52 0 -96 -18.5t-78.5 -52t-57.5 -79.5t-32 -100
q-7 -40 -3.5 -79t15.5 -74t32 -63.5t45 -46.5l-14 -101h-309l20 112l159 3q-16 19 -31 46.5t-24.5 63t-12.5 76.5t5 87q13 71 45.5 133t81.5 107.5t113 71.5t140 26z" />
    <glyph glyph-name="mu" unicode="&#x3bc;" horiz-adv-x="607" 
d="M489 0h-132l7 51q-20 -26 -54 -44t-84 -18q-30 0 -54 6l-44 -250h-146l75 423q1 6 1.5 12t1.5 13l58 324h146l-52 -296q-8 -48 8.5 -72t54.5 -24q47 0 73.5 27t34.5 72l52 293h145z" />
    <glyph glyph-name="pi" unicode="&#x3c0;" horiz-adv-x="721" 
d="M735 461q-12 -26 -28 -49t-38 -40.5t-50.5 -28t-65.5 -10.5h-12l-54 -186q-7 -20 -6.5 -27t11.5 -7q16 0 28 6.5t21 14.5l57 -93q-29 -25 -59 -37.5t-66 -12.5q-37 0 -61.5 11.5t-37.5 32.5t-14 50t9 63l56 185h-93l-60 -198q-15 -51 -31 -82.5t-33 -56.5l-140 8
q28 44 50.5 80.5t37.5 83.5l52 165h-11q-30 0 -55.5 -16.5t-42.5 -36.5l-56 107q21 18 40.5 31.5t42 23.5t50 15t63.5 5h254q29 0 50.5 5.5t37.5 15t27.5 23t21.5 29.5z" />
    <glyph glyph-name="Wgrave" unicode="&#x1e80;" horiz-adv-x="1124" 
d="M581 795l-167 154h196l101 -154h-130zM676 0l-75 478l-243 -478h-131l-129 748h161l72 -492l246 492h126l73 -492l246 492h177l-393 -748h-130z" />
    <glyph glyph-name="wgrave" unicode="&#x1e81;" horiz-adv-x="846" 
d="M422 598l-102 191h162l50 -191h-110zM478 0l-53 269l-149 -269h-119l-107 517h155l47 -299l158 299h102l54 -299l152 299h169l-289 -517h-120z" />
    <glyph glyph-name="Wacute" unicode="&#x1e82;" horiz-adv-x="1124" 
d="M584 795l155 154h202l-221 -154h-136zM676 0l-75 478l-243 -478h-131l-129 748h161l72 -492l246 492h126l73 -492l246 492h177l-393 -748h-130z" />
    <glyph glyph-name="wacute" unicode="&#x1e83;" horiz-adv-x="846" 
d="M419 598l119 191h168l-170 -191h-117zM478 0l-53 269l-149 -269h-119l-107 517h155l47 -299l158 299h102l54 -299l152 299h169l-289 -517h-120z" />
    <glyph glyph-name="Wdieresis" unicode="&#x1e84;" horiz-adv-x="1124" 
d="M573 957q38 0 60 -26t15 -62q-5 -30 -28 -50t-52 -20q-38 0 -59.5 25.5t-15.5 62.5q5 30 28 50t52 20zM766 957q38 0 59.5 -26t15.5 -62q-5 -30 -28.5 -50t-52.5 -20q-37 0 -59 25.5t-15 62.5q5 30 28 50t52 20zM676 0l-75 478l-243 -478h-131l-129 748h161l72 -492
l246 492h126l73 -492l246 492h177l-393 -748h-130z" />
    <glyph glyph-name="wdieresis" unicode="&#x1e85;" horiz-adv-x="846" 
d="M400 757q19 0 34 -7t25.5 -19t14.5 -27.5t1 -33.5q-6 -31 -29 -50.5t-52 -19.5q-38 0 -59 25.5t-15 62.5q5 30 28 49.5t52 19.5zM593 757q19 0 34 -7t25 -19t14.5 -27.5t1.5 -33.5q-6 -31 -29.5 -50.5t-52.5 -19.5q-38 0 -59 25.5t-14 62.5q5 30 28 49.5t52 19.5zM478 0
l-53 269l-149 -269h-119l-107 517h155l47 -299l158 299h102l54 -299l152 299h169l-289 -517h-120z" />
    <glyph glyph-name="Ygrave" unicode="&#x1ef2;" horiz-adv-x="744" 
d="M396 795l-167 154h196l101 -154h-130zM404 0h-154l53 288l-203 460h171l125 -304l236 304h189l-365 -460z" />
    <glyph glyph-name="ygrave" unicode="&#x1ef3;" horiz-adv-x="578" 
d="M290 598l-102 191h162l50 -191h-110zM-18 -255l187 307l-117 465h161l64 -305l173 305h162l-466 -772h-164z" />
    <glyph glyph-name="endash" unicode="&#x2013;" horiz-adv-x="566" 
d="M34 194l24 136h476l-24 -136h-476z" />
    <glyph glyph-name="emdash" unicode="&#x2014;" horiz-adv-x="798" 
d="M34 194l24 136h708l-24 -136h-708z" />
    <glyph glyph-name="quoteleft" unicode="&#x2018;" horiz-adv-x="224" 
d="M266 712q-28 -17 -49.5 -38.5t-35.5 -50.5q34 -6 52 -33t11 -62q-5 -34 -30 -56.5t-58 -22.5q-44 0 -63.5 30t-11.5 76q13 69 56.5 125.5t130.5 97.5z" />
    <glyph glyph-name="quoteright" unicode="&#x2019;" horiz-adv-x="224" 
d="M193 775q44 0 63.5 -30t11.5 -76q-13 -68 -56.5 -125t-130.5 -98l2 66q28 17 49.5 39t35.5 51q-33 6 -51 32.5t-12 61.5q6 34 30.5 56.5t57.5 22.5z" />
    <glyph glyph-name="quotesinglbase" unicode="&#x201a;" horiz-adv-x="224" 
d="M85 166q45 0 64 -30.5t11 -76.5q-12 -68 -56 -125t-131 -97l2 65q28 17 49.5 39t35.5 51q-33 6 -51 32.5t-12 62.5q6 33 30.5 56t57.5 23z" />
    <glyph glyph-name="quotedblleft" unicode="&#x201c;" horiz-adv-x="433" 
d="M79 555q12 68 56 124.5t131 97.5l-2 -65q-28 -17 -49.5 -39t-35.5 -51q33 -6 51 -32.5t12 -62.5q-6 -33 -30.5 -56t-57.5 -23q-45 0 -64 30.5t-11 76.5zM473 712q-28 -17 -49.5 -39t-35.5 -51q33 -6 51 -32.5t12 -62.5q-6 -33 -30.5 -56t-57.5 -23q-45 0 -64 30.5
t-11 76.5q12 68 56 124.5t131 97.5z" />
    <glyph glyph-name="quotedblright" unicode="&#x201d;" horiz-adv-x="433" 
d="M191 776q45 0 64 -30.5t11 -76.5q-12 -68 -56 -125t-131 -97l2 65q28 17 49.5 39t35.5 51q-33 6 -51 32.5t-12 62.5q6 33 30.5 56t57.5 23zM400 776q45 0 64 -30.5t11 -76.5q-12 -68 -56 -125t-131 -97l2 65q28 17 49.5 39t35.5 51q-33 6 -51 32.5t-12 62.5q6 33 30.5 56
t57.5 23z" />
    <glyph glyph-name="quotedblbase" unicode="&#x201e;" horiz-adv-x="433" 
d="M86 166q44 0 63.5 -30.5t11.5 -76.5q-13 -69 -56.5 -125t-130.5 -97l2 65q28 17 49.5 39t35.5 51q-34 6 -52 32.5t-11 62.5q6 33 30.5 56t57.5 23zM295 166q45 0 64 -30.5t11 -76.5q-12 -68 -56 -125t-131 -97l2 65q28 17 49.5 39t35.5 51q-33 6 -51 32.5t-12 62.5
q6 33 30.5 56t57.5 23z" />
    <glyph glyph-name="dagger" unicode="&#x2020;" horiz-adv-x="534" 
d="M570 556l-22 -131h-178l-87 -492h-146l87 492h-177l22 131h178l34 192h146l-35 -192h178z" />
    <glyph glyph-name="daggerdbl" unicode="&#x2021;" horiz-adv-x="534" 
d="M570 556l-22 -131h-178l-30 -169h178l-23 -131h-178l-34 -192h-146l35 192h-178l23 131h178l29 169h-177l22 131h178l34 192h146l-34 -192h177z" />
    <glyph glyph-name="bullet" unicode="&#x2022;" horiz-adv-x="349" 
d="M186 381q28 0 51 -10.5t38.5 -29t22 -43t1.5 -52.5q-5 -25 -17.5 -46.5t-31 -37.5t-41 -25t-46.5 -9q-29 0 -52.5 10.5t-39 29t-21.5 43.5t-1 53q4 24 17 45.5t31.5 37.5t41.5 25t47 9z" />
    <glyph glyph-name="ellipsis" unicode="&#x2026;" horiz-adv-x="779" 
d="M98 166q21 0 38 -8t28 -21.5t15.5 -31t1.5 -37.5q-6 -34 -33 -56.5t-59 -22.5q-21 0 -37.5 7.5t-27.5 21t-15.5 31.5t-0.5 38q6 33 32 56t58 23zM353 166q21 0 37.5 -8t28 -21.5t16 -31t1.5 -37.5q-6 -34 -33 -56.5t-59 -22.5q-21 0 -37.5 7.5t-27.5 21t-15.5 31.5
t-0.5 38q5 33 31.5 56t58.5 23zM609 166q21 0 37.5 -8t27.5 -21.5t15.5 -31t1.5 -37.5q-6 -34 -33 -56.5t-59 -22.5q-21 0 -37.5 7.5t-27.5 21t-15.5 31.5t-0.5 38q6 33 32.5 56t58.5 23z" />
    <glyph glyph-name="perthousand" unicode="&#x2030;" horiz-adv-x="1290" 
d="M285 759q40 0 72 -14t52.5 -40t28 -62.5t-0.5 -80.5q-7 -41 -25 -74.5t-44 -56.5t-58.5 -35.5t-68.5 -12.5q-41 0 -72.5 14t-52 40t-28.5 62.5t0 80.5q7 41 25.5 74t44.5 56.5t58.5 36t68.5 12.5zM82 0l625 748h144l-625 -748h-144zM280 657q-34 0 -57 -23.5t-30 -68.5
q-5 -38 10 -59.5t44 -21.5q33 0 56 24t30 69q5 38 -9.5 59t-43.5 21zM693 365q40 0 72 -14t52 -39.5t27.5 -62t-0.5 -80.5q-7 -41 -25 -74.5t-44 -57t-58.5 -36t-68.5 -12.5q-41 0 -72.5 14.5t-52 40.5t-28.5 62.5t0 80.5q7 41 25.5 74t45 56t59 35.5t68.5 12.5zM1090 365
q40 0 72 -14t52.5 -39.5t28 -62t-0.5 -80.5q-7 -41 -25 -74.5t-44 -57t-58.5 -36t-68.5 -12.5q-41 0 -72.5 14.5t-52 40.5t-28.5 62.5t0 80.5q7 41 25.5 74t45 56t58.5 35.5t68 12.5zM687 264q-35 0 -57.5 -23.5t-29.5 -68.5q-7 -38 9 -59.5t45 -21.5q34 0 56.5 24t29.5 69
q5 38 -9.5 59t-43.5 21zM1084 264q-34 0 -57 -23.5t-29 -68.5q-7 -38 9 -59.5t45 -21.5q34 0 56.5 24t29.5 69q5 38 -10 59t-44 21z" />
    <glyph glyph-name="guilsinglleft" unicode="&#x2039;" horiz-adv-x="338" 
d="M189 250l106 -141l-112 -84l-169 236l235 230l96 -101z" />
    <glyph glyph-name="guilsinglright" unicode="&#x203a;" horiz-adv-x="338" 
d="M89 24l-95 101l155 140l-106 140l113 85l169 -236z" />
    <glyph glyph-name="fraction" unicode="&#x2044;" horiz-adv-x="222" 
d="M-264 0l638 748h152l-638 -748h-152z" />
    <glyph glyph-name="Euro" unicode="&#x20ac;" horiz-adv-x="706" 
d="M530 622q-61 0 -112 -31t-85 -92h291l-46 -90h-280q-6 -21 -9 -45q-2 -8 -2.5 -15t-1.5 -15h253l-47 -90h-202q13 -60 51 -89t94 -29q51 0 91 17t69 40l56 -134q-52 -31 -103 -45.5t-120 -14.5q-57 0 -106.5 16.5t-88 49t-64.5 80t-35 109.5h-123l46 90h74l2 24t3 25
l4 26h-105l46 90h85q25 64 63 112.5t85.5 81.5t100.5 49.5t108 16.5q37 0 66 -4.5t54 -13t46 -20.5t41 -27l-62 -123q-25 25 -58 38t-79 13z" />
    <glyph glyph-name="trademark" unicode="&#x2122;" horiz-adv-x="894" 
d="M312 645l-45 -256h-107l45 256h-116l19 103h340l-19 -103h-117zM752 389l27 148l-107 -144h-48l-55 144l-27 -148h-107l64 359h87l82 -218l160 218h95l-64 -359h-107z" />
    <glyph glyph-name="estimated" unicode="&#x212e;" horiz-adv-x="604" 
d="M315 541q52 0 98 -16.5t80 -49.5t53.5 -82t19.5 -114h-385v-177q0 -19 6 -34.5t29 -26.5q17 -11 42.5 -17t56.5 -6q72 0 128 34.5t92 92.5l26 -17q-42 -66 -105 -103.5t-141 -37.5q-59 0 -109.5 19.5t-88 55.5t-58.5 87t-21 114t21 114.5t58.5 87.5t88 56t109.5 20z
M315 509q-31 0 -57.5 -6.5t-43.5 -17.5q-21 -9 -27 -26t-6 -33v-116h254v116q0 26 -5.5 40.5t-27.5 23.5q-33 19 -87 19z" />
    <glyph glyph-name="partialdiff" unicode="&#x2202;" horiz-adv-x="615" 
d="M347 759q83 0 135 -34t78.5 -94t30 -142.5t-10.5 -179.5q-12 -79 -38.5 -138.5t-66 -100t-90 -61t-109.5 -20.5t-106.5 18.5t-79 53t-45.5 83.5t-5 109q8 54 32.5 96.5t61.5 72.5t83.5 46t99.5 16q77 0 128 -39q11 91 -11 134t-81 43q-51 0 -87.5 -18t-68.5 -46l-72 133
q50 32 102.5 50t119.5 18zM278 126q54 0 92.5 34.5t46.5 86.5l2 13q5 49 -18.5 76.5t-65.5 27.5q-26 0 -49.5 -9t-42 -26t-31 -40.5t-16.5 -51.5q-8 -51 14 -81t68 -30z" />
    <glyph glyph-name="product" unicode="&#x220f;" horiz-adv-x="661" 
d="M609 612l-136 -776h-132l137 776h-170l-137 -776h-132l137 776h-95l24 136h624l-24 -136h-96z" />
    <glyph glyph-name="summation" unicode="&#x2211;" horiz-adv-x="600" 
d="M285 612l137 -238l-218 -237h333l-24 -137h-512l19 113l242 261l-147 261l18 113h512l-24 -136h-336z" />
    <glyph glyph-name="minus" unicode="&#x2212;" horiz-adv-x="548" 
d="M38 303l25 136h485l-24 -136h-486z" />
    <glyph glyph-name="radical" unicode="&#x221a;" horiz-adv-x="676" 
d="M295 -77l-98 320l-117 -65l-54 114l252 142l58 -213l274 472l115 -50z" />
    <glyph glyph-name="infinity" unicode="&#x221e;" horiz-adv-x="777" 
d="M583 506q45 0 79.5 -16.5t56.5 -45.5t31 -67.5t3 -81.5q-6 -41 -24 -76.5t-45.5 -61.5t-62.5 -41.5t-75 -15.5q-32 0 -57.5 8t-45 20.5t-34.5 28.5t-27 31l-12 17l-18 -19q-35 -33 -73.5 -52t-83.5 -19q-42 0 -73.5 15.5t-51.5 42t-28 62.5t-2 77q6 37 22 70t40.5 57.5
t56.5 38.5t69 14q28 0 49.5 -6t39 -16t31.5 -23.5t27 -29.5l12 -17l17 16q21 19 41.5 35.5t41.5 28.5t44.5 19t51.5 7zM581 383q-35 0 -58.5 -17.5t-50.5 -44.5l-21 -22l12 -18q17 -25 38.5 -41t46.5 -16q36 0 58.5 22.5t27.5 56.5q5 32 -10.5 56t-42.5 24zM229 374
q-34 0 -53.5 -23t-24.5 -53q-5 -27 8.5 -46t39.5 -19t48 12.5t45 36.5l18 20l-9 16q-35 56 -72 56z" />
    <glyph glyph-name="integral" unicode="&#x222b;" horiz-adv-x="336" 
d="M318 759q42 0 66.5 -6.5t44.5 -13.5l-34 -107q-26 9 -46 9q-23 0 -38.5 -14t-20.5 -40l-106 -600q-27 -158 -152 -158q-43 0 -67.5 6.5t-43.5 12.5l33 107q12 -4 22 -6t19 -2q26 0 43.5 14.5t22.5 39.5l105 601q28 157 152 157z" />
    <glyph glyph-name="approxequal" unicode="&#x2248;" horiz-adv-x="544" 
d="M577 486q-41 -44 -81 -66.5t-87 -22.5q-33 0 -56.5 9t-43 20t-37.5 20t-42 9q-40 0 -68.5 -14t-56.5 -43l-55 105q41 43 81.5 65.5t85.5 22.5q32 0 54.5 -9t41.5 -20t38 -20t44 -9q41 0 69.5 14.5t57.5 43.5zM535 240q-42 -43 -82.5 -65.5t-87.5 -22.5q-33 0 -56.5 9
t-42.5 19.5t-37 19.5t-42 9q-40 0 -68.5 -14t-56.5 -43l-55 105q41 43 81.5 65.5t85.5 22.5q32 0 54.5 -9t41.5 -20t38 -20t44 -9q41 0 69.5 14.5t57.5 43.5z" />
    <glyph glyph-name="notequal" unicode="&#x2260;" horiz-adv-x="548" 
d="M335 316h192l-25 -137h-227l-52 -119l-122 30l39 89h-123l24 137h159l47 108h-187l25 137h222l51 117l123 -29l-39 -88h128l-24 -137h-164z" />
    <glyph glyph-name="lessequal" unicode="&#x2264;" horiz-adv-x="538" 
d="M358 472l172 -84l-26 -150l-437 234l518 233l-25 -149zM-6 57l24 136h478l-24 -136h-478z" />
    <glyph glyph-name="greaterequal" unicode="&#x2265;" horiz-adv-x="538" 
d="M28 238l25 150l202 84l-171 84l25 149l438 -233zM-4 57l23 136h478l-23 -136h-478z" />
    <glyph glyph-name="lozenge" unicode="&#x25ca;" horiz-adv-x="558" 
d="M272 -55h-93l-135 401l274 402h93l134 -402zM256 152l138 194l-61 193l-138 -193z" />
    <glyph glyph-name="fi" unicode="&#xfb01;" horiz-adv-x="670" 
d="M401 783q21 0 33 -1t23 -3l-22 -125q-7 2 -14 2h-14q-42 0 -72 -25t-36 -62l-9 -52h120l-23 -126h-120l-68 -391h-146l69 391h-94l23 126h93l11 58q8 49 30 87.5t54.5 65.5t73.5 41t88 14zM605 774q21 0 37.5 -7.5t27 -21t15 -31t1.5 -37.5q-6 -33 -32.5 -55.5
t-58.5 -22.5q-20 0 -36.5 7.5t-27.5 20.5t-15.5 30.5t-1.5 37.5q7 34 33.5 56.5t57.5 22.5zM406 0l92 517h146l-92 -517h-146z" />
    <glyph glyph-name="fl" unicode="&#xfb02;" horiz-adv-x="670" 
d="M401 783q21 0 33 -1t23 -3l-22 -125q-7 2 -14 2h-14q-42 0 -72 -25t-36 -62l-9 -52h120l-23 -126h-120l-68 -391h-146l69 391h-94l23 126h93l11 58q8 49 30 87.5t54.5 65.5t73.5 41t88 14zM406 0l137 777h146l-137 -777h-146z" />
    <glyph glyph-name="n.001" horiz-adv-x="618" 
d="M350 527q45 0 82 -14t63.5 -40t41 -64.5t14.5 -87.5v-321h-146v288q0 50 -24.5 76.5t-66.5 26.5q-44 0 -70 -28.5t-26 -75.5v-287h-146v517h138v-56q15 26 50.5 46t89.5 20z" />
    <glyph glyph-name="germandbls.cap" horiz-adv-x="703" 
d="M415 756q49 0 89.5 -9t72.5 -25.5t57 -39.5t45 -51l-138 -176q30 -14 55.5 -33.5t42 -47t22.5 -63.5t-2 -83q-10 -55 -37 -99t-67.5 -74.5t-92.5 -46.5t-111 -16q-35 0 -60 3t-47 8l45 133q14 -5 28.5 -6t28.5 -1q58 0 102 29.5t55 88.5q6 33 -2.5 57.5t-29 42
t-51.5 29.5t-71 20l140 194q-12 12 -32 21t-50 9q-26 0 -49.5 -8t-42.5 -23t-32 -36t-18 -46l-89 -507h-154l91 515q10 57 37.5 101.5t68 75.5t90.5 47.5t106 16.5z" />
    <glyph glyph-name="a.sups" horiz-adv-x="458" 
d="M304 757q91 0 133 -43.5t28 -125.5l-45 -255h-123l5 30q-19 -17 -47.5 -27.5t-67.5 -10.5q-64 0 -98.5 30t-26.5 90q5 35 23 58t44 37.5t58.5 21.5t67.5 9l78 6l3 21q5 27 -5 42.5t-35 15.5q-29 0 -45 -16.5t-21 -39.5l-126 4q5 28 21 55t41.5 49t60 35.5t77.5 13.5z
M263 493q-28 -3 -45.5 -11t-19.5 -29q-3 -18 9 -26t32 -8q29 0 49.5 15t26.5 45l4 20z" />
    <glyph glyph-name="b.sups" horiz-adv-x="528" 
d="M267 729q15 11 40.5 19.5t60.5 8.5q46 0 81 -16t58 -45t32 -70t3 -91q-6 -47 -26 -85.5t-50 -66.5t-68 -43t-80 -15q-45 0 -73.5 13.5t-43.5 30.5l-9 -36h-125l110 622h131zM335 645q-40 0 -66 -24t-34 -71l-2 -12q-7 -48 14.5 -75t61.5 -27q39 0 66.5 25.5t35.5 75.5
q7 52 -15.5 80t-60.5 28z" />
    <glyph glyph-name="c.sups" horiz-adv-x="477" 
d="M312 757q82 0 134.5 -44t56.5 -120l-125 -7q-1 28 -17.5 43.5t-44.5 15.5q-42 0 -68.5 -30t-32.5 -84q-6 -47 15 -71t53 -24q35 0 55.5 17t28.5 45l125 -14q-10 -38 -30 -67.5t-47 -50t-60.5 -31t-69.5 -10.5q-49 0 -88.5 15.5t-66.5 44.5t-39 70.5t-6 94.5q5 49 25 87.5
t50 65t69 40.5t83 14z" />
    <glyph glyph-name="d.sups" horiz-adv-x="528" 
d="M368 333l4 26q-17 -14 -46 -24t-67 -10q-46 0 -81.5 16t-58 45t-32 69.5t-2.5 90.5q6 47 26 86t50 66.5t68 43t80 15.5q44 0 71.5 -13t42.5 -28l43 239h130l-109 -622h-119zM318 645q-39 0 -67 -25.5t-35 -75.5q-4 -26 0.5 -46t14.5 -34t25.5 -21t34.5 -7q41 0 66.5 24
t33.5 72l2 11q8 48 -13.5 75t-61.5 27z" />
    <glyph glyph-name="e.sups" horiz-adv-x="481" 
d="M317 757q47 0 83.5 -14.5t60.5 -42t33.5 -67t2.5 -89.5l-6 -43h-274q-6 -35 10.5 -53.5t49.5 -18.5q29 0 47.5 11.5t26.5 29.5l130 -8q-9 -31 -29 -56.5t-46.5 -43.5t-59 -27.5t-66.5 -9.5q-50 0 -89.5 15.5t-65.5 45t-37 71t-3 93.5q7 48 27 86.5t50.5 65.5t70 41
t84.5 14zM314 660q-35 0 -55.5 -21t-28.5 -53h142q5 35 -10.5 54.5t-47.5 19.5z" />
    <glyph glyph-name="f.sups" horiz-adv-x="308" 
d="M376 960q20 0 30 -1t18 -3l-20 -112q-11 3 -25 3q-33 0 -54 -18.5t-26 -47.5l-6 -33h94l-20 -112h-93l-54 -303h-130l53 303h-72l20 112h73l7 41q7 40 25.5 71.5t45.5 53.5t61.5 34t72.5 12z" />
    <glyph glyph-name="g.sups" horiz-adv-x="524" 
d="M310 757q46 0 74 -14t43 -31l8 36h125l-77 -433q-17 -91 -80 -142t-160 -51q-103 0 -149.5 43.5t-44.5 116.5l128 4q-2 -26 15.5 -40.5t50.5 -14.5q44 0 73 21.5t36 63.5l6 36q-17 -11 -41.5 -19t-57.5 -8q-47 0 -82.5 16.5t-58.5 46t-31.5 70.5t-0.5 91q7 46 27 84.5
t50 66t67.5 42.5t79.5 15zM320 645q-39 0 -67 -25.5t-36 -75.5q-8 -52 13.5 -80t59.5 -28q41 0 67.5 24t34.5 71l2 15q8 48 -13.5 73.5t-60.5 25.5z" />
    <glyph glyph-name="h.sups" horiz-adv-x="495" 
d="M263 723q14 13 39 23.5t60 10.5q37 0 66.5 -12t48.5 -34.5t26.5 -54.5t0.5 -72l-45 -251h-130l41 229q6 37 -6.5 55.5t-39.5 18.5q-34 0 -57 -21.5t-30 -56.5l-39 -225h-131l110 622h131z" />
    <glyph glyph-name="i.sups" horiz-adv-x="239" 
d="M232 957q36 0 57.5 -25.5t15.5 -61.5q-5 -29 -28 -47.5t-50 -18.5q-37 0 -58 25t-15 60q5 29 28 48.5t50 19.5zM67 333l74 415h130l-73 -415h-131z" />
    <glyph glyph-name="j.sups" horiz-adv-x="239" 
d="M231 957q37 0 58.5 -25.5t15.5 -61.5q-5 -29 -28 -47.5t-51 -18.5q-37 0 -57.5 25t-14.5 60q5 29 27 48.5t50 19.5zM191 294q-7 -40 -25.5 -71.5t-45.5 -53.5t-61 -34t-72 -12q-20 0 -30.5 1t-18.5 3l20 111q5 -2 11 -2h11q33 0 55.5 19.5t27.5 46.5l78 446h130z" />
    <glyph glyph-name="k.sups" horiz-adv-x="475" 
d="M390 748h161l-188 -179l116 -236h-141l-74 143l-46 -40l-20 -103h-131l110 622h131l-63 -345z" />
    <glyph glyph-name="l.sups" horiz-adv-x="239" 
d="M67 333l110 622h131l-110 -622h-131z" />
    <glyph glyph-name="m.sups" horiz-adv-x="743" 
d="M611 757q76 0 114 -47t25 -126l-45 -251h-130l40 229q14 74 -42 74q-30 0 -50.5 -16t-28.5 -45l-42 -242h-131l41 229q14 74 -43 74q-33 0 -54 -21t-28 -56l-39 -226h-131l74 415h119l-5 -29q14 15 39.5 26.5t63.5 11.5q44 0 75 -15.5t48 -44.5q23 26 54 43t76 17z" />
    <glyph glyph-name="n.sups" horiz-adv-x="497" 
d="M362 757q37 0 66.5 -12t48.5 -34.5t26.5 -54.5t0.5 -72l-45 -251h-130l41 229q7 36 -6 55t-41 19q-33 0 -56 -21.5t-30 -56.5l-39 -225h-131l74 415h119l-5 -29q15 16 42.5 27t64.5 11z" />
    <glyph glyph-name="o.sups" horiz-adv-x="513" 
d="M326 757q51 0 91 -16.5t67 -46t38.5 -71t4.5 -92.5q-6 -47 -27 -85t-53 -65t-73 -41.5t-87 -14.5q-51 0 -91.5 16t-67.5 45.5t-38.5 71t-4.5 92.5q6 47 27.5 85t53.5 65t73 42t87 15zM324 645q-43 0 -73.5 -29.5t-35.5 -81.5q-5 -48 16 -73t58 -25q44 0 74.5 29.5
t36.5 80.5q5 48 -16.5 73.5t-59.5 25.5z" />
    <glyph glyph-name="p.sups" horiz-adv-x="528" 
d="M369 757q46 0 81 -16t58 -45t32 -70t3 -91q-6 -47 -26 -85.5t-50 -66.5t-68 -43t-80 -15q-44 0 -71.5 12.5t-42.5 27.5l-43 -236h-130l109 619h118l-3 -26q17 14 46 24.5t67 10.5zM336 645q-40 0 -66 -24t-34 -71l-2 -12q-7 -48 14.5 -75t61.5 -27q39 0 66.5 25.5
t35.5 75.5q7 52 -15.5 80t-60.5 28z" />
    <glyph glyph-name="q.sups" horiz-adv-x="528" 
d="M309 757q45 0 74 -14t43 -31l9 36h125l-110 -619h-130l40 223q-15 -11 -40.5 -19t-60.5 -8q-45 0 -80.5 16t-58.5 45t-32 69.5t-3 90.5q6 47 26 86t50 66.5t68 43t80 15.5zM318 645q-39 0 -66.5 -25.5t-34.5 -75.5q-8 -52 14.5 -80t60.5 -28q40 0 66 24t34 72l2 11
q8 48 -14 75t-62 27z" />
    <glyph glyph-name="r.sups" horiz-adv-x="306" 
d="M357 627q-50 0 -83 -27t-41 -69l-35 -198h-131l74 415h123l-6 -37q18 19 46.5 30t75.5 11z" />
    <glyph glyph-name="s.sups" horiz-adv-x="406" 
d="M277 757q43 0 74.5 -11t51 -30.5t27.5 -45.5t6 -56l-130 -1q4 21 -5 32.5t-28 11.5q-23 0 -34.5 -9t-13.5 -23q-3 -16 12.5 -23t46.5 -16t57 -19.5t43.5 -25.5t25 -36t2.5 -51q-11 -62 -58.5 -95.5t-127.5 -33.5q-87 0 -130 37.5t-37 103.5l130 1q-2 -20 7.5 -31.5
t32.5 -11.5t37 7.5t17 24.5q2 16 -9 23.5t-44 16.5q-35 10 -62.5 20.5t-45.5 25t-25.5 36t-1.5 54.5q11 58 59 91.5t123 33.5z" />
    <glyph glyph-name="t.sups" horiz-adv-x="327" 
d="M254 496q-5 -32 9.5 -43.5t33.5 -11.5q17 0 27 1.5t16 2.5l-21 -116q-14 -2 -27.5 -3t-34.5 -1q-75 0 -112.5 36.5t-23.5 110.5l30 164h-77l21 112h76l25 136h130l-25 -136h93l-20 -112h-94z" />
    <glyph glyph-name="u.sups" horiz-adv-x="485" 
d="M326 333l4 29q-17 -16 -41.5 -26.5t-61.5 -10.5q-76 0 -113 44t-23 121l46 258h130l-42 -233q-5 -32 5 -50.5t37 -18.5q32 0 52.5 18.5t25.5 50.5l41 233h131l-74 -415h-117z" />
    <glyph glyph-name="v.sups" horiz-adv-x="468" 
d="M196 333l-106 415h135l50 -213l127 213h149l-253 -415h-102z" />
    <glyph glyph-name="w.sups" horiz-adv-x="686" 
d="M435 333l-39 220l-118 -220h-102l-86 415h135l37 -213l116 213h89l39 -213l114 213h149l-233 -415h-101z" />
    <glyph glyph-name="x.sups" horiz-adv-x="451" 
d="M453 333h-140l-51 117l-91 -117h-151l169 219l-91 196h139l50 -116l92 116h150l-168 -217z" />
    <glyph glyph-name="y.sups" horiz-adv-x="467" 
d="M28 129l156 253l-93 366h137l50 -213l125 213h146l-375 -619h-146z" />
    <glyph glyph-name="z.sups" horiz-adv-x="370" 
d="M216 438h158l-19 -105h-315l16 90l190 220h-147l18 105h306l-16 -90z" />
    <glyph glyph-name="f_j" horiz-adv-x="670" 
d="M401 783q21 0 33 -1t23 -3l-22 -125q-7 2 -14 2h-14q-42 0 -72 -25t-36 -62l-9 -52h120l-23 -126h-120l-68 -391h-146l69 391h-94l23 126h93l11 58q8 49 30 87.5t54.5 65.5t73.5 41t88 14zM605 774q21 0 37.5 -7.5t27 -21t15 -31t1.5 -37.5q-6 -33 -32.5 -55.5
t-58.5 -22.5q-20 0 -36.5 7.5t-27.5 20.5t-15.5 30.5t-1.5 37.5q7 34 33 56.5t58 22.5zM544 -55q-9 -49 -31 -87.5t-54 -65t-73 -40.5t-87 -14q-22 0 -33.5 1t-22.5 3l22 125q8 -2 15 -2h14q42 0 70 24.5t35 62.5l99 565h147z" />
    <glyph glyph-name="zero.onum" horiz-adv-x="653" 
d="M361 601q65 0 116.5 -22t85.5 -63t48 -99t5 -130q-9 -69 -36 -124.5t-68 -94t-94 -59t-114 -20.5q-65 0 -116.5 22t-85.5 63.5t-48 100t-5 130.5q9 69 36 124t68 93t94 58.5t114 20.5zM360 465q-61 0 -102 -47t-52 -131q-9 -78 17.5 -119.5t80.5 -41.5q62 0 103.5 47.5
t51.5 131.5q10 77 -17 118.5t-82 41.5z" />
    <glyph glyph-name="one.onum" horiz-adv-x="393" 
d="M118 0l69 389l-90 -58l-62 121l227 138h114l-104 -590h-154z" />
    <glyph glyph-name="two.onum" horiz-adv-x="542" 
d="M328 601q57 0 98 -16.5t65.5 -46t33 -69.5t0.5 -86q-13 -68 -54 -112t-98 -80l-86 -54h197l-24 -137h-462l22 125l231 139q24 14 44 27.5t35.5 27.5t25.5 31t14 39q7 35 -8 55t-50 20q-38 0 -63 -25t-34 -71l-152 8q20 106 89 165.5t176 59.5z" />
    <glyph glyph-name="three.onum" horiz-adv-x="568" 
d="M327 601q58 0 100 -16.5t68 -46.5t35 -72t0 -94q-10 -58 -38 -92t-70 -57q17 -7 31.5 -21.5t24.5 -36t13 -49.5t-3 -61q-9 -54 -33.5 -95.5t-60 -70t-80.5 -43.5t-97 -15q-62 0 -106.5 17t-71.5 47.5t-37.5 73.5t-2.5 95l153 -1q-11 -95 73 -95q44 0 73 25t38 76
q8 45 -13.5 69.5t-65.5 24.5h-82l24 129h70q38 0 69 22t39 67q6 38 -10 60.5t-50 22.5q-42 0 -67 -26.5t-36 -72.5l-150 19q20 103 87 160t176 57z" />
    <glyph glyph-name="four.onum" horiz-adv-x="603" 
d="M550 110l-24 -137h-112l-23 -131h-139l24 131h-303l23 127l406 490h121l-84 -480h111zM299 110l39 214l-179 -214h140z" />
    <glyph glyph-name="five.onum" horiz-adv-x="570" 
d="M231 306q31 11 66 11q51 0 93.5 -16t71 -47t40 -77.5t1.5 -106.5q-8 -55 -31 -99t-58 -75t-82 -48t-103 -17q-59 0 -103 16t-72 45t-40 69.5t-6 89.5l153 4q-4 -41 16.5 -64t60.5 -23q50 0 77 30.5t35 81.5q8 46 -12 73t-59 27q-28 0 -46.5 -8t-36.5 -19l-146 1l77 436
h438l-24 -136h-284z" />
    <glyph glyph-name="six.onum" horiz-adv-x="608" 
d="M378 485q48 -8 86.5 -29.5t64 -54t36.5 -76t4 -94.5q-8 -55 -32.5 -100t-61.5 -76.5t-84.5 -48.5t-101.5 -17q-59 0 -108 18.5t-82.5 53t-49 82t-6.5 106.5q7 45 23.5 83.5t48.5 73.5l309 342h189zM413 246q8 61 -18 89.5t-69 28.5q-26 0 -49 -9.5t-41 -29.5
q-15 -17 -24 -36t-13 -46q-7 -60 18.5 -88.5t70.5 -28.5q26 0 48 9.5t38 26t26 38.5t13 46z" />
    <glyph glyph-name="seven.onum" horiz-adv-x="541" 
d="M148 -158h-178l400 612h-314l24 136h492l-22 -124z" />
    <glyph glyph-name="eight.onum" horiz-adv-x="615" 
d="M376 759q54 0 98 -15.5t73.5 -44t42.5 -69t4 -91.5q-13 -92 -94 -146q34 -25 53 -71t9 -110q-9 -53 -34.5 -94t-63 -70t-85.5 -44t-102 -15q-58 0 -105.5 17t-79 48.5t-45.5 76t-5 100.5q18 113 118 174q-26 23 -40.5 61t-6.5 91q8 48 31.5 85.5t58 63.5t79 39.5
t94.5 13.5zM367 622q-41 0 -69.5 -24.5t-33.5 -65.5q-4 -38 16.5 -57.5t56.5 -19.5q40 0 69 22.5t34 64.5q5 38 -15.5 59t-57.5 21zM323 332q-52 0 -86.5 -29.5t-41.5 -79.5q-5 -46 19.5 -71.5t69.5 -25.5q52 0 86.5 29.5t40.5 79.5q5 46 -19 71.5t-69 25.5z" />
    <glyph glyph-name="nine.onum" horiz-adv-x="608" 
d="M328 601q59 0 108 -18.5t82.5 -53t49 -82.5t6.5 -106q-7 -45 -23.5 -83.5t-48.5 -73.5l-309 -342h-189l235 263q-48 8 -86.5 29.5t-64 54t-37 76t-3.5 94.5q8 55 32.5 100t61.5 76.5t84.5 48.5t101.5 17zM291 226q26 0 49 9.5t41 29.5q15 17 24 36t13 46q7 60 -18.5 88.5
t-70.5 28.5q-26 0 -48 -9.5t-38 -26t-26 -38.5t-13 -46q-8 -61 18 -89.5t69 -28.5z" />
    <glyph glyph-name="zero.slash" horiz-adv-x="652" 
d="M391 759q65 0 115.5 -26t82 -76.5t42.5 -124t-3 -167.5q-13 -92 -43 -162t-73 -117.5t-97 -72t-114 -24.5q-65 0 -115.5 26t-82 76.5t-42.5 123.5t3 168q13 91 43 161.5t73 118t96.5 72t114.5 24.5zM217 368q-5 -32 -7 -60.5t-1 -51.5l234 346q-22 20 -56 20
q-71 0 -110.5 -64t-59.5 -190zM474 380q9 59 7 108l-232 -344q21 -18 55 -18q71 0 111.5 64t58.5 190z" />
    <glyph glyph-name="zero.subs" horiz-adv-x="372" 
d="M189 338q37 0 66.5 -14.5t47.5 -43t23.5 -69.5t-3.5 -94q-18 -101 -69.5 -152.5t-117.5 -51.5q-38 0 -67 15t-47.5 43.5t-24 69.5t3.5 94q18 100 70 151.5t118 51.5zM183 238q-26 0 -42.5 -27t-27.5 -86q-9 -53 -3.5 -82.5t31.5 -29.5t42 27t26 87q10 52 5 81.5t-31 29.5
z" />
    <glyph glyph-name="one.subs" horiz-adv-x="234" 
d="M26 -80l45 254l-47 -27l-38 95l154 89h70l-72 -411h-112z" />
    <glyph glyph-name="two.subs" horiz-adv-x="320" 
d="M168 338q36 0 60 -11.5t38 -30.5t18 -45t0 -54q-6 -42 -28 -71t-54 -59l-52 -48h103l-18 -99h-276l14 77l154 140q20 17 30.5 32t15.5 38q5 31 -19 31q-28 0 -36 -37l-109 6q12 61 55 96t104 35z" />
    <glyph glyph-name="three.subs" horiz-adv-x="329" 
d="M166 338q70 0 101.5 -36.5t20.5 -97.5q-5 -27 -18.5 -45t-37.5 -33q17 -8 27.5 -31.5t4.5 -58.5q-11 -60 -52.5 -91.5t-98.5 -31.5q-37 0 -63.5 10t-42.5 27.5t-22 41.5t-1 52l112 4q-2 -15 3 -25t19 -10t24.5 12.5t12.5 32.5q2 14 -5 20.5t-21 6.5h-47l15 88h37
q15 0 31 13t17 34q3 21 -20 21q-13 0 -23.5 -10.5t-13.5 -27.5l-105 10q10 62 47 93.5t99 31.5z" />
    <glyph glyph-name="four.subs" horiz-adv-x="351" 
d="M300 82l-17 -99h-44l-11 -63h-112l11 63h-164l15 87l215 261h107l-44 -249h44zM144 82l16 85l-71 -85h55z" />
    <glyph glyph-name="five.subs" horiz-adv-x="324" 
d="M134 187l15 1q29 0 53 -9t40 -27t22.5 -44.5t0.5 -61.5q-12 -63 -54 -98t-104 -35q-70 0 -103 34.5t-24 89.5l111 3q-2 -12 3.5 -19.5t19.5 -7.5t24 10t14 30q4 16 -2 25.5t-19 9.5q-8 0 -14.5 -3.5t-12.5 -8.5l-102 2l44 253h252l-17 -99h-140z" />
    <glyph glyph-name="six.subs" horiz-adv-x="352" 
d="M204 188q46 -14 69.5 -51t14.5 -91q-5 -30 -20 -55t-37 -42t-49 -26.5t-57 -9.5q-35 0 -63 11t-46 31t-26 48t-2 61q5 24 15.5 44t27.5 42l159 181h138zM177 60q3 17 -4 30.5t-25 13.5q-11 0 -18.5 -4.5t-12.5 -10.5q-12 -12 -16 -32q-3 -19 5 -31.5t24 -12.5t29.5 11.5
t17.5 35.5z" />
    <glyph glyph-name="seven.subs" horiz-adv-x="316" 
d="M97 -80h-130l190 312h-143l17 99h278l-16 -88z" />
    <glyph glyph-name="eight.subs" horiz-adv-x="354" 
d="M177 338q33 0 59 -9t43.5 -26.5t25 -41.5t1.5 -54q-2 -18 -12.5 -36.5t-31.5 -36.5q15 -16 23 -40.5t3 -56.5q-11 -59 -56.5 -91.5t-106.5 -32.5q-35 0 -62.5 10t-46.5 29t-26.5 45t-1.5 59q9 50 58 91q-10 14 -16 33t-2 45q10 54 52 83.5t97 29.5zM172 238
q-17 0 -29 -10t-14 -27q-2 -16 6 -24.5t23 -8.5q17 0 28.5 10t13.5 27q2 16 -6 24.5t-22 8.5zM147 91q-18 0 -31 -11t-16 -30q-2 -17 6.5 -27t25.5 -10q18 0 30.5 11t15.5 30q3 18 -6 27.5t-25 9.5z" />
    <glyph glyph-name="nine.subs" horiz-adv-x="352" 
d="M178 338q35 0 63 -11t46.5 -31t26 -48t1.5 -61q-5 -24 -15.5 -44t-27.5 -43l-158 -180h-139l125 143q-47 14 -70.5 51t-13.5 91q5 30 20 55t36.5 42t48.5 26.5t57 9.5zM155 147q11 0 18.5 4.5t13.5 10.5q12 12 15 32q4 19 -4 31.5t-25 12.5q-15 0 -28.5 -11.5
t-18.5 -35.5q-3 -17 4 -30.5t25 -13.5z" />
    <glyph glyph-name="zero.sups" horiz-adv-x="372" 
d="M275 820q37 0 66.5 -14.5t47.5 -43t23.5 -69.5t-3.5 -94q-18 -101 -69.5 -152.5t-117.5 -51.5q-38 0 -67 15t-47.5 43.5t-24 69.5t3.5 94q18 100 70 151.5t118 51.5zM269 720q-26 0 -42.5 -27t-27.5 -86q-9 -53 -3.5 -82.5t31.5 -29.5t42 27t26 87q10 52 5 81.5t-31 29.5
z" />
    <glyph glyph-name="one.sups" horiz-adv-x="234" 
d="M109 402l45 254l-47 -27l-38 95l154 89h70l-72 -411h-112z" />
    <glyph glyph-name="two.sups" horiz-adv-x="320" 
d="M254 820q36 0 60 -11.5t38 -30.5t18 -45t0 -54q-6 -42 -28 -71t-54 -59l-52 -48h103l-18 -99h-276l14 77l154 140q20 17 30.5 32t15.5 38q5 31 -19 31q-28 0 -36 -37l-109 6q12 61 55 96t104 35z" />
    <glyph glyph-name="three.sups" horiz-adv-x="329" 
d="M249 820q70 0 101.5 -36.5t20.5 -97.5q-5 -27 -18.5 -45t-37.5 -33q17 -8 27.5 -31.5t4.5 -58.5q-11 -60 -52.5 -91.5t-98.5 -31.5q-37 0 -63.5 10t-42.5 27.5t-22 41.5t-1 52l112 4q-2 -15 3 -25t19 -10t24.5 12.5t12.5 32.5q2 14 -5 20.5t-21 6.5h-47l15 88h37
q15 0 31 13t17 34q3 21 -20 21q-13 0 -23.5 -10.5t-13.5 -27.5l-105 10q10 62 47 93.5t99 31.5z" />
    <glyph glyph-name="four.sups" horiz-adv-x="351" 
d="M384 564l-17 -99h-44l-11 -63h-112l11 63h-164l15 87l215 261h107l-44 -249h44zM228 564l16 85l-71 -85h55z" />
    <glyph glyph-name="five.sups" horiz-adv-x="324" 
d="M220 669l15 1q29 0 53 -9t40 -27t22.5 -44.5t0.5 -61.5q-12 -63 -54 -98t-104 -35q-70 0 -103 34.5t-24 89.5l111 3q-2 -12 3.5 -19.5t19.5 -7.5t24 10t14 30q4 16 -2 25.5t-19 9.5q-8 0 -14.5 -3.5t-12.5 -8.5l-102 2l44 253h252l-17 -99h-140z" />
    <glyph glyph-name="six.sups" horiz-adv-x="352" 
d="M290 670q46 -14 69.5 -51t14.5 -91q-5 -30 -20 -55t-37 -42t-49 -26.5t-57 -9.5q-35 0 -63 11t-46 31t-26 48t-2 61q5 24 15.5 44t27.5 42l159 181h138zM263 542q3 17 -4 30.5t-25 13.5q-11 0 -18.5 -4.5t-12.5 -10.5q-12 -12 -16 -32q-3 -19 5 -31.5t24 -12.5t29.5 11.5
t17.5 35.5z" />
    <glyph glyph-name="seven.sups" horiz-adv-x="316" 
d="M182 402h-130l190 312h-143l17 99h278l-16 -88z" />
    <glyph glyph-name="eight.sups" horiz-adv-x="354" 
d="M263 820q33 0 59 -9t43.5 -26.5t25 -41.5t1.5 -54q-2 -18 -12.5 -36.5t-31.5 -36.5q15 -16 23 -40.5t3 -56.5q-11 -59 -56.5 -91.5t-106.5 -32.5q-35 0 -62.5 10t-46.5 29t-26.5 45t-1.5 59q9 50 58 91q-10 14 -16 33t-2 45q10 54 52 83.5t97 29.5zM258 720
q-17 0 -29 -10t-14 -27q-2 -16 6 -24.5t23 -8.5q17 0 28.5 10t13.5 27q2 16 -6 24.5t-22 8.5zM233 573q-18 0 -31 -11t-16 -30q-2 -17 6.5 -27t25.5 -10q18 0 30.5 11t15.5 30q3 18 -6 27.5t-25 9.5z" />
    <glyph glyph-name="nine.sups" horiz-adv-x="352" 
d="M262 820q35 0 63 -11t46.5 -31t26 -48t1.5 -61q-5 -24 -15.5 -44t-27.5 -43l-158 -180h-139l125 143q-47 14 -70.5 51t-13.5 91q5 30 20 55t36.5 42t48.5 26.5t57 9.5zM239 629q11 0 18.5 4.5t13.5 10.5q12 12 15 32q4 19 -4 31.5t-25 12.5q-15 0 -28.5 -11.5
t-18.5 -35.5q-3 -17 4 -30.5t25 -13.5z" />
    <glyph glyph-name="zero.tnum" horiz-adv-x="650" 
d="M388 759q65 0 115.5 -26t82 -76.5t42.5 -124t-3 -167.5q-13 -92 -43 -162t-73 -117.5t-97 -72t-114 -24.5q-65 0 -115.5 26t-82 76.5t-42.5 123.5t3 168q13 91 43 161.5t73 118t97 72t114 24.5zM384 622q-70 0 -110 -64t-59 -190q-18 -119 3.5 -180.5t83.5 -61.5
q70 0 110.5 64t58.5 190q18 119 -4 180.5t-83 61.5z" />
    <glyph glyph-name="one.tnum" horiz-adv-x="650" 
d="M544 137l-24 -137h-430l24 137h146l73 409l-93 -61l-63 122l231 141h114l-108 -611h130z" />
    <glyph glyph-name="two.tnum" horiz-adv-x="650" 
d="M408 759q54 0 95 -16.5t66.5 -46.5t35 -71.5t0.5 -91.5q-8 -46 -24 -82t-38.5 -66.5t-50.5 -57.5t-59 -55l-152 -135h257l-24 -137h-463l20 117l250 231q61 56 91 100t38 92q6 38 -8.5 60t-48.5 22q-42 0 -64.5 -27.5t-32.5 -77.5l-153 9q21 115 88.5 174t176.5 59z" />
    <glyph glyph-name="three.tnum" horiz-adv-x="650" 
d="M397 759q57 0 99.5 -16.5t68.5 -46.5t35 -72t0 -94q-11 -58 -39 -92t-70 -57q35 -14 56.5 -57.5t10.5 -110.5q-9 -54 -33.5 -95.5t-60 -70t-81 -43.5t-97.5 -15q-62 0 -106.5 17t-71.5 47.5t-37.5 73.5t-2.5 95l154 -1q-11 -95 73 -95q44 0 73 25t38 76q7 45 -14 69.5
t-65 24.5h-82l23 129h71q37 0 68.5 22.5t39.5 66.5q6 38 -10 60.5t-50 22.5q-42 0 -67.5 -26.5t-35.5 -72.5l-151 19q21 103 88 160t176 57z" />
    <glyph glyph-name="four.tnum" horiz-adv-x="650" 
d="M603 268l-25 -137h-111l-23 -131h-139l23 131h-302l22 127l406 490h122l-85 -480h112zM351 268l40 214l-180 -214h140z" />
    <glyph glyph-name="five.tnum" horiz-adv-x="650" 
d="M293 465q14 5 30.5 7.5t35.5 2.5q51 0 93.5 -16t71 -47t40 -77.5t1.5 -106.5q-8 -55 -31 -99t-58.5 -75t-82 -48t-102.5 -17q-59 0 -103 16t-72.5 45t-40.5 69.5t-6 89.5l154 4q-4 -41 16 -64t61 -23q50 0 76.5 30.5t34.5 81.5q8 46 -11.5 73t-59.5 27q-28 0 -46.5 -8
t-36.5 -19l-146 1l77 436h438l-24 -136h-284z" />
    <glyph glyph-name="six.tnum" horiz-adv-x="650" 
d="M394 485q48 -8 86.5 -29.5t64.5 -54t36.5 -76t3.5 -94.5q-8 -55 -32.5 -100t-61.5 -76.5t-84.5 -48.5t-101.5 -17q-59 0 -108 18.5t-82.5 53t-49 82t-6.5 106.5q7 45 24 83.5t48 73.5l309 342h189zM429 246q8 61 -18 89.5t-69 28.5q-26 0 -49 -9.5t-41 -29.5
q-15 -17 -24 -36t-13 -46q-7 -60 18.5 -88.5t70.5 -28.5q26 0 48 9.5t38 26t26 38.5t13 46z" />
    <glyph glyph-name="seven.tnum" horiz-adv-x="650" 
d="M220 0h-179l400 612h-314l24 136h492l-22 -124z" />
    <glyph glyph-name="eight.tnum" horiz-adv-x="650" 
d="M389 759q54 0 98 -15.5t73.5 -44t42.5 -69t4 -91.5q-13 -92 -94 -146q34 -25 53 -71t9 -110q-8 -53 -33.5 -94t-63.5 -70t-86 -44t-102 -15q-58 0 -105 17t-79 48.5t-46 76t-5 100.5q9 57 39 100.5t79 73.5q-26 23 -40.5 61t-6.5 91q8 48 31.5 85.5t58.5 63.5t79 39.5
t94 13.5zM381 622q-41 0 -70 -24.5t-34 -65.5q-4 -38 16.5 -57.5t56.5 -19.5q40 0 69 22.5t34 64.5q5 38 -15.5 59t-56.5 21zM336 332q-51 0 -86 -29.5t-41 -79.5q-5 -46 19 -71.5t69 -25.5q52 0 87 29.5t40 79.5q5 46 -19 71.5t-69 25.5z" />
    <glyph glyph-name="nine.tnum" horiz-adv-x="650" 
d="M385 759q59 0 108 -18.5t82.5 -53t49 -82.5t6.5 -106q-7 -45 -24 -83.5t-48 -73.5l-309 -342h-189l235 263q-48 8 -86.5 29.5t-64.5 54t-37 76t-3 94.5q8 55 32.5 100t61.5 76.5t84.5 48.5t101.5 17zM348 384q52 0 90 39q15 17 24 36t13 46q7 60 -18.5 88.5t-70.5 28.5
q-26 0 -48 -9.5t-38 -26t-26 -38.5t-13 -46q-8 -61 18 -89.5t69 -28.5z" />
    <glyph glyph-name="zero.dnom" horiz-adv-x="372" 
d="M204 418q37 0 66.5 -14.5t47.5 -43t23.5 -69.5t-3.5 -94q-18 -101 -69.5 -152.5t-117.5 -51.5q-38 0 -67 15t-47.5 43.5t-24 69.5t3.5 94q18 100 70 151.5t118 51.5zM198 318q-26 0 -42.5 -27t-27.5 -86q-9 -53 -3.5 -82.5t31.5 -29.5t42 27t26 87q10 52 5 81.5t-31 29.5
z" />
    <glyph glyph-name="one.dnom" horiz-adv-x="234" 
d="M44 0l45 254l-47 -27l-38 95l154 89h70l-72 -411h-112z" />
    <glyph glyph-name="two.dnom" horiz-adv-x="320" 
d="M185 418q36 0 60 -11.5t38 -30.5t18 -45t0 -54q-6 -42 -28 -71t-54 -59l-52 -48h103l-18 -99h-276l14 77l154 140q20 17 30.5 32t15.5 38q5 31 -19 31q-28 0 -36 -37l-109 6q12 61 55 96t104 35z" />
    <glyph glyph-name="three.dnom" horiz-adv-x="329" 
d="M179 418q70 0 101.5 -36.5t20.5 -97.5q-5 -27 -18.5 -45t-37.5 -33q17 -8 27.5 -31.5t4.5 -58.5q-11 -60 -52.5 -91.5t-98.5 -31.5q-37 0 -63.5 10t-42.5 27.5t-22 41.5t-1 52l112 4q-2 -15 3 -25t19 -10t24.5 12.5t12.5 32.5q2 14 -5 20.5t-21 6.5h-47l15 88h37
q15 0 31 13t17 34q3 21 -20 21q-13 0 -23.5 -10.5t-13.5 -27.5l-105 10q10 62 47 93.5t99 31.5z" />
    <glyph glyph-name="four.dnom" horiz-adv-x="351" 
d="M317 162l-17 -99h-44l-11 -63h-112l11 63h-164l15 87l215 261h107l-44 -249h44zM161 162l16 85l-71 -85h55z" />
    <glyph glyph-name="five.dnom" horiz-adv-x="324" 
d="M151 267l15 1q29 0 53 -9t40 -27t22.5 -44.5t0.5 -61.5q-12 -63 -54 -98t-104 -35q-70 0 -103 34.5t-24 89.5l111 3q-2 -12 3.5 -19.5t19.5 -7.5t24 10t14 30q4 16 -2 25.5t-19 9.5q-8 0 -14.5 -3.5t-12.5 -8.5l-102 2l44 253h252l-17 -99h-140z" />
    <glyph glyph-name="six.dnom" horiz-adv-x="352" 
d="M220 268q46 -14 69.5 -51t14.5 -91q-5 -30 -20 -55t-37 -42t-49 -26.5t-57 -9.5q-35 0 -63 11t-46 31t-26 48t-2 61q5 24 15.5 44t27.5 42l159 181h138zM193 140q3 17 -4 30.5t-25 13.5q-11 0 -18.5 -4.5t-12.5 -10.5q-12 -12 -16 -32q-3 -19 5 -31.5t24 -12.5t29.5 11.5
t17.5 35.5z" />
    <glyph glyph-name="seven.dnom" horiz-adv-x="316" 
d="M108 0h-130l190 312h-143l17 99h278l-16 -88z" />
    <glyph glyph-name="eight.dnom" horiz-adv-x="354" 
d="M193 418q33 0 59 -9t43.5 -26.5t25 -41.5t1.5 -54q-2 -18 -12.5 -36.5t-31.5 -36.5q15 -16 23 -40.5t3 -56.5q-11 -59 -56.5 -91.5t-106.5 -32.5q-35 0 -62.5 10t-46.5 29t-26.5 45t-1.5 59q9 50 58 91q-10 14 -16 33t-2 45q10 54 52 83.5t97 29.5zM188 318
q-17 0 -29 -10t-14 -27q-2 -16 6 -24.5t23 -8.5q17 0 28.5 10t13.5 27q2 16 -6 24.5t-22 8.5zM163 171q-18 0 -31 -11t-16 -30q-2 -17 6.5 -27t25.5 -10q18 0 30.5 11t15.5 30q3 18 -6 27.5t-25 9.5z" />
    <glyph glyph-name="nine.dnom" horiz-adv-x="352" 
d="M192 418q35 0 63 -11t46.5 -31t26 -48t1.5 -61q-5 -24 -15.5 -44t-27.5 -43l-158 -180h-139l125 143q-47 14 -70.5 51t-13.5 91q5 30 20 55t36.5 42t48.5 26.5t57 9.5zM169 227q11 0 18.5 4.5t13.5 10.5q12 12 15 32q4 19 -4 31.5t-25 12.5q-15 0 -28.5 -11.5
t-18.5 -35.5q-3 -17 4 -30.5t25 -13.5z" />
    <glyph glyph-name="zero.numr" horiz-adv-x="372" 
d="M259 739q37 0 66.5 -14.5t47.5 -43t23.5 -69.5t-3.5 -94q-18 -101 -69.5 -152.5t-117.5 -51.5q-38 0 -67 15t-47.5 43.5t-24 69.5t3.5 94q18 100 70 151.5t118 51.5zM253 639q-26 0 -42.5 -27t-27.5 -86q-9 -53 -3.5 -82.5t31.5 -29.5t42 27t26 87q10 52 5 81.5t-31 29.5
z" />
    <glyph glyph-name="one.numr" horiz-adv-x="234" 
d="M99 322l45 254l-47 -27l-38 95l154 89h70l-72 -411h-112z" />
    <glyph glyph-name="two.numr" horiz-adv-x="320" 
d="M241 739q36 0 60 -11.5t38 -30.5t18 -45t0 -54q-6 -42 -28 -71t-54 -59l-52 -48h103l-18 -99h-276l14 77l154 140q20 17 30.5 32t15.5 38q5 31 -19 31q-28 0 -36 -37l-109 6q12 61 55 96t104 35z" />
    <glyph glyph-name="three.numr" horiz-adv-x="329" 
d="M237 739q70 0 101.5 -36.5t20.5 -97.5q-5 -27 -18.5 -45t-37.5 -33q17 -8 27.5 -31.5t4.5 -58.5q-11 -60 -52.5 -91.5t-98.5 -31.5q-37 0 -63.5 10t-42.5 27.5t-22 41.5t-1 52l112 4q-2 -15 3 -25t19 -10t24.5 12.5t12.5 32.5q2 14 -5 20.5t-21 6.5h-47l15 88h37
q15 0 31 13t17 34q3 21 -20 21q-13 0 -23.5 -10.5t-13.5 -27.5l-105 10q10 62 47 93.5t99 31.5z" />
    <glyph glyph-name="four.numr" horiz-adv-x="351" 
d="M372 483l-17 -99h-44l-11 -63h-112l11 63h-164l15 87l215 261h107l-44 -249h44zM216 483l16 85l-71 -85h55z" />
    <glyph glyph-name="five.numr" horiz-adv-x="324" 
d="M204 589l15 1q29 0 53 -9t40 -27t22.5 -44.5t0.5 -61.5q-12 -63 -54 -98t-104 -35q-70 0 -103 34.5t-24 89.5l111 3q-2 -12 3.5 -19.5t19.5 -7.5t24 10t14 30q4 16 -2 25.5t-19 9.5q-8 0 -14.5 -3.5t-12.5 -8.5l-102 2l44 253h252l-17 -99h-140z" />
    <glyph glyph-name="six.numr" horiz-adv-x="352" 
d="M275 589q46 -14 69.5 -51t14.5 -91q-5 -30 -20 -55t-37 -42t-49 -26.5t-57 -9.5q-35 0 -63 11t-46 31t-26 48t-2 61q5 24 15.5 44t27.5 42l159 181h138zM248 461q3 17 -4 30.5t-25 13.5q-11 0 -18.5 -4.5t-12.5 -10.5q-12 -12 -16 -32q-3 -19 5 -31.5t24 -12.5t29.5 11.5
t17.5 35.5z" />
    <glyph glyph-name="seven.numr" horiz-adv-x="316" 
d="M168 322h-130l190 312h-143l17 99h278l-16 -88z" />
    <glyph glyph-name="eight.numr" horiz-adv-x="354" 
d="M248 739q33 0 59 -9t43.5 -26.5t25 -41.5t1.5 -54q-2 -18 -12.5 -36.5t-31.5 -36.5q15 -16 23 -40.5t3 -56.5q-11 -59 -56.5 -91.5t-106.5 -32.5q-35 0 -62.5 10t-46.5 29t-26.5 45t-1.5 59q9 50 58 91q-10 14 -16 33t-2 45q10 54 52 83.5t97 29.5zM243 639
q-17 0 -29 -10t-14 -27q-2 -16 6 -24.5t23 -8.5q17 0 28.5 10t13.5 27q2 16 -6 24.5t-22 8.5zM218 492q-18 0 -31 -11t-16 -30q-2 -17 6.5 -27t25.5 -10q18 0 30.5 11t15.5 30q3 18 -6 27.5t-25 9.5z" />
    <glyph glyph-name="nine.numr" horiz-adv-x="352" 
d="M246 739q35 0 63 -11t46.5 -31t26 -48t1.5 -61q-5 -24 -15.5 -44t-27.5 -43l-158 -180h-139l125 143q-47 14 -70.5 51t-13.5 91q5 30 20 55t36.5 42t48.5 26.5t57 9.5zM223 548q11 0 18.5 4.5t13.5 10.5q12 12 15 32q4 19 -4 31.5t-25 12.5q-15 0 -28.5 -11.5
t-18.5 -35.5q-3 -17 4 -30.5t25 -13.5z" />
    <glyph glyph-name="periodcentered.cap" horiz-adv-x="269" 
d="M168 529q21 0 37.5 -8t28 -21.5t16 -31t1.5 -37.5q-7 -34 -33.5 -56.5t-58.5 -22.5q-21 0 -37.5 7.5t-27.5 21t-15.5 31.5t-0.5 38q5 33 31.5 56t58.5 23z" />
    <glyph glyph-name="exclamdown.cap" horiz-adv-x="324" 
d="M233 582q-21 0 -37.5 8t-27.5 21.5t-15.5 31t-1.5 37.5q6 34 32.5 56.5t58.5 22.5q42 0 65.5 -28.5t16.5 -69.5q-6 -33 -32.5 -56t-58.5 -23zM287 520l-83 -520h-170l99 520h154z" />
    <glyph glyph-name="questiondown.cap" horiz-adv-x="535" 
d="M336 582q-21 0 -37.5 8t-27.5 21.5t-15.5 31t-1.5 37.5q6 34 32.5 56.5t58.5 22.5q42 0 65.5 -28.5t16.5 -69.5q-6 -33 -32.5 -56t-58.5 -23zM233 -12q-60 0 -106 17t-74.5 47.5t-39.5 74t-1 97.5q10 59 43 96.5t76 67.5q20 14 37 26t30 24t22 26t12 32l4 24h154l-6 -36
q-8 -52 -41 -90.5t-75 -69.5q-37 -26 -65.5 -50t-35.5 -62q-8 -40 13 -64t62 -24q48 0 78 27.5t41 74.5l150 -14q-11 -52 -36 -93.5t-61 -70.5t-82 -44.5t-99 -15.5z" />
    <glyph glyph-name="braceleft.cap" horiz-adv-x="303" 
d="M347 649q-45 0 -66.5 -31t-25.5 -108q0 -27 -2.5 -50.5t-11.5 -42t-26.5 -30.5t-48.5 -15q26 -3 39 -16.5t16.5 -34.5t-1.5 -48t-14 -57q-12 -35 -16.5 -58t-0.5 -37t16 -19.5t35 -5.5h11l-21 -121h-2q-53 0 -95 15.5t-66 46t-27 76.5t20 108q11 26 18 43.5t6.5 28.5
t-11.5 15.5t-36 4.5h-13l21 119h3q25 0 39.5 6.5t22.5 20t10 34t1 49.5q-3 58 14 101t49 71.5t77 42t98 13.5h11l-21 -121h-2z" />
    <glyph glyph-name="braceright.cap" horiz-adv-x="303" 
d="M111 770q53 0 94.5 -15.5t65.5 -46t27.5 -77t-19.5 -107.5q-12 -26 -19 -43.5t-6 -28.5t12 -15.5t35 -4.5h14l-21 -119h-3q-25 0 -39.5 -6.5t-22.5 -20t-10 -34t-2 -49.5q3 -59 -13.5 -102t-48.5 -71t-77 -41.5t-98 -13.5h-11l21 121h2q45 0 66.5 31t25.5 108
q0 27 2.5 50.5t11.5 42t27 30.5t49 16q-26 3 -39 16t-16.5 34t1 48t13.5 57q12 35 16 58t0.5 37t-16 19.5t-34.5 5.5h-11l21 121h2z" />
    <glyph glyph-name="bracketleft.cap" horiz-adv-x="307" 
d="M265 649l-97 -553h87l-20 -121h-234l140 795h234l-22 -121h-88z" />
    <glyph glyph-name="bracketright.cap" horiz-adv-x="319" 
d="M-31 -25l21 121h88l98 553h-88l21 121h234l-140 -795h-234z" />
    <glyph glyph-name="parenleft.cap" horiz-adv-x="298" 
d="M359 729q-27 -36 -52.5 -77.5t-47.5 -88.5t-39.5 -99.5t-27.5 -110.5q-20 -112 -8.5 -202.5t40.5 -163.5l-126 -36q-18 38 -32.5 83.5t-22 98t-6.5 112.5t13 126q22 128 73 231t114 179z" />
    <glyph glyph-name="parenright.cap" horiz-adv-x="293" 
d="M230 773q18 -38 32 -83.5t21.5 -98t7 -112.5t-12.5 -126q-23 -128 -74 -231t-114 -179l-123 52q54 73 101 166t68 210q19 112 7 202.5t-41 163.5z" />
    <glyph glyph-name="emdash.cap" horiz-adv-x="798" 
d="M54 309l25 136h708l-25 -136h-708z" />
    <glyph glyph-name="endash.cap" horiz-adv-x="566" 
d="M52 309l24 136h476l-24 -136h-476z" />
    <glyph glyph-name="hyphen.cap" horiz-adv-x="406" 
d="M54 309l24 136h316l-24 -136h-316z" />
    <glyph glyph-name="guillemotleft.cap" horiz-adv-x="581" 
d="M195 375l84 -155l-117 -68l-128 238l199 233l112 -79zM466 375l84 -155l-117 -68l-128 238l199 233l112 -79z" />
    <glyph glyph-name="guillemotright.cap" horiz-adv-x="581" 
d="M119 152l-112 79l150 168l-85 156l118 68l128 -238zM390 152l-112 79l150 168l-85 156l118 68l127 -238z" />
    <glyph glyph-name="guilsinglleft.cap" horiz-adv-x="338" 
d="M210 379l106 -141l-113 -84l-169 236l236 230l96 -101z" />
    <glyph glyph-name="guilsinglright.cap" horiz-adv-x="338" 
d="M110 153l-96 101l156 140l-106 140l112 85l169 -236z" />
    <glyph glyph-name="emdash_guilsinglright" horiz-adv-x="885" 
d="M569 -3l-90 96l119 108h-563l21 120h579l-90 114l109 87l196 -262z" />
    <glyph glyph-name="endash_guilsinglright" horiz-adv-x="615" 
d="M299 -3l-90 96l119 108h-293l21 120h309l-90 114l109 87l196 -262z" />
    <glyph glyph-name="guilsinglleft_emdash" horiz-adv-x="885" 
d="M288 318h562l-21 -120h-579l88 -114l-107 -87l-196 263l280 262l93 -97z" />
    <glyph glyph-name="guilsinglleft_endash" horiz-adv-x="615" 
d="M288 318h292l-21 -120h-309l88 -114l-107 -87l-196 263l280 262l93 -97z" />
    <glyph glyph-name="at.cap" horiz-adv-x="794" 
d="M459 734q81 0 145 -28t106 -77.5t60 -117.5t7 -147q-14 -100 -61 -149.5t-119 -49.5q-73 0 -101 42q-24 -23 -52.5 -34t-66.5 -11q-45 0 -81 16t-60 45t-34 69.5t-3 90.5q6 46 24.5 83.5t46 63.5t63 40.5t75.5 14.5q48 0 77.5 -15.5t43.5 -35.5l9 36h105l-51 -292
q-6 -37 28 -37q28 0 53.5 33.5t36.5 108.5q9 62 -5.5 114.5t-47.5 90.5t-83 59t-112 21q-66 0 -124 -23t-103.5 -63.5t-75.5 -96t-39 -121.5q-10 -66 6.5 -118.5t51.5 -89t86.5 -56t112.5 -19.5q52 0 94.5 12.5t80.5 33.5l24 -67q-45 -24 -95 -35t-104 -11q-82 0 -147 27
t-108.5 76t-62 117t-6.5 149q11 76 47 140.5t90.5 111.5t123.5 73t145 26zM389 260q44 0 72 26.5t36 76.5l3 17q8 51 -14.5 78.5t-64.5 27.5q-43 0 -72 -27.5t-37 -81.5q-9 -55 13.5 -86t63.5 -31z" />
    <glyph glyph-name="acute.case" horiz-adv-x="346" 
d="M103 797l155 154h202l-221 -154h-136z" />
    <glyph glyph-name="breve.case" horiz-adv-x="391" 
d="M505 963q-8 -44 -26 -75t-44.5 -51t-60.5 -29.5t-72 -9.5q-43 0 -77.5 11t-57 32t-31.5 51.5t-1 70.5h117q-6 -34 10.5 -49t45.5 -15q32 0 53.5 19t26.5 45h117z" />
    <glyph glyph-name="caron.case" horiz-adv-x="392" 
d="M223 797l-89 160h119l49 -75l80 75h126l-145 -160h-140z" />
    <glyph glyph-name="circumflex.case" horiz-adv-x="392" 
d="M357 797l-48 75l-81 -75h-125l144 160h141l89 -160h-120z" />
    <glyph glyph-name="dieresis.case" horiz-adv-x="371" 
d="M201 959q38 0 60 -26t15 -62q-5 -30 -28 -50t-52 -20q-38 0 -59.5 25.5t-15.5 62.5q5 30 28 50t52 20zM394 959q38 0 59.5 -26t15.5 -62q-5 -30 -28.5 -50t-52.5 -20q-37 0 -59 25.5t-15 62.5q5 30 28 50t52 20z" />
    <glyph glyph-name="dotaccent.case" horiz-adv-x="195" 
d="M212 975q21 0 37.5 -7.5t28 -21t16 -31t1.5 -37.5q-6 -34 -33 -56t-59 -22q-20 0 -36.5 7.5t-27.5 20.5t-15.5 30.5t-1.5 37.5q6 34 32.5 56.5t57.5 22.5z" />
    <glyph glyph-name="grave.case" horiz-adv-x="346" 
d="M300 797l-167 154h196l101 -154h-130z" />
    <glyph glyph-name="hungarumlaut.case" horiz-adv-x="419" 
d="M103 800l91 169h141l-115 -169h-117zM305 800l91 169h141l-115 -169h-117z" />
    <glyph glyph-name="macron.case" horiz-adv-x="317" 
d="M107 817l19 111h301l-21 -111h-299z" />
    <glyph glyph-name="ring.case" horiz-adv-x="249" 
d="M247 1010q25 0 46.5 -9t35.5 -24.5t20 -37t1 -46.5q-7 -44 -41 -71t-77 -27q-54 0 -84.5 33t-22.5 83q8 45 43 72t79 27zM243 943q-17 0 -30 -10.5t-16 -27.5t7.5 -29.5t29.5 -12.5q17 0 29.5 10t15.5 27q3 18 -7 30.5t-29 12.5z" />
    <glyph glyph-name="tilde.case" horiz-adv-x="384" 
d="M238 961q26 0 41.5 -8.5t27 -18t22.5 -18t28 -8.5q26 0 40 12.5t18 32.5h79q0 -33 -10.5 -61.5t-29 -49t-42 -32t-48.5 -11.5q-26 0 -42 8.5t-27.5 18t-22.5 18t-27 8.5q-26 0 -40 -13.5t-18 -33.5h-79q0 33 10.5 61.5t29 49.5t42 33t48.5 12z" />
    <glyph glyph-name="anneau" horiz-adv-x="595" 
d="M367 761q60 0 109 -20.5t81.5 -56.5t46.5 -84.5t6 -104.5q-8 -53 -33.5 -98t-65 -78t-89.5 -51.5t-106 -18.5q-61 0 -110 20.5t-81.5 56.5t-47 85t-6.5 106q8 53 34 98t65.5 77.5t89.5 50.5t107 18zM369 711q-46 0 -87 -15t-73 -42t-53.5 -64t-27.5 -81q-6 -45 4.5 -83.5
t35 -66.5t62 -44t84.5 -16q45 0 85.5 15t73 42t53.5 64.5t27 82.5t-4.5 83t-35 66t-61.5 43.5t-83 15.5z" />
    <glyph glyph-name="_496" horiz-adv-x="600" 
 />
    </font>
</defs>
</svg>
